<svg xmlns="http://www.w3.org/2000/svg" viewBox="0 0 1153.1 1367.1"><path d="m72 616 6-10 5-2 1-1 10-18 3-2 3-1c1-4 4-5 6-6 4-1 8-1 11-3a58 58 0 0 1 11-4l10-1c2 0 2 2 1 3l-4 4a4 4 0 0 0-2 3c0 5-2 7-7 7a7 7 0 0 0-6 4l-3 9a12 12 0 0 1-5 7 33 33 0 0 0-6 5 3 3 0 0 0-1 2l2 5-1 5a19 19 0 0 0 0 2 23 23 0 0 1 2-3 32 32 0 0 1 4-2l3-2a67 67 0 0 1 13-9 30 30 0 0 1 8-2c9-2 18 0 28-1l-4 5c-6 6-9 13-13 19l-9 15-1 3c0 3-1 4-4 5l-5 2c0 2-3 2-3 4l-2 2c-3 0-1 1-1 2l1 1-1 2a14 14 0 0 0-2 0c-2 0-3-1-4 1l-4 5-1 9 2-1a12 12 0 0 0 1-2 18 18 0 0 1 12-5 7 7 0 0 0 4-1 7 7 0 0 1 5-1v1l1 1h8c2 0 4-1 5 2a2 2 0 0 0 2 1c2 0 3 0 4 2a2 2 0 0 0 1 1l6 1-2 2v6c-2 3-5 5-8 5-2 0-2 0-2 2a60 60 0 0 1-2 9l-3 4-4 4 14 2h11l13-1 11 1 9 2 9 3 12 5 10 6h2l-8-11c-4-6-8-12-10-20l-2-9v-6c0-9 4-17 10-23l4-4a48 48 0 0 1 13-10l1-1a4 4 0 0 0-1-1 69 69 0 0 1-17-4 68 68 0 0 0-8-2 14 14 0 0 1-9-5 38 38 0 0 0-8-8 49 49 0 0 1-6-5c-2-1-3-4-3-6v-8c0-4-1-5-5-8a28 28 0 0 1-5-5 6 6 0 0 1-1-5 70 70 0 0 0 0-7 18 18 0 0 1 6-13 88 88 0 0 1 7-6l1-5a34 34 0 0 0-2-5c-2-3-1-7 2-9l9-4 5-4v-3c-1-1-2-2 1-2v-1c0-5 3-6 7-8a33 33 0 0 0 10-8l3-4a58 58 0 0 1 6-4 4 4 0 0 1 2-1h11a57 57 0 0 1 9 3l11 3 11 7a24 24 0 0 0 3 3c1-2-1-3-2-4-6-7-12-14-15-22a46 46 0 0 1-4-13l-1-16-4-10-2-9v-1a3 3 0 0 1-1-4 26 26 0 0 1 2-5c2-3 3-7 7-8 4-5 11-7 16-11l3-3 7-7a29 29 0 0 1 13-8c5-1 9 0 12 3l6 5 1 1c-3 2 1 4 1 6l1 6 1 5 4 3 10 1c3 0 7 1 10 3a64 64 0 0 1 7 7l4 9 4 14c2-3 4-6 4-9 0-2 2-4 4-5l4-1h6a7 7 0 0 0 5-2l4-2c2-3 4-2 6-2l2 2v4c0 2 1 4 3 5 6 3 10 8 15 13 2-3 4-5 4-8 0-2 2-3 3-4a4 4 0 0 1 3-2 31 31 0 0 0 6-1c-1-2-3-3-3-5l1-6 2-11a22 22 0 0 1 5-11c2-3 5-5 9-5a1 1 0 0 0 1-1c1-3-1-8-5-9-3-1-7-3-11-2l-2-1a3 3 0 0 1 0-2l5-5v-2h-2l-10 5a21 21 0 0 1-9 1h-5c-3 0-4-1-4-4v-2h-4l-15-1a37 37 0 0 1-5-1l-5-3c-1-2-2-3 0-5l-1-1-10-1a28 28 0 0 1-5-1l-9-2a7 7 0 0 1-5-3 4 4 0 0 0-3-1c-5 0-12-2-17-5l-4-2c-1-3-2-3-4-4-5-1-8-4-12-7l-3-4a11 11 0 0 0-5-4c-5-3-8-7-11-13-3-7-7-13-13-17a32 32 0 0 0-5-3l-2-1-2-4 4-2a13 13 0 0 1 6-1c5 0 9-1 14 2a1 1 0 0 0 1 0v-1a2 2 0 0 1-1-3l3-2 9-5a21 21 0 0 1 7-2 31 31 0 0 1 10 0c7 1 15 3 21 6l10 4c1-3 0-5-2-7a2 2 0 0 1 1-3 33 33 0 0 1 3 0c3 0 4-1 8-3 2-1 4-3 7-2a31 31 0 0 0 5 0c5 0 11 2 17 4l14 7a30 30 0 0 0 5 3c3 1 6 0 8-3a17 17 0 0 1-2-2c-1 0-2-1-1-2l2-1a26 26 0 0 1 13 3h3c3-4 6-1 9 0l8 5h1l-1-1c0-3 0-3 3-5 4-3 9-2 13-1a31 31 0 0 1 14 6c4 3 8 6 11 11l10 15a23 23 0 0 0 15 10 31 31 0 0 1 6 2 3 3 0 0 0 3 0h5a1 1 0 0 0 0-1 2 2 0 0 0-1-1c-9 0-16-4-23-8a6 6 0 0 1-2-2l-3-6-3-6-3-8a11 11 0 0 0-4-6l-3-4-3-6a2 2 0 0 1-1-1l-8-15-7-11c-1-4-3-7-3-11-2-2-1-5-1-7 0-1 2-2 1-3a2 2 0 0 0-3 1l-5 7a81 81 0 0 0-4 7c-1 4-4 5-8 5a16 16 0 0 1-7-2 10 10 0 0 0-10 0l-12 7-14 5-9 2a67 67 0 0 1-9 2 7 7 0 0 1-7-4c-1-2-1-1-2 0l-14 2a15 15 0 0 1-6-1l-2-5a2 2 0 0 0-1-1h-5c-7 0-12-3-16-9-1-1-3-4-1-7v-2a7 7 0 0 0 0-3h-3c-1-2-4 0-6-2a23 23 0 0 1-5-9c-2-6-3-13-2-20a85 85 0 0 1 3-15l4-14a38 38 0 0 0 1-12c0-5 1-8 3-12 0-1 0-3 2-1 1 1 3-1 4 1l-1 3-1 7-1 6c0 4 1 9 3 13a57 57 0 0 0 9 14 63 63 0 0 0 7 9l13 10 21 12c4 2 9 4 14 4 3 2 6 0 8 0h1c3-3 8-2 11-4 3-1 6 0 8 2a50 50 0 0 1 8 5 20 20 0 0 0 4 3c4 2 6 1 9-1l6-6c4-4 9-7 16-7v-3l-2-4c-3-2-4-6-5-10l-4-11-6-3-12-3c-7-1-14-5-18-11a22 22 0 0 1-4-7 71 71 0 0 0-9-21l-6-10c-3-4-5-8-10-10l-4-4 8 1c3 1 6 0 9-2l12-1 1 1 2-1c0-2 0-5-3-6a13 13 0 0 1-3-2c-2-2-2-4 1-6a7 7 0 0 1 3-2l1-2c2-1 0-1 0-2-1-3-3-5-3-8a9 9 0 0 1-1-5c2-5 4-10 3-15 0-4 1-6 4-8l3-1c4-2 4-3 1-7l-7-7a11 11 0 0 1-1-4c-1-6 2-11 4-16a53 53 0 0 1 5-7c3-3 4-6 5-9 2-6 2-13-1-19l-2-5c-1-1-3-1-2-3h3a49 49 0 0 1 6 1 1 1 0 0 1 1 1c1 3 4 3 6 4l7 3 3 3a22 22 0 0 1 4 10 6 6 0 0 0 6 5l6 1c2 2 2 5 3 7l1 6 4 5a37 37 0 0 0 4 2c3 1 5 3 5 6v5c0 3 2 5 4 5 3 0 4 1 5 3l1 6v32c0 1 0 2 2 2a2 2 0 0 1 1 1c0 4 0 7-2 10l-1 5c-1 1-2 3 1 4v17l-1 4-2 4c-1 2 0 4 3 4 4 0 7 2 10 3l4 7 1 2a9 9 0 0 0 3 0 2 2 0 0 0 0-2l-3-5a8 8 0 0 1-1-4c0-3 1-5 4-5a14 14 0 0 0 6-2l-5-5a2 2 0 0 1 0-3 14 14 0 0 0 3-11v-7h5v-5c4 0 7 0 9 4l4 5c2 1 3 3 6 2 4-1 10 2 11 7a50 50 0 0 1 2 6c1 3 1 4 4 4 2 0 3 1 4 3l4 10c1 3 1 5 5 5l2 1c5 6 9 13 11 22 1 2 1 3 3 3s4 0 4 2c3 3 3 6 5 9a5 5 0 0 1 0 2v10c0 2 0 4 3 4 2 0 2 2 2 3a28 28 0 0 1 1 10v9c0 5 1 6 6 6h3a29 29 0 0 1-2 16l-4 8-3 4a2 2 0 0 0 1 2c2 0 2 0 1 2a29 29 0 0 1-5 5l-5 8-1 7a25 25 0 0 1-2 7l-8 13-5 7-8 6-9 5h-17c-1 4 1 8 1 12l2 3 5 5a2 2 0 0 0 3 0l5-4 14-12c5-4 11-8 18-8 5-2 9-1 14-1l5 1 4 1 2-1a51 51 0 0 0 3-10 92 92 0 0 1 4-15 45 45 0 0 1 7-10l13-16c2-3 5-4 9-4l3 1 1-3c3-6 6-11 11-15l8-6c6-2 8-2 13-1s10-1 14-4l3-2c3-1 3-3 4-5 1-3 1-3 4-3a2 2 0 0 1 1 1 38 38 0 0 1 1 6c0 2 3 2 2 5a13 13 0 0 1 2 10c-2 7-5 12-9 15a14 14 0 0 1-8 2 5 5 0 0 0-2 1c-2 1-2 2 0 3s3 3 3 5l-1 8-3 3-10 5a40 40 0 0 0-12 8l-11 13-3 8c-2 7-2 15-2 22a19 19 0 0 1-5 14 31 31 0 0 0-3 4 3 3 0 0 0-1 1h2c4-3 9-3 13-4h4a2 2 0 0 0 1 0l4-7 1-6c1-8 3-17 6-25 2-6 5-11 10-16 2-2 5-2 7-3a5 5 0 0 1 6 2c1 3 1 2 2 1l2-6c3-5 6-8 11-11a30 30 0 0 0 3-2c4-2 8-3 13-1 1 1 2 1 3-1 4-5 8-6 14-6h10l8 1h8a43 43 0 0 0 21-4 48 48 0 0 0 14-9c3-3 6-7 10-9a16 16 0 0 1 1-1 5 5 0 0 1 3-1l1 2 6 8a4 4 0 0 0 3 1 4 4 0 0 0 2-2 25 25 0 0 1 10-6c4-2 8-5 13-6l8-2 15-1 1-1a1 1 0 0 1 1 0v2a8 8 0 0 1-2 1 27 27 0 0 0-11 7c-1 2-3 3-3 6v4l5 4c3 2 4 4 3 8l-3 4c-1 0-3 2-3 4l-1 2a24 24 0 0 1-12 7 21 21 0 0 0-10 6 7 7 0 0 0-2 7l5 5 1 1v1a40 40 0 0 1-5 3c-5 2-9 4-10 10-1 1-2 4-5 4-5 6-12 4-19 3l-2-1c-1 0-2 0-2 2-2 3-3 5-1 8a8 8 0 0 1-1 8c-1 2-2 4-5 4l-3 3c-1 3-4 3-7 4a3 3 0 0 1-1 0c-8 0-15 2-23 4a13 13 0 0 1-3 1c-2 0-4 1-4 4a18 18 0 0 1-5 9 19 19 0 0 1-11 7 10 10 0 0 0-7 6l-10 15a21 21 0 0 0-5 8 60 60 0 0 0 0 7l12-11a48 48 0 0 1 5-4c3-2 6-1 9-1l4 3c7 6 11 13 14 21a26 26 0 0 0 1 2v3c-1 2 0 3 1 4a25 25 0 0 1-1 10v5l1 7 1 4c0 2-1 3 1 4l1 9v12c-1 8-2 15-5 22a35 35 0 0 1-4 7c-3 4-8 6-13 7-1 0-2 1-1 2l1 3v15l1 19 3 15v8l-1 7-3 9-3 7a147 147 0 0 1-10 14c-4 6-10 10-13 17-4 3-7 8-12 10v5a2 2 0 0 0 1 1l6 1 17 3c5 1 10 3 15 2 3 2 6 1 9 1l5 1 17-2a50 50 0 0 0 14-7l6-4c1-1 1-2-1-3l2-2a2 2 0 0 0 1-3 36 36 0 0 1-3-16v-2a28 28 0 0 1 6-18l3-6 5-8c2-2 5-3 5-6 8-6 14-12 23-15l2 1v4a38 38 0 0 0 3-2l10-9c4-2 8-2 12-2a3 3 0 0 1 2 3 7 7 0 0 0-1 3l4-3 8-5c5-4 11-5 17-7 3-1 7-1 10 2 1 2 2 1 4 0a29 29 0 0 1 6-4c4-2 9-1 13 0h8l2 1c1 2 3 1 4 1l5-2 5-1h7c3 0 6 0 8 3h2c5-1 10-2 14-1 2 0 4 1 5 3a3 3 0 0 0 3 2c3 0 7 1 10-1 2-1 5 1 8 1 2 1 4 2 5 5 4 5 9 7 15 7a25 25 0 0 1 8 1l7 1-6 4v3a4 4 0 0 1-2 6 26 26 0 0 0-3 4 7 7 0 0 1-6 2 20 20 0 0 0-4 0c-3 0-5 1-6 4-1 5-4 6-7 7a6 6 0 0 0-4 3l-1 1h2c3-3 7-3 10-4 5-2 11-5 16-4h4c1 2 2 0 3 0a11 11 0 0 0 3-1l1-1c4 0 9-2 14-1a10 10 0 0 1 2 1c3 1 6 2 9 0h2l4 1a15 15 0 0 1 10 3 8 8 0 0 0 5 2c7 0 12 3 17 6s9 8 16 9c3 2 6 1 9 1l4 1c1 2 2 3 0 5-6 4-12 8-19 8a16 16 0 0 0-2 0l1 1c3 3 2 3 0 7l-5 7c-1 3-4 4-7 6a64 64 0 0 1-18 7l-10 1c-4 0-8 2-12 1 1 3 3 5 6 5l1 2a55 55 0 0 1-5 4l-4 2-1 1c1 3-2 4-4 6l-8 4-8 2c-6 2-13 1-19 1l-4-1-4 1a28 28 0 0 0-6 3c-2 1-1 2 0 3l4 2c-3 4-7 5-12 5h-3l-2 1c-1 3-2 4-5 4s-7 1-10-1c-2-1-3 1-3 3 1 4 1 6-3 8s-9 5-14 4a17 17 0 0 0-4 0c-6 1-12-1-18-3a44 44 0 0 1-14-8c-5-5-11-7-18-6l-11 2c-2 3-6 2-10 2l2 1c2 2 4 2 6 1a18 18 0 0 1 7-2h13a11 11 0 0 1 8 3l3 2 3 1 10 10a28 28 0 0 0 3 2 65 65 0 0 1 15 9 76 76 0 0 0 12 8 109 109 0 0 1 11 8 33 33 0 0 1 11 14 1 1 0 0 0 1 1 1 1 0 0 0 1-1 27 27 0 0 0 2-8v-10a6 6 0 0 1 2-5l6-3a5 5 0 0 1 2 0c5 0 9-3 12-7 5-8 11-15 18-22l14-10c2-2 4-1 7 0a2 2 0 0 0 2-1c5-3 9-7 14-9 3-1 6 1 7 3h3l5-3c2-2 4 1 6-1l7 2a18 18 0 0 1 7 5 4 4 0 0 1 1 2l1 3c0 2 1 2 2 1 3-2 7-1 10-1l4 3a43 43 0 0 1 11 16 163 163 0 0 1 7 22l3 13a25 25 0 0 0 1 3c3 6 5 11 5 17a3 3 0 0 1-1 3c-3 2-4 1-5-1l-4-15-2-2c-4-7-7-9-13-13s-14-6-20-9l-11-2-12-2h-13a55 55 0 0 0-20 4l-5 4c-1 2-2 4-5 4l-1 1c-2 3-4 4-7 4h-7c-2-2-5 0-7-2-4-1-7 1-10 5l-4 10c-2 4-3 8-7 10l-2 1v3c1 2 1 3 4 3l4 2 8 9c3 3 6 4 9 5l6-2c6-1 13-4 19-3s12 2 16 7l2 1c6 7 13 12 21 17 5 4 11 7 18 8 1 2 3 1 5 1a1 1 0 0 1 1 1 1 1 0 0 1-1 1 8 8 0 0 1-3 1c-3 0-6 2-9 4l-4 4c-2 3-5 5-8 4-1 0-2 0-2 2 0 1 3 4 5 4a9 9 0 0 0 2 0l4 2c0 1 1 3-1 5-3 4-2 5 2 8 5 3 7 8 8 13a22 22 0 0 0 3 8l1 9c0 2-2 3-3 4-2 3-2 3 1 5l8 4c4 2 8 6 8 10l1 4a3 3 0 0 1 0 2c-2 3-1 6-1 9s-2 5-1 9l3 13 9 11h1c1 1 4 0 3 2a4 4 0 0 1-4 3l-3 1-4-1a111 111 0 0 0-11 0 10 10 0 0 1-8-3c-2-2-6-3-7-6-1-2-3-2-5-1a14 14 0 0 1-4 1c-3 0-6 0-7-3-2-2-4-3-5-6-2-2-4-3-7-3h-6c-2 0-4-1-5-3l-1-1-3-5c-1-2-4-1-6-1-4 1-6-3-8-6q-6-10-10-21a81 81 0 0 0-4-8l-2-1c-2 1-2 1-3-1a19 19 0 0 1-2-8l-1-7-1-2c-3 1-3-2-4-3a56 56 0 0 1-5-11l-1-8a4 4 0 0 0-1-3h-4a16 16 0 0 1-9 1 13 13 0 0 1-7-4 4 4 0 0 0-3-1l-2 1a5 5 0 0 0 1 2l5 3a6 6 0 0 1 0 10l-3 3 3 2a17 17 0 0 0 2 1c3 1 4 1 3 4v4c-1 3 1 6 3 8a5 5 0 0 1 1 1c2 3 1 4-2 5-1 0-2 1-1 2l1 2v1l-1 1a7 7 0 0 1-3 1 8 8 0 0 1-3-1 52 52 0 0 1-7-3c-2-1-5-2-7 0a8 8 0 0 1-8 2 21 21 0 0 1-6-3 54 54 0 0 1-5-6h-3a9 9 0 0 1-9-3 43 43 0 0 0-5-6c-2-1-4-3-7-1l-2-1c-6-3-12-6-16-11l-5-4h-1c-3 0-6 0-9-2-3-3-6-5-8-9a88 88 0 0 0-4-8h-3l-2-1a27 27 0 0 1-8-11 52 52 0 0 0-3-7c-2-3-2-3-6-2h-5c-3-4-5-9-5-14v-14l-1-1c-2 0-2 0-2-2 1-4 4-8 3-13l-1-4c-1-6-3-11-2-17l1-9a41 41 0 0 1 2-8l2-8c4-8 9-15 18-17l1-1c3-1 3-1 2-4a39 39 0 0 0-3-6l-8-5-12-7-8-6a55 55 0 0 0-13-10 49 49 0 0 0-14-5l-6-2-2 1c0 4-1 8-3 11-1 4 0 8 3 11a31 31 0 0 1 2 3c1 2 0 4-2 4s-3 1-3 3a53 53 0 0 1-2 8l-1 2c-1 3-1 5 2 7 6 2 7 7 9 12a85 85 0 0 1 2 12l1 17v18c0 4 0 5-4 6-2 0-2 1-2 2a46 46 0 0 1-4 6l-3 6a24 24 0 0 0 1 6v8l-1 6-1 8-1 5 1 5v2c0 6 3 10 4 16 2 4 4 8 4 13 0 2 2 5 1 6l-1 7a13 13 0 0 0-1 6l1 10v1a17 17 0 0 1-3 2l-2-1-1-4c1-4-2-7-4-10l-10-12-2-3a4 4 0 0 0-2-3c-3-1-4-4-5-6a14 14 0 0 1-3-7c0-2-3-4-5-4-5 0-8-4-10-8a20 20 0 0 1-3-12c0-3-1-4-4-5l-2-1c-2 0-3-1-3-3s-1-2-3-1v1c-2 0-4 2-5 1l-3-5v-11c2-7 1-13 1-19 0-1 1-3-2-3l-1-5c0-5-1-11 2-15a1 1 0 0 0 0-1v-5l-5 1-1 1-1-1a5 5 0 0 0 1-4c-1-6 2-12 3-17a65 65 0 0 1 7-15 172 172 0 0 1 9-15 21 21 0 0 0 4-9 30 30 0 0 1 8-16l7-7a11 11 0 0 0 2-2l2-5c-1-2-3-1-5-1l-14 1-6-1c-2 0-4 1-5-1h-1l-15-1-14-1c-2 0-2 0-1 2a9 9 0 0 1 1 6l-1 9a20 20 0 0 1-3 7l-12 10-9 3-10 2a23 23 0 0 0-16 9 59 59 0 0 0-8 14 198 198 0 0 0-7 21l-4 14c-1 3-2 19-1 22s2 7 5 9c4 4 5 7 3 14-1 5-2 8 0 13a46 46 0 0 1 3 19c0 2-1 4-3 5l-2 2-2 10a22 22 0 0 1-8 13h-5a8 8 0 0 1-3-2l-2-2a4 4 0 0 0-2 2l-3 9a14 14 0 0 1-7 9 9 9 0 0 1-5 1c-2 0-3 0-4 2a14 14 0 0 1-11 7l-4 1-1 1c-1 0-1 3-3 3a4 4 0 0 0-3 3 4 4 0 0 1-2 3 23 23 0 0 1-3 1l-1-4 3-8a32 32 0 0 0 2-4l-1-2a5 5 0 0 0-2 0c-4 0-6-2-6-6 0-3-1-6 1-9 0-4 1-9-1-13l-4-6c-2-2-2-4-1-6l2-5v-1l-1 1a19 19 0 0 0-3 1 3 3 0 0 1-4 1l1-5 2-3v-3l-6 2v3c2 3 2 3 2 8a4 4 0 0 0 2 4l2 3c3 2 4 5 3 8l-1 8c-1 8-4 11-11 12h-9a27 27 0 0 0-9 2l-2 1v9a49 49 0 0 1 1 7 25 25 0 0 0 1 5c1 2-1 5-1 8l-4 5c-4 4-8 9-9 15l-5 5a5 5 0 0 1-3 1c-4 0-7 4-9 7 1 3-1 4-2 5a6 6 0 0 1-10 2h-1l-4 15a31 31 0 0 1-6 10c-4 6-10 9-17 11h-2c-4 4-10 3-15 3l-7-2a101 101 0 0 0-12-4l-10-5a17 17 0 0 1-2-2v1c-5 7-11 12-19 15a13 13 0 0 1-6 2l-4 1c-4-1-8-1-11-4a30 30 0 0 1-9-12c-1-3 0-6-2-8 1-2-2-2-2-3l-8 1c-9 4-15 1-21-4-5-3-7-9-9-15a64 64 0 0 1-3-17c0-4-2-8-4-12a58 58 0 0 1-3-12 18 18 0 0 1 1-10c2-3 0-6-1-10a29 29 0 0 1-3-13l1-8v-4l-9-9a35 35 0 0 1-4-9 33 33 0 0 1-1-10c0-5-2-9-1-14-2-3-1-6-1-10v-10c0-4 2-6 4-9l4-9a5 5 0 0 0 0-2 9 9 0 0 1-2 1c-4 1-6 4-10 6-4 3-8 7-13 8l-4 2a12 12 0 0 1-5 2 6 6 0 0 0-4 4c-3 6-6 12-7 19a8 8 0 0 1-1 3c-2 2-2 6-3 9l-3 14a5 5 0 0 0 0 1l-1 9c0 2-1 5 1 7l-1 2a65 65 0 0 0 0 7c0 2-1 5 1 7l2 13 2 17a64 64 0 0 0 4 14 98 98 0 0 0 5 13 36 36 0 0 1 3 9l2 8 2 10 1 8 1 8 1 6 1 7 2 13a30 30 0 0 0 4 10 28 28 0 0 1 3 11l1 7a26 26 0 0 0 1 6l2 4 2 8a20 20 0 0 1 1 6l1 6c0 2 2 4 3 5l7 11a125 125 0 0 1 5 16l7 21a83 83 0 0 0 7 12l11 11 11 9 15 12a44 44 0 0 0 7 4c2 1 5 0 7 2h14l11 1 10 2a55 55 0 0 1 10 3 32 32 0 0 1 11 7l13 13a60 60 0 0 0 17 13l12 3 13 1 1 2c-4 6-8 12-15 16a44 44 0 0 1-17 6l-12 1a104 104 0 0 1-12-2l-12-3c-15-5-29-13-43-20l-20-13-16-10-12-8c-7-4-12-10-17-16s-11-13-14-20l-1-1v1l1 7a12 12 0 0 1 0 8v6c0 11 3 21 7 30l7 17 8 17 2 8v12l-4 10c-2 6-5 11-9 16l-10 15c-6 8-8 12-10 21-2 2-1 5-2 8s1 7 1 10l2 5c0 3-1 4-3 4a7 7 0 0 1-7-3l-2-7-1-4v-6l2-7 3-16a6 6 0 0 1 1-2c1-3 0-3-3-4l-1-1a33 33 0 0 1 2-12l-1-7c0-4-3-9-2-13l-1-4a13 13 0 0 1 2-8 12 12 0 0 0 1-3l-1-2c-2 0-2 0-2-2l2-7 2-11-1-2c-4-2-4-5-2-8l6-6a4 4 0 0 0 1-3v-6c-1-7 1-13 3-19a41 41 0 0 0 3-20 89 89 0 0 0-2-13l-3-13v-20l1-7v-7c2-4-1-9 0-14a5 5 0 0 0-1-2l-3-5a24 24 0 0 1-7 8c-2 2-4 3-4 7l-2 9v12a36 36 0 0 0 4 11 33 33 0 0 1 4 19c0 2-1 4-4 4-2 0-3 1-2 3a23 23 0 0 1 3 12v11a29 29 0 0 1-2 10c0 2 1 4-1 5 1 3-1 4-3 5l-6 7a6 6 0 0 1-3 3c-3 2-4 4-4 8l-2 14c-2 6-5 11-12 12a37 37 0 0 1-7 1l-1-2 2-3 4-12 2-11-1-2-2-3v-9l1-12c0-1 0-3-2-2s-2-2-3-3c0-4-1-8 1-12a12 12 0 0 0-1-8c0-2-2-2-2-2l-4 1a6 6 0 0 1-2-3c-2-7-5-14-4-22a21 21 0 0 0 0-4 22 22 0 0 0 0-2 9 9 0 0 1-2 1l-2-1a30 30 0 0 1-1-6c0-8 0-9 5-15 1-2 1-2-1-4a3 3 0 0 1 0-1 26 26 0 0 1 7-20 16 16 0 0 0 2-3 2 2 0 0 0 0-2c-3 0-2-2-1-3l9-19c2-4 4-7 4-12 2-3 0-6 0-9a38 38 0 0 1-14 15 4 4 0 0 1-4 0l-1-2-3 3c-5 4-10 6-16 8-7 2-14 2-22 2l-1-2c2-1 1-2-1-2a19 19 0 0 0-9-4h-7l-4-1h-4l-3-1c-2 2-5 0-6 1l-6 1a8 8 0 0 1-2-1l1-2 7-4c3-1 7-1 10-3l1-1c2-6 7-10 12-12a12 12 0 0 1 5-1c2 0 1-3 3-2 1-2 3-3 5-3l6-2 2-3a6 6 0 0 1 1-2c1-3 4-3 7-5 2 1 3-2 5-2l-1-2v-2l2-3-2-3c-2-3-3-5-3-8a74 74 0 0 0 0-7 44 44 0 0 0 0-6 40 40 0 0 0-1-5c-3 3-5 5-9 5l-1 1c-5-1-9 2-14 1a12 12 0 0 1-5-2c-3-1-3-4-4-5 0-2 1-2 2-3l4-1v-2c-1-3-3-6-2-10 0-2 1-4 4-5l3-3c-2 0-4-1-6 1h-14c-3 3-7 0-10 2-6 0-11-1-14-7l-6-8c-2-4-5-7-10-8l-1-1-10-1h-17a16 16 0 0 1-11-5 44 44 0 0 1-9-11l-7-14-5-15a35 35 0 0 1-1-7c0-2 1-3-1-4a3 3 0 0 1 0-3c2-2 1-4 1-6a24 24 0 0 1 2-11v-1h-1c-3 3-8 3-11 4h-3c-2-2-5 0-7-2-5-2-10-6-14-9l-15-9a51 51 0 0 1-14-12 15 15 0 0 1-4-10v-5c0-5 2-7 7-7 6 0 12-2 17-5 3-3 7-4 11-6a11 11 0 0 1-8-10l-1-6v-6c0-3 1-5 3-7l2-4 4-1a11 11 0 0 0 2 1l9 2c3 0 6 3 9 4 5 2 10 4 15 3a63 63 0 0 0 13-3l14-5h6c9-1 17 3 24 8a63 63 0 0 1 14 14 53 53 0 0 0 8 8 7 7 0 0 0 9-1 25 25 0 0 0 5-6 16 16 0 0 1 7-6c3-2 6-3 9-2l4 1c2-2 5-2 6-5l6-12 9-13 5-5 7-5c3-3 7-4 11-6v-1l-8-1c-5-1-9 1-13 2a37 37 0 0 0-15 8c-3 3-7 4-10 5-4 1-6-1-9-3l-1-1a9 9 0 0 0-3-1l-2 3a45 45 0 0 1-6 6 5 5 0 0 1-3 1 12 12 0 0 1-5-1 13 13 0 0 1-3-2c-6-6-13-8-20-8a26 26 0 0 1-3-1h-4l-7 1c-2 0-5-1-7 1l-7 1-9 1c-7 2-14 1-20 1s-14-2-20-5l-7-5c2-3 3-4 7-2l9 1h10c7 1 14-1 21-1l9-2 16-4c5-1 10-5 15-8l15-7a38 38 0 0 1 9-3l9 2c3 2 4 3 7 0l7-3a5 5 0 0 1 4-1 13 13 0 0 1 5 2c3 3 8 3 12 3a26 26 0 0 0 5-1c-7-4-13-7-21-9-1-2-4 0-5-2-3-1-15-2-18-1a13 13 0 0 1-6 1l-16-1c-1 0-2-1-3 1-2 4-7 7-12 7l-7 1c-2 0-1 2-2 3 0 4-3 5-6 6a12 12 0 0 0-5 3c-1 1 0 2-2 2a16 16 0 0 1-4 0c-4-2-5-5-6-9a70 70 0 0 1-1-8v-9c-1-4-2-8-6-10-2-1-3-3-1-4a20 20 0 0 1 3-2 32 32 0 0 0-4-3c-8-3-14-8-20-14l-4-7-2-7-1-10-1-9-4-8a58 58 0 0 1-6-16c-2-6 0-11 3-16a34 34 0 0 0 3-13 55 55 0 0 1 3-15 27 27 0 0 1 5-7l10-11a22 22 0 0 1 4-4c4-2 3-2 3-5l1-4c2-2 2-5 6-6l4-4 13-7 2-1c2-2 5-2 7-3h2a3 3 0 0 1 0 3 11 11 0 0 1-2 2 26 26 0 0 0-3 2c-1 3-1 4 2 4 2 0 0 1 0 2l-2 2a5 5 0 0 0-2 2l1 2 1 8a9 9 0 0 1-2 7 10 10 0 0 0-3 5l-5 7c-2 2-4 4-7 4-2 0-2 2-3 3v2a12 12 0 0 1-2 8l-9 14c-2 3-4 6-3 11a5 5 0 0 1 0-1 3 3 0 0 0-1 1 8 8 0 0 0 0 2l1-2Zm529-31-1-2v1a13 13 0 0 0 1 2l-1-3c0-1 1-2 1 4v3c2 2 1 5 1 8v3c2 5 0 9 1 14l-1 1-1-1a65 65 0 0 0-1-11l-1-12a63 63 0 0 0-3-11 6 6 0 0 1 0-2v-1a2 2 0 0 1 2 0 9 9 0 0 1 1 2 24 24 0 0 0 0-2l-1-1a7 7 0 0 1 0-2 6 6 0 0 0 2 1 2 2 0 0 0 1 0 1 1 0 0 0 0-1l-5-11v-2l2-2c0-2 1-4-1-7l-1-5-2-8-2-7c-1 3-2 5 1 7 1 1 1 3-1 4l-1 1c2 2 0 5 1 7l1 6-2 2a6 6 0 0 1-2 0c-3 0-5-1-5-4s0-3 4-4l1-1c0-2-1-4-3-4l-2-1a18 18 0 0 0-2 0 12 12 0 0 1 1 2v1c-1 2-3 5-1 7v1c0 4 0 3 4 4a3 3 0 0 1 2 2 3 3 0 0 1-1 3 9 9 0 0 1-6 2 6 6 0 0 1-5-3c2-1 4-3 2-7v-10l1-7 1-10v-2l-5 11a14 14 0 0 0-1 4l-2 9 1 5c2 2 1 3 0 5 0 2-1 1-2 1a9 9 0 0 1-3 0c-1 0-4-2-4-4s1-4 3-4 2-1 2-3v-4h-5a7 7 0 0 1-6-2c-1-1-2-2 0-3a18 18 0 0 1 2-2l5-3h-5c-2-1-2 0-3 1l-1 1-4 11c0 2-1 5 2 6a4 4 0 0 1 2 4c0 2-3 3-4 3l-6-2v1l-1 1c-3 8-6 16-6 25a7 7 0 0 1 0 2 1 1 0 0 1-1 1l-2-2c2-3 1-6 1-9l-1 3-2 5a31 31 0 0 0-1 7v6a1 1 0 0 1-1 1 2 2 0 0 1-1 0l-1-2c0-2-1-4 1-6v-4c-3 5-5 10-5 15l-2 1-1-2c2-2 0-5 2-7l1-3c-1-2-2 1-3 0h-3l-11-5a39 39 0 0 0-10-6l-7-2c-1-1-3 1-5-1l-1 1a26 26 0 0 0-4 3c-6 6-12 12-14 21a19 19 0 0 0 0 11l4 16 1 16a20 20 0 0 0 3 10l11 10a15 15 0 0 1 5 5 38 38 0 0 1 3 10c1 5 5 9 6 14a1 1 0 0 0 1 0c3 1 5 3 9 2a50 50 0 0 0 6-3c3-2 6-5 10-5l2-2a20 20 0 0 0 2-3 15 15 0 0 0 0-12c-2-4-2-9 3-14l10-12a61 61 0 0 0 12-21l4-11c1-1 2-2 3 0a9 9 0 0 1 2 4c0 3 0 7-2 11l-6 17a126 126 0 0 0-4 13 207 207 0 0 1-6 21c-1 3-2 7-1 10l3 15c0 1 1 2 3 1l6-1a2 2 0 0 0 2-3l-2-8c-2-3-3-7-1-11l3-8 2-16v-3a16 16 0 0 0 2 1l6 5c4 5 4 11 5 16l-1 9v12a9 9 0 0 0 0 3l5 14a2 2 0 0 0 2 1c3 1 6 2 10 0l6-4 5-4a66 66 0 0 1 13-6c7-3 12-7 18-13a32 32 0 0 0 5-7c2-4 4-14 4-17l-1-12-3-11c-1-8-5-14-6-21l-3-12-3-11a72 72 0 0 0-4-14l-1 2-4 3 2 4c2 7 5 13 6 20l3 10a2 2 0 0 1 0 1 3 3 0 0 1-2-1 2 2 0 0 1-1-1c0-6-3-11-4-17l-5-15-3-3c-1-1-2 0-2 1a15 15 0 0 0 1 2l4 17 3 11 3 9c0 2-1 1-1 1l-2-1c-2-7-5-13-5-19l-2-6-1-6-2-6-2-6-5-11 2 10 3 12 2 12v12l-1 1-1-1c0-4 1-9-1-13l-1-7-1-7-5-17c0 1-1 3 2 5ZM271 970l-1-2v1a13 13 0 0 0 1 2l-2-3h1v-4h-1l2 6Zm174-428h2l-1-1a10 10 0 0 0-2 0l-4-1v1h3a3 3 0 0 0 1 0l-1-1c-1 0-2 0 2 2Zm-319 86a37 37 0 0 0 4 0l1-2v1h5l6-1a30 30 0 0 0-11 1 37 37 0 0 0-4 0l-3 2 2-1h-1a13 13 0 0 0-2 1l3-1Zm408-117a5 5 0 0 0 5 0 11 11 0 0 0-5 1 18 18 0 0 0-3 0l-1 2v-1a7 7 0 0 1-1 0l-5 1v1c2 1 3-1 4-1a2 2 0 0 0 2-1 18 18 0 0 0 3 0l1-2Zm216-186v1h3a3 3 0 0 0 1 0l-1-1c-1 0-2 0 1 1l1 1a47 47 0 0 1 9 2v-1l-4-1a4 4 0 0 0-1 0v1l4 1-4-2-1-1a52 52 0 0 1-8-1ZM542 872h-1v6h1c0-2 0-4-2-6h1v-6h-1c0 2 0 4 2 6Zm-42-52h1l-2-2-1 1a7 7 0 0 0 3 1 5 5 0 0 0 1 1c1 1 1 3 3 2a31 31 0 0 0-3-3h-2Zm-46-268v-1h-6l1 1-8-2v1h7l-1-1c-2 0-4 0 7 2Zm-246 526h8c-3-1-5-1-8 1v-1h-4v1a7 7 0 0 0 4-1Zm3-203h-1a6 6 0 0 0 1 1l1 2-1 1a25 25 0 0 0 3 0v-1c0-1-2-3-3 2v-1l-3 1-1 1c1 1 2-1 3-1l1-5Zm117-269-3 4v2l2-1 2-8h-1v3a3 3 0 0 0 1 1v-1c0-1 0-2-1 0Zm108-75v-1h-3a3 3 0 0 0-1 0l1 1-3-1 2-1h-3a18 18 0 0 0-2-1l-2 1 1 1 10 1Zm33 47-1-1h-39c-3 0-4 1-4 4a2 2 0 0 0 1 1c4 0 8-1 11-3l14-3h6c2 0 5 2 7 1a7 7 0 0 0 1 0 5 5 0 0 0-1-1 34 34 0 0 0-8-2 30 30 0 0 0-10 1c-5 1-9 3 19 2l1 1 11 2c-1-3-3-2-4-2a24 24 0 0 0-4 1 17 17 0 0 0 3 1c2 0 3 0-3-2Zm-179 491a29 29 0 0 1-4 4c-2 2-3 5-7 6v1h1a10 10 0 0 0 2-1c5-2 6-6 9-14a29 29 0 0 0-1 3 4 4 0 0 0 0 1l2-3-2 3Zm494-725h1l-2-2-1 1h2c4 6 10 7 16 9l1-1-1-1a15 15 0 0 1-10-4 9 9 0 0 0-6-2ZM233 736h2l-1-1a10 10 0 0 0-2 0h-3a11 11 0 0 0 2 0h1a7 7 0 0 0-1-1h-3l-16-7-2-1 1 2 15 6 7 2Zm323-19h-1a9 9 0 0 0 0 3l4 7a13 13 0 0 0 1 2 7 7 0 0 0 0-2c-1-4-3-7 0 2a25 25 0 0 0 9 12 63 63 0 0 1 6 6s-1 2 1 2l1-2c0-2 0-3-2-4a6 6 0 0 1-3-1l-7-7-9-18Zm-235 98h-1v-3a4 4 0 0 0 0-1l-1 1-5 9-3 11 1 1h2l1-1-2-2c-1-1 0-2 1-2 2 0 3-1 1-2l1-2c3 0 1-1 1-2s-2-2 0-2 2-3 4-4v-9a25 25 0 0 0-1 3v1a22 22 0 0 0 2-2s-1-1-1 6Zm192-472h1a3 3 0 0 0-1-1 8 8 0 0 0-2 0c1 1 1 1 16-6 3 2 2 5 2 7l-1 1c-3 2-6 1-9-1h-5a11 11 0 0 1 3 1c4 3 12 7 16 14a4 4 0 0 0 4 2 2 2 0 0 0 1-3l-1-2c-3-3-6-7-5-11a39 39 0 0 0 0-5c0-2-1-3-2-3l-17 7Zm237-14h1a3 3 0 0 0-1-1 8 8 0 0 0-2 0l54 32v-2l-1-2-1-2h-1a11 11 0 0 1-2 0 28 28 0 0 1-4-1c-4-2-9-3-12-7-5-4-11-9-17-12-2-3-7-3-10-5h-3c0 2 2 1 3 1l11 7a70 70 0 0 1 12 11c3 4 6 8 10 10 4 3 7 5 12 5l3-1-52-33ZM243 569h2l-1-1a10 10 0 0 0-2 0h-4a17 17 0 0 0 3 0 8 8 0 0 0 1 0 10 10 0 0 0-1-1l-3-1-11-2a41 41 0 0 1-6-2c-5-1-8-5-11-8l-9-6a10 10 0 0 0-6-1 8 8 0 0 0-5 3l1 3a8 8 0 0 1 1 6c0 2 1 3 2 3l11 4 8 2c5 0 10 1 14-1 4-1 8 1 16 2Zm216-352-1-2v1a13 13 0 0 0 1 2l-2-3c1-2 2-5 0-7l-3-10c0-2-1-3-3-3-4 0-7-1-10-3-9-4-15-11-20-18-4-5-6-11-9-16a14 14 0 0 1-1-4c0-2-2-3-1-5s-1-3-1-5a10 10 0 0 1 1-4l-1-2-4-1-2-1-12 4 5 6 10 15a74 74 0 0 1 5 12l7 15a23 23 0 0 0 14 9l6 1 6 1c7 2 12 7 13 15l2 3Zm66 281h-6a2 2 0 0 1-3-1c-1-3 1-6 4-6h5a3 3 0 0 0-2-1c-4-1-8 1-13 1a2 2 0 0 0-2 2c0 2-1 2-2 3h-5c-3-1-4-3-4-5s2-2 3-3a2 2 0 0 1 3 0l3 1 6-1c5 0 9-1 14 1a8 8 0 0 0 5-1l-2-1a50 50 0 0 1-7-1 68 68 0 0 1-17-5l-18-10c-6-2-11-3-17-3a9 9 0 0 0-6 2l-2 2v1c2 5 6 7 10 10a14 14 0 0 1 3 3 15 15 0 0 1 3 11c-1 3 0 4 2 5l11 4a38 38 0 0 0 21-3l12-5h12a6 6 0 0 0 3 0c1-1 3-2 3 1a3 3 0 0 0 2 0 14 14 0 0 0 2-1l-8-5c-4-1-7-2-11 1a7 7 0 0 0-2 4Zm-407 87-12 10c-5 5-8 12-12 18 0 4-3 6-4 10l-5 10-7 13c-3 8-1 15 3 22s8 13 14 18l7 6c1 1 1 3 3 2l-1-4h-1c-5-9-7-19-7-30l1-8c1-3-1-5-1-8v-7a31 31 0 0 1 3-6c2-5 4-10 2-16-1-3 0-6 3-8l2-1a16 16 0 0 0 8-10l4-10-1-1c4 0 6-3 9-2a2 2 0 0 0 3-2v-4c-2-1-2 1-3 2a19 19 0 0 0-2 1 56 56 0 0 0-6 5Zm343-116 10-3a54 54 0 0 1 7 1c7 1 13 4 19 7a92 92 0 0 0 13 7 105 105 0 0 0 15 4c3 1 5 0 8 2a4 4 0 0 0 3 0c2-2 4 0 6-1a15 15 0 0 0-3-3c-1-1-2-3-5-1-1 1-3 0-4-2v-3l7 1a11 11 0 0 0 10 3l-12-8a106 106 0 0 0-22-10l-12-3-16-4-11-2-17-8c-4-4-8-9-10-15l-2-12-3 2c-3 2-5 5-4 8 2 7 2 7-1 12l-1 2c-1 2 1 5 3 5a25 25 0 0 0 6 1c4 0 7 1 10 3s4 4 5 6l1 11ZM234 909h1v-4h-1a4 4 0 0 0 2 4h-1v7a3 3 0 0 1-2 3l-1-11c-2 2 1 5-3 7-1-2 1-4-1-5v-5a3 3 0 0 0-1 2c0 2 0 2-3 2a3 3 0 0 0-2 2v8c2 2 0 4 0 6l-2 8c-1 2-4 4-3 8-2 1-1 3 0 5l2 5a41 41 0 0 1 4 5l8 13 3 13c0 2-1 5 1 8a2 2 0 0 1 0 2c-2 3-1 6-1 8l-1 6c1 2-2 4-1 6a55 55 0 0 1 5-4l4-5c2 0 2-2 2-4v-4c2-2 1-5 1-7l1-8 1-13 2-10 2-11c0-6 1-12-1-17v-6l-1-5-1-8a52 52 0 0 0-3-7 195 195 0 0 0-9-21c-3-6-7-12-12-16-3-3-8-5-12-6l-1 1 5 14 5 8c1 4 4 8 3 13 2-3 2-3 1-4l1-2 2-2c2-3 3-6 1-9l-2-4v-1a2 2 0 0 1 2-1l1 2 3 6a85 85 0 0 1 4 10l4 14 3 16v17l-1 1-1-1v-9l-1-13-1 3-2 6a1 1 0 0 1-2 0v-1c2-2 1-5 2-7l-1-4c0-1 0-3-2-4Zm766-126 2-4c1-3 2-7 4-9a16 16 0 0 1 13-7l12 3a6 6 0 0 0 7-3l-2-5-2-1-6-2c-2-1-3-2-3-5a7 7 0 0 1 4-6l7-3c6-3 13-4 19-5a53 53 0 0 1 14-1h15a32 32 0 0 1 6 1 96 96 0 0 1 21 7 107 107 0 0 1 15 8l12 9a11 11 0 0 0 0-3c-2-7-4-14-8-20-2-5-5-10-9-14-3-2-5-3-8-1a15 15 0 0 1-3 1c-4 1-6-1-6-4a11 11 0 0 0-1-3c-1-4-5-5-8-6s-7 1-10 2l-7 2c-1 0-2 0-2-2l-3-1a7 7 0 0 0-6 2l-5 7a8 8 0 0 1-5 4c-2 0-2 0-3-2l-2-2h-1l-11 8-13 14-7 10c-2 3-5 5-8 6l-7 1c-2 0-4 2-4 3a40 40 0 0 0-1 7v13l-5 4a2 2 0 0 0-1 2l1 1c3-2 5-4 5-6Zm-559-54-1-4c-4-1-7-4-13-3a55 55 0 0 1 14 7 3 3 0 0 0 0 1 2 2 0 0 1 1 3c-2 2 2 0 1 2a16 16 0 0 1-2 2 6 6 0 0 1-1 1c3 1 0 2 0 4 0 1 0 2-2 2-1 0-3 1-1 2l-1 2a3 3 0 0 0-2 1s-2 1 0 1v2c-1 0-2 0 0 1l1 1a2 2 0 0 1-3 1 28 28 0 0 1-5-2v-2l2-1h-1l-2-1 1-1v-1l-1-1 1-1v-1l1-2a9 9 0 0 0-2-1 5 5 0 0 0-1 0l1-1h7a23 23 0 0 0-6-2 12 12 0 0 1-2-1 1 1 0 0 1 0-1l2-1c1 2 3 1 5 1l-8-3c-1 0-3 1-3-1s2-1 3-1l2 1a22 22 0 0 0 3 0 4 4 0 0 0-2-1c-5-3-5-3-11-3l2-3a19 19 0 0 1-3 0l-1-1 1-1 12 2v-1c-3 0-5-2-7-1l-1 1c3 0 5 1 0-1-1-2-3 0-4-1l-2-1v-1l-5-1h-5c-5 1-9 3-14 3l-6 2 9 3 8 7 7 7 2 3a12 12 0 0 0 4 5 14 14 0 0 0 4 3c2 0 3 2 5 3v2c-2 2 0 3 1 2l7-1c2 0 2 1 3 2a20 20 0 0 1 2 3 8 8 0 0 0 4 5 12 12 0 0 1 3 1 5 5 0 0 0 6 1l5-1c2 0 3 2 5 0 3 3 6 0 9 0 2-2 4 0 6-2l5-3 4-2c2-1 3-2 3-4l1-7a1 1 0 0 0 0-1l-2-5c-4-5-10-7-16-9s-12-5-17-10c-4-3-8-6-17-6v1h3a3 3 0 0 0 1 0l-1-1c-1 0-2 0 1 1 1 2 4 2 5 3s2 2 1 3a3 3 0 0 1-3 2Zm135-252v-1h-3l-1-2c1-1 1-1-1-1l-5-1a1 1 0 0 0-1 0v1c1 1 1 3 2 1 2 1 4 1 5 3a16 16 0 0 0 1 3 1 1 0 0 0 1 1l1-2a14 14 0 0 0-3-2c2 0 3 0-16-20 1 2 2 5 5 4v1l3 2c2 1 1 2 0 3l-2 2 1 2c1 1 1 0 2-1l4-2v-1l-1-4-2-4a9 9 0 0 0-1-3c-2-3-5-5-9-4-2 0-3-1-3-2-1-2 1-5 3-5a26 26 0 0 1 6 0c3 0 4 2 2 5v1a11 11 0 0 1 2 3c2 3 6 6 6 10l4 6v1a2 2 0 0 0 1 3 16 16 0 0 1 4 5l-1-10c-1-4-2-10-4-12-1-2-2-2-3-2l-5-1-1-2a3 3 0 0 1 2-2 40 40 0 0 1 5-1l2-1a3 3 0 0 0-1-2l-5-2c-3-4-6-6-11-5v-5c4 1 8-1 12 1l1-1c-1-2-2-5 1-7v-1a98 98 0 0 1 4-13l1-5c2-2 0-4 2-6v-10a26 26 0 0 0-3-9c-4-7-12-8-18-6a132 132 0 0 1-16 3 24 24 0 0 1-10-1c-3-1-6-2-9-5a6 6 0 0 1-1-5 1 1 0 0 1 1-1h2c2 2 5 0 7 2 1 1 3-1 5-1l2-1a3 3 0 0 0-1-2l-4-3-8-1c-2 0-3 1-5-1l-9-2a109 109 0 0 0-15-1l-12 2a9 9 0 0 0-5 3 64 64 0 0 0-7 13c-2 2-1 5-1 7s2 2 3 2a27 27 0 0 1 3 4c2 1 1 4-1 4-3 0-5 2-8 1a5 5 0 0 0-5 2c-3 6-6 12-6 19 0 4 3 7 7 8a36 36 0 0 1 4 1c2 1 3 2 1 4l-4 6c-2 2-3 4-2 6a8 8 0 0 0 6 5 23 23 0 0 1 5 1c2 1 5-1 7 1l8 1 8 1 7 2 8 1-2-2-12-2-1-1a3 3 0 0 1 1-1 2 2 0 0 1 2-1c4 0 8-1 12 1h3a23 23 0 0 1-11-7 9 9 0 0 1-1-2 12 12 0 0 1 2-1 5 5 0 0 1 2 1l16 6 9 1a3 3 0 0 0 2-1 3 3 0 0 0-1-3 21 21 0 0 0-4-4l-18-7-7-2-8-2-12-1a1 1 0 0 1-1-1 1 1 0 0 1 1-1 18 18 0 0 1 12-1l9 4 8 3a153 153 0 0 1 22 9c6 3 11 8 15 14l3 2 5 2 1 1a5 5 0 0 1-1 1c-2 0-3 0 16 20Zm-240 34 1 2v-1a13 13 0 0 0-1-2l7-13a8 8 0 0 0-1 1 68 68 0 0 0 1 9v15l-2 2a2 2 0 0 1-2-1 32 32 0 0 1-1-6 37 37 0 0 1 0-4h-1v1c1 2-2 1-2 2a23 23 0 0 0-1 5c0 1 1 3-1 3l-2-2c-2-6-4-12-8-16-1-4-3-6-6-8l-2-1a22 22 0 0 0-1 3 3 3 0 0 0 0 1l6 13 2 8a34 34 0 0 1-1 4l-3-2a9 9 0 0 1-2-1v2c0 2-1 3-3 2a4 4 0 0 1-2-1c0-1-1-2-1 0 0 3-2 4-4 5l-3-1h-1c-3 0-4 1-3 3 1 1 2 2 1 3a3 3 0 0 1-4 0l-3-3-4-6a1 1 0 0 0-1-1c-2 0 0 1 0 1l3 6a22 22 0 0 0 6 7 43 43 0 0 0 8 5c4 2 7 4 10 8l3 3a13 13 0 0 1 1-3l-1-2-1-5c0-2 1-3 3-2l3 3c1 1 3-1 5-1l2 2 1-2a2 2 0 0 1 2 0 2 2 0 0 0 2 1c3-1 4-1 5 3v1l4-1a3 3 0 0 0 0-4c-1-1-3-2-3-4s2-2 3-3l4-1c1 0 2 1 2-1l2-6 1-21 1-14 1-5 1-6v-11a4 4 0 0 0-1-2h-1l-2 4a7 7 0 0 1-1 3 2 2 0 0 1-3 0 11 11 0 0 1-1-3v-8a13 13 0 0 0-4-9l-4-4c0-1-2-1-1-2l2 1 2 1c3 2 4 4 5 7a15 15 0 0 1 1 5l1 5v6a7 7 0 0 0 2-6 2 2 0 0 1 2-2c3 0 4 1 4 3-1 7 1 14-1 21l-1 13v1c-2 2-1 4-1 7l-1 6v9l-1 8a12 12 0 0 0-1 4 6 6 0 0 1-2 4c-3 3-4 6-4 9 0 2 1 2 2 2 2 2 1 0 1-1 4-3 6-7 8-11 3-6 4-13 5-20l1-8 3-11 3-12v-5a25 25 0 0 1-1-5l-5-13c-4-7-7-14-8-22a26 26 0 0 0-3-7c-4-7-9-10-16-11l-9-1-6-2a9 9 0 0 1-2-6 75 75 0 0 0-1-8c-1 5 0 9 1 13a68 68 0 0 0 6 16c4 6 9 12 11 19 2 2 0 4 2 6v2l1 6 1 6a3 3 0 0 1-2 4c-1-2 1-5-1-7-2-10-7-18-13-26a35 35 0 0 1-9-18 57 57 0 0 0-2-10c-2-6-7-10-11-14-2-1-4-3-7-3l-1-1-2-2-3 2-8 9a25 25 0 0 1-3 2l-17 11c-5 4-8 8-8 15 0 4 2 8 3 11 2 6 4 11 4 17v7l2 8 5 12 6 8 5 7 2 3a14 14 0 0 1 2 3c1 2 2 0 3 1a31 31 0 0 0 5 4l4 4 1 2 3 3c2-1 1-3 1-4a10 10 0 0 0 0-2 23 23 0 0 1 3 0 20 20 0 0 1 2 1c3 0 6-1 6-3s1-2 3-2l1 1 1-2a27 27 0 0 1 0-4l7 5-1-3c0-5-2-10-5-15a48 48 0 0 1-2-6c-1-3-1-4 2-4s5 1 6 3l1 2a90 90 0 0 1 10 18 46 46 0 0 0 1-6l2-1a27 27 0 0 0 0-3 6 6 0 0 1 1-2l1 1 2 4a76 76 0 0 0 1 8l1 1v-1a17 17 0 0 0 1-2c1-4-1-8-1-12l-1-5v-5a3 3 0 0 1 2-2l2 1a41 41 0 0 1 1 7c0 4-1 8 1 12l-1 1-1-1c1-5-1-10-1-16l-7 13ZM173 879l2-2 3 1c3 2 3 1 4-1a13 13 0 0 0 1-6v-3a8 8 0 0 0 0-6l-2-7-4-5c-3-3-6-6-11-5l-3 1-1-1c0-3-3-4-6-6l-5-1-6-1c-2-2-3 0-5 0a14 14 0 0 0-5 1l-11 5c-3 1-5 3-9 3l-5 3-6 3c-2 1-4 1-5 3l-6 3-15 11c-3 1-4 5-7 7l-2 10c0 7 0 14 2 22a74 74 0 0 0 4 13l7 12 5 9c4 6 9 8 15 8l3 1h5l5-1a90 90 0 0 1 11 1c6 0 10 3 14 8l6 10c4 5 8 7 14 6 2-2 5 0 7-1l7-1a78 78 0 0 0 11-1c7-1 9-2 12-8v-4c-2-5-4-11-4-17l1-11 1-10a9 9 0 0 1 0-2c2-5 3-10 3-16v-4c0-1 0-2 2-2l1-1 1-4v-19l-1-4c0-4-2-7-5-9l-1 6c1 6-1 12-2 18-1 3-1 6-3 8l-2 3c-1 5-3 9-3 14a9 9 0 0 1 0 2 2 2 0 0 1-3 2 14 14 0 0 1-5-11 41 41 0 0 1 0-5l1-6a25 25 0 0 1 2-10l-1-1c-2 2-4 0-6 0v-2Zm444-347h-1a21 21 0 0 1 1 4c1 6 4 11 7 17a1 1 0 0 0 1-1 22 22 0 0 1 2-1v-3a16 16 0 0 1-1-2c-2-6-6-10-1 7v5c4 5 7 10 12 14a5 5 0 0 0 1 1c2-2 3 0 4 0 3 0 3 1 3 3a12 12 0 0 1-2 3l10 7c3 1 3 4 5 6-1 4 2 7 1 11a4 4 0 0 0-1 2c0 4-1 7-3 11-2 6-4 12-3 19a7 7 0 0 1 0 2 10 10 0 0 0 2 8c4 3 4 7 4 12a8 8 0 0 1-1 4c-3 4-4 7-4 12a22 22 0 0 1 0 5 17 17 0 0 1-1 5c-2 3-2 3 0 5l2 3c1 1 3-1 4 1 0-2 3-2 4-4a13 13 0 0 0 1-9c-2-4-3-8-1-13l2-1 1 2v6l10 15c3-2 5-4 4-7a5 5 0 0 1 1-4l1-4a83 83 0 0 0-3-8l-1-6h2c3 1 4 3 5 5l2 6 4 12c0 2 2 1 2 1 5-4 10-6 13-10 3-3 3-3 0-6l-5-7-2-11a8 8 0 0 0 0-3 68 68 0 0 0-3-8 74 74 0 0 0-4-8 132 132 0 0 1-9-16 15 15 0 0 1-2-7l2-1 1 1c5 2 7 7 9 11 3 9 8 16 16 21a76 76 0 0 0 14 7h4l8-9a73 73 0 0 0 12-22 59 59 0 0 0 3-7 55 55 0 0 0 1-9c0-3-2-6-1-9-2-5-2-11-3-16v-15l-1-15c0-3 1-6-1-9 0-5-2-9-3-13a34 34 0 0 0-7-12c-1-2-4-3-6-4a25 25 0 0 0-7-2l-15-1-10-1c-2-2-4-1-6-1-6-3-10-2-17-1l-10 2-12 4a7 7 0 0 0 3 0 17 17 0 0 0 2-1c4-1 6 0 6 4l-2 3c-1 0-2 1-3-1a27 27 0 0 0-3-2 3 3 0 0 0-1-1h-5l-4-1a18 18 0 0 0-6 1c-3 0-5 2-8 1l-1 1 1 1h1c5 0 10 2 15 4l9 2a11 11 0 0 1 4 1c2 0 1 2 1 3s1 2-1 2l-2 1c-2-2-4 0-5-3l-4-3-7-3a20 20 0 0 0-12-2l16 9 18 13c3 2 6 5 10 4 3 0 5 3 5 5s-1 3-2 3c-4 0-5 1-7-4l-1-1c-2 0-1-3-3-3a40 40 0 0 1-5-4 45 45 0 0 0-4-3c-1-1-2-2-2 1l-2 2c-3 1-5 0-5-4 0-2-1-4-3-5l-15-6a1 1 0 0 0-1 0h-1a5 5 0 0 0 1 1 70 70 0 0 1 11 9c2 1 2 4 5 3l1 2c2 2 1 4-1 4a23 23 0 0 1-3 0c3 3 3 3 6 1v-1c2-2 5-1 6 1 1 3 1 5-2 7v1l6 9a4 4 0 0 0 2 1 20 20 0 0 0 3 0c3 0 5 2 5 4 0 4-2 6-5 7s-6 0-6-3a6 6 0 0 1 0-4 2 2 0 0 0 0-2 46 46 0 0 1-4-6l-13-13c0-1-1-2-2-1l1 2 3 4v4h-5c-2 1-1 3-2 4l-5 1c-1 0-3-1-12-23Zm280 186 6 2c2 0 4-2 6-1h1a24 24 0 0 1 12-1 28 28 0 0 1 10 5l8 6c6 4 13 5 20 6a35 35 0 0 0 10-1 9 9 0 0 0 5-3 2 2 0 0 0 0-3l-1-1c-2-4-1-6 3-7a6 6 0 0 1 1 0h9l5 1 1-1c0-3 2-3 3-3l9-1v-5a4 4 0 0 1 0-2c3 0 3-2 5-3 5-3 10-3 15-4 3-1 6 1 9 1l12-1c3 0 5-2 8-3a6 6 0 0 0 3-3 17 17 0 0 1 5-6l5-2-2-2c-3-2-3-5-3-8a2 2 0 0 1 2-2h8l8-1 12-2a27 27 0 0 0 9-3c4-3 8-5 10-11l1-1 3-3-3-3c-2-2-2-4 1-5l7-1c4 1 8-1 11-3a9 9 0 0 0 3-2l-1-2-2-1h-7c-6-2-13-4-17-9a26 26 0 0 0-3-2l-3-2a21 21 0 0 0-12-3 8 8 0 0 1-7-2 8 8 0 0 0-6-3l-9 1c-2 1-4 0-6-1-6-2-12-3-18 0l-2 2c-2 1-4 2-6 0l-3-1c-2 2-4 1-6 2a121 121 0 0 1-13 4l-8 2c-1 0-2 0-2-2 0-3-1-3-4-3-6 0-11 3-16 6l-9 5-2-1v-4l-1-1a2 2 0 0 0-1 0l-8 8a103 103 0 0 0-9 9c-2 2-4 0-6 2l-1-4v-8l-5 5-12 11a73 73 0 0 0-11 14c-3 4-6 8-7 14l-3 8-2 9c-1 8-2 7 2 14 2 2 0 5 1 7v1c-3 0-4 3-7 2a4 4 0 0 0-4 1l-14-1c-4-1-11-3-14-6a86 86 0 0 0-16-10 156 156 0 0 0-14-7l-17-6-10-4-2 1 1 2a18 18 0 0 0 5 1 95 95 0 0 1 22 7 42 42 0 0 1 14 10 40 40 0 0 0 8 7 113 113 0 0 0 14 8 14 14 0 0 1 7 6l2 5 1 1a12 12 0 0 0 2-2l-1-1c-2 0-2-2-2-4s1-3 3-4a7 7 0 0 1 4-1 7 7 0 0 0 6-3ZM471 835v6a9 9 0 0 1-5 4c-2 0-4 0-4-2l-2-6-3-6c-1-1-2-3-2 0h-1c-2 0-4 0-5-2l-2 1c2 2 0 2-1 4v5l3 1c1 1 2 4 1 5a11 11 0 0 1-3 2c-3 2-7 1-10 0-2-1-5-2-5-6a2 2 0 0 0-1-1 17 17 0 0 1-3 2c-2 0-3-1-3-2h-1l-2 3v4c3 2 2 2 0 5a14 14 0 0 1-3 1 14 14 0 0 0-1 1l1 1c2 0 2 0 2 2a4 4 0 0 1-1 3c-1 1-3 3-5 2l-2 2 3 1 1 1a25 25 0 0 1 0 6c-1 3 0 3 2 2s5 1 5 4a6 6 0 0 1-3 7 4 4 0 0 1-3 0c-2-1-3-2-2-5v-2a10 10 0 0 0-7-3c-2 0-3 1-2 3 2 4 2 9 5 12a42 42 0 0 1 4 5c3 5 7 8 12 12l17 17c2 5 5 9 4 15a84 84 0 0 0 0 9 7 7 0 0 1 0 2l-4 13c-4 12-7 25-14 36a2 2 0 0 0 1 2c3 5 8 6 12 8l14 4a15 15 0 0 0 4 1c7 1 12-2 18-4 9-5 14-10 17-21 1-3 3-7 3-11 2-2 1-3 0-4-4-2-5-6-6-10-1-5-3-9-6-12l-9-15a113 113 0 0 0-7-10l-3-9 1-2 1 2c1 2 1 6 4 8 5 2 5 6 7 9a47 47 0 0 0 6 11 33 33 0 0 0 8 8c7 4 8 6 11 15a33 33 0 0 0 3 5h2l3-6c1-5 5-6 9-7s7-3 7-6a13 13 0 0 1 2-6l6-7a17 17 0 0 0 5-9c1-4 0-8-1-12-2-4 0-9-1-13 2-2 1-4 1-5l1-6a6 6 0 0 0 0-2l-3-10-3-7v-7l-1-7a17 17 0 0 0-1-6l-3-9c-5-8-13-13-21-16a39 39 0 0 1-8-3 145 145 0 0 1-15-12c-5-4-11-5-17-6h-13c-2 0-3 0-4 2a9 9 0 0 1-7 3l6 6c4 4 7 8 9 13l2 1c1-3 3-2-29-2l-1-2-2 1a52 52 0 0 0-1 6h1c0-2 1-2 2-2s1-2 36-3Zm125 80c5-9 7-19 10-28a144 144 0 0 1 6-19c2-6 6-11 9-16l8-10 5-9 8-10a11 11 0 0 0 1-5l1-16c1-6-1-11 1-16l1-6 2-6 6-19c2-5 3-9 7-13a17 17 0 0 0 3-6l4-9c2-5 6-9 10-12 8-6 14-13 18-22a3 3 0 0 0 0-1l-1 1c-5 4-12 5-19 7l-7 1-7 1a51 51 0 0 0-8 2l-14 4a22 22 0 0 0-11 9l-10 16a23 23 0 0 1-5 5l-12 9a9 9 0 0 0-2 3c-1 1 0 2 1 2a38 38 0 0 1 5 0 6 6 0 0 1 4 3c1 1-1 4-2 5h-1a69 69 0 0 1-10 6c-3 2-5 5-4 8a5 5 0 0 1 0 4c0 2 0 4 2 5 2 0 2 4 0 5l-7 9-7 5c-1 2-1 2 1 3a23 23 0 0 1 3 1l2 2v6a74 74 0 0 1-6 10l-1 4a3 3 0 0 0 3 1 22 22 0 0 1 5 0 3 3 0 0 1 2 1l-1 2-10 12c-2 3-2 6-2 9a1 1 0 0 0 1 1c3 0 2 3 2 5s-1 2 2 2a21 21 0 0 1 3 0l1 1-3 4-1 4c-1 3-1 3 2 5 4 4 5 9 5 14-2 3-1 6-1 8a68 68 0 0 0 0 9c0 1 1 2 3 1h1c3-1 4 0 4 3v5Zm-193-55h-4c-2 0-2 1-2 2l-1 4v5c4 0 3 0 2 3a7 7 0 0 1-4 5c-3 1-6 0-7-2l-1-5c0-2 1-3 3-3a6 6 0 0 1 3 1l1-1a11 11 0 0 0 0-2l-1-1c-2 2-3 0-5 0l-2-1a2 2 0 0 1-2 1 13 13 0 0 1-3-2c-2-1-2 0-2 2a4 4 0 0 1-1 2 5 5 0 0 1-2 1 17 17 0 0 1-3 0h-2l-1-3a14 14 0 0 0-1-2h-2c-3 5-7 9-11 12a3 3 0 0 0-1 4c0 4-1 9 1 14-1 2 0 5 1 8l10 25c2 6 5 13 6 20 2 3 2 6 3 10l1 11v1c2 2 1 5 1 7l1 7 1 11a1 1 0 0 0 1 1l1 2a2 2 0 0 0-1 2c2 4 3 9 6 13a16 16 0 0 0 10 7 24 24 0 0 0 20-6c10-8 16-19 20-31l3-8 4-12 3-15c0-2 2-4 1-7a10 10 0 0 1-1-2 26 26 0 0 0-7-17 119 119 0 0 0-14-12 79 79 0 0 1-11-11 44 44 0 0 1-7-11 67 67 0 0 1-3-7l-1-6v-5Zm45-554a30 30 0 0 0-3 0c-4 0-7-1-9-3a46 46 0 0 0-4-3c-1 0-3-2-4 0s-3 1-4 1c-2-1-5-1-7-3-1-1-2 0-2 2l-2 3a22 22 0 0 1-5 1 29 29 0 0 1-10-1l-9-4-10-5c-4-2-6-3-10-3l-3-1a19 19 0 0 0-6 3c-3 2-6 2-10 2-2 0-2 0-2 2a9 9 0 0 1 2 6c0 2-1 3-4 3a11 11 0 0 1-6-1 67 67 0 0 0-11-5 103 103 0 0 0-12-3 27 27 0 0 0-19 2l-5 2a4 4 0 0 0-3 2l1 2a10 10 0 0 1 0 2c0 4-1 5-5 4l-1-1a71 71 0 0 1-8-3c-2-2-5-1-8-1l-1 2h1a119 119 0 0 1 15 6l27 14a31 31 0 0 0 12 3c8 1 16-1 23 1l6 1 6 2a74 74 0 0 1 14 5c11 6 21 12 33 15a150 150 0 0 0 20 3h8c5 1 10-1 15-1l16-4 25-9c6-2 12-4 18-3h1l-5-2c-5-2-10-4-14-8a37 37 0 0 1-6-9c-2-6-5-10-10-14a49 49 0 0 0-19-12 4 4 0 0 0-6 4v6Zm35-73a56 56 0 0 1 4 4 8 8 0 0 1 2 7c0 2-2 3-4 3a7 7 0 0 0-2 1 31 31 0 0 0-4 3c-2 3-2 4 0 6l4 5a9 9 0 0 1 3 3 10 10 0 0 1 0 4l-2 2-4 2 2 3c1 3 2 5 0 8-2 1-1 3 0 4a22 22 0 0 1 3 5 29 29 0 0 0 7 11c4 3 6 7 6 13 0 4 1 8 5 11a15 15 0 0 0 3 2c4 1 7 4 11 4h13l-1-9a51 51 0 0 1 1-13 106 106 0 0 1 5-19l6-15c4-9 5-16 5-22v-12c0-4 1-8-1-11 1-3-1-6-1-9l-2-8-7-26-5-19-9-24c-2-5-4-11-4-17a10 10 0 0 0 0-2h-2v3c0 4 1 7-2 11l1 3 2 4a6 6 0 0 1 1 3l-2 1-6 2c-3 1-3 2-1 4l1 3a47 47 0 0 1 3 4c1 3 0 5-3 5a16 16 0 0 1-4 0c-3-1-3 1-4 2v1c-1 3-1 5-4 5l-1 1-2 7a26 26 0 0 1 0 5 9 9 0 0 1-4 8c-2 1-4 0-6-1-1-1-2 0-2 2a9 9 0 0 0 2 6l3 6c1 1 2 2 0 3l-1 3a6 6 0 0 0 2 5l1 5c0 2-2 2-3 2l-3 2Zm428 574v1l-3 2v1l1 4 6 11c3 6 8 12 12 17l13 16c4 6 10 9 14 14l20 20a15 15 0 0 0 2 2 49 49 0 0 1 14 16 8 8 0 0 0 1 2h2a3 3 0 0 0 0-1 22 22 0 0 1-2-2c-1-4-3-7-3-11 0-2-1-3-3-4a17 17 0 0 1-3-1c-3-1-3-3-1-5l5-4a2 2 0 0 0 0-3 14 14 0 0 0-2-2l-6-4v-5a8 8 0 0 1 5-2c2 0 2-1 1-3a21 21 0 0 1 0-5l1-2 1-1c0-3 0-6-2-9-1-3-3-6-2-9 1-2 1-5 4-5a7 7 0 0 0 3-1l1-1a19 19 0 0 0-2-3 16 16 0 0 0-7-6c-3 0-3-2-3-4s-1-4-3-5l-2-1a6 6 0 0 1-2-5c0-2 2-2 2-3v-2l-5-2c-4-2-5-5-3-9a27 27 0 0 1 3-5c3-4 3-6-2-8l-8-4c-2-2-3-3-2-5 1-1 3-2 2-4a13 13 0 0 0-3-3l-1-1-2-4c2-3 1-3-2-5l-1-1-8-5c-3-3-6-3-9-4l-6-3-5-7c-2-5-6-6-10-6h-9a22 22 0 0 0-3 1c-4 0-6 3-10 5l-2 2 2 2 5 8 6 21 1 11 1 13 3 14c0 2 2 2 3 2h3ZM380 613h-1a13 13 0 0 1 0-3c1-3-1-5-4-7a8 8 0 0 0-2-1l-9-4-7-3-2 1c-1 2-2 3-1 5s2 2 0 3c0 1-1 2-3 2s-3 1-3 3a8 8 0 0 0 1 3c1 3-1 5-4 6-3 0-4 2-4 5a51 51 0 0 0 0 5l1 5a42 42 0 0 1 0 7l-1 6a43 43 0 0 1-2 11l-7 16-7 10a2 2 0 0 0 0 2h1a2 2 0 0 0 1 0 21 21 0 0 1 11-2 8 8 0 0 0 6-2 31 31 0 0 0 6-9 107 107 0 0 1 5-10l7-11 8-15 12-24a43 43 0 0 0 3-7l-1-3a1 1 0 0 1 0-1v-1l1 1a4 4 0 0 1 1 1 18 18 0 0 1-1 10l-7 13-7 13-5 9-5 11c-5 6-9 14-13 21a19 19 0 0 1-5 5h-4l-4 1-8 2c-4 0-5 2-6 4l-4 6c-2 3-2 5-1 7 2 2 2 5 2 7a15 15 0 0 0 9-6 27 27 0 0 1 4-5c3-4 8-4 12-1l7 4 2-1c2-1 3-2 3-4 0-4 2-7 6-9a14 14 0 0 1 8 0l14 4a5 5 0 0 0 5-1 15 15 0 0 1 7-2c6 0 10-4 11-9 0-1 0-3 2-3 2-2 4-1 5 0l3 1 3-1c3-6 7-12 7-19a8 8 0 0 1 1-5 10 10 0 0 1 3-2c3-2 3-1 2-4 0-3-2-4-3-5 0-1-2-2 0-3s1 1 1 2a10 10 0 0 1 4 9c0 2-1 3-3 3a4 4 0 0 0-3 4l-2 8-4 10c-1 2-3 5-6 5l-1 1v6l9-11c3-6 7-11 9-17l4-12v-1a36 36 0 0 1-6-11l-5-7c-2-6-7-10-11-14l-19-13a61 61 0 0 0-32-11h-2a20 20 0 0 0-4-1c-1 0-2 1-2 3l2 1 12 5a26 26 0 0 1 10 6 4 4 0 0 1 1 4 26 26 0 0 1-1 4Zm313-168h6a24 24 0 0 0 15-4c3-2 6-4 5-8-1-5 2-9 4-12l8-13a15 15 0 0 0 1-12c-2-7-8-11-15-12a32 32 0 0 1-8-1l-12-3-11-3-19-5a24 24 0 0 0-14 0c-4 2-9 4-13 8l-3 2a34 34 0 0 1-5 7 26 26 0 0 0-3 4 31 31 0 0 0-3 18 8 8 0 0 0 3 6 21 21 0 0 0 8 4 9 9 0 0 1 4 3 2 2 0 0 1-1 4 9 9 0 0 1-4 0 8 8 0 0 0-6 0c-5 1-5 2-3 6l1 1c1 3 2 6 1 9l-4 4-1 2-2 4 5 10h1c0-4 3-3 5-3 3 0 5 0 6 3 1 2 2 0 2 0a10 10 0 0 0 0-3l1-3a57 57 0 0 1 7 0 3 3 0 0 1 2 2 8 8 0 0 1 0 4 4 4 0 0 1-2 2 3 3 0 0 1-3 0 1 1 0 0 0-2 0 73 73 0 0 1-11 12 8 8 0 0 0-1 1 1 1 0 0 0 1 1l6-3c2-1 3-2 3-4a3 3 0 0 1 4-3 4 4 0 0 1 4 4h2l4-4c6-4 10-11 14-17 4-5 8-8 15-8h8ZM523 130a43 43 0 0 0 1 7 107 107 0 0 0 6 18 252 252 0 0 1 9 28l6 20 2 9 2 12a100 100 0 0 1 3 17c0 7 1 13-1 20 1 3-1 5-1 8a40 40 0 0 1-2 7l-8 21-4 11c-1 4 0 9-2 13 2 2 0 5 1 7s1 4 3 5l4 1a26 26 0 0 0 8-1 21 21 0 0 0 8-4c4-3 7-5 9-9a76 76 0 0 0 13-22l3-9c1-5 4-8 8-11-1-2-3-3-1-5l5-10c1-4 4-8 3-12 0-2 0-2-2-2-6-2-7-3-7-10v-14c0-3 0-5-3-6l-2-2c0-2-2-4-1-7v-6c0-4-2-6-3-9l-2-1c-4-1-6-3-7-7a36 36 0 0 0-5-12c-1-2-2-6-6-5l-1-1a18 18 0 0 1-6-8l-3-9a2 2 0 0 0-2-2c-3 0-4-1-5-3l-4-10c-1-3-1-3-5-3h-1c-4 0-7-2-10-4Zm338 694v7l2 9a2 2 0 0 0 3 1c6-2 7-2 10 4l2 3 3 6c3 6 1 6 8 9a8 8 0 0 1 5 5c1 3 2 6 5 8 0 2 3 2 4 3 1 3 4 2 6 2s4 0 6 1a49 49 0 0 1 4 5 16 16 0 0 0 2 3l7 4 6 1 5 1 6 4a54 54 0 0 1 5 6 4 4 0 0 0 5 1h3l3 2 7 6c2 3 3 3 5 1v-1a8 8 0 0 1 9-1 8 8 0 0 0 3 0 10 10 0 0 0-1-3l-7-7-13-13a119 119 0 0 1-15-16l-13-14-19-21a98 98 0 0 1-10-16l-4-10a92 92 0 0 1-7-23l-1-10-1-12v-4a27 27 0 0 0-1-4 66 66 0 0 0-5-13l-4-7c-1-2-4-2-5-2-4 2-9 4-12 7a31 31 0 0 0-6 11l-3 18a41 41 0 0 1 0 6 35 35 0 0 0 1 13c2 6 1 11 0 16v2c2 2 2 4 2 6v6Zm116-197 19-8 10-2a8 8 0 0 0 9-4c2-4 4-7 9-7l6-1c2 0 5-3 6-5v-1c-1-1-5-1-2-3l-1-1-5 1-4 1-6 1c-7 0-14 1-20-1l-17 1-18 5c-4 1-9 1-13 3-6-1-12 1-18 1l-9-1-13 1-8 1c-2 1-5 0-6 2l-15 5a103 103 0 0 0-17 9 268 268 0 0 0-25 18l-10 8-5 4-13 8-2 1-2 4c1 1 2-1 3-1l7-1 11 1 11 3 14 3c5 1 9 1 14-2l-3-3a3 3 0 0 1-1-1 6 6 0 0 1 6-7 24 24 0 0 1 10 1c5 2 9 5 15 2 4 0 7-2 11-3 3-1 4-2 4-5a32 32 0 0 1 0-4 3 3 0 0 1 1-2l6-1a5 5 0 0 0 5-1c2-3 5-4 9-4a4 4 0 0 0 2-1l6-6a10 10 0 0 1 7-6l2 1 2-1a7 7 0 0 1 2 0 2 2 0 0 1 1 1 4 4 0 0 1 0 3c-2 2-1 4-1 6l8-7c3-5 8-7 12-10 4-1 6 0 6 4a5 5 0 0 0 0 1Zm-113-37v-5l-3-2a38 38 0 0 0-10 7l-6 7c-1 1-3 2-5 1l-2-4-2-1a68 68 0 0 0-13 11l-3 4a39 39 0 0 0-7 9 54 54 0 0 1-4 6 30 30 0 0 0-5 14c-1 7 1 15 3 22l1 1 9-5 16-13a62 62 0 0 1 7-6l20-14a134 134 0 0 1 14-7l10-4c7-4 16-5 24-7 6 1 13-1 20-1h16a61 61 0 0 0 10-1l7-1c5-2 10-2 15-5a5 5 0 0 1 1 0l7-1a52 52 0 0 1 7 0c6 0 12-1 19 1h2c2-2 4-1 5-1h4a35 35 0 0 1 13-2l1-1-1-1h-2c-2 1-4 2-6-1l-4-1c-4-1-7-3-9-6l-6-5c-3 0-6-3-9 0h-10c-1 0-2 0-2-2a3 3 0 0 0-3-3h-9l-8 2c-1 0-2 0-2-2-1-2-3-2-5-2a37 37 0 0 0-14 3 15 15 0 0 1-8 1l-2-1c0-2-1-1-2-1l-5-1a17 17 0 0 0-6-1l-5 3a63 63 0 0 0-8 6l-5 1-1-1v-4l-3-1a25 25 0 0 0-13 3c-3 2-7 3-10 6l-3 2c-3 2-5 5-10 4Zm-510-19h1a6 6 0 0 1 0-2 3 3 0 0 1 5-1l3 9c-1 3-2 5 1 8a3 3 0 0 1 1 2c-1 2 2 3 3 3l9 2c8 2 15 6 22 10l4 2a6 6 0 0 1 2 1c3 0 8-3 8-6 0-4 2-7 3-11 0-2-1-4 1-6l1-5c1-2 0-4-1-6-2-3-1-6-1-9 2-3 0-5-2-7a45 45 0 0 1-11-14l-2-10a35 35 0 0 0 0-6 7 7 0 0 1 1-4v-3c-3-2-4-5-4-9v-15l2-8 5-13v-5c-2-3-5-7-9-8l-2-2a7 7 0 0 0-1-3l-3-2-7-1-10 3c-1 0-3 0-3 2l-1 1a19 19 0 0 1-2-1l1-1 8-4a21 21 0 0 1 9-2 7 7 0 0 1 4 1l11 7 8 7a1 1 0 0 0 1 0v-1a15 15 0 0 0-1-2l-11-8c-3-2-5-4-4-7a4 4 0 0 0 0-2 7 7 0 0 0-2-3l-2 1a16 16 0 0 0-5 3c-2 2-6 4-10 3a6 6 0 0 0-5 0c-2 1-4 2-4 5a25 25 0 0 1-3 7l-2 4c0 2 1 2 2 3a11 11 0 0 0 1 3c4 4 5 9 7 15a24 24 0 0 1 0 11l-4 11c-2 3-2 8-2 12-2 2-1 5-2 7l-1 7-3 12c-3 4-4 8-8 12l-2 3c1 2 2-2 4-1h3ZM214 692l5 3a5 5 0 0 0 2 1 19 19 0 0 0 5-1 34 34 0 0 0 21-17 29 29 0 0 1 3-5l3-2 6-1 10-3 4-2a11 11 0 0 0 5-2l3-1a4 4 0 0 1 3-1 25 25 0 0 0 3-1c5-1 9-4 13-7l4-4 5-5a124 124 0 0 1 14-16c1 0 2-2 3 0 1 1-1 1-2 1l-7 9-13 14-8 6c-3 1-6 4-9 4a13 13 0 0 0-8 4l-16 14-14 11c-4 3-9 5-12 9-4 4-8 7-13 9a3 3 0 0 0-2 0c0 1-2 1 0 2h1l7-3h4l3 1c1 3 4 2 5 1l5-1a2 2 0 0 1 2 2v3c0 4 2 5 5 5l8-2c7-3 13-8 17-15l3-4c1-2 2-1 4-1a30 30 0 0 0 5-1c5-1 10-4 14-6a18 18 0 0 1 7-3c2 0 3 1 3 2 0 2 1 5-1 7a5 5 0 0 0-1 2v1l1-1 1-1 10-16 11-19 2-6 2-12v-16a11 11 0 0 0-1-4h-1c-3 1-3 1-3 3v4l-2 8-2 7a59 59 0 0 1-6 13l-9 14c-3 5-5 10-10 13a15 15 0 0 1-3 2c-3 1-6 1-8 3-2 1-2-1-3-2l7-1c4-2 9-4 11-8l7-12 9-16a101 101 0 0 0 8-20v-7l-3-1v-1c-1-2-1-3-3-1s-3-1-4-1l-4-3v7c-2 1 0 1 0 3s0 2-2 2-4-1-4-3a26 26 0 0 1 0-4c0-2 0-2 3-2 1 1 2 0 1-1a14 14 0 0 1 0-3l1-1h-2l-1 2c1 2-1 2-3 2a7 7 0 0 1-4-2 4 4 0 0 0-3-1c-4 0-5-3-4-7v-1a82 82 0 0 1-10 9l-15 13a42 42 0 0 0-8 13 49 49 0 0 1-5 10c-3 4-3 4-6 5-2 1-5 2-8 0l-4-1c-4-1-6 0-8 5a7 7 0 0 1-6 5h-2c-2 0-5 3-5 5 2 2 0 5 2 7a2 2 0 0 1 0 3l-1 3a5 5 0 0 1-1 2c-2 3-4 5-8 4a23 23 0 0 0-3 0Zm120 207a27 27 0 0 1 3-9l5-5a63 63 0 0 0 8-6l7-7 2-2 10-16 5-8 4-8a40 40 0 0 0 4-16l-1-11c-2-2-1-4-1-5l-1-5v-2c2-1 1-2 1-4l1-3a4 4 0 0 0 0-4c-2-3-1-6-1-9a9 9 0 0 0-2-5l-2-3-3-6a16 16 0 0 1 1-9l3-5-1-1c-3 2-6 0-10 1a10 10 0 0 0-4 2c-2 1-5 3-6 6a39 39 0 0 1-9 11l-9 7a42 42 0 0 0-8 9 32 32 0 0 0-5 7l-3 8v2c2 0 2 1 2 2a9 9 0 0 0 0 3c3 9 8 16 14 23a15 15 0 0 0 6 4l1 1-2 1h-5a2 2 0 0 1-2 0l-2-2c-2 0 0 2-2 2l-5 1c-2 0-4 0-6 2a4 4 0 0 1-3 1c-2 0-1 1 0 1 1 2 0 3-2 2h-1v1a10 10 0 0 0 1 2v1l-2 1-2-3v5l1 7a82 82 0 0 0 1 9c1 6 3 11 7 16a96 96 0 0 1 7 8l6 8Zm219-376h-7c-4-2-8 1-12 0l-2 1a22 22 0 0 0-9 11 48 48 0 0 1-5 11c-4 6-11 10-19 5-4-2-6-5-6-10v-10a8 8 0 0 0-1-3c-1-5-5-7-9-8-3-1-6-3-7-5-2-2-2-5-2-8 0-4 2-9 1-14 0-4-2-8-6-10s-6-4-8-7a6 6 0 0 1-2-3l-1-9a37 37 0 0 0-1-7c-1-4-4-5-7-6l-9-1a16 16 0 0 1-6-3l-1-4 2-5a8 8 0 0 0 1-6l-2-5a3 3 0 0 1 0-3l4-4c2 0 3-1 4-3 2 0 1-1 1-2 0-2-2-1-2-1l-2 1c-3 1-4 3-6 5a17 17 0 0 0-4 10l-2 13c-1 3-1 3 2 5a8 8 0 0 1 1 2 11 11 0 0 1-2 1 15 15 0 0 1-2 1c-5 1-8 3-9 8a17 17 0 0 1-2 4v6c3 3 3 5 3 10a10 10 0 0 1-1 4l-1 6 3 1a11 11 0 0 1 3 1 61 61 0 0 1 6 7c3 5 8 8 13 10a89 89 0 0 1 39 32c3 5 6 10 7 16a29 29 0 0 1-2 16c-1 3 1 5 2 7s3 2 5 2a26 26 0 0 1 12 4l10 6c3 2 7 3 10 1s7-5 8-9a144 144 0 0 0 5-15l5-13 7-12c1-2 1-2-1-2-3 0-5-1-5-4l-1-3-3 2a2 2 0 0 0 0 1l-2 3 3 3v4a2 2 0 0 1-3 1h-4a5 5 0 0 1-4-3c0-2 0-3 2-4l2-2a20 20 0 0 1 8-10ZM93 842c-4 3-6 7-8 11l-4 10a3 3 0 0 0 0 1 2 2 0 0 0 1-1 5 5 0 0 0 1-1 27 27 0 0 1 7-13c2-3 6-5 7-9l4-3 1 2h1c1 0 1-3 2-1a14 14 0 0 0 3-2c1-1 2-2 2 0l1 1 4-5c1-1 2-2 2 0l1 1 3-2c0-2 3-2 4-2 1 1 3-2 3 2h1c1-2 3 0 4-2l3-2h4a25 25 0 0 1 3 1c0 1-2 2 0 2a9 9 0 0 1 5 2 12 12 0 0 0 2 1c1 0 4 0 0 1v1l7 2h1l-1-1a21 21 0 0 0-1-3l-4-3c-1-3-4-5-6-6l-15-7c-12-5-18-9-30-11-2-2-4-1-6-2h-6a15 15 0 0 0-6-1 74 74 0 0 0-10 1l-12 2a95 95 0 0 0-22 7l-18 10c-4 3-9 4-14 4-3 0-5 1-5 5a20 20 0 0 0 2 8c3 8 8 12 14 16l10 6 16 11c5 4 12 5 19 3l13-8a5 5 0 0 0 2-3 30 30 0 0 1 3-11l7-10c1-1 2-3 5-2Zm688-145-6 6c-5 5-7 10-8 16s-3 11-7 15a23 23 0 0 0-4 5l-10 21c-1 6-3 11-3 17h3c3 0 4 1 4 4a9 9 0 0 1-1 2c-1 5-3 10-2 15a43 43 0 0 0 1 5c3 1 3 4 3 6 0 5-2 9-1 14-2 8-1 10 1 16l2-3c3-2 5-1 6 2 1 4 1 4 5 6l2 1c3 0 3 2 3 3a20 20 0 0 0 1 10 24 24 0 0 0 6 9c2 2 5 2 7 3a5 5 0 0 1 4 4l2 4a8 8 0 0 0 0-1v-14l1-13 1-2c-1-3 2-5 0-8v-2a13 13 0 0 0 1-2c0-8 0-16-2-24l-4-13-4-15a128 128 0 0 1-4-16v-20c2-3 0-8 2-12l1-11v-1c2-2 0-5 1-6a15 15 0 0 0 1-7v-8a10 10 0 0 0-2-6ZM182 572h5l10 2 6 3 4 2a59 59 0 0 0 10 0 25 25 0 0 0 6-1l5-1 6-1 4 2 2 2a3 3 0 0 1-1 3 29 29 0 0 1-7 2 48 48 0 0 0-14 5c-4 3-9 6-14 5a27 27 0 0 0-4 0 25 25 0 0 1-17-5l-5-4c1 4 2 8 6 10a9 9 0 0 1 5 9 48 48 0 0 0 0 5 24 24 0 0 0 0 3l2 2 5 4 1-1a7 7 0 0 0 0-2c-2-4 0-6 4-5l1 1a101 101 0 0 0 11 2l5-1a37 37 0 0 0 12-3l12-6c4-2 8-2 12-2l6 3v5a3 3 0 0 1-2 3 18 18 0 0 0-2 1c-6 3-12 6-15 12a8 8 0 0 1-8 4h-5c-3 0-5 0-8 2l-5 1h-8a21 21 0 0 0 13 5 3 3 0 0 0 2 0c4-2 9-2 14-3a26 26 0 0 0 9-2 34 34 0 0 0 13-13l11-17a44 44 0 0 1 13-11c4-2 8-4 13-4a3 3 0 0 0 2 0v-10a27 27 0 0 1-1-5c0-3 1-3-2-3h-3c-3 2-6 1-9 1l-10-2-8-4c-4-1-7-3-9-5l-5-4c-3-4-6-9-10-12l-2-3a65 65 0 0 0-8-3 21 21 0 0 0-5-2 11 11 0 0 0-2 1c-5 1-9-1-14-3-1-1-1-1-2 1-2 3-4 6-8 6-2 2-6 2-8 5h8a21 21 0 0 1 7 3 47 47 0 0 1 8 6c4 5 10 7 16 8l7 2c5 0 8 3 13 3l3 1a1 1 0 0 1 0 1l-1 1h-7l-4-1a26 26 0 0 0-4-1h-13a6 6 0 0 0-3 0 12 12 0 0 1-8 1c-4-1-7-1-10-3a65 65 0 0 0-9-3l-2-1c-3 3-9 4-10 9Zm74 374h1l2-7 1-5a10 10 0 0 1-1-5c0-6-2-12-1-18v-1c-2-2 0-5-1-6-2-3-1-5-1-7l-1-7a11 11 0 0 1-1-5c1-10-1-20 2-30a3 3 0 0 0-1-2l-3-4c-3-5-7-7-10-9s-5-3-6-7l-3-10-1-1-3 1a5 5 0 0 1-3 1c-8 1-13 5-17 11a14 14 0 0 1-12 6h-1a2 2 0 0 1 0-2 12 12 0 0 1 2-1c3-4 6-8 7-13s5-8 10-10l13-9a14 14 0 0 0 5-5 18 18 0 0 1 2-4 27 27 0 0 0 7-14c1-6 3-10 8-13a16 16 0 0 1 12-3l6 2c2 0 4 1 6-1 3 0 5-3 7-4 3-1 6-3 8-6 1 0 0-3 2-3l3-6-1-2c-6 0-11 0-16 3a27 27 0 0 1-16 3h-4a42 42 0 0 0-7 2c-10 4-19 8-27 14a43 43 0 0 0-15 17l-10 17a3 3 0 0 0 0 1l-1 8c0 5-2 10-3 14l-4 7c-1 5 0 8 4 10a53 53 0 0 0 7 1 24 24 0 0 1 4 1 98 98 0 0 1 14 6 38 38 0 0 1 16 16c3 5 5 11 6 17 3 7 5 14 9 20a50 50 0 0 1 4 8 30 30 0 0 1 2 12v22ZM430 16l-1 10c0 2-7 16-9 17l-5 8c0 2-2 4-1 6l4 8a18 18 0 0 1 5 7c2 3 1 5-2 7l-2 1c-3 1-3 2-4 5a9 9 0 0 0-1 3l-1 9-1 6a5 5 0 0 0 1 5l3 7a2 2 0 0 1 1 2l-5 4c-3 1-3 4 0 5l4 3 1 4-1 7a19 19 0 0 0 0 9c2 8 6 16 10 23 2 5 6 9 11 13 3 2 6 5 10 6l4 2a15 15 0 0 0-2-4c-1-2 2-3 1-4-2-2 0-5-2-7l-4-18-1-7a22 22 0 0 1-1-6l-1-6 1-13 2-12 4-14a97 97 0 0 0 3-13 54 54 0 0 0 0-11c0-3 1-7-1-10 0-5-2-9-4-14a76 76 0 0 0-9-15 30 30 0 0 1-4-7l-1-10a10 10 0 0 0-2-6Zm591 810 6 7a113 113 0 0 0 10 12l7 10a98 98 0 0 1 14 22 87 87 0 0 1 5 19l2 12 5 15a59 59 0 0 0 10 16 66 66 0 0 0 11 11l13 8c5 2 8 5 10 10 1 3 1 3 4 5v-1c-4-8-3-16-3-24l1-5v-9l-2-4a19 19 0 0 0-9-6 28 28 0 0 1-5-3c-2-1-2-2-2-3-1-3 1-5 3-7a5 5 0 0 0 0-6l-5-15a13 13 0 0 0-6-8l-3-2a3 3 0 0 1-1-3 8 8 0 0 1 2-6c2-1 1-2-1-3l-4-1c-2 0-3 0-4-2a16 16 0 0 1-2-6c-1-4-2-8-5-10l-9-8-10-8a46 46 0 0 0-10-5l-9-3-7-1h-2l-4 2ZM764 460v-10a8 8 0 0 0-3-6 49 49 0 0 0-3-4c-6-4-11-4-17-1-5 3-8 7-10 12a13 13 0 0 1-12 7l-8-1-10-2-5 1-7 2c-6 1-11 4-17 7l-6 5a43 43 0 0 1-5 6 5 5 0 0 0-1 1 1 1 0 0 0 0 1h1l6-2a11 11 0 0 1 8 0 16 16 0 0 1 8 6 26 26 0 0 0 13 12l13 1h1l11-6c2-2 5-2 8-3l5 1 6 5a25 25 0 0 0 11 10l6 2c3 2 6 3 8 7l1 1a2 2 0 0 0 1-1v-5l1-4c1-6-1-12-1-18a3 3 0 0 0 0-1l-2-7c0-3-2-5-1-8a52 52 0 0 0 0-8ZM447 137l1 13 1 9 1 6 4 16c0 4 2 6 3 9l1 1a1 1 0 0 0 1-1c0-3 1-4 3-6l7-10 4-10a2 2 0 0 0-1-2c-2 0-1-2-1-3l4-6 5-5c2-1 3-4 3-6v-8a5 5 0 0 0-1-4 7 7 0 0 1-1-7l3-10c2-2 1-3 0-4a8 8 0 0 1-3-6V92c0-5-1-9 1-13a3 3 0 0 0 0-3l-1-5c0-3-2-5-4-5l-5-2c-1-3-2-5-1-7s0-3 0-4c0-3-2-2-3-3l-3-1a9 9 0 0 1-6-5 32 32 0 0 1-1-5 38 38 0 0 0-3-9h-1c-3 1-7 1-8-2a20 20 0 0 1-4-8 12 12 0 0 0-8-10h-2l1 1a24 24 0 0 0 2 4c2 1 2 2 2 4 2 2 1 5 1 7 0 4 1 7 4 10a76 76 0 0 1 7 11 91 91 0 0 1 5 14l3 15v10c-1 3 0 6-2 9l-5 21a90 90 0 0 0-3 14v7Zm568 692v2l1 4c0 2-2 4-1 6v1l-2 9 1 8c0 1 1 4 3 3l1 1-1 5-3 12a5 5 0 0 0 0 3 36 36 0 0 0 3 6c2 2 2 6 6 7l1 1a12 12 0 0 1 2 8 15 15 0 0 0 2 8c0 1 0 2 2 2s3 1 4 3l2 4c2 4 3 9 7 12a1 1 0 0 1 0 1c0 4 3 7 4 10 3 5 3 5 9 5a5 5 0 0 0 1 0l5 2 2 5c2 3 4 5 6 4a9 9 0 0 1 7 0 10 10 0 0 1 6 4l6 7h3a8 8 0 0 1 11 1 26 26 0 0 0 4 3l6 4c2 2 4 1 6 0l1-1a4 4 0 0 0-1 0 16 16 0 0 1-8-5c-3-2-3-5-5-8l-3-3-12-7c-5-2-8-5-12-9-3-2-5-5-7-9l-8-14-3-8-4-21a38 38 0 0 0-1-6c-3-7-5-15-10-22l-7-11-10-12a104 104 0 0 0-14-15Zm-552-46a38 38 0 0 0-4 4l-1 2c2 2 0 4 0 6-1 1-1 3-3 2l-3 1 6 2 5 1c2 1 3 0 4 2a4 4 0 0 1 5-1l3 3c0 2 1 2 3 2a28 28 0 0 0 6 2 61 61 0 0 1 18 8 68 68 0 0 1 13 11c5 4 10 7 16 8 3 1 7 2 8 5a13 13 0 0 0 1 3l5 8 3-3c2 0 4-1 5 1l5 1c2 2 4 0 6 2l3-1c2 0 3-2 4-4 2-1 2-3 1-5-2-3-3-5-3-8 0-4-2-7-5-8-7-2-13-4-20-4-3 0-3 0-4-3-1-4-3-9-7-12l-19-21-9-9a14 14 0 0 0-5-3c-5-2-11-5-15-10-2-3-2-3-5-1l-1 1-5 4a9 9 0 0 1-2 1 11 11 0 0 0 1 1c3 2 3 3 2 5a18 18 0 0 1-1 2c-1 2-4 2-5 0 0-1-2-2 0-4 1 0-1-2 1-3l-1-1-5 1a2 2 0 0 0 0 1c1 5-1 7-6 8l-1 1 1 1 5 1Zm218-102a28 28 0 0 0 0 4c0 1 0 2-2 3a22 22 0 0 1-10 5 74 74 0 0 1-17 1c-5 0-10 1-14 5h-1l-8 4c-1 1-1-2-2 0-3 3-7 4-10 5-5 3-10 4-14 8l-8 5-9 3-1 1-1 4c-1 2-3 4-1 7 0 5 1 10-4 14a9 9 0 0 0-3 7 19 19 0 0 1-2 7l-1 5 2 9c2 3 1 6-2 8a10 10 0 0 0-3 5 24 24 0 0 0 0 5 5 5 0 0 1-2 4h-5a10 10 0 0 1-3-1h-2a5 5 0 0 0-2 3l-2 6c0 2-2 1-2 2l-2-1a10 10 0 0 0-3-1c-4-2-5-2-6-6-2-5-4-10-10-12-3-1-4-4-4-7v-16a38 38 0 0 1-3 5c-2 1-1 3-1 5l-3 7a6 6 0 0 0 0 6 45 45 0 0 0 10 10l6 7c3 2 4 5 5 8l2 4 2 2c5-1 9 1 13 2 3 1 7 1 10 4l3 2 1 6c-1 3 1 6 3 8l7-8a2 2 0 0 0-1-3h-4l-2-2 1-6a67 67 0 0 0 6-10c1-2 0-4-2-5l-4-2a25 25 0 0 0-3-1 21 21 0 0 1 2-2 18 18 0 0 1 4-4c4-2 6-6 9-9a9 9 0 0 0 3-4l-2-3c-2-1-2-3-1-4a4 4 0 0 0 0-4c-1-5 0-7 4-10a72 72 0 0 1 9-5 5 5 0 0 0 3-3c0-1-3-3-5-3h-1c-4 0-5-2-3-5a12 12 0 0 1 1-3l7-5c7-4 9-6 14-14l8-12a23 23 0 0 1 11-9l10-4a139 139 0 0 1 20-5l13-2a33 33 0 0 0 11-4 22 22 0 0 0 8-9v-1h-1l-4 3-6 1-3-2-3-3ZM376 993v-2l-1-7c-1-2 1-6-1-8l-2-17-1-5-1-5-5-18-8-20a56 56 0 0 1-3-9l-2-9-1-9a6 6 0 0 0 0-2v-1a2 2 0 0 0-2 0l-7 6c-4 4-6 8-6 14a4 4 0 0 1 0 1 3 3 0 0 1-3 2l-1-2-4-6-1 6c-1 5 1 9 2 13 2 5 2 7 2 12l-1 5c-1 4 1 9 2 13a73 73 0 0 1 5 16 79 79 0 0 0 3 15 34 34 0 0 0 14 19 12 12 0 0 0 9 1l3-2 10-1Zm231-541 4-15 2-9v-7l1-2a8 8 0 0 0 2-5 69 69 0 0 1 3-14 73 73 0 0 1 9-18 72 72 0 0 0 9-19 11 11 0 0 0-2-9 42 42 0 0 0-5-7c-3-3-6-4-10-2-6 1-12 4-16 9a8 8 0 0 0-3 7 9 9 0 0 1 0 4l-6 9a28 28 0 0 0-7 9 32 32 0 0 0-2 7v10a17 17 0 0 0 4 8l4 4c2 1 0 4 2 5l-3 6a30 30 0 0 0-7 8c-2 2-3 5-2 7l2 7c2 2 3 5 6 4a1 1 0 0 1 1 0c2 1 3 2 3-1l1-1c3-3 5 0 7 0s2 3 3 5Zm299 263a38 38 0 0 1-3-3c-4-6-3-12-3-18 2-2 0-5 2-7l2-6c3-10 9-19 15-27a194 194 0 0 0 5-6h-1c-2 2-5 3-8 3l-1 2c2 3 0 4-2 5l-8 4a28 28 0 0 1-11 3 6 6 0 0 0-3 0 13 13 0 0 1-9 1l-10-4a1 1 0 0 0-2 0 1 1 0 0 0 0 2l4 5v3a9 9 0 0 1-3 1l-12 2a42 42 0 0 1-9 0 33 33 0 0 1-8-2l-8-2-13-2-10 1c-4 0-7 2-10 4-2 2-2 3 1 4 3 2 7 2 11 3l7 2 12 4 21 8a133 133 0 0 1 23 14 27 27 0 0 0 8 5l7 1 4 1h4l8-1ZM797 828l7-10c3-5 6-9 7-15a3 3 0 0 1 1-2c3-1 3-3 3-5 0-9 1-18-1-28l-1-8c-2-7-4-13-10-16a5 5 0 0 1-3-5 22 22 0 0 1 2-9l2-7a4 4 0 0 1 1-3 14 14 0 0 1 3-1l-2-3-1-2a11 11 0 0 1-2-7 16 16 0 0 1 2-5 17 17 0 0 0 2-10 7 7 0 0 0-4-6c-4-2-7-1-11 0-1 0-3-1-4 1 0 1 0 3-2 2a34 34 0 0 1 1 4v4l1 4-1 13-1 12-1 12v1c-2 3-1 5-1 7a43 43 0 0 0-1 8 104 104 0 0 0 1 13 94 94 0 0 0 2 13l8 25 3 15v8ZM375 267v4c0 3 1 4 4 3a37 37 0 0 1 9-3c5 0 10-2 14-4l15-7c6-4 12-4 19-1l1 1 4-3c3-4 4-10 8-14v-1a1 1 0 0 0-1 0 37 37 0 0 0-4 4c-4 3-8 5-13 5-4 0-8-2-11-5l-6-5-5-1-2 5a12 12 0 0 0 2 4l4 4c2 1 2 6 0 7l-8 2-6-1-6-1-11-2-21-9a59 59 0 0 1-15-10 114 114 0 0 1-16-17c-4-5-10-16-12-23a3 3 0 0 0 0-1l-1 1a9 9 0 0 0-1 2c0 2-2 4-1 6-2 2 0 5-1 6-2 3-1 5-1 7l1 12 1 6c1 2 3 5 6 6a43 43 0 0 0 5 1c2 0 3 1 3 3v4c-2 3-1 6 2 8 2 2 3 4 6 4l4 1 5 1h4l2 4c1 2 2 2 5 2 4 0 7-2 11-3a10 10 0 0 1 7-2Zm250 76v-1a19 19 0 0 0-2-1c-7-4-15-7-23-8h-12a19 19 0 0 0-7 2 54 54 0 0 0-19 12l-7 7a46 46 0 0 1-8 6l-8 3 3 3 1 2-3 3c-4 0-8 1-13-1l-1 1v2c3 3 6 5 10 5l18-2c2-2 4-1 6-1h10c6 2 10 6 11 12l2 4c1-1-1-3 1-4 1-7 5-11 9-16 4-4 6-8 6-13 0-3 1-5 3-7a35 35 0 0 1 4-2c5-4 10-7 16-6a23 23 0 0 0 3 0Zm-362 748-1 9-3 11-2 7-1 8-1 7a33 33 0 0 0 1 17l3 11c5 8 6 17 6 27l-1 18-1 10-1 1-2 15v8a8 8 0 0 1 0 3l-5 14v1l2-1c3-5 5-10 5-17a58 58 0 0 0 0-7c-1-3 1-4 3-5 4 0 5-3 7-5l4-5 3-4 2-11v-17a14 14 0 0 0 0-4l-2-6-3-7c-1-2-1-3 1-3a6 6 0 0 1 6 2l1 1 1-2-1-7-5-12c-4-8-5-14-2-23l1-8a33 33 0 0 0-6 7c-1 2-3 3-3 2a5 5 0 0 1-1-4 23 23 0 0 0 2-10l-1-4c0-6-4-11-6-17Zm-9 140a8 8 0 0 0 3-6 7 7 0 0 1 0-3c3-6 3-13 4-19a87 87 0 0 0 0-9v-9c0-3-2-6-1-9-2-2-1-4-2-6l-5-14a55 55 0 0 1-3-13v-9c2-2 0-6 2-8 1-9 6-17 6-27 2-1 0-4 1-6 2-2 1-4 1-6 1-5-2-11-1-16l2-5a4 4 0 0 0 1-2c0-5-1-9-4-12l-1-1v1a5 5 0 0 1 0 6 4 4 0 0 0 1 4v3l-1 5a20 20 0 0 1 0 2c-2 7-6 13-10 19-1 3-3 5-2 9 1 3-2 5-3 7-2 4-5 6-5 10-1 3-1 3 1 5a3 3 0 0 1 1 4l-4 9a14 14 0 0 0-3 7v6c0 1 0 2 2 1l2 1a15 15 0 0 1 1 4v11a13 13 0 0 0 1 5 68 68 0 0 1 3 9l1 1c4-1 6-1 7 2a19 19 0 0 1 1 5c0 3-2 7-1 10-3 3 0 5 0 7l2 1c3-1 3-1 3 2l-1 13c-1 4 1 7 1 11Zm54-75v7l8 16a147 147 0 0 0 13 17l6 6c5 5 11 9 18 12 8 4 16 10 23 15l13 8c13 6 25 14 39 19a138 138 0 0 0 17 5l7 1c6 2 13 1 19 0 7-2 14-7 19-13a7 7 0 0 0 1-2l-1-1a6 6 0 0 0-1 1c-7 3-14 6-22 5h-5a8 8 0 0 1-3 0 138 138 0 0 1-17-7l-36-18c-7-3-14-5-21-5l-5 1h-5c-4 1-7-2-10-4a147 147 0 0 1-14-12l-17-17-5-3c-2-5-6-8-9-11-6-7-10-15-10-24a7 7 0 0 0 0-2l-1-1-1 1v6Zm341-339-6 12-13 17-8 14-7 12-3 10a78 78 0 0 0-3 10c-2 7-3 14-7 20a4 4 0 0 0 0 2h2c4-2 6-6 9-8 3-3 4-4 7-2h1a13 13 0 0 0 4-7 16 16 0 0 1 3-7l6-7c1-2 4-1 6 0l4 4 2-3 4-16c1-3 0-6 3-8 2 0 2-1 2-2 0-5-1-10-3-14-2-6-2-12 0-17 1-4 0-5-1-8l-2-2ZM505 446a15 15 0 0 0 2 2 12 12 0 0 0 3 0c3 0 5 2 7 4l-1 2h-2c-2-2-5 0-7-2l-8-1-4-1h-4l-4-1a8 8 0 0 0-5-1l-13-2a7 7 0 0 1-6-5c-1-4 1-8 3-11l3-2c1-1 0-3-2-3l-6-2a6 6 0 0 1-4-5 30 30 0 0 1 5-21c2-3 5-6 9-5l4-1c2-1 3-1 1-2l-4-5c-1-2-3-3-2-5l3-9a9 9 0 0 0 1-3l-4 4c-6 6-11 14-15 22l-3 7-4 13v10l1 4c2 2-1 3 0 4a39 39 0 0 0 4 7c6 8 15 12 24 15l24 5 11 3 10 4 10 4a76 76 0 0 1 10 6c6 5 14 9 19 15h2l-1-1c-5-6-11-10-18-14l-1-2v-1c-1-2-1-5-5-5l-1-1a2 2 0 0 1 0-2c1-1 7-4 9-3 3 2 6 1 10 1l-1-3c-1 0-1-3-3-2a24 24 0 0 1-2-4v-2l-9-10-2 1a3 3 0 0 1-2 3l-4 1-5-1c-6-2-12-3-17-6h-1l1 1c2 3 5 4 9 5a39 39 0 0 1 9 4 39 39 0 0 1 5 5 1 1 0 0 1 0 1h-1c-2-1-3-3-5-3l-6-2a38 38 0 0 0-7-2c-3-1-7-3-10-2Zm147 246c-3-1-3-3-4-4a7 7 0 0 1 1-6c2-4 2-4 2-9a22 22 0 0 1 4-14v-1a8 8 0 0 0 1-4c0-3-1-5-3-7a23 23 0 0 1-4-13l1-7a73 73 0 0 1 2-7c2-8 5-15 4-23a13 13 0 0 0-6-11 38 38 0 0 1-4-3 8 8 0 0 0-7-2c-2 0-4 0-4-3l-1-1c-3-1-3-1-3 1-1 4-5 7-9 6l-1-1a4 4 0 0 0 0 2 38 38 0 0 1 3 4 85 85 0 0 1 7 23l2 11 5 17c3 6 5 13 6 19 0 7 1 13-1 20a46 46 0 0 1-9 18l-2 2c2 1 2-1 3-1l4-3a23 23 0 0 1 13-3Zm-6-203c3 1 5-1 8-1l2-1 5-2a9 9 0 0 0 4-3 2 2 0 0 1 0-1c4-1 9 2 9 6 0 2-3 5-4 4a12 12 0 0 1-5-2 3 3 0 0 0-3 0 77 77 0 0 1-8 2h-1l1 1c2 1 3 3 2 5s-3 2-5 1c-3-1-7-2-9-1-3 2-5 1-8 1h-12a6 6 0 0 0-3 0 2 2 0 0 0-1 3c1 2 1 0 2 0h13a33 33 0 0 1 9 3 11 11 0 0 0 8-1h2l11-3 15-3h2c2 2 4 1 5 1l8 1 16 3 13 1 12 4a33 33 0 0 1 11 19l2 11 1 1c3-1 5-1 7-3 5-4 8-10 10-16a6 6 0 0 0-1-4c-2-4-5-9-10-10a39 39 0 0 1-6-2c-3-2-6-3-8-6l-6-7a6 6 0 0 0-7-2 106 106 0 0 0-10 5c-3 3-7 4-11 4a27 27 0 0 1-6-1c-6-1-12-3-16-8l-3-5c-3-4-6-7-11-6-4 0-7 2-10 4l-14 8ZM307 704v-1a4 4 0 0 1 1-2 3 3 0 0 0 1-4c0-2 0-2 2-2l1 1 2-6-2-1-3 1a41 41 0 0 1-6 3c-4 3-9 5-14 5-4 0-7 1-9 5-2 6-7 10-13 14a54 54 0 0 1-6 3l-6 1-5-2-2-4c0-1 1-3-1-5l-5 2c-2 1-3 1-5-1-3-3-6-3-9 0a15 15 0 0 1-4 2v1a58 58 0 0 0 10 14 19 19 0 0 0 6 5l8 3 6 1c2 2 4 0 6 0a52 52 0 0 0 15-5c8-4 17-7 23-13 4-2 5-7 9-9a13 13 0 0 0 3-5s2-1 0-2-1 0-2 0a4 4 0 0 0-1 1Zm4-153-11-7a37 37 0 0 1-15-14 70 70 0 0 0-12-13 20 20 0 0 0-8-5l-10-3-11-4a14 14 0 0 0-12 3c-4 2-6 5-9 8l-1 2a4 4 0 0 0-3 2h3c10 4 10 4 19 4a27 27 0 0 1 5 0l6 2a27 27 0 0 1 6 6l7 10c6 6 12 13 20 16l7 2c2 1 3 0 4-2 0-1 0-2 2-2a3 3 0 0 0 3-3c0-3 2-4 5-2h5Zm-5 663c-1 6 1 11 2 16 2 5 3 11 3 17a19 19 0 0 1-3 10 42 42 0 0 0-3 6c-4 8-5 17-6 26l-1 12v1l-2 10 1 2v1a2 2 0 0 0 0 3c2 1 1 2 0 3a4 4 0 0 0-1 1l-2 10-2 11-1 11 3 7 1 1v-1a6 6 0 0 0 0-2 24 24 0 0 1-2-8l2-11a52 52 0 0 1 5-14 142 142 0 0 1 12-17c5-6 9-12 12-19a57 57 0 0 0 4-14c1-9-1-16-5-24l-7-14a114 114 0 0 1-10-24Zm512-942-8 6c-8 8-18 12-30 13h-2c-3 2-6 1-9 1a26 26 0 0 0-6-1l-7-1a81 81 0 0 0-10 0 9 9 0 0 0-7 4l-6 7a11 11 0 0 0-2 2c-3 6-6 12-5 19a10 10 0 0 0 1 4 10 10 0 0 1 2 8l11-7c6-4 13-6 20-8a11 11 0 0 0 6-4 60 60 0 0 1 7-9c5-4 10-6 16-8a67 67 0 0 0 15-7l11-11c2-2 4-4 3-8ZM418 587h1v-2l1-2c2-1 2-3 2-5v-3a8 8 0 0 1 2-6l5-7c1-2 3-4 2-5s-1-2 0-4c3-5 3-5-1-10l-1-1-6-6a2 2 0 0 1-1-1c0-4 0-8 2-12 3-3 2-5 1-8a29 29 0 0 0-2-6 24 24 0 0 1-3-12 6 6 0 0 0-5-5 15 15 0 0 1-3-1c-1 0-2 0-2-2l-1-3v-12c0-2-2-3 0-5l-1-2a12 12 0 0 0-2-2 4 4 0 0 0-1-1v2c2 1 2 3 2 5l-2 8-4 8-2 10a34 34 0 0 0 0 12c1 2 1 6 3 8 3 2 2 4 1 6a15 15 0 0 0 0 11c2 5 5 12 8 15l6 6a4 4 0 0 1 1 2v11l2 7v3l-2 9Zm-128 469v-3a14 14 0 0 1-1-6l-1-1-2-1a69 69 0 0 1-3-8c0-2 1-5-1-7l-1-7-1-6-1-6-1-6a100 100 0 0 0-4-14l-6-14-3-9c-1-6-3-11-3-17l-1-1a1 1 0 0 0-1 1l-1 6-4 11-2 12c-2 2-1 4-1 6l-1 7 1 6 1 5v1c-2 2-1 3 0 5 1 6 4 10 7 15 3 6 8 9 13 13l8 7a8 8 0 0 1 2 2l7 9ZM105 700l-7-6-11-11c-5-5-9-10-11-16l-2-8v-8a18 18 0 0 1 2-8l12-25a97 97 0 0 1 5-11 61 61 0 0 1 7-10l17-15 4-3 13-9-8 1-17 7c-3 1-6 4-7 7 0 1-1 2-3 2-2-1-3 1-4 3a9 9 0 0 0-2 3c-1 5-5 8-6 13l-4 2c-2 0-3 1-3 2a31 31 0 0 0-4 6l-4 11c-1 3-1 3-4 3a22 22 0 0 0-2 1c1 1-2 2-1 4 2 3 1 5 1 8l-3 2a4 4 0 0 0 0 2l-3 9a30 30 0 0 0 5 19 52 52 0 0 0 18 16c6 4 13 6 19 9h3Zm-77 94 2 12a9 9 0 0 0 5 5c2 1 4 1 7-1l8-3c5-2 11-4 17-4 2-2 5-1 8-1l7-1 6 1a61 61 0 0 1 11 1l11 3 21 8 7 3a10 10 0 0 0 3 1l-1-2-4-7c-1-3-3-6-6-8-5-4-10-8-16-10-5-1-10-3-16-3l-12 2-11 3-15 2a19 19 0 0 1-10-3l-13-8c-4-2-5-1-7 2a15 15 0 0 0-2 8Zm600-481a49 49 0 0 0 0 7 56 56 0 0 0 2 7 27 27 0 0 0 1 3l1-1c0-3 3-5 4-8 3-7 9-13 13-20l6-7 7-8c3 0 4-3 6-4a59 59 0 0 0 5-4l13-9a14 14 0 0 0 2-2l4-5a25 25 0 0 0 5-6 28 28 0 0 0 3-5l-1-2h-1a2 2 0 0 0-1 1c-4 6-10 5-17 5-3-3-5 0-8 1a27 27 0 0 0-12 9c-3 5-6 9-8 15-1 2-4 4-5 2l-4-3-4 4a27 27 0 0 0-2 2 33 33 0 0 0-5 9c-2 7-5 13-4 19ZM422 495l2 11 1 1c2 7 7 12 12 17l8 7 11 12 9 13 10 16a21 21 0 0 0 9 8 7 7 0 0 0 1 0v-1l-1-6 2-8v-7c-2-4-3-9-6-13l-10-14-10-9a85 85 0 0 0-14-9c-8-4-16-8-21-16a15 15 0 0 0-3-2ZM274 313c3 4 7 6 9 10l5 9c3 8 9 11 15 14l11 5a40 40 0 0 0 10 3 7 7 0 0 0 6-1c6 0 12-3 18-5 5-2 10-5 16-4a25 25 0 0 0 8 0l-12-5-10-4-20-2a47 47 0 0 1-7 0 38 38 0 0 1-9-1 98 98 0 0 1-20-10 119 119 0 0 0-20-9Zm-65 212a33 33 0 0 1 5 2c2 1 5 3 5 6 0 2 1 2 2 2a22 22 0 0 1 11 2 32 32 0 0 1 14 11 40 40 0 0 0 11 12l15 7a23 23 0 0 0 6 2 48 48 0 0 0 7 0h9c2 0 4 0 3-2 0-1 4-3-1-3 0-4-3-3-5-3a20 20 0 0 1-8-2 51 51 0 0 1-20-17c-1-2-4-3-4-6-5-8-8-10-18-11h-9a10 10 0 0 1-3 0l-9-3h-4l-7 3Zm-23 465c3-4 7-9 8-14l2-2 1 2c-2 3-3 7-6 10a18 18 0 0 0-5 10l-2 1-2-1-2 2c1 4 5 6 8 5l10-1a13 13 0 0 0 8-3c2-2 2-4 2-6v-3c-2-3-3-6-6-7l-1-1a8 8 0 0 1 2-1l1 1c5 2 6 7 8 11 0 4 2 8 1 12a50 50 0 0 0 0 6c0 6 1 11 6 14v1c3-1 6-2 5-6l1-1a20 20 0 0 0 4-10 20 20 0 0 0-1-11c-3-6-5-11-10-16l-7-6-10-9c-1-2-1-1-3 0-3 4-7 8-12 11-3 2-4 5-2 9l2 3Zm687-728-12 1c-1 2-3 1-5 1-6 4-13 6-18 12a7 7 0 0 1-8 1c-3-1-5-1-7-3h-2a3 3 0 0 0 0 1c0 5-4 7-6 10-2 0-3 3-4 4a37 37 0 0 1-16 9l-8 3c-7 2-11 7-16 11 0 1-2 1-1 3h3a2 2 0 0 0 1 0l17-5 13-4a87 87 0 0 0 10-3l16-8 11-8c7-4 14-8 19-15l4-3c2-3 6-5 9-7ZM536 508a25 25 0 0 1-3 0c-2-2-3-3-2-6a9 9 0 0 1 1-2l-1-1-3 1c-5 0-10 3-15 4-5 2-10 4-16 4l-8-1-11-4h-1a4 4 0 0 1 0 2c-2 4-1 9 5 13l7 3c3 1 4 3 6 6a9 9 0 0 1 0 3v8a15 15 0 0 0 2 8c3 5 8 6 13 4a18 18 0 0 0 7-7l7-13v-2l-1 1c-2 0-2 1-2 2 0 4-3 6-6 5l-4-3c-2-1-1-2-1-4s2-2 3-2c2-1 4-2 6 0h1l4-4a5 5 0 0 0 1-1 19 19 0 0 0-2-1l-1 1-2 2c-3 0-5 1-7-1l-2-2c0-1-1-2 1-2a20 20 0 0 0 4-2l1-1c-2-2-1-5-1-7 2 0 5-1 6 2a3 3 0 0 0 3 0 41 41 0 0 1 11-3ZM328 366c4 2 8 5 13 2 1-1 3 0 4 2l4 3a71 71 0 0 0 16 3 15 15 0 0 1 3 0h9l10-2a27 27 0 0 0 9-3c9-6 15-8 24-9 2 0 5-1 7-3h-11l-10-2a84 84 0 0 1-18-5 18 18 0 0 0-12 0 43 43 0 0 0-10 4l-10 4-9 4-14 2h-5Zm-87 277a54 54 0 0 0 7-2l16-7a97 97 0 0 0 22-14l6-5c3-2 3-4 5-6 2-1 3-2 1-4v-1c1-2 1-2-1-4l-1-1c-2-1 0-3-1-4s-3 1-4 1l-3-2c-1 0 0-2-2-2a12 12 0 0 0-4 1 16 16 0 0 0-3 3c-6 5-11 11-15 18-4 8-7 11-13 16-4 5-10 6-17 7l-9 1-1 1 1 1 3 1 13 2Zm769 194c1-4-1-7-3-9l-11-12a14 14 0 0 1-1-2c-3-5-7-10-9-16 0-1 1-2-1-2a3 3 0 0 0-3 2 4 4 0 0 0-1 2c0 3-1 5-3 6-2 2-1 2 0 4l5 4c1 1 3 2 1 4l1 2c1 1 2 3 4 3l5 5 1 5c0 3-3 2-4 3l-2 1c-2 1-3 2-2 4l2 5c1 1 3 2 3 4a81 81 0 0 1 0 9c-2 2 1 3 0 4a7 7 0 0 0-1 5c1 4 7 6 11 4a14 14 0 0 0 3-1h4a3 3 0 0 0 3 0l-1-5a5 5 0 0 1-2-4v-8l-1-3c2-2 1-4 1-7l1-7ZM477 160l2 3c-3 8-6 16-12 23a12 12 0 0 0-3 6c-1 3 0 7 1 10 2 5 4 10 4 16a2 2 0 0 0 0 1 17 17 0 0 1 0 13 4 4 0 0 0 0 2l1 1a11 11 0 0 0 4 0l1-3c1-1 1-2 3-2l5-2a30 30 0 0 1-2-4l-1-5c-2-1-1-2 0-4v-3a29 29 0 0 1-1-3 21 21 0 0 1-3-9 4 4 0 0 1 3-4h5c1 2 2 1 3 0 1-3 3-5 2-8a8 8 0 0 1 0-8 89 89 0 0 0 6-11c2-3 1-7-2-8-2-1-4-3-7-2a5 5 0 0 1-4-1h-4ZM56 629a23 23 0 0 1 1 4l1 11 1 2 1-2 2-3 1-2c-2-1-1-4-1-6a7 7 0 0 1 3-6l3-3v-10c0-3 1-6 3-8 2-5 6-8 7-13 3-3 4-7 4-11 0-3 3-7 5-7 5 0 7-3 9-6l4-7c2-5 3-9 1-14v-3a13 13 0 0 0 1-3s2 0 0-1h-2a10 10 0 0 0-2 2l-8 11-12 15a81 81 0 0 0-10 15 85 85 0 0 0-8 23l-2 10c-2 2-1 4-1 6Zm266 113-5 6c-2 4-5 8-10 9l-1 3-3 13-3 16c0 2 0 2 2 2l8-2 11-1a3 3 0 0 0 3 1 9 9 0 0 0 3-3c4-5 7-10 13-13v-3a17 17 0 0 1-8-5l-3-5a36 36 0 0 1-7-18Zm324-262c6 1 10-2 14-6a38 38 0 0 1 16-13 97 97 0 0 1 13-5 52 52 0 0 1 14-2h2a18 18 0 0 1 6 1 24 24 0 0 0 10 1 4 4 0 0 0 3-1 37 37 0 0 0 7-10 19 19 0 0 1 6-7 25 25 0 0 1 8-3c3-1 6 1 9 2l4 1 2 1v-2a52 52 0 0 0-12-14 5 5 0 0 0-2-1c-4-1-8 2-11 5l-17 14a15 15 0 0 1-7 4 31 31 0 0 0-5 1 12 12 0 0 1-4 1 55 55 0 0 1-9-1c-4-1-9 1-14 2l-1 1c-2 2-5 4-7 8a58 58 0 0 1-7 9 44 44 0 0 1-18 14ZM529 703c-1 5 1 8 4 12 2 3 6 4 9 2a21 21 0 0 0 6-4l-1-5a72 72 0 0 0-2-9c-2-6-2-10 1-17a153 153 0 0 0 4-15 160 160 0 0 1 6-20l3-10 4-10c0-2 1-4-1-5a9 9 0 0 0 0-1l-1 1-2 6a52 52 0 0 1-7 16 96 96 0 0 1-13 17l-4 4c-3 3-4 6-2 11l1 1a95 95 0 0 1 0 10 8 8 0 0 1-2 4c-2 4-3 7-3 12Zm-371 371c2 0 4 1 6-1h10c2 0 2 1 4-1a7 7 0 0 1 4-3l11-2h2c1-3 4-3 6-3a11 11 0 0 0 7-2 21 21 0 0 1 6-4c5-1 9-4 9-9a28 28 0 0 0 1-4l1-1a6 6 0 0 1 4-1l2-1 2-5a35 35 0 0 1 5-9 69 69 0 0 0 4-8v-2l-1 1c-2 4-6 7-9 10l-10 6a2 2 0 0 1-2 0l-2-1-1 2a95 95 0 0 0-10 4c0 1-3 2 1 2a4 4 0 0 1 0 3 16 16 0 0 1-3 2l-9 3a14 14 0 0 0-2 2c2 2 0 2-1 2l-3 1-12 4c-2 1-4 2-4 6a4 4 0 0 1-1 2c-2 2-6 4-9 4a8 8 0 0 0-6 3Zm41-154a40 40 0 0 0-3 16l-1 2v4l1 3a51 51 0 0 0 1 6 30 30 0 0 0 9 16l6 6 6 6c3 2 3 4 5 6a23 23 0 0 1 6 10l1 4 1 3h1v-14a39 39 0 0 0-1-8 60 60 0 0 0-2-8l-6-12-11-14a73 73 0 0 1-10-17l-3-9Zm138-221-3 1a25 25 0 0 0-6 5 13 13 0 0 1-4 4c-2 2-3 3-5 3l-1 1 2 4a6 6 0 0 0 4 2 15 15 0 0 0 5-1l9-1c3 0 7-1 10-3a15 15 0 0 1 7-3 13 13 0 0 0 9-4c5-7 13-9 21-9l13-1c2 0 4-3 6-2 3-3 9-3 7-9v-1c3-1-2-4 1-5a6 6 0 0 0-1-1 2 2 0 0 0-3 1 19 19 0 0 0-1 4 10 10 0 0 1-9 7 33 33 0 0 0-6 2c-3 1-5 3-8 1-6 0-11-3-17-3h-3c-4 1-7 3-7 7a9 9 0 0 1-1 3 5 5 0 0 1-4 3 9 9 0 0 1-7-2c-2-2-4-3-8-3Zm250-209a8 8 0 0 1-1 0c-3 0-4 3-7 3l2 4v1l1 4c0 2-1 1-2 1l-1 1v2c0 2-1 3-3 3a15 15 0 0 0-2 0l-1 1a8 8 0 0 0 1 1h1c3 0 5 2 5 5 0 2 0 3 3 3l3 2 2 1c2-2 5-1 7-1l3 1h1l5-1c2 1 3-1 5-1a3 3 0 0 0 0-1l-1-2c-2-3-1-4 2-5l1-1c3-2 3-2 1-5v-5l3-2-2-2a3 3 0 0 0-1-1c-2-1-4-2-4-4l-2-1c0 2-1 2-2 2-2-1-4-1-3-4l-1-1c-4 3-7 4-11 2a4 4 0 0 0-2 0Zm183-172a63 63 0 0 1 7 1c6 2 12 5 16 10l6 5a21 21 0 0 0 7 6 19 19 0 0 1 6 3 12 12 0 0 0 9 3 13 13 0 0 0 10-7l2-4-4-1-8-7c-5-6-11-10-18-13a23 23 0 0 0-7-2c-6 0-10 1-15 3-4 0-7 1-11 3ZM192 620l4 3 6 4 3 3 1 1a21 21 0 0 1 7 1c2 1 4-1 6-1 3-2 7-4 11-2a6 6 0 0 0 7-1 17 17 0 0 0 4-5 17 17 0 0 1 10-8 31 31 0 0 0 6-4c3-2 3-3-1-5l-2-1c-1-3-3-2-5-2-2 1-5 1-7 3l-8 4a17 17 0 0 1-5 2 92 92 0 0 1-9 2c-7 1-11 2-15 0l-6-1-1 2 1 1c1 3 0 4-3 4Zm21 65c0 4 0 4 4 5 2 1 5 0 6-2l2-6-1-10c0-3 1-4 3-5a7 7 0 0 1 4-1c3 0 4-1 5-3a13 13 0 0 1 1-3l3-3 9 1a11 11 0 0 0 10-1 17 17 0 0 0 4-5 46 46 0 0 0 4-7c2-4 3-9 7-12v-2a8 8 0 0 0-1 1l-15 7-18 9c-8 4-16 10-20 16s-7 15-7 21Zm314 153 5 6a10 10 0 0 1 2 2l7 13 3 9 1 9c0 3 1 5 3 7 2 3 5 4 8 4 2 0 3 1 3 2 0 4 2 6 4 8 3 2 5 1 7-1a7 7 0 0 0 3-6 6 6 0 0 1 0-4c3-5 0-9-5-12-3-2-5-3-6-7a13 13 0 0 0-8-7 34 34 0 0 1-12-8l-5-9c-2-3-5-6-10-6Zm571 7-7-2a36 36 0 0 1-6-4l-8-5-11-8a110 110 0 0 0-9-8c-3-3-9-6-12-6a20 20 0 0 0-7 0l-14 5c-5 1-10 0-15-4l-2-2a1 1 0 0 0-1 0 1 1 0 0 0 0 1l11 11 2 1a18 18 0 0 1 6-3 42 42 0 0 1 18 2 70 70 0 0 1 15 7 83 83 0 0 1 19 15 22 22 0 0 1 4 7c1 3 1 3 4 3a8 8 0 0 0 6-3l7-7ZM450 358l-7 1h-6l-7 1-14 4a93 93 0 0 0-19 8c-6 4-12 5-18 6-2 0-2 2-3 3s0 3 1 4l9 2h12l10-2a118 118 0 0 0 11-6l9-7 10-7a51 51 0 0 1 12-7Zm670 396-1-1-8-5a116 116 0 0 0-21-8l-9-2c-8 0-16-1-23 1a39 39 0 0 1-7 1 41 41 0 0 0-6 1c-5 1-9 2-13 5-2 2-2 5 0 6a17 17 0 0 0 3 1c3 1 6 1 8 4h1l7-4 11-4c2 0 5 1 7-1h18a37 37 0 0 1 8 1l8 1c4 1 8 1 11 3l5 1h1ZM401 259l6-1c2-1 3-3 1-4l-6-6a4 4 0 0 1-1-3c0-2 0-2-2-2h-11l-9-1a128 128 0 0 1-14-5l-10-6a82 82 0 0 1-15-10l-8-8a1 1 0 0 0-1 0v1c3 4 5 9 9 12l16 16a70 70 0 0 0 16 9 92 92 0 0 0 17 6l12 2Zm385 114a9 9 0 0 1 1 0c3 1 5-1 6-4a9 9 0 0 1 1-2v-2a32 32 0 0 1-7-3l-8-5-7-7-8-8c-4-5-10-8-16-11-5-1-9-2-13 2a14 14 0 0 0-2 1l2 1 4 2c6 2 10 5 14 9l9 10 10 11c3 4 8 6 14 6ZM200 594l7-1a25 25 0 0 0 9-4l13-5a50 50 0 0 0 7-2 3 3 0 0 0 2-2l-1-1-4-1c-3-1-7 1-10 1-2 2-4 0-6 1-5 2-9 0-13-1-4 0-7-3-11-4-2-1-5-3-7-2a20 20 0 0 1-5 1l-1 1-2 8 1 2 2 1c5 6 12 7 19 8Zm165 621 5 4 1 1c2-1 4 1 6 1l10-1 13-4a59 59 0 0 1 13-3l10-2 4 1a24 24 0 0 1 10 3 8 8 0 0 0 3 0l-4-4c-5-4-10-6-16-8a14 14 0 0 0-5-1h-11l-10 2-8 5c-7 3-13 6-21 6Zm350-516v-2c0-5-6-10-11-10l-1 1-3 9a34 34 0 0 1-9 11l-7 8-10 8a1 1 0 0 0 0 2 1 1 0 0 0 2 0c5-4 12-4 19-5a22 22 0 0 0 5-2c5-2 8-5 11-9a17 17 0 0 0 4-11Zm-413 508-3 7-1 7a11 11 0 0 1 1 5c0 2 1 2 2 3-3 3-7 6-9 10-1 1-2 3 0 4 3 1 3 3 3 5l-2 7a57 57 0 0 0-2 9l2 1c2 0 2-1 2 1l-2 7c-1 3-3 6-2 8a22 22 0 0 1 1 5l1 4v3a26 26 0 0 0 1 3l2-9 2-15a38 38 0 0 1 5-13c3-4 6-9 5-14a32 32 0 0 0-2-7 78 78 0 0 1-3-11c-1-4-2-9-1-13a64 64 0 0 0 0-7Zm195-442c3-2 4-3 2-6l-1-4v-3a3 3 0 0 0 0-5l1-2a13 13 0 0 1 2-1l-6-7c-1-1-2-2-1-3 2-1 1-2 1-4a12 12 0 0 1-2-8c1-4-3-7-2-12l-6-6-6-4-2 1v15a12 12 0 0 0 2 5l6 10 5 10a22 22 0 0 1 0 6l1 7a7 7 0 0 0 2 5l4 6Zm34-404a39 39 0 0 0-9-6c-1-1-2-3-4-3l-10 1a20 20 0 0 1-9 1 94 94 0 0 0-10 0h-3l-6 2h-1l-6 4a13 13 0 0 0-1 2l-18 17-5 4-4 2a19 19 0 0 0-3 3c-2 2-5 4-6 7-2 3-1 4 1 5a9 9 0 0 0 3 1 7 7 0 0 1 5 5 17 17 0 0 0 0 2l1 1a4 4 0 0 0 1-1v-2c3-9 6-18 13-26a57 57 0 0 0 4-6c3-5 8-9 13-12a36 36 0 0 1 21-6 54 54 0 0 1 9 1l11 2c3 0 5 2 8 1l1 1h4ZM52 634h1v-8c0-3-1-5 1-7-1-3 1-5 1-8a17 17 0 0 1 1-6l6-15c4-11 10-18 15-24l6-7 15-22a6 6 0 0 0 1-1 4 4 0 0 0-2 0l-12 8c-3 3-5 6-5 10a14 14 0 0 0 0 2 2 2 0 0 1-2 3 14 14 0 0 0-5 3l-5 4c-2 1-3 4-4 6a38 38 0 0 0-4 6c-4 6-5 14-6 22l-1 7-1 2c-2 3-5 7-4 11l4 14Zm104-27c-8-1-14 1-20 1a1 1 0 0 0-1 0c-4 3-9 3-13 7l-7 4c-4 3-8 6-9 12a23 23 0 0 0-1 6 31 31 0 0 1-3 14v2l1-1 5-9a25 25 0 0 1 4-8c2-4 5-8 10-9 2-3 6-3 9-4 5-1 10-3 14-6l11-9Zm414 161 2-9c2-6-1-12-6-16a45 45 0 0 1-9-9 33 33 0 0 1-4-7l-2-8-1-1a2 2 0 0 0-1 0 3 3 0 0 0-1 2l-1 9a27 27 0 0 0 0 5l1 5a31 31 0 0 0 6 15l2 3 4 2 10 9Zm-161 38-2-5-1-2a3 3 0 0 1-1-4v-3a6 6 0 0 0-6-2l-4-1-1-2-1 2a5 5 0 0 0 0 2c0 3-2 4-4 7s-4 0-6 1v7l1 6 3 6a3 3 0 0 0 4 1 4 4 0 0 1 4 0c2 2 2 0 2-1 3-4 3-4 8-3a2 2 0 0 0 1 0c2-2 2-3 0-5l-2-1a2 2 0 0 1 0-2c1-2 3-1 5-1Zm-78-442h5a27 27 0 0 0 6-1l11-4a125 125 0 0 1 20-9h3v-2l-7-2a35 35 0 0 0-20 3l-14 5c-3-1-5 1-8 1h-9l-2-1c-4 0-6-2-9-3a10 10 0 0 1-2-1l1 2c2 2 9 6 12 6 2 0 3 1 4 3a5 5 0 0 0 5 3 33 33 0 0 1 4 0Zm463 504v9a10 10 0 0 0 0 2 61 61 0 0 0 6 13l5 7 3 3 1-4v-6a8 8 0 0 0 0-2l-5-14c-2-5-4-11-4-17v-11c2-3 1-6 2-8 2-3 0-6 2-8l-1-5a7 7 0 0 0-2 4l-2 4c-1 4-4 8-3 12-2 2-1 5-1 7a59 59 0 0 0-1 7v7Zm-23-493c-4 0-7-2-10-4l-11-9a102 102 0 0 0-8-7 36 36 0 0 0-14-6c-8-2-9-2-13 3l-7 6-2 2c2 1 5-1 7-1 6 0 12-1 18 1a47 47 0 0 1 17 9c5 3 9 8 16 8 3 2 5 0 7-2ZM260 740c6 1 12-1 18-1l6-2c4 0 8-2 11-4 3-1 7-2 10-1s4 0 7-1c2-2 3-4 2-7-1-4-3-8-2-12l-1-3h-1l-11 11a34 34 0 0 1-7 6c-7 4-14 8-22 10-3 2-7 1-10 4Zm304-77-1 10a47 47 0 0 1-3 14c-2 4-2 4-1 8a28 28 0 0 0 2 6 14 14 0 0 1 2 6c0 3 1 5 3 5l2 1 6 4 2 1-1-2c-2-6-4-12-4-18l1-7v-14a14 14 0 0 0-1-3c-1-4-3-8-7-11Zm-189 84c0-3 0-3-2-4-5-2-10-4-14-8-1-1-2-2-3 1-1 2-3 3-5 3a3 3 0 0 0-3 2 16 16 0 0 0-1 3 103 103 0 0 1-6 22c-1 1 0 2 1 2 3-2 8-3 10-7a56 56 0 0 1 4-6 17 17 0 0 1 4-3l2-1c3-2 7-2 10-2h2c1-1 3-1 1-2Zm348-98-1-1c-6-1-11-5-16-8-6-4-10-8-13-15l-7-13-2-3a1 1 0 0 0-1 0 1 1 0 0 0 0 1 108 108 0 0 0 9 18 68 68 0 0 1 5 8l2 6 1 5 1 6c0 4 2 7 4 10 1 2 2 2 5 1 3-2 11-10 13-14a3 3 0 0 0 0-1Zm-477 361a40 40 0 0 0 2 19l2 3c0 4 3 7 5 10l7 9c4 5 4 11 4 18-2 1 0 4-1 6s-2 3 0 5c0 6 3 11 5 16a21 21 0 0 0 2 2l2-8 2-11a6 6 0 0 0 0-3l-1-5a25 25 0 0 0-8-17 64 64 0 0 1-11-17 83 83 0 0 1-4-9c-2-6-5-11-6-18Zm130-273h2c5 0 8 1 11 5a80 80 0 0 0 12 10c3 3 7 4 11 6h5l2-1-1-1-6-4-4-4-5-6-11-11a14 14 0 0 0-5-4c-3 0-5-1-7 2-3 3-6 6-11 6v1a1 1 0 0 0 1 1h6Zm-264-26c-3-1-5 0-8 1-2 1-2 4-3 6l-1 4a7 7 0 0 1-1 4c-2 2-1 5-1 7a5 5 0 0 0 2 3l2-1h1c4-1 7-1 7-6l1-2c1-3 4-4 7-4l9-1c2 0 3-2 5-3 1-1 0-3-2-3-3-1-7-1-10-3l-8-2Zm685-30c-5-2-5-3-2-7a8 8 0 0 0 1-1h-1l-5 3a61 61 0 0 1-9 4 29 29 0 0 1-9 2l-9 1-8-1h-6l-7-1c-3 0-7-2-10-1-2-2-5 0-7-1l-9-2-8-1c-1-1-2 0-2 1l1 1a5 5 0 0 1 3 1c4 4 9 4 13 5l14 1c4 0 8-1 12 1 5-1 10 1 15 1h15c3 0 5 0 7-2l1-1 10-3Zm-326-32-3 11 1 5 2 7c2 5 6 8 9 12l9 10c3 3 6 4 9 3a20 20 0 0 0-2-4c-3-3-4-7-4-11-1-3-2-7-5-9l-8-7c-4-2-6-6-7-9l-1-8ZM51 754v1l12 5 14 2c5 1 10-1 15-1 1-2 2-1 4-1l4-1 12-2h6l6-1a25 25 0 0 1 5 0l6 1a40 40 0 0 1 8 1 25 25 0 0 1 9 4c2 2 3 2 5 1l4-4h-4c-4 1-8-1-12-3a24 24 0 0 0-12-3h-24c-3 2-5 1-8 1l-7 1h-9a44 44 0 0 1-6 1l-6 1c-3 1-6-1-9-1a11 11 0 0 1-5-1l-8-1Zm223-86a28 28 0 0 0-4 1c-4 1-8 3-13 3a7 7 0 0 0-3 1c-3 2-4 5-6 8a65 65 0 0 1-5 7c-4 4-8 6-12 8s-11 1-14 0h-1l-1 2 4 9c1 2 2 1 2 1 4-2 8-3 11-7a42 42 0 0 1 13-10l19-14 10-9Zm431-314 2-3c4-1 5-4 6-7s1-4-1-6a8 8 0 0 1-3-4l-2-5 2-7a40 40 0 0 1 6-11c3-4 7-8 9-13v-1h-1a14 14 0 0 0-3 1l-8 5c-1 4-4 7-6 10-3 7-5 14-5 21l1 12c1 5 0 5 3 8Zm111-49a17 17 0 0 1 3 0 52 52 0 0 1 8 2l10 4a5 5 0 0 0 6 0 20 20 0 0 1 6-4 77 77 0 0 1 10-3 9 9 0 0 0 6-5l-1-2-6 1c-5 1-10-1-15-1-6-1-6-1-11 1l-16 7ZM122 700a11 11 0 0 1 3 1 35 35 0 0 0 10 8l4-1 1-1c3-2 6-5 5-9l1-5c1-3 2-4 6-4h2a2 2 0 0 0 2-2v-6c-5-1-10 1-14 4a48 48 0 0 0-13 10l-7 5Zm238 487a8 8 0 0 0-1-1l-14-11-6-4-13-5-9-4h-2l1 2a6 6 0 0 0 2 4l9 11a22 22 0 0 0 15 6h3c2 2 5 1 7 1l8 1Zm277-761h2c1-2-1-2-1-3a14 14 0 0 0-5-2c-4-1-6-3-8-6a17 17 0 0 1-2-10l1-2c0-6 2-11 6-15a1 1 0 0 0 0-1h-1a23 23 0 0 0-3 3c-4 6-5 13-7 20l-1 5c0 1 0 2 2 2s4 1 5 3 1 5-1 5-2 1-2 2v8c0 8-3 14-6 20a36 36 0 0 1-4 5l-4 5a14 14 0 0 0-4 10 3 3 0 0 0 0 1 4 4 0 0 0 1-1c2-6 5-9 11-9l8-1v-1a14 14 0 0 1-1-3c-4-6-4-11 1-16a16 16 0 0 0 1-1c2-2 2-2 1-5l-2-5c-1-3 0-6 2-8s5 1 7-1h1Zm116-103v1h4a14 14 0 0 1 4 0c6 2 11 5 16 9l16 11 9 4a1 1 0 0 0 1 0 30 30 0 0 0 2-4l-1-2c-5-1-9-4-12-8a32 32 0 0 0-12-10 86 86 0 0 0-8-4c-3-1-5 1-7-1l-4 2-8 2Zm-75-25h4a13 13 0 0 0 8-2l2-2a21 21 0 0 1 1-5 3 3 0 0 0-1-3c-3-5-10-5-14-3a26 26 0 0 0-6 4l-6 7-4 2c-5 1-8 5-11 8a1 1 0 0 0 0 1h1l5-3 8-3 13-1ZM335 470v-5a125 125 0 0 0-7-13l-9-18c-2-5-4-9-4-14a4 4 0 0 0 0-3 5 5 0 0 1-1-5c2-3 0-4-1-6a15 15 0 0 0-13-5c-3 0-5 2-7 3v1a15 15 0 0 0 3 2c7 3 8 6 13 10 4 4 5 10 6 15a64 64 0 0 0 4 12l8 13c3 4 6 7 8 13Zm500-175a1 1 0 0 0 1 0c6 0 13-1 19 1a11 11 0 0 0 4 0 26 26 0 0 0 4-1l3-1 5-4a4 4 0 0 0 0-1c0-3-1-5-3-6-3-2-6-4-6-8-8 8-18 13-27 20Zm-432 928 8 4c8 4 16 5 24 6 6 1 13-1 20-1a35 35 0 0 0 3 0l-9-5a33 33 0 0 0-6-2l-6-1c-3-2-5 0-7-1l-7-1-5-1a5 5 0 0 0-4 0l-5 1-6 1ZM254 814l-1 1a13 13 0 0 1-3 1l-5 1c-1 1 1 2 1 4a44 44 0 0 0 0 6 7 7 0 0 0 0 3c2 4 4 9 8 12l5 4 2-6a13 13 0 0 0 1-2c1-3 1-7 4-9l-1-2a32 32 0 0 1-3-1c-4-1-6-4-7-8a17 17 0 0 0-1-3 4 4 0 0 0 0-1Zm216-112-1-5c-2-7-5-13-11-18h-2c1 4-3 7-3 10l-1 5 1 1c3-1 3-1 4 2a9 9 0 0 0 5 6l4 2a20 20 0 0 1 2 8c0 4 2 8 1 13a6 6 0 0 0 1 3c1 2 2 4 5 4a5 5 0 0 0 1 0 4 4 0 0 0-1-1l-1-2c-3-7-4-14-5-21l1-7Zm-69 498c-5 0-10 1-15-1h-2a8 8 0 0 1-3 1c-2-1-5 1-8 1l-7 2-9 1a38 38 0 0 1-5 0 93 93 0 0 0 8 7c2 2 4 4 7 3l7-2c4-2 9-3 13-6a37 37 0 0 1 14-6ZM239 751h11c4-3 9-3 13-3s7 1 10-2l10-2 10-1a9 9 0 0 0 2 0c6-2 9-1 15 1l1 1 8-7-2-4c-1-1-1 0-2 1a8 8 0 0 0-2 0c-2 1-6 2-7 5-1 2-2 1-3 1l-3-3-4-2a51 51 0 0 0-9 4l-12 3-12 1-9 3-15 4Zm343-351v6l-5 15-2 6a36 36 0 0 1 4 3l1 2c1 1 2 1 3-1l4-6 4-3c2-2 3-4 2-6a8 8 0 0 0-2-4c-4-3-6-7-8-11l-1-1Zm-192 821h6c2 2 5 1 7 1l4-1 5-1c7-1 15 1 22 1 2 2 5 1 7 2l8 2h1a3 3 0 0 0-1-1 6 6 0 0 0-1-2l-15-7-7-2a46 46 0 0 0-19 3l-17 5Zm337-923c-2 6-5 11-9 15a31 31 0 0 0-5 9l-2 6c1 3 2 7 5 9a4 4 0 0 1 2 4 16 16 0 0 0 0 3l5-6a6 6 0 0 0 2-6 22 22 0 0 0-1-5 20 20 0 0 1-2-13c1-5 4-9 6-12 1-2 1-3-1-4ZM324 583c4 1 4 1 4 5l1 2a3 3 0 0 1 2 3h3l4 1 3-3 3-2c2-1 3-2 1-4l1-3c0-2-1-4-3-4-3 0-3-1-2-4a4 4 0 0 0 0-2h-2c-2 3-4 3-6 1l-2 1-1 2c1 3 1 4-2 4-2 0-3 1-4 3Zm477-274-1 1 2 1h3c9 3 16 9 23 16 0 3 3 4 5 5h1a5 5 0 0 1 3-1 59 59 0 0 0 7-3v-2l-2-1a5 5 0 0 0-4-2 15 15 0 0 1-8-3l-9-6c-6-4-13-4-20-5ZM319 803c0-1 0-3-2-3l-6-1a22 22 0 0 1-8-2c-5-2-5-1-7 3a32 32 0 0 0-1 3 37 37 0 0 1-5 9l-1 2a17 17 0 0 0 3 0l1-1c4 1 6-2 9-3 7-3 10-5 16-5l1-2Zm383-542-6 2c-2 5-6 6-9 9a21 21 0 0 1-4 3l-10 7-1 1h1c5-3 10-3 15-5l9-3c5-2 8-4 10-8a37 37 0 0 0 1-5 32 32 0 0 1-4 0 8 8 0 0 1-2-1Zm-223-27c-1 4-3 4-6 4a30 30 0 0 0-4 0c-1 8 0 16 2 23a37 37 0 0 0 3 8c1 1 2 2 3 0h2a2 2 0 0 0 0-4 27 27 0 0 0-2-3 15 15 0 0 1-4-6c-2-4-1-6 2-8l4-1a44 44 0 0 0 4-4 2 2 0 0 0 1-3l-5-6Zm217 139h27a43 43 0 0 1 10 1 75 75 0 0 1 12 5h2l-1-1-17-10c-7-2-14-3-21 0-4 1-8 2-12 5Zm-282 14c4 0 7-2 10-4 5-2 8-6 13-9 6-4 11-9 18-12l11-5 1-2h-2a53 53 0 0 1-9 4c-6 2-10 5-15 8l-12 8-17 10-1 1a15 15 0 0 0 2 1 3 3 0 0 0 1 0Zm562 396v1a34 34 0 0 1-4 6c-4 4-3 6 2 9h3c1-3 3-5 6-5v-2l-6-12c-3-5-6-8-10-11-2-2-3-2-4 0l-2 2 2 3a5 5 0 0 0 3 1c3 0 5 2 7 3s2 3 3 5Zm-735-28a33 33 0 0 0-5-2 6 6 0 0 0-3 1l-11 4c-9 4-14 11-20 17a3 3 0 0 0 0 1 53 53 0 0 1-8 16 1 1 0 0 0 0 1h1c1-1 2 0 3-2a66 66 0 0 1 5-7l9-13c3-6 9-10 15-11l5-1 9-4Zm175 6-10-2a31 31 0 0 1-12-8l-9-9a11 11 0 0 0-4-3h-10c4 1 7 4 9 7 3 4 7 7 11 9a62 62 0 0 0 16 6c1 1 3 2 4 1 2-1 4 0 5-2Zm127-19a31 31 0 0 0 0 3l-1 5a38 38 0 0 0 5 11l5 6a32 32 0 0 0 9 5 29 29 0 0 1 9 5 8 8 0 0 0 1 0 4 4 0 0 0 0-1 3 3 0 0 0-1-2c-5-5-10-11-16-15-5-4-6-5-8-11l-3-6Zm1 143c2 5 2 9 2 14v5l2 1a21 21 0 0 1 8-2h7a7 7 0 0 0 6-2c-2-1-4 1-6-1a13 13 0 0 1-7-8l-1-2c-5 0-8-2-11-5Zm-65 356a26 26 0 0 0-4 0 32 32 0 0 0-3 0h-4c-2-2-4-1-6-1l-7-1h-9l-9 1c6 4 13 5 19 6a74 74 0 0 0 10 0 9 9 0 0 0 3 0c3-2 7-2 10-5Zm209-878v-12a101 101 0 0 1 2-11l2-10c2-4 2-8 2-12l-2 1a38 38 0 0 0-8 22 41 41 0 0 0 1 12 70 70 0 0 0 3 10ZM536 768c-2 3-3 7-3 11a27 27 0 0 1 0 5c0 2 0 3 3 4a8 8 0 0 1 2 2c3 2 4 5 6 9v-7c0-2-1-4 1-6v-1a16 16 0 0 0-2-4l-7-13Zm146-468c-7-1-14 1-21 3-5 4-10 5-14 10h1l14-3c2 0 4 0 6-2 2-1 4-1 5-3l9-5ZM262 783c-2-2-5-2-8-2-2 0-3-1-3-3v-3l-4 5a5 5 0 0 0-2 4c-1 4-1 8-4 10v2l1-1 3-1 10-5 7-6Zm72 403v1l5 4a35 35 0 0 0 14 3c5 0 11-1 16 1h3c-1-2-2-1-2-1l-3-1-9-5-7-1h-9l-8-1Zm367-810 10 1 11 1a107 107 0 0 1 12 3l11 4h9l1-2-2-1c-5 0-9 0-12-2a51 51 0 0 0-24-6h-10a9 9 0 0 0-6 2Zm-320 822a23 23 0 0 1-4 0 33 33 0 0 0-9-2c-7 0-15 1-22-1a11 11 0 0 0-2 0l5 5 11 3 3-1h5c4-2 8-4 13-4Zm-139-191a49 49 0 0 1-12 10v5c0 2-2 2-3 3a4 4 0 0 0-3 3l-2 4v1l1-1c6-3 12-7 16-14 2-3 4-6 3-11Zm227 232v-1a22 22 0 0 1-4-1 17 17 0 0 0-11-3h-28c2 3 5 3 8 5a3 3 0 0 0 2 0c2-2 4-1 6-1h8l3-1a6 6 0 0 0 4 1l10 1a6 6 0 0 0 2 0ZM235 748a33 33 0 0 0-6 0c-2 1-4-1-6-1-4 0-8-2-12-1h-1l-3-1a14 14 0 0 0-5 2l-8 5a6 6 0 0 1-4 2c-2 0-2 0-2 2a32 32 0 0 1 0 4 43 43 0 0 1 22-11h18c2 2 5 0 7-1Zm468-382h2c3-2 7-2 10-2l16 2a31 31 0 0 1 12 6l11 7h4l-8-4-11-8c-5-3-11-6-17-6h-8a14 14 0 0 0-11 5ZM122 745a8 8 0 0 0 2 0c7-3 15-3 23-4a44 44 0 0 1 5 0l1-1a8 8 0 0 1 0-3c1-2 1-2-1-3h-8l-22 11Zm123 93-2-6c0-3-2-7-1-10l-1-2c0-4-3-8-4-12v-7c-3 4-4 9-2 13l3 12c1 5 3 9 7 12Zm59 326v-13l3-12c0-6 1-12-1-18l-2 5c0 2 1 4-1 5l-2 12c0 7 0 14 3 21Zm350-683-14 2-10 3c-4 2-6 4-7 7 11-2 22-5 31-12ZM541 760a11 11 0 0 0 4 10 32 32 0 0 0 14 9c4 1 6 3 8 7a2 2 0 0 0 1 1 7 7 0 0 0 2-2l-1-2-7-5-6-5c-5-4-11-7-15-13Zm-78-158a14 14 0 0 0 2 0 9 9 0 0 0 2-1l-1-1a29 29 0 0 0-4-2c-5-1-10-2-15-5l-4-2-6-1-3 1-12 3a2 2 0 0 0-2 3 5 5 0 0 1-1 1h2l7-3c5-3 11-3 17 0a101 101 0 0 0 10 5 71 71 0 0 0 8 2Zm153-178-3 17-5 16a19 19 0 0 0 5-5c4-7 7-14 6-23 0-2-1-4-3-5ZM436 584a14 14 0 0 0 5 0 14 14 0 0 1 9 0l10 3 7 2 4-1h4l2-1-2-2a16 16 0 0 0-3 0h-4l-13-3-6-1c-3-2-5 0-8 0l-5 3Zm96 184 2-5a7 7 0 0 0 1-3l3-18a31 31 0 0 0 1-5c-6 5-9 10-10 18-2 1 0 1 1 2 2 1 3 3 2 4v7ZM258 874l2-5 6-19 7-18a7 7 0 0 0 0-3l-1-1v1l-3 7c-4 6-6 13-9 20a37 37 0 0 0-2 18Zm199 374v1l10 2 6-1c7 0 12-4 17-6l1-1a7 7 0 0 0-3-1c-3 0-6 0-9 2l-5 2a15 15 0 0 1-6 1l-7 1a41 41 0 0 1-4 0Zm163-666c0-2 0-4 2-6v-1l-13-20 1 9a57 57 0 0 0 6 11l4 7Zm-165-10-10-2h-16a3 3 0 0 0-3 1 21 21 0 0 0-1 5 22 22 0 0 0 4 0l11-1a103 103 0 0 1 15-3Zm-20 15a41 41 0 0 1 13 1l16 5c5 1 6 2 10-2v-1h-3c-7 0-14 0-20-4a8 8 0 0 0-4-1c-4 0-8 0-12 2Zm174-72 4 2 17 13 7 5c1 1 1 2 2 1l-1-2a13 13 0 0 0-2-3c-5-6-12-10-18-14a10 10 0 0 0-9-2Zm200-207a18 18 0 0 1 3 0l3 1c6 1 10 3 15 6l7 5 3 1v-3l1-3-4-1a10 10 0 0 1-2-1l-9-3-12-4c-2 0-4-1-5 2ZM542 725c-1 2-2 4-4 4l-7 7c-5 3-6 9-9 14a2 2 0 0 0 1 2 3 3 0 0 0 2 0 4 4 0 0 0 1-2c1-6 5-10 9-14 2 0 2-2 3-2l3-3c0-2 2-4 1-6ZM428 596c5 0 9 2 13 3a76 76 0 0 1 8 3l14 4 2-1h1l-1-1a28 28 0 0 0-5-1l-7-2-12-5c-2-1-5-3-7-2l-6 2Zm90-246c-4-2-8-6-13-5-2-2-4-1-5 0l-2 1-1 3a3 3 0 0 0 3 3c2 0 3 1 5-1 2 0 5-2 8-1a26 26 0 0 0 5 0Zm29 427v1a12 12 0 0 0 3 3 92 92 0 0 1 10 11c1 2 3 2 5 3l1-1a4 4 0 0 0-1-2l-4-6c-3-5-9-6-14-9Zm-170 80 6-6 2-3 2-9 2-8 2-7-1-1h-1l-3 12a40 40 0 0 1-8 15c-1 1-3 1-3 3l1 4h1Zm16-31h-1v4c-2 2 0 4-2 6l-1 5-1 5-2 5-7 7v2l1-1 4-1c3 2 3 0 4-1l2-6 2-15v-2c2-3 1-5 1-8Zm175-311v-1l-4 1-15 2a23 23 0 0 0-12 4h15c7 1 11-3 16-6Zm156-173h7a12 12 0 0 1 3 1 42 42 0 0 1 15 7h2v-1l-8-7-9-5a5 5 0 0 0-6 2 34 34 0 0 1-4 3Zm-59-30c-5-1-10 1-14 2a17 17 0 0 0-9 7 9 9 0 0 0 2 0l10-2c3 0 5-1 8-3a50 50 0 0 0 3-4ZM416 604a46 46 0 0 0 15 1l8 2 20 7 3-1a9 9 0 0 0 1-1 7 7 0 0 0-1 0l-9-3a141 141 0 0 1-16-5 39 39 0 0 0-9-2c-4 0-8 0-12 2Zm-88 134a5 5 0 0 0 0 1 31 31 0 0 0 10 17l2-1v-2c2-4 0-6-2-8a58 58 0 0 1-10-7Zm-122 328h9l27-1c3 0 4-1 5-4-2 0-4-1-5 1l-15 2c-4 0-8 1-12-1-3-1-6 1-9 3Zm-5-147c5-6 11-9 18-11 1 0 2-1 2-3v-3l-1-1-3 1a19 19 0 0 1-2 0 3 3 0 0 0 2 1 8 8 0 0 1 1 1l-1 1h-3c-4 3-8 5-11 9-1 1-3 3-2 5Zm409-429 9-13 12-9a4 4 0 0 0-3 0c-5 3-10 5-13 9a19 19 0 0 0-5 13Zm15-189c-3 6-3 12-4 17-1 6 2 11 5 16a5 5 0 0 0 1 2l2 1-4-11c-1-3-2-8-1-12l1-13ZM447 780a21 21 0 0 0-3 0c-3 0-21 9-23 11a4 4 0 0 0-1 1h1l10-4a81 81 0 0 1 11-4l9-1h1a3 3 0 0 0-2-3 26 26 0 0 0-3 0Zm-232 281h6l5 1c6 1 11-2 16-2a42 42 0 0 0 6-2l1-1-1-1-5 1-5 1c-5 0-11 2-17 1l-6 2Zm228-227-1-1-3 1c0 3-2 4-4 6a2 2 0 0 0 0 2l6 3h5c2-1 2-2 0-3-3-2-6-4-3-8Zm-31-348v1c0 3 0 3 3 3l1-1c-2-3 0-5 1-7 2-4 1-8-2-11l-2-2c-2 1 0 2 0 3a15 15 0 0 1 0 3l-1 11Zm3 313a5 5 0 0 0 1 0l10-2c1-2 4 0 6-1l4-1a6 6 0 0 1 5-1c2 1 2-2 3-3l-1-1-4 1a39 39 0 0 0-5 1c-7 1-13 3-19 7Zm187-232c-2 0-2 0-1 2l3 7 5 12h2a2 2 0 0 0 1-3l-7-13-1-3c0-2-1-2-2-2Zm119-222v1a47 47 0 0 1 5 0l4 1a22 22 0 0 1 11 3l10 7c1 1 2 3 4 3l1 1v-2l-6-4a43 43 0 0 0-18-11h-10l-1 1ZM421 601h10a12 12 0 0 1 4 0l17 6 12 4 1-1c0-1 0-2-2-2l-7-1-9-3-9-4a11 11 0 0 0-5-1c-4 0-7 0-12 2Zm23-23v1h6a12 12 0 0 1 4 0l10 3a30 30 0 0 0 4 1 35 35 0 0 1 5 1c2 0 4 1 6-2a68 68 0 0 1-8-1l-6-1c-1-2-3 0-5-2l-8-1-8 1Zm194-236 4-1c3 0 5-1 7-3a3 3 0 0 0 2-3l1-2c-1-1-2 0-3 1h-1c-5 0-8 2-11 6a2 2 0 0 0-1 2h2ZM408 833c0 5 0 9 2 13h1a6 6 0 0 1 2-1l1-1-3-6-2-15a10 10 0 0 0-3-6l-1-1v1l2 4 1 12Zm21-265a74 74 0 0 0 9 0l9 1 15 1a2 2 0 0 1 1 0c1 2 3 1 5 1l-4-3-13-1c-3 0-7 1-10-1a3 3 0 0 0-2 0c-3 2-7 1-10 2Zm-49 183c-3 3-5 6-4 11 0 2 0 2 3 1l1-1 4-4 1-1c2-1 1-2 0-2l-5-4Zm260-423 4-1 7-1c3-1 6-2 8-5v-1h-1l-4 1c-6 0-10 3-14 5a1 1 0 0 0-1 1l1 1ZM220 895l-2 2-5 2-4 2a63 63 0 0 0-5 4v2a7 7 0 0 1 1-1c2 0 3-2 5-3 3-1 5-3 9-3a2 2 0 0 0 2-2 22 22 0 0 0 0-4l-1-1h-3c-3 2-7 3-10 6a1 1 0 0 0 0 1h1l8-4 4-1Zm6 157v1h8a36 36 0 0 1 4-1l5-1 7-2c2 0 1-2 1-2h-2a2 2 0 0 1-2 0c-2-1-4 1-6 1l-4 1a13 13 0 0 0-4 1l-7 2Zm410-477a27 27 0 0 1-7-8l-6-8-1-1c-1 2-2 0-3 0h-2a11 11 0 0 0 1 1 22 22 0 0 0 2 3l7 8a50 50 0 0 0 6 4l3 1Zm-86 281a17 17 0 0 0 4 2c5 2 9 5 11 11l2 1a10 10 0 0 0 1-3l-1-1-2-6-1-1c-4-3-9-4-14-3Zm46-374h1v-6a6 6 0 0 1 0-2c3-6 1-12 3-17 0-2 0-3-2-3s-4 0-3 1c2 2 1 4 1 6v21Zm-261 683a9 9 0 0 0-1-1l-20-9a2 2 0 0 0-1 1c1 2 3 4 6 5l13 5a5 5 0 0 0 2 0l1-1ZM218 917l-2 2c-3 0-6 2-8 4l-2 3c2 1 2-1 3-2l2-1 8-3 1-1a45 45 0 0 0 0-5l-1-1a8 8 0 0 0-3 1 16 16 0 0 0-6 4l-2 2 2-1c3-2 5-2 8-2Zm398-360a23 23 0 0 1 0-4l1-3-1-1-5-10v-1a11 11 0 0 0-2-1c-1 8 3 14 7 20Zm-152 9-9-3a161 161 0 0 0-18 0l-6 2-1 1h1l2-1h18c4 2 9 1 13 1Zm266-183 8 3a39 39 0 0 0 7 4c5 3 6 3 9-3l-12-1c-4-1-7-3-12-3Zm-76-55h-7l-5 1c-3 1-4 3-6 5v2a7 7 0 0 1 2-1l7-2c3-1 7-1 9-5Zm-355 762v3l3 9 7 7a1 1 0 0 0 1 0v-1a122 122 0 0 1-9-17l-2-1Zm-86-348v-1a5 5 0 0 1-2 0c-4-2-8-1-12 0l-10 3v5c2 1 2-2 4-2a8 8 0 0 0 3-2 15 15 0 0 1 10-3h7Zm283-18c4 0 6 2 8 4l10 9c1 1 1 2 3 2l-1-4a14 14 0 0 0-1-1 80 80 0 0 0-14-11l-2-1a21 21 0 0 1-3 2Zm-92 56c2-5 2-9 2-14v-2l-6-2-1 1c2 4 4 9 4 14l1 3Zm-175 269a6 6 0 0 0 1 0 79 79 0 0 1 12-3 36 36 0 0 0 6-2v-2h-4l-4 1c-4 2-7 3-11 3l-1 2 1 1Zm267-91v1a39 39 0 0 0 4 12l4 3h2a5 5 0 0 1-1-1 25 25 0 0 0-9-15ZM291 771l-4 4a42 42 0 0 0-5 13v1c1 1 3 0 3-2 3-4 4-9 6-14v-2Zm330-304c-6 0-8 1-11 5a24 24 0 0 0-3 5l-2 5 1 3 1-2c1-4 3-8 6-10l8-6Zm-93 54a78 78 0 0 1 26-8 55 55 0 0 0-12 1 97 97 0 0 0-11 2c-3 1-3 1-3 5Zm-215 617a25 25 0 0 1 0 3l2 5 8 5h2v-2l-12-11Zm319-590h1l1-6-1-1a24 24 0 0 1-3-2l-6-5h-1v1l3 4 4 7a10 10 0 0 0 2 2ZM401 783c0-3 1-6-1-8 0-4-2-8-4-12l-1-1h-2c-2 1-1 2 0 3l2 3c3 5 5 9 6 15Zm264-105v4c1 2 2 4 0 6l-1 3a13 13 0 0 0 3 0 17 17 0 0 0 5-1v-2l-7-10ZM329 552l-1-3-2-1c-2 2-2 2-4 0a18 18 0 0 1-2-1h-1v1l3 5c1 1 2 2 0 2l-1 2v1a1 1 0 0 0 2 1c2-2 1-3 1-5l1-1a11 11 0 0 0 3 0 5 5 0 0 0 1-1Zm228-85-2 1a2 2 0 0 0 1 2l9 10 4 4a7 7 0 0 0 1 1h1a1 1 0 0 0 0-1 48 48 0 0 1-11-15c-1-2-3 0-3-2Zm-2 7v2l6 7a66 66 0 0 0 13 10 9 9 0 0 0 1 1 3 3 0 0 0 0-2 3 3 0 0 0-1-1 63 63 0 0 1-9-7l-9-9-1-1Zm-263 623h-3c-3 3-6 4-11 4a15 15 0 0 0-2 0 1 1 0 0 0-1 1c0 2 2 4 4 4a13 13 0 0 0 1-1c5-1 8-4 12-8ZM142 628h-4c-3 2-7 1-10 2s-8 2-10 4l-1 1a5 5 0 0 0 2 0l6-2a41 41 0 0 0 17-5Zm269 192c-1 2 1 3 1 5-1 3 1 6 1 9 1 3 2 7 5 10a2 2 0 0 0-1-3l-1-3c2-2 1-3 0-5-1-4-2-9-5-13Zm145-321-1-1a53 53 0 0 0-17-9l-2 1-1 1a4 4 0 0 0 1 0 34 34 0 0 1 12 6l6 2a4 4 0 0 0 2 0ZM344 740c0-3-2-5-4-5a23 23 0 0 0-5 2v1l7 5c1 1 1-1 2-1v-2Zm92-25 4-1a49 49 0 0 1 8-2l4-1 4 1a7 7 0 0 0 3 0l1-1-1-1h-3c-5-2-8-1-12 1l-8 4Zm-134 80 6 2 7 1c2 0 1-1 1-2-1-3-3-5-7-4l-7 3Zm-25 304 4-2a35 35 0 0 0 11-8 3 3 0 0 0 1-1h-2a26 26 0 0 1-9 6l-5 1a4 4 0 0 0-2 3l2 1Zm167-542h-9l-1 1 1 1h21l4 1h1a9 9 0 0 0-1-1l-9-2h-7ZM175 761c3 2 5 3 8 1a6 6 0 0 0 3-3l-1-6c-3 4-5 7-10 8Zm103 325c4 1 6-1 9-3a22 22 0 0 0 1-2l5-6v-2a3 3 0 0 0-1 1l-2 1c-1 4-5 5-7 7-3-1-4 2-5 4Zm155-318-3-6h-1c-2 5-6 9-9 13v1h1a10 10 0 0 0 2-1c3-3 5-6 9-7h1ZM138 633h-1a23 23 0 0 1-7 1 64 64 0 0 0-6 1c-3 1-6 1-8 4 2 1 3-1 4-1l10-1a12 12 0 0 0 8-4Zm191 525a7 7 0 0 0-1-2l-13-7-2-1v2a10 10 0 0 0 3 3l12 6h1v-1Zm-5-564c-6 2-8 7-11 11-1 2 1 2 1 3a2 2 0 0 0 2-1l2-3c2-3 3-7 6-10Zm316-88v-1l-10-2c-4 0-7 0-12 2l4 1h18ZM445 693l-6 3-8 8v2a4 4 0 0 0 1-1l7-5c3-1 4-3 5-6a10 10 0 0 1 1-1Zm1 83a21 21 0 0 1-2 1c-6 1-10 4-16 6l-5 4c3 1 4-2 6-3l15-6a42 42 0 0 1 5 0l1-1-1-1a14 14 0 0 0-3 0Zm-5-164 10 7c3 2 4 1 6 0a15 15 0 0 0 1-2l-2-1-9-2-6-2Zm92 117c-3 2-7 2-9 6l-4 7a5 5 0 0 0 0 5c2-7 8-12 13-18Zm-77 45v-2h-3a4 4 0 0 0-5 0 4 4 0 0 1-2 1c-5 0-9 3-13 5l-1 1a5 5 0 0 0 1 0l1-1c6-2 12-4 18-4a20 20 0 0 0 3 0 3 3 0 0 0 1 0Zm253-517a5 5 0 0 1-1-2c0-2-2-2-3-3-2 0-2 2-2 3l-1 1-2 3a29 29 0 0 1 3 0l2 1c1 0 4-1 4-3Zm-487 813v-1l-4-1h-15l-3 1a21 21 0 0 1-3 0v1Zm-3-145-3 2-6 3-1 1h2c2-1 4-3 7-3l2-2a10 10 0 0 0 0-3l-2-1-10 5v2l1-1c3-1 5-3 10-3Zm230-136c-1-2-3-3-5-3l-5 1-4 1-4 1-3 2 10-2h11Zm-275-31v2l2-1c3-2 5-5 6-8a5 5 0 0 0-1-2h-1l-5 7a10 10 0 0 0-1 2Zm-79-34h1a19 19 0 0 1 0-4 27 27 0 0 1 2-5 13 13 0 0 1 2-3 14 14 0 0 1-3-2 37 37 0 0 1-3-3l-2-4h-2l1 1c3 3 4 7 4 11v9Zm469-188a7 7 0 0 0 1-1l8-12a3 3 0 0 0 1-1h-2l-9 10v1l-1 1c2 0 2 1 2 2ZM439 772a3 3 0 0 1-1 0c-2-2-3-1-5 0l-13 10v1h2c5-3 10-8 16-10l1-1Zm188-277 1 1 8-1h5a38 38 0 0 0 5-1l1-1-1-1-13 1c-1 2-2 1-4 1a11 11 0 0 0-2 1Zm-40-33h-1l-1 5c0 2-2 5-1 7 2 2 0 4 1 6l1 3a1 1 0 0 0 1 0l1-1c-2-3-1-6-1-9v-11Zm-290 98c3 1 5 0 8-1a4 4 0 0 0 2-6c-2-1-4-1-4 1s-1 3-3 4l-3 2Zm291-32 1-1a12 12 0 0 0-2-2l-1 1-2 12 1 1 3-1v-10Zm100 156-1-2a98 98 0 0 1-3-9c-1-4-1-6-4-10a15 15 0 0 0 1 5c2 4 3 7 1 11a1 1 0 0 0 1 1l5 4Zm-398 400a16 16 0 0 1-10 4c-2 0-3 2-3 4l1 1c5-2 10-4 13-8v-1h-1Zm149-259a9 9 0 0 0-1-1l-6-6-7-4a5 5 0 0 0-2-1l1 2 8 6a18 18 0 0 1 5 6c1 2 1 1 1 0a9 9 0 0 0 1-2Zm-101-99v1a42 42 0 0 1 5-1 31 31 0 0 0 14-6 3 3 0 0 0 1-1h-1l-2 1-17 6Zm-114 329v1h9c6 0 11-2 17-3l1-2h-1a14 14 0 0 1-8 2c-2 2-5 0-6 1-3 2-5 1-7 1a50 50 0 0 1-5 0Zm175-229h-1v10c-2 4-1 8-1 12l2 1 1-2-1-7v-8Zm101-98h-1l2 5 9 8a1 1 0 0 0 1 0v-1a6 6 0 0 0-1-2Zm-179 412c-1-3-1-5-4-7l-4-4h-1a2 2 0 0 0 0 1v2l7 9a1 1 0 0 0 1 0l1-1Zm270-684v23a6 6 0 0 0 0 2 9 9 0 0 0 1 2s1 0 1 0l-1-2a17 17 0 0 1 0-3l1-17-2-5Zm-287 652v1a25 25 0 0 0 8 9c1 1 1 3 3 2l-1-3a2 2 0 0 0 0-1l-6-6a18 18 0 0 0-4-2Zm211-389a9 9 0 0 0 0-3l-1-1a8 8 0 0 1-2-2c-3-4-7-7-12-8l-1-1v2l2 1 4 2 3 2 7 8Zm-61-12c-3-3-3-3-6-2l-10 5-1 1h1c5-2 10-4 16-4Zm-21-146v1h24l-5-1-5-1h-11a10 10 0 0 0-3 1Zm-20 155v-6l1-5a16 16 0 0 1 1-5v-3l-1 2-3 6a19 19 0 0 0-1 5c0 3 2 4 3 6Zm8 100v2a21 21 0 0 1 6 8 12 12 0 0 0 1 2l2-2 2-1-1-2c-2 0-3-2-4-3l-5-3a6 6 0 0 0-1-1ZM129 650h-13l-3 1h-3a21 21 0 0 0-3 2h5c4-2 9-1 13-1h1l3-2Zm189-56-3 1-8 8a2 2 0 0 0 0 2 2 2 0 0 0 1 1l5-5 5-7Zm-111 481h-17c2 1 3 3 5 3h1c4 0 7-1 11-3Zm366-632c1-3 0-6-3-7-1-1-4-2-6-1a4 4 0 0 0-1 1 7 7 0 0 0-1 0l1 1c4 1 7 3 10 6ZM318 586l-9-5c-2-1-4 1-4 3l1 1c4 0 8 2 12 1Zm-204 60c2 1 4 0 7-1l11-1a2 2 0 0 0 1 0 12 12 0 0 0 1-2l-2-1a61 61 0 0 1-11 2l-7 3Zm316 49 11-11a5 5 0 0 0 1-1 4 4 0 0 0 0-2h-2l-7 8c-1 2-4 3-3 6Zm-165 84c-1-2-3-2-4-2a3 3 0 0 1-3-2c0-2-2-4-4-4a2 2 0 0 0-1 0 1 1 0 0 0 0 1 4 4 0 0 1 2 4 3 3 0 0 0 1 2 4 4 0 0 0 2 1h7Zm159 22h4a32 32 0 0 1 12-2 37 37 0 0 0 5 0l1-1-1-1h-4c-3 2-7 1-10 1l-7 3Zm25 22-6-7a22 22 0 0 0-5-2 9 9 0 0 0-3-1 18 18 0 0 0 2 2l3 2 6 5a9 9 0 0 0 3 1ZM346 568l2 1c2 1 2 2 2 4v1l1-1a4 4 0 0 0 1-2l1-7-1-2-1 1c-2 4-2 4-5 5Zm319-7-1-1h-3c0 2-3 3-3 5a6 6 0 0 0 1 3 5 5 0 0 0 2-1c2-1 4-3 4-6ZM395 839h-1v4a16 16 0 0 1 0 3l-4 11v1a13 13 0 0 0 3-1l1-2c1-1-2-3 1-4v-12Zm174-295a9 9 0 0 0 1-1l2-6 2-6v-1a6 6 0 0 0-1 1 61 61 0 0 0-5 9 4 4 0 0 0-1 2 3 3 0 0 1 2 2ZM247 796l4-1a64 64 0 0 1 6-2c4-1 5-4 6-7a44 44 0 0 1-16 10Zm-33 24c7-1 11-5 16-8v-2a2 2 0 0 0-1 0c-2 1-3 3-5 3-4 1-7 4-10 7Zm36 137c-1 6-3 12-3 19l5-15a3 3 0 0 0-2-4Zm368-445a70 70 0 0 0 9 4c3 1 5 4 9 4l-7-5c-3-1-7-4-11-3Zm23-166c2 0 4-2 7-1l1-3c-1-2-1 0-2 0a46 46 0 0 0-7 1l-2 2c0 2 2 1 3 1ZM269 802c-1-2-1 0-1 1l3 4 3-2a7 7 0 0 0 2-2 4 4 0 0 0 0-2l-1-1a44 44 0 0 1-6 2Zm146 67a1 1 0 0 0 0-1 3 3 0 0 0-3-1c-2 0-4 2-4 3a4 4 0 0 0 2 2 8 8 0 0 0 2 1h2l1-4ZM209 527l-2 2 1 1a14 14 0 0 0 5 2c2 0 3 2 4 0l-2-3a46 46 0 0 0-6-2Zm361 195-1 1c1 5 5 8 9 11h1a1 1 0 0 0 0-2l-9-10Zm-4-211c-3 0-6-2-10-1l-2-1c-3 0-4 0-6 2 6 0 12 2 18 0ZM220 889l-3 1c-5 1-9 4-12 7v1a3 3 0 0 0 1-1 21 21 0 0 0 2-1l4-2a11 11 0 0 1 4-2c1 0 2-2 3 0a13 13 0 0 0 1-2 1 1 0 0 0 0-1Zm16-149a23 23 0 0 1-3 0c-5-3-10-3-15-5h-1a1 1 0 0 0 0 1 7 7 0 0 0 2 1 31 31 0 0 0 10 3c2 0 4 2 7 0Zm150-23 2-1 6-2a24 24 0 0 0 8-7 6 6 0 0 0 1-1 5 5 0 0 0-1 0l-5 4c-3 3-7 4-11 6l-1 1Zm7 57h1a10 10 0 0 0 0-2l-4-7c-1-2-2-2-4-2l-1 1a2 2 0 0 0 0 1l8 9Zm15 84 2-5-2-5a25 25 0 0 1-1-3 27 27 0 0 0-1 9l2 4ZM133 646a21 21 0 0 1-3 0c-4-1-7 1-11 1l-6 2h4l9-1a25 25 0 0 0 4 0l3-2Zm114 392h-1a30 30 0 0 1-10 1l-2 3a1 1 0 0 0 1 1 4 4 0 0 0 2 0l10-5Zm389-568v-1h-2l-11 11-1 1h2l12-11Zm-68 32h-1a17 17 0 0 1-5-3 50 50 0 0 0-6-4 6 6 0 0 0-2-1l1 2 5 3c1 2 4 2 6 4h1l1-1Zm44 72v2l4 9a2 2 0 0 0 3 1h1a5 5 0 0 0 0-1l-8-11Zm-287 25v-2l-1 2-4 5c0 1 0 3-2 4a1 1 0 0 0 0 1h1c4-3 5-6 6-10Zm121 103c-1 0-1-2-2 0l-6 3a16 16 0 0 0-5 4v1h1l5-4c2-1 3-3 6-3l1-1ZM308 564l2 1 7 2a5 5 0 0 0 1 1v-2c-2-2-5-2-6-5a1 1 0 0 0-1 0l-3 3Zm271-111-1 1a2 2 0 0 0 0 1c2 2 4 5 4 8v1a6 6 0 0 0 1-1l1-1c0-2-3-8-5-9ZM435 808c3 2 7 3 10 3l1-1-1-2Zm130-260 3-3c0-2-2-1-3-1h-1c-2 0-3 0-4 2a1 1 0 0 0 0 1l5 1Zm-319 488-2-3-3 1h-3l-1 1c0 1 0 2 2 2Zm34-221c3-5 5-9 6-15-3 5-5 9-6 15Zm177-243v1c6-1 10 3 16 3l-4-3-12-1Zm-99 9a29 29 0 0 0-2 4l1 1 3 2 2-1c2 0 0-1 0-1l-3-4-1-1Zm-28 170-1 1 3 5c1 2 2 2 3 2h1v-1l-6-7Zm-57 63a32 32 0 0 0 1-3l1-2c-1-2-2 0-2 0a23 23 0 0 1-5 0Zm169-141-6 7-2 2c2 1 2-1 3-1a6 6 0 0 1 2-1c3-1 4-2 3-5a10 10 0 0 1 0-2Zm118 181v1l4 1c2 1 4 2 5 0 1 0 3 0 1-1 0-1 0-3-2-2a6 6 0 0 1-3 1h-5Zm-171 19 1 4c1 1 3 1 4-1l2-2c-1-2-1 0-2 0l-3-1-1-1-1 1Zm145-148c-5-1-8 2-11 4a1 1 0 0 0 0 1 1 1 0 0 0 1 1l10-6ZM309 573l-4-1c-2-1-2 1-3 2h-3a2 2 0 0 0-1 1v1a2 2 0 0 0 2 1c3-1 5-4 9-4Zm99 203 4-9-1-2s-2-1-2 1c0 3-2 6-1 10Zm298-398c12 4 12 4 16 2ZM382 766l1 4 7 6a4 4 0 0 0 1 1v-2l-9-9Zm-41-149 3-3v-1c-3-1-3-3-5-4l-1 1c2 1 1 3 1 4l2 3Zm51 102a34 34 0 0 0 4 0 42 42 0 0 0 5-1 2 2 0 0 0 1-1 13 13 0 0 0 0-3Zm25 105 2 8c0 2 1 1 2 1l1-3-5-6Zm213-249-8-7-1-1v2l4 4c1 1 3 3 5 2ZM507 761v2l3 3 5 8h1v-3l-8-9a3 3 0 0 0-1-1Zm-63-73a6 6 0 0 1-2 0h-1l-6 7v1l1-1 7-6 1-1Zm119-240-3-2-4 3-1 1 2 1 5-3h1ZM403 843c0-5 1-9-2-14-1 5 2 9 2 14ZM67 793v-1h-4l-7-2c-2 0-2-2-4-1a27 27 0 0 0 3 3 11 11 0 0 0 4 1h8Zm385-552a9 9 0 0 1 5-1l1-2a1 1 0 0 0 0-2 1 1 0 0 0-2 0l-5 4-1 1Zm-1 431-3 8c0 2 2 1 2 1h1a14 14 0 0 0 0-9Zm63 78c-2-2-4-5-7-6a5 5 0 0 1-1-1v2c1 3 5 4 8 5Zm62-267h-1a16 16 0 0 0 1 2l2 3c1 2 1 0 2 0v-1a6 6 0 0 1-1-2c0-2-1-2-3-2ZM413 848v2a7 7 0 0 0 2 2c1 1 3-1 3-2l-1-2-1-1a5 5 0 0 0-2 0l-1 1Zm137-344-5-2a18 18 0 0 0-2-1l-2 1v2l1 1c2-2 5 0 8-1Zm-233 626v-4a59 59 0 0 0-5-5h-2v2l7 7Zm354-845v-1h-2l-8 9v1h1l9-9Zm-479 787v-1h-6a6 6 0 0 0-4 2 2 2 0 0 0-1 1h1c2-2 4-1 7-1a22 22 0 0 0 3-1Zm310-582a16 16 0 0 0-2 3l3 2a2 2 0 0 0 2-3l-3-2Zm18 279c0-2-1-2-2-3l-5-7h-2v1c3 3 7 6 8 10h1Zm-235 337h-1l-6 2-2 1v2c1 2 1 0 2 0l2-1 5-4Zm120-247v7l1 1c3-1 3-2 2-4a34 34 0 0 0-3-4Zm-71-306c3 0 5-3 4-4l-2-1c0 3-2 2-3 2a1 1 0 0 0-1 2 12 12 0 0 0 2 1Zm270-2-2 4 1 4a17 17 0 0 0 2 3h1Zm-14 3-4 2a9 9 0 0 0 2 3l3-4-1-1Zm-473 87v1l7-1 7-1c-4-2-7 1-11 0l-3 1Zm367 57a5 5 0 0 0-1-1l-6-5a3 3 0 0 0-1 0v1l1 4h3l3 1h1Zm32-175a26 26 0 0 0 3-1l1-2-2-1a32 32 0 0 0-5 1v2a29 29 0 0 0 3 1Zm-91 308h1v-1l-5-8c0-1-1-2-2-1l1 2 4 7 1 1ZM101 644c1-3-1-7 1-10v-1l-1 1c-2 3-3 7 0 10Zm315 212a14 14 0 0 0-2 0l-1 1 2 3a3 3 0 0 0 3-2 2 2 0 0 0-2-2Zm231-397-3 2c1 1 1 3 3 3 1 0 2-1 2-3a11 11 0 0 0-2-2ZM258 809a2 2 0 0 0 0 1v5c2-2 4 0 5-1Zm-20 263 3-2 2-3h-6c2 2 1 3 1 5Zm438-529a36 36 0 0 0-2-3 8 8 0 0 0-2 2c-1 0-2 1 0 2s2 1 3 0a7 7 0 0 0 1-1ZM576 429h-1a15 15 0 0 0 0 4l2 2h2a20 20 0 0 0-1-2l-2-4ZM162 734l-3 4c-1 2 1 3 3 4Zm411 1-1 1 5 4c1 0 1 2 2 0a2 2 0 0 0 0-2l-6-3ZM129 625c3 1 5 0 8-1l6-1a36 36 0 0 0-8 0 38 38 0 0 0-6 2Zm563-269c-1 3 3 4 3 6a3 3 0 0 0 0 1l1-1v-2l-4-4ZM465 843h1l3-5a1 1 0 0 0 0-1h-1c-1 1-4 1-3 3a9 9 0 0 1 0 3Zm-356-4v-1a2 2 0 0 0-1 0l-5 8v1l1-1 5-6v-1Zm190-249h-1l-1 7 2 2c2-1 0-1 0-2s-1-3 1-4v-2l-1-1Zm13 17-5 2v2l2 1c1-1 3-2 3-4a4 4 0 0 0 0-1Zm145 108v-1a6 6 0 0 1-2 0c-3-2-6 1-8 0l-1 1a4 4 0 0 0 1 1l5-1h5Zm95-244c-2-1-5-1-5-5h-1l-1 1a15 15 0 0 0 1 4h6Zm-95 307h1l3-3-1-2-1 1c-1 3-1 3-5 2l-1 1 1 1a22 22 0 0 0 3 0ZM219 887a23 23 0 0 1-3 0 8 8 0 0 0-6 3l-1 1h1l9-4Zm130-347h-1a30 30 0 0 0-4 2l1 2a3 3 0 0 0 1 1l3-5Zm111 107v4a20 20 0 0 0 3 4 16 16 0 0 0 2 1v-1a6 6 0 0 0-1-1l-4-7Zm98-118v-1h-1l-3 3a1 1 0 0 0-1 1l1 3a4 4 0 0 0 1-1l3-4v-1Zm-280 535h1v-14h-1Zm227-344-4-4a10 10 0 0 0-3-1v1l2 3 5 1Zm-41-479h-1v6l1 7Zm-64 613 2-1a7 7 0 0 0-1-2 3 3 0 0 0-2 0l-2 1a3 3 0 0 0 1 2h2Zm169-295c-1 0-2 0-2 2s1 1 2 1 2 0 2-2-1-1-2-1Zm-262 56h1a8 8 0 0 0-1-1l-1-2-1-1a4 4 0 0 0-2 2l1 1a7 7 0 0 1 3 1Zm118-32c3 4 5 1 8 0Zm-209 489v1h9a2 2 0 0 0 1-1 5 5 0 0 0 1-1h-1l-4 1h-6Zm-15-167a23 23 0 0 1 0 4c0 1-2 2-1 4 4-2 3-5 1-8Zm234-104v1h8l1-1-1-1-8 1ZM322 616c0 3 2 3 3 4h1l-1-4a2 2 0 0 0-1-1 2 2 0 0 0-2 0v1Zm-79 409a14 14 0 0 1-1 3l-2 1 1 2h3a23 23 0 0 1-1-3 30 30 0 0 1 0-3Zm81-418-6 6a1 1 0 0 0 0 1h1c2-2 5-2 5-7Zm47 256v2l1 2 3-1-2-2a17 17 0 0 0-2-1Zm-35-264 1 2a9 9 0 0 0 2-1 7 7 0 0 0 1-2 1 1 0 0 0 0-1 16 16 0 0 0-4 0v2Zm-10 122-4-1a7 7 0 0 0-2 0 6 6 0 0 0 1 2l1 2 2-2a19 19 0 0 1 2-1Zm277-262h1l2-6v-1l-1 1c-1 0-2 0-2 2a24 24 0 0 1 0 4Zm-83 37 4-2-1-1-1-1a21 21 0 0 0-3 2v2h1Zm-63 288v-1h-2c0 2 0 4-2 4l-1 1a5 5 0 0 0 2 1 1 1 0 0 0 1 0l2-5ZM318 578v-2l-5-1h-1l1 1a41 41 0 0 0 4 2h1Zm322-229c3 1 5-1 8-2-3 1-6-1-8 2ZM293 592v-1a3 3 0 0 0-4 2 1 1 0 0 0 0 1 3 3 0 0 0 4-2Zm347-45-2-2a2 2 0 0 0-3 1c0 1 1 2 3 2a9 9 0 0 0 2-1ZM283 793a3 3 0 0 0-1-1h-1a189 189 0 0 0-1 7h1l2-6Zm149-162c3-1 6 2 9 0-3 1-6-2-9 0Zm-101-22h1v-8l-1-1Zm-14-19h-9Zm105-4c3 1 6 2 9 0Zm11-32h9Zm2-8c2 2 4 3 8 1Zm-50 275 1 7c-2-2 3-5-1-7Zm137-59-4-4-1 1 4 4a6 6 0 0 0 1-1Zm78-283c0 2-1 5 2 6 1-2-1-4-2-6Zm41-127a21 21 0 0 0 4 0s2 1 2-1-2-1-3-1l-3 2Zm-60 90h-1a12 12 0 0 0 1 4l2 2-1-3-1-3Zm43-21-3-2-2 1a2 2 0 0 0 3 2 23 23 0 0 0 2-1Zm-6 131 1 5a2 2 0 0 0 2 0 2 2 0 0 0 0-2 35 35 0 0 0-3-3Zm-310 40v-1h-1a35 35 0 0 0-2 3l-1 1h2l2-3Zm-42 200v1a28 28 0 0 0 4 0 8 8 0 0 0 3-1v-1l-2 1a27 27 0 0 1-5 0Zm168 39a16 16 0 0 0-2-3l-2 1 2 2h2Zm-97-269c2-1 2-3 2-5-2 2-2 2-2 5Zm160 148v1a23 23 0 0 1 3 1l3 1-2-3a13 13 0 0 0-4 0Zm-50 117-2-2-3 2a1 1 0 0 0 0 1 2 2 0 0 0 0 1 1 1 0 0 0 1 0c1-2 3-2 4-2Zm78-68v-1a37 37 0 0 0-2-3 1 1 0 0 0-1 0 1 1 0 0 0 0 1l2 2a4 4 0 0 0 1 1ZM307 588l-2-2-2 1 1 2a16 16 0 0 0 3-1Zm36 5c0 1-2 3 0 4l2 1a16 16 0 0 1-1-2v-2l-1-1Zm3 18h-1a30 30 0 0 0 0 3l1 1 1-1-1-3Zm75 269v-2l-1-1-1 5h2a15 15 0 0 0 0-2ZM311 615l-1 1 2 2 1-1-2-2Zm253 110v1a31 31 0 0 0 2 3l1 1v-2a25 25 0 0 0-2-2 3 3 0 0 0-1-1ZM352 591v-1a13 13 0 0 0-3-1 1 1 0 0 0-1 1 1 1 0 0 0 0 1 4 4 0 0 0 2 1l2-1Zm178 133a21 21 0 0 0-4-2l-2 2v1a9 9 0 0 1 1-1h5Zm-71-3h-7Zm93-248a20 20 0 0 0-3-1l-1 1 2 2 2-2Zm101 58a19 19 0 0 0-3-1c-2 0-1 1-1 2l1 1 3-2Zm-336 92h-1v4l1 1 1-1-1-4Zm226-60h1l2-4v-1l-3 3a4 4 0 0 0 0 1v1ZM414 770h1l1-3v-2l-1 1-1 4Zm188-208a8 8 0 0 0-2 1 9 9 0 0 0-1 1l1 1a3 3 0 0 0 2-1v-2s-1 0 0 0ZM304 748c2 2 2 2 5 0Zm-194-92c-2-2-4 0-5 0l-1 1h1l5-1Zm484-204-1-1a3 3 0 0 0-3 2v1h1l3-2ZM288 816c2 2 2 2 5 0Zm-181 29-1 3a8 8 0 0 0-1 1 6 6 0 0 0 2-1v-3Zm101 72-1-1-3 3 1 1Zm462-433h-1a27 27 0 0 0 1 3l1 1h1v-1a28 28 0 0 0-2-3Zm-397 566c1-2 2-3 0-4a6 6 0 0 0-1-1v1l1 4Zm149-357h1a29 29 0 0 0 1-3l-1-1-1 1a29 29 0 0 0 0 3Zm-88-85h1v-6l-1 1v5Zm173 109h1l-3-3-1 1Zm-224 344c2-5 2-5 0-6Zm246-343a8 8 0 0 1-1 0c-1 0-1-2-2 0a11 11 0 0 0-1 2 16 16 0 0 1 2-1h1l1-1Zm-65-122v1a23 23 0 0 0 3 1l2-1-1-1h-4Zm-113-1-3 3c3 0 3 0 3-3ZM179 736l-1-1-3 2 1 1 3-2Zm438-145a9 9 0 0 0 1-2l-1-1a5 5 0 0 0-2 1ZM472 773h-1a17 17 0 0 0 0 3 6 6 0 0 0 1 1l1-1a11 11 0 0 0-1-3Zm78-290-1 1 3 2h1a1 1 0 0 0 0-1 25 25 0 0 0-2-2h-1ZM427 839l1 1 2-3-1-1-2 3Zm-82-280c-3 0-3 0-3 2Zm-136 523h-6Zm115-252v1l3 3v-1l-3-3Zm-192 4-1-1-2 3v1a1 1 0 0 0 1 0 25 25 0 0 0 2-2v-1Zm269 24-3-2v1a2 2 0 0 0 2 1 3 3 0 0 0 1 0Zm-18 2-2 2 2 1 1-1a18 18 0 0 0-1-2Zm164-327-1-1-1 2 1 1Zm-32-2-1-1a13 13 0 0 0-2 2 6 6 0 0 0 2 1l2-2ZM212 932c3 1 4-1 7-2-3-1-4 1-7 2Zm340-425 4 1h1a6 6 0 0 0-1-1h-4Zm-95-138h-6Zm-16 266v-1h-6v1Zm-105-13a9 9 0 0 0 1 0 5 5 0 0 0-1-2l-1-1h-1l2 3Zm207-132 4 1h1a4 4 0 0 0 0-1c-2-2-3-1-5 0ZM113 843v-1l-1 1a9 9 0 0 0-1 2v1l1-1a13 13 0 0 0 1-2Zm201-289-2-1a23 23 0 0 0-2 2 3 3 0 0 0 1 0 14 14 0 0 0 3-1Zm121-5a6 6 0 0 0 6 0Zm-79 30 3-2v-1l-1 1-2 1a2 2 0 0 0 0 1Zm151 124h-1l1 1a9 9 0 0 0 2 1h1l-1-1a13 13 0 0 0-2-1Zm117-122 3-2-1-1a24 24 0 0 0-2 2v1ZM460 724h-5Zm0 81a6 6 0 0 0 6 0Zm-332 33h-1l-3 1v1h1a20 20 0 0 0 2-1l1-1Zm-40 19v-1l-1 1a9 9 0 0 0-1 2v1l1-1a13 13 0 0 0 1-2Zm246-245-2-1a17 17 0 0 0-2 2 6 6 0 0 0 2 0l2-1Zm243-168 1-2a23 23 0 0 0-2-2 3 3 0 0 0 0 1 13 13 0 0 0 1 3Zm-26 96a12 12 0 0 0-2-2l-1 1 1 1a7 7 0 0 0 2 0Zm27-104h-1l-1 1 3 2v-1l-1-2Zm-87-14c2 0 3 2 5 0ZM241 739v1h4l1-1Zm208-364c-2 0-3-2-5 0ZM300 569a12 12 0 0 0 2 0h1l-1-1s-1-2-2 0a5 5 0 0 1-1 0Zm154 149a6 6 0 0 0-6 0Zm-20-175v1h4v-1ZM98 845v-1h-1a7 7 0 0 0-1 2v1l1-1a9 9 0 0 0 1-1Zm323-256v1h4v-1ZM206 887l-2 2h1l2-2Zm-60-207-2-2h-1l2 2h1Zm84 226h1v-4h-1Zm331-368 1-2a3 3 0 0 0-1-1l-1 1a6 6 0 0 0 1 2ZM203 860v-1h-4v1Zm313-157v-2l-2 1 1 2ZM207 873l-1-1-2 2h1l2-1Zm43-71v-1h-4v1Zm81-243v-1a13 13 0 0 0-1-2 2 2 0 0 0-1 1 7 7 0 0 0 1 1 4 4 0 0 0 1 1ZM216 911l4-1h-3l-1 1Zm121-342v-4c-2 1-1 3 0 4Zm80 217a9 9 0 0 0 1-1l1-1h-1a7 7 0 0 0-2 1v1h1Zm-57-217h-1a13 13 0 0 0-2 1 2 2 0 0 0 1 1 7 7 0 0 0 1-1 4 4 0 0 0 1-1ZM121 694v-1h-4v1Zm180-122a9 9 0 0 0-1-1l-1-1v1a7 7 0 0 0 1 2h1v-1Zm-73 496v1h4v-1Zm412-490h2l-3-2v1a13 13 0 0 0 1 1Zm-426 503v-1h-4v1Zm139-500-1 1 2 2v-1l-1-2ZM125 835v-1l-1 1a7 7 0 0 0-1 1v1a2 2 0 0 0 1 0l1-2Zm180 348v-4c-2 1-1 3 0 4Zm137-630v-1h-4v1Zm-100 0-1-1-1 2a4 4 0 0 0 1 1Zm230-58-2-2v1l2 2ZM100 842l1-2v-1l-2 2 1 1Zm343-465v-1h-4v1ZM230 901v-3l-1 1a9 9 0 0 0 0 2Zm-5 4v-2a5 5 0 0 0-1 2 4 4 0 0 0 0 1ZM109 658l-2 1a4 4 0 0 0 1 0 8 8 0 0 0 2 0Zm338-287h2l-1-1a9 9 0 0 0-2 0Zm123 361-1 1a4 4 0 0 0 1 1l1-1ZM324 591h2a5 5 0 0 0-2-1 4 4 0 0 0-1 0Zm134 3-2 1a4 4 0 0 0 1 0 8 8 0 0 0 2 0ZM253 808l-1 2h1a4 4 0 0 0 1-1l-1-1Zm278-85h3l-1-1a9 9 0 0 0-2 0Zm-29 50a7 7 0 0 0 1-1v-1l-2 2ZM317 561a15 15 0 0 0-2-2 7 7 0 0 0-1-1v2a10 10 0 0 0 3 1Zm144 35h2a5 5 0 0 0-2-1 4 4 0 0 0-1 0Zm-116-19h2a5 5 0 0 0-2-1 4 4 0 0 0-1 0Zm81-43h2l-1-1a9 9 0 0 0-2 0Zm-53 326-1 1 2 1v-1a7 7 0 0 0-1-1Zm52-138h2a5 5 0 0 0-1-1 4 4 0 0 0-2 0Zm-76-120-2 1a4 4 0 0 0 1 0 8 8 0 0 0 2 0Zm107 37 1-1-1-1a4 4 0 0 0-1 2s0 0 1 0ZM208 865h-2a5 5 0 0 0 2 1 4 4 0 0 0 1 0Zm492-545-1-1a4 4 0 0 0-1 1l1 1Zm-53 154-1-1a4 4 0 0 0-1 1l1 1ZM314 580l1-1a4 4 0 0 0-1 0 5 5 0 0 0-2 1Zm35 1h2a5 5 0 0 0-1-1 4 4 0 0 0-2 0Zm212-117-1 1 2 1v-1a7 7 0 0 0-1-1Zm-17-1a7 7 0 0 0-1 1v1l2-2Zm-209 92-1 1a4 4 0 0 0 1 1h1Zm105-10h2a5 5 0 0 0-2-1 4 4 0 0 0-1 0ZM206 870l-1-1a4 4 0 0 0-1 1l1 1Zm217-34-1-1a4 4 0 0 0-1 1l1 1ZM298 562h2a4 4 0 0 0-1-1 8 8 0 0 0-2 1Zm276-110h2l-1-1a9 9 0 0 0-2 0ZM302 582l-2 2h1a4 4 0 0 0 1-1l-1-1ZM119 691h2a4 4 0 0 0-1-1 8 8 0 0 0-2 1Zm214-69v-3l-1 1a9 9 0 0 0 0 2Zm210 259v-2a5 5 0 0 0-1 2 4 4 0 0 0 0 1Zm-45-457h2l-1-1a9 9 0 0 0-2 0ZM145 621l1-1a4 4 0 0 0-1 0 5 5 0 0 0-2 1Zm124 166h2a5 5 0 0 0-1-1 4 4 0 0 0-2 0Zm161-402h-2a5 5 0 0 0 2 1 4 4 0 0 0 1 0Zm3 240h2l-1-1a9 9 0 0 0-2 0Z"/><path d="M173 879a4 4 0 0 1-1 1 8 8 0 0 1-2 0v-2a49 49 0 0 1 4-3l2-1-1 2a2 2 0 0 0 0 1ZM596 611a16 16 0 0 1-1-3l-1-14-2-8a35 35 0 0 0-2-8 5 5 0 0 1 0-2 1 1 0 0 1 1-1 1 1 0 0 1 1 1 40 40 0 0 1 2 7c1 5 3 9 2 14 2 4 0 9 1 14Z"/><path d="M592 593c0 3-2 5-1 8l-2 1-1-1c2-4 1-8 1-11l-2-9a4 4 0 0 1 0-2l1-1a1 1 0 0 1 1 0 40 40 0 0 1 2 6 15 15 0 0 1 0 3 17 17 0 0 0 0 3l1 3ZM542 593a41 41 0 0 1 1-7 43 43 0 0 0 3-14l2-1 1 2-2 10-3 10-1 1ZM549 589l1-5 3-11 2-1 1 1-2 5-2 9v2a7 7 0 0 1-2 1ZM562 573a6 6 0 0 1-1 1c-2 2-3 5-3 7a29 29 0 0 1-1 5l-2 1-1-1 4-13a2 2 0 0 1 3-1l1 1ZM586 585a24 24 0 0 0-1 4v5a3 3 0 0 1-1 2 2 2 0 0 1-2-1 3 3 0 0 1 0-2c2-3 1-7 1-11l1-2 2 2v3ZM582 580l-2 11-2 2v-3a14 14 0 0 0 1-7 32 32 0 0 1 1-7 1 1 0 0 1 1 0l1 1a34 34 0 0 1 0 3ZM566 574v2l-4 9c0 2-1 1-2 1l-1-1 5-10a2 2 0 0 1 1-1 3 3 0 0 1 1 0ZM579 576l-4 11-1 1a6 6 0 0 1-1-1 2 2 0 0 1 0-1l3-10c0-2 2-1 2-1l1 1ZM572 573a6 6 0 0 1 1 2 13 13 0 0 1-1 2l-1 6c0 2-1 2-2 3a1 1 0 0 1-1 0 2 2 0 0 1 0-2l2-9 2-2ZM132 844l-3 2c-4 1-7 4-10 6l-13 10c-3 2-6 4-7 8a1 1 0 0 1-1 0 1 1 0 0 1-1-1 6 6 0 0 1 1-3l8-6 9-7c4-4 10-7 15-10l2 1ZM138 847l-3 2a20 20 0 0 0-11 6l-13 13a14 14 0 0 1-1 2 1 1 0 0 1-2 0 1 1 0 0 1 0-2l3-2 8-8a72 72 0 0 1 10-9 10 10 0 0 1 9-2ZM173 869l-5 5-2 3c-2 1-1 5-5 2v1l-2 1v-2a37 37 0 0 1 8-11h1c2 3 3 0 5 0v1ZM149 857a6 6 0 0 1-1 1 20 20 0 0 0-6 5l-5 7-5 8a1 1 0 0 1-1 0l-1-1a3 3 0 0 1 0-2l13-16a8 8 0 0 1 5-2h1ZM136 877l1-1c3-6 6-11 10-15a30 30 0 0 1 5-3h2l-1 2a23 23 0 0 0-9 8c-1 3-4 5-5 9a12 12 0 0 1-1 2 6 6 0 0 1-1 1l-1-1v-2ZM118 872h-1a1 1 0 0 1 0-1 90 90 0 0 1 6-8l10-10c1-2 4-2 6-4a2 2 0 0 1 1 0 1 1 0 0 1 1 1l-1 1-5 2c-6 5-11 11-15 17a16 16 0 0 1-2 2ZM142 857a6 6 0 0 1-1 1 34 34 0 0 0-10 10c-2 3-6 4-7 8h-2a5 5 0 0 1-1 0 8 8 0 0 1 1-1 8 8 0 0 1 1-2l12-13 6-4h1ZM146 885v-2l5-8a94 94 0 0 0 8-9 4 4 0 0 1 1-2 4 4 0 0 1 2 0v2c-1 1-3 2-3 4l-9 10-2 3a11 11 0 0 1-2 2ZM157 862h1l-1 1a13 13 0 0 0-5 5c-3 4-7 7-9 12l-1 1-1-1a10 10 0 0 1 1-4l6-6 6-7 3-1Z"/><path d="m167 866-1 1c-4 2-6 6-8 10-1 1 0 3-2 3l-2 1a5 5 0 0 1 0-2c3-4 4-9 8-12a20 20 0 0 1 4-2l1 1ZM175 872l-3 3c-2 1-4 3-4 5l-2 1a11 11 0 0 1 0-1v-1c2-3 4-7 9-7ZM71 814l-7 1a148 148 0 0 1 14-5 46 46 0 0 1 7-2l9-1c1 0 3-1 3 2h2s2-1 2 1-1 1-2 1c-11-1-20 3-29 7a41 41 0 0 1-7 3l-1-1 1-1 5-1 11-6c1 0 3 1 3-1h-3l-15 5a41 41 0 0 1-4 2l11-4 11-4 1 1a13 13 0 0 0 2-1l-14 4Zm19-4v-1h-4v1ZM100 815c-6 0-11 1-16 3l-14 7a5 5 0 0 1-1 1v-2a8 8 0 0 1 2-1l15-7a13 13 0 0 1 6-2 5 5 0 0 0 2 0c3-1 3-1 6 1h4a1 1 0 0 1 1 1 2 2 0 0 1-1 1 3 3 0 0 1-1 0l-10 2a36 36 0 0 0-5 2c-4 3-9 5-12 9h-2v-2a19 19 0 0 1 7-5l10-5 9-3ZM81 807l-2 1c-1-2-3-1-5-1l-6 1a24 24 0 0 0-6 2 52 52 0 0 0-5 2 25 25 0 0 0-6 5h-2v-2a43 43 0 0 1 15-8l11-2a5 5 0 0 1 5 1 11 11 0 0 0 1 1ZM109 818l-1 1c-1 0-3-1-4 1-3-1-4 2-6 3l-9 4c-3 1-5 2-7 5h-2l1-1c0-2 2-3 4-4l8-3a77 77 0 0 0 9-6l7-1v1ZM113 822l-2 1c-4-1-7 1-10 2l-6 4-4 3-2-1v-1l9-5c3-1 5-3 8-3 2 0 3-2 5-1a13 13 0 0 1 2 1Z"/><path d="M112 825a26 26 0 0 1-4 2c-3 0-5 1-7 3a2 2 0 0 1-2 1c-2-1-2 2-4 1a19 19 0 0 1 3-3c4-3 9-5 14-4ZM114 829a10 10 0 0 0-1 0 58 58 0 0 1-12 4c-1 0-2 2-3 1a18 18 0 0 1 3-3l6-1 6-3 1 1v1ZM283 577c0-1 0-2 2-2 3 0 4 0 4 3 0 2-2 3-3 3s-3-1-3-4Zm5 1-2-1a8 8 0 0 0-1 1l1 1a15 15 0 0 0 2-1ZM597 438l4 1 2 4-2 2c-3 0-6 0-8-3v-2l2-2a10 10 0 0 0 2 0Zm0 2a10 10 0 0 0-1 0h-1v2l3 1h1a6 6 0 0 0 1-2l-2-1h-1ZM293 553v-2c0-4 1-4 5-4a2 2 0 0 1 2 1 3 3 0 0 1-1 3c-1 2-1 2-6 2Zm6-4-4 1h3l1-1ZM518 474c2 0 3 0 4 2a4 4 0 0 1-1 4c-2 1-3 3-5 2l-2-1c-1 0-2-1-2-3a4 4 0 0 1 4-4 14 14 0 0 1 2 0Zm-3 6c3 0 4-1 5-3a1 1 0 0 0-1-1c-1-1-2 0-3 1a1 1 0 0 0-1 0v2a10 10 0 0 0 0 1ZM506 524a4 4 0 0 1-4-5l4-2c1 0 3 2 3 4s-2 3-3 3Zm-2-1 1-1 1-2-1-1a17 17 0 0 0-1 2v2Z"/></svg>