<svg xmlns="http://www.w3.org/2000/svg" viewBox="0 0 375.1 218.1"><path d="m155 0-2 3a3 3 0 0 1-3 1 7 7 0 0 1-1 0c-3-1-4 3-7 2l-6-2a9 9 0 0 0-7 3 7 7 0 0 1-2 1 11 11 0 0 1-2 1l2 1 2-1 7-2 3-1c1 1 2 1 2 3a3 3 0 0 1 4-1c4 2 8 4 10 8s6 5 10 6c1 0 2 0 2 2 0 1 0 2 2 2a14 14 0 0 1 8 5 1 1 0 0 1 0 1l-1 1-3-1c-1 0-2 0-2 2-1 2-2 3-5 2l-2-2c-2 0-3 0-3 2l-2 1-2-1a6 6 0 0 1-6-2l-2-1c-3 2-5 1-7-1l-3-2h-15 3c2 0 3 1 3 3 0 3-1 5-3 7l-7 8c-2 2-5 3-8 3l-3-1a17 17 0 0 0-4 3l-3 4c-2 4-6 4-10 5H79l-3-1c-2 0-1-2-2-2a22 22 0 0 1-3-1h-1l-2-3c-3 0-4-2-5-3l-9-3h-1c-2 3-7 2-9 6-2 0-4 2-6 0l-4-1-1-1v2l1 2c0 2 1 4-1 7l-2 1c-2 0-4 1-4 4a2 2 0 0 1-1 1 34 34 0 0 1-4 2l-1-1-4-3-1 2-5 2-4 1a2 2 0 0 1-1 0c-2-2-4-1-6-1v-6l1-1 2-7 2-2v2c-2 3-2 6-2 10 0 3 0 3 3 3h5l2-1 5-4a82 82 0 0 0 6-8 5 5 0 0 0 1-5c-1-2-2-4-1-6 1-3-2-5-3-7l-1-1a2 2 0 0 0-1 2v4a1 1 0 0 1-2 1c-1-1-2-2 0-3l-1-2-1 1c-1 2-1 1-2 0a4 4 0 0 1-1-1c-1-3-1-3-4-2l-3 3c-1 1-2 2-2 0H2a10 10 0 0 0-1 3v7l-1 1V41a16 16 0 0 0 1-2c1-1 1-1-1-1v-8a11 11 0 0 1 3-1 7 7 0 0 0 7-4l1-2c4-1 4-4 7-6l-1-2a5 5 0 0 0-2-1 211 211 0 0 0-11 1c-1 2-4 4-3 7l-1 2V14c2 0 2 0 1-2a16 16 0 0 0-1-2V5l7-2c2-1 0-2 0-3h6v2a10 10 0 0 0 2-1l1-1h3a28 28 0 0 0 4 1c2 0 0 2 1 3a1 1 0 0 0 1 0c3 0 5 2 6 4l2 2 7 2 5-2a7 7 0 0 0 3-5V0h19l-2 7v1a1 1 0 0 0 2 0 8 8 0 0 0 3-8h2l-1 5-4 5a2 2 0 0 0-1 2 36 36 0 0 0 2 5c1 2 1 3 3 2a23 23 0 0 1 7-3l2-1c0-2-1 1-2 0l-2-1 1-1c1-2 4 0 5-2h-8c-2 0-3-1-3-3V5c3 0 3-2 3-5h1l1 4-2 3a3 3 0 0 0-1 1l1 2a3 3 0 0 0 2-1s-1-2 1-2c3-1-1-1 0-2l3-1c1 0 0 0 0 0h-1a8 8 0 0 0 1 2V4a13 13 0 0 1-3-4h2a13 13 0 0 0 3 2h-1l2 2-1-2a3 3 0 0 1-1-2h7a3 3 0 0 1-1 3v1l1-1 1-3h1v1l4 3 1-1 1-3h1v1c0 2 0 2 2 2h4c2-1 4-1 5-3h4c-1 2-4 3-3 5l-2 1-3 1h-1a5 5 0 0 1 1 1 4 4 0 0 1 2 2c0 2 1 0 1 0 4-1 8-5 12-4a7 7 0 0 0 3-1 9 9 0 0 0 3-3l-1-2Zm-15 24-1-2v1a13 13 0 0 0 1 2l-2-3h1l-1-3-1-1c-1 1 1 2 1 3l2 3ZM56 37c2 0 3 0 10 14a17 17 0 0 0 4 0 8 8 0 0 0 3-2 52 52 0 0 0 3-6 2 2 0 0 0 0-1c-2 0-1-2 0-3s-1-1-1-1l-1-1c2-2 1-3 1-5v-5l-1-3-3-2s-1 2-1 0l-1-1c-1 2-2 0-3 0h-1a2 2 0 0 1 1-1 5 5 0 0 1 1-1c-2-1 0-3-1-4l-3-4c-2-1-5 0-7 2s-2 5-5 5l-1 3c1 3-1 6-3 8a2 2 0 0 0 0 1c0 2 5 4 6 2 2-2 4-2 7-2l6-1c1-1 3-2 4 0l-3 3h-1l-5 2-1 1a7 7 0 0 1 1 0c2 0 2 0 1 2 0 2-1 4-3 5l-3 3c-2 1-1 3 1 3l5 2c2 1 3 1-2-15a4 4 0 0 0-4 2l-2 1a3 3 0 0 0 0 1 5 5 0 0 0 2-2Zm49-7h1l-1-3-1 1 5 1v-1l-1 1a11 11 0 0 1-1 1 4 4 0 0 1-1 0 5 5 0 0 0 1 1 1 1 0 0 0 1 0c1 0 1-1-3-1Zm-62-3h-1l-3 5v2l1-1a19 19 0 0 0 2-3l-3 5v-1l-2 1 1 1 5-9ZM29 7c-1-2-3-1-5-1l3 2a3 3 0 0 0 1 0l-7-6a20 20 0 0 0-2 0l-1 1c3 0 3 3 5 3a3 3 0 0 0 1-1l-1-3s-2 0 6 5Zm45 51 5-4h1a1 1 0 0 1 0 1l-2 3c-2 2 0 2 1 3s2 0 2-1a5 5 0 0 1 1-2c1-2 3-4 3-7a19 19 0 0 1 2-4 1 1 0 0 1 1 0l1 1a13 13 0 0 1-1 2l-1 7 2 4c1 1 2-1 3-1a4 4 0 0 1 2 0 6 6 0 0 0 4-2l12-12c2-2 2-4 1-7l-4-4-1-3c0-1-1-3-3-1s-2-1-2-2l-1 1v1c-3 2-2 4-1 6a2 2 0 0 1 0 1 1 1 0 0 1-1 1l-1-1v-5l-1-1c1 2-3 2-2 4a3 3 0 0 1 0 2 2 2 0 0 1-1 1h-1a2 2 0 0 1-1-2 23 23 0 0 1 2-2l-1-2c-1 0-1-2-3-1-1 1-2 2 0 4v1l-1 3-2 4a10 10 0 0 1-3 1c-6 2-7 8-9 13Zm58-34-2-3a53 53 0 0 1-3-6c-1-3-2-5-6-7l-6 2c-2 0-1 2-1 3 0 2 0 2-2 1l-2 1a3 3 0 0 1-3 1l-1 2a9 9 0 0 0 2 1 2 2 0 0 1 0 3 6 6 0 0 1-1 1h1c1 0 2 2 3 0 3 0 6 0 7 3l4 3 7-2a16 16 0 0 0 3-3Zm-22 5c0 4 0 7 4 8a2 2 0 0 1 2 3c-1 2 1 4 1 6l2 1a4 4 0 0 0 1-1l6-7 1-1c0-3-1-4-3-4h-4l-3-3a14 14 0 0 0-3-3 23 23 0 0 0-3-2ZM33 43v-4a5 5 0 0 0-1-2c-1-2-1 0-2 0s-2 1-2-1a14 14 0 0 0-3 1 2 2 0 0 0-1 2c2 4 4 8 3 13l1 7 1 2 2 2 2-3-1-2c0-2-2-3 0-6s1-6 1-9Zm3-10a7 7 0 0 0 0-1l-2-6-1-1a18 18 0 0 1-6 2 2 2 0 0 0 0 3l5 5 2 1a11 11 0 0 0 2-3Zm39 17 2-1c1-3 3-5 6-6a9 9 0 0 0 3-1v-7l-3 1-8 11a12 12 0 0 0-1 2l1 1c1 0 0 0 0 0Zm83-29-5-5c-1-3-4-3-6-3s-4 2-4 3c0 2 2 1 3 1l2 2 2 1h3a36 36 0 0 1 5 1ZM3 8l3 4c1 1 3-1 4 1h1a13 13 0 0 1 1-7l-1-1a6 6 0 0 0-2-1C8 7 5 7 3 8Zm169 22c-2-3-6-3-8-5l-4-1a27 27 0 0 1-5-2h-1l1 1c4 4 10 5 16 7h1Zm-20-7v7l1 3c0 2 1 1 2 1l1-1c0-4 0-8-4-10Zm-58-8h-1l-3 2v1c2 4 3 5 6 1a1 1 0 0 0 1-1 18 18 0 0 0-2-3h-1Zm22 32-1-7a3 3 0 0 0-1-2 3 3 0 0 0-2 0 2 2 0 0 0 0 2c2 3 2 5-1 8v1l1 1 4-3Zm27-29c-1 4 1 7-1 11l2 3c2 0 1-2 1-3v-5a9 9 0 0 0-2-6ZM63 31c-3 0-6-1-8 2l-2 1-4 4a1 1 0 0 0 0 1h1a6 6 0 0 0 2-1c3-4 7-5 11-7Zm20-5h-1c-2-1-3-3-3-5l1-1s1 2 1 0l-1-2-1 1a3 3 0 0 1-3 1h-1a6 6 0 0 1 1 1 3 3 0 0 1 1 1l4 5c0 1-1 2 1 2l1-3ZM25 60l-3 4v2c2 1 1 2 0 3l1 1a1 1 0 0 0 1 0 13 13 0 0 0 1-2c2-2 1-5 0-8Zm104-26c-1-2-2-3-4-3l-4-1s-2-1-2 1l2 2h1c2 0 5-1 6 2ZM26 25c4-2 3-5 3-8l-2-1a4 4 0 0 1 0 1c-2 3-1 5-1 8Zm-10 1v-1c-1 2-3 0-4 0l-2 2 4 3 2-4Zm32 18c-3 2-4 4-3 7 3-2 3-4 3-7ZM13 13c2 0 4-1 6 1h1l-1-3h-2a46 46 0 0 1-4 2Zm11 9h1l-1-7-1-1v1l1 2-1 2a9 9 0 0 0 1 3Zm22 6c1-3 4-5 2-8l-2 8Zm40 27-3 3a2 2 0 0 0 0 2 7 7 0 0 0 2 1 5 5 0 0 0 1-2v-4ZM60 38c-4 0-4 3-6 5v1l1-1 5-5Zm105-8v1l3 3a1 1 0 0 0 2 0 2 2 0 0 0-1-3l-4-1Zm0 3a4 4 0 0 0 0-1 18 18 0 0 0-2-2 5 5 0 0 0-1-1 6 6 0 0 0-1 2l3 2h1ZM140 1a20 20 0 0 0 2 3h2a5 5 0 0 0-1-2l-3-1Zm9 29c2-5 1-5 0-7ZM103 5h3l2-1-2-1-3 2Zm43-4v1a5 5 0 0 1 2 0c0 1 1 2 2 1a20 20 0 0 0-2-2h-2ZM35 46h-1v5h1Zm123-17a6 6 0 0 0 0 6Zm-11-3a6 6 0 0 0 0 6ZM43 22l-1-1-1 1a11 11 0 0 0 0 2s1 0 1 0l1-2Zm97-6 1-2a4 4 0 0 0 1-1 2 2 0 0 0-1 0l-1 2-1 1h1Zm-1-2-2-1a5 5 0 0 0-1 1l1 1 2-1ZM21 68v-2l-2 1 2 2Zm23-22h-1v4h1Zm27 9v1h1a7 7 0 0 0 1-2v-1l-1 1a9 9 0 0 0-1 1Zm42-30v1l3 1v-1l-1-1a7 7 0 0 0-2 0ZM100 5V4l-2 2h1a7 7 0 0 0 1-1Zm43 5h-2a5 5 0 0 0 1 1 4 4 0 0 0 2 0ZM83 5l-1 1a4 4 0 0 0 1 1h1ZM311 147c-4 1-8-1-12-3l5-3a6 6 0 0 1 2-1l8-1a4 4 0 0 1 3 0l6 1a5 5 0 0 1 3 1l8 7 2 4v3l2 2c-1 2 2 2 3 3a3 3 0 0 1 2 3c0 2-1 2-3 3-3 2-6 3-7 8a3 3 0 0 1-1 1l-1 5c1-2 1-2 3-1 1 2 2 2 0 5-2 1-3 3-2 6a9 9 0 0 1 8-3c3 0 5 0 7-3 0-2 2-2 4-2l1-1c-3-3-2-6-2-10a6 6 0 0 1 2-5c3-2 4-4 4-8a9 9 0 0 1 1-3 1 1 0 0 1 1-1c2 0 4 0 5 2h3a7 7 0 0 0 1-1l4-3 4 3v10c-2-1-1-3-1-4l-1-5c-1-1-2-2-4-1-1 1-2 3-4 3a5 5 0 0 0-2 2c1 2 1 2-1 2a2 2 0 0 0 0 1l1 3c1 2 1 4-1 5v2h2c1-2 3-2 5-2s4-1 5-3l1-1v6c-1-1-3-2-5 0a9 9 0 0 1-2 1l-2 2h4v1l-3 1c2 0 0 1 0 2 2 3 1 6-1 9a11 11 0 0 0-2 4 2 2 0 0 0 1 1 7 7 0 0 1 5 2l-1 2h-2c-2-2-4-1-6 0l14 4v2l-3-1a14 14 0 0 0 1 3c1 1 0 2 2 3v3l-4-4c-1-2-4 0-5-2a1 1 0 0 0-1 0v1l3 4 1 1a1 1 0 0 0 0 2 8 8 0 0 0 6 1 9 9 0 0 1 0 2s1 1-1 1h-9c0-2-3-2-4-3-5-4-11-6-17-6h-7a3 3 0 0 0-2 1 3 3 0 0 0-1 2 2 2 0 0 0 3 2c4-1 7 2 10 4h-12c-2-4-5-4-8-3a38 38 0 0 1-7 2v1h-2c1-3 4-1 5-3h-2c-3-2-4-2-4 3h-14l2-3a8 8 0 0 1 3-5c4 1 1-3 3-4a20 20 0 0 1 2-1 5 5 0 0 0 1-1 3 3 0 0 0-4 0 7 7 0 0 1-6 4h-16c-2 0-2 0-2 2 1 2 1 6 3 8h-20l-2-6-3-6c-1 4 0 8 1 12h-1l-1-4a10 10 0 0 1-1-5c0-5 0-5-5-8-1-1-4-1-5 1l-1 4 2 1 2 3c0 3 2 4 4 5s2 2 2 3h-1l-2-2v2h-1v-2l-4-5h-1l-1 7h-1a35 35 0 0 1 0-6c0-1 2-2 1-3l-1-6-1-1-1 1c2 2 1 4 1 6l-2 9h-6a14 14 0 0 0 0-1c0-2 0-3 2-3l2-1a46 46 0 0 0 1-5l-1-1c-2 0-2-1-2-2l-4-2c-2 0-2 2-3 2l-3-2c-2 0-4 0-5 2l-2 5v1c3 0 2 2 2 4l-1 3h-2a4 4 0 0 1 0-1c0-1 2-2 0-2l-7 3h-11c-1-3-3-5-6-7a6 6 0 0 0-3 0 7 7 0 0 1-5-3 3 3 0 0 0-1-1c-1 2-4 0-4 1-2 3-4-1-5 1l11 9h-4c-2-4-6-5-8-8a1 1 0 0 0-1 0v1l4 7h-3c0-3-2-4-3-6l-1-3c0-1-1-3 1-4 1-1 3 0 4 1a4 4 0 0 0 1 0l1-1v-1h-1a87 87 0 0 1-9-5c-2-1-4-3-4-5l-2-4-1-4 1-3c1-1 1 1 1 2a14 14 0 0 0 4 0c2 0 4-1 5 2l2 1 5 1c2 1 2 1 3-1l1-1a65 65 0 0 0 4 6l2 6a4 4 0 0 0 2 4 10 10 0 0 0 2 1c0-1 2 0 2-3 0-1 0-3 2-4a6 6 0 0 0 1-6c-1-3-2-7-5-8a6 6 0 0 1-2-1v-2a1 1 0 0 1 1 0l8 2c3 1 4 5 6 8l-1 5a12 12 0 0 1-4 5l-5 6v1l4 6c0-3 0-5 2-7 1-1 0-3 2-4s0-3 1-5l1-3c3-1 3-3 4-5a7 7 0 0 1 3-4l2-2c1-2 1 0 2 0v3c4 4 3 10 3 15l12-6 2 1 2 2 1 1c2-1 5-2 7 0a2 2 0 0 0 2 0c1 0 3 1 3-1 0-1 1-2-1-3a3 3 0 0 1-1-1 2 2 0 0 1 1-3 17 17 0 0 1 2-3c2-1 2-2 1-3a5 5 0 0 1-1-3c0-5 0-5-2-8-2-2-1-5 1-6l10-4c1-2 2 0 3 0l8 6 1 1 2 2a2 2 0 0 0 1-3c0-2 0-4 4-4a8 8 0 0 0 4-2h2l3-2a2 2 0 0 1 2 0l7 1 3 1a7 7 0 0 0 3 4c2 2 2 5 3 7l-1 5h1c2 0 4-2 7 0 4 1 6 3 8 6 0-5 2-10 5-14 0-2 0-2-2-2l-5 1-1-1c0-3 0-5 3-9l-8 1-9 1a5 5 0 0 0-1 1v-2c2-3 3-6 7-8l1-1-8 1-5 1c1-4 4-6 7-8h6v-1a32 32 0 0 0-6 1Zm-38 47h2l-1-1a10 10 0 0 0-2 0h-1l1-1h-1l-5-2h-1v1l8 3Zm35-7a3 3 0 0 0 3-2 13 13 0 0 0 1-2 3 3 0 0 0-3 1 13 13 0 0 1-2 1 8 8 0 0 0-1 1c1 1 1 1 8-5l-2 2a2 2 0 0 0 1 0 8 8 0 0 0 2-1 1 1 0 0 0 0-1l-7 6Zm3 23 4-4c-4 0-4 1-4 6l-1-1a3 3 0 0 0-3 2v1h1a8 8 0 0 0 3-4Zm2-62v1h16a16 16 0 0 1 4 5l2 3c1-1-1-2-1-3a6 6 0 0 0-1-3l-3-3a61 61 0 0 0-9-1l-4 1a10 10 0 0 0-6 2h2l-1-1a13 13 0 0 0-2 1l3-2Zm-47 38-2-3a1 1 0 0 0-1 0v1c1 1 1 2 6 2h-3c2 1 0 3 0 3 2 0 3 2 5 1l-2-3h5l-2-3v-2h2a9 9 0 0 1 2 2l1 1 3-2 1-3c-1-3-1-6-4-7s-5-4-7-6-2-2-5-1l-6 2h-1l1 5c4 4 6 9 7 13Zm59 18 7 1 3-1a6 6 0 0 1 3 1l6 1h4c3 0 6 0 8 3 1 0 2 2 4 1l-5-5a8 8 0 0 1-2-4 38 38 0 0 1 0-7c0-1 2-1 0-2l-6-1a13 13 0 0 0-8-1l-9 7c-1 1 0 2-2 3l-3 4Zm-64-15a24 24 0 0 0-4 3l1 3c0 2 1 3 3 3a9 9 0 0 1 8 3 5 5 0 0 0 2 1 6 6 0 0 1 4 6l1 1 4 2c2 1 2-1 4 1l1-1v-8c0-2 0-3-2-3l-1-2c0-1-1-2-3-2a20 20 0 0 1-3 0 23 23 0 0 1-4-1c-4-1-8-2-10-6h-1Zm-49 29a23 23 0 0 1 2-3c3-4 6-8 5-13a14 14 0 0 1 2-8 7 7 0 0 0 1-4c0-1 1-3-1-3l-2 2a5 5 0 0 0-1 2c-1 2-1 3-4 5a4 4 0 0 0-1 3 29 29 0 0 1 0 5c-4 1-2 5-5 6v2l4 6Zm93-51-2 5a44 44 0 0 0-3 3l-4 1h-1v1a1 1 0 0 1-1 1 1 1 0 0 1-1-1v-2c2-1 0-4 2-5l-1-6a1 1 0 0 0-1 0l-2 1c0 3-2 5 0 8s1 6 1 9c-3 2 2 2 1 4a3 3 0 0 0 1 0c0-2 3-2 4-3l2-2 2-3c2-2 4-4 5-8v-2l-2-1Zm-2 33c4-1 8-1 11-3a10 10 0 0 1 5-2 9 9 0 0 0 3-2l1-2v-4a5 5 0 0 0-2 1 18 18 0 0 1-7 3l-5 2c-2 3-5 3-8 4-1 1-3 2-3-1l-1 1s-1 2 1 2l5 1Zm-5-7c0 2 2 4 5 3a22 22 0 0 0 8-6c1-2 2-3 5-3l3-2a1 1 0 0 0 1-1l-3-1c-2 2-5 0-5 3a2 2 0 0 1-3 2c-3-1-6 2-9 2a2 2 0 0 0-2 3Zm10 11a43 43 0 0 1-4 0l-4-1c-4-3-7-2-11-2v3c0 2 1 3 3 3h10a7 7 0 0 0 6-3Zm-132-17h-2l-1 1c2 3 4 5 7 6l12 5a5 5 0 0 0 1 1v-2c-3-5-8-7-12-9-3 1-4 1-4-2h-1Zm151 4a7 7 0 0 0 0-1l-2-3c-2 1-1 2-1 3a2 2 0 0 0 0 1c1 3-1 4-3 5-3 0-5 2-7 3 0 1-2 1 0 2h4l6-3a7 7 0 0 0 3-7Zm-41-8c2 0 2-1 2-2l-1-1a43 43 0 0 0-2-6c-1-2 0-4 1-6l-1-1-3 3a18 18 0 0 1-1 5l3 6 2 2Zm-94 19c-4-3-8-6-12-6l-4-2-1-1-2-1a6 6 0 0 0 3 5c2 1 3 3 6 3a2 2 0 0 1 1 1l4 1h5Zm86 9c-2-1-5-1-4-3l-1-1-8-7a7 7 0 0 0-2-1 4 4 0 0 0-2 0l1 1a3 3 0 0 1 1 2s-2 1 0 1c2 1 3 5 7 4v1c2 4 4 3 8 3Zm47-6a26 26 0 0 0-2 3v2a20 20 0 0 1 2 2c1 2 1 2 3 1 2 0 2-2 3-3a2 2 0 0 0 0-1 16 16 0 0 0-3-1l-2-3h-1Zm-42-20v-1a2 2 0 0 0-1-1h-1c0 2-2 3-4 4s0 1 0 1l-1 3c-4 1-1 1 0 1h2c4-1 4-4 5-7Zm6-20h-1l-2 6a4 4 0 0 0 0 3 20 20 0 0 1 3 11c2-4 3-7 1-10a7 7 0 0 1-1-4v-6Zm17 19c-4-1-7 1-10 2l-1 1c2 1 0 1 0 1l2 2c3-2 7-2 9-6Zm10-34 10 4 5 2c0-3-2-4-4-5a6 6 0 0 0-3-1h-8Zm46 43c-2-3-1-5-1-8a16 16 0 0 0-1-3l-1-1v1l-2 3v5l4 3h1Zm-37-49h-3l-3-1a15 15 0 0 0-3-1 14 14 0 0 0-3 0 15 15 0 0 1-3 1 5 5 0 0 0-3 1 6 6 0 0 1-2 0l6 1h4c2 1 3-2 5-1a6 6 0 0 0 5 0Zm-117 54h1l1-3 1-4a12 12 0 0 0-1-2l-1-2a15 15 0 0 0-3-3h-1a1 1 0 0 0 0 1c3 2 3 5 3 8v5Zm146-20c1-4 0-9 3-13v-1l-1 1c-4 5-5 8-2 13Zm-44-5v-1a2 2 0 0 0-2 0l-1 2c0 2-2 3-4 4a15 15 0 0 0-2 2v2a4 4 0 0 0 1-1 18 18 0 0 1 2-1c4-1 5-4 6-7Zm-62 33c-2-3-4-6-8-5h-4l-1 1c1 2 1 0 2 0h4c2 0 3 1 3 2 0 2 0 2 2 2h2Zm14-19v-5c1-2-1-2-2-3-1-2-1 0-2 0 0 2-1 3 1 4l3 4Zm97-26a29 29 0 0 1 3-2l1-2a9 9 0 0 0-3-2l-2 1 1 5Zm-55 5-1-2a2 2 0 0 0-1 1 3 3 0 0 0-1 2v3c0 1-2 1-1 2a6 6 0 0 0 2-2 38 38 0 0 0 2-4Zm-81 22c0 3 0 6-2 9v1l1-1a14 14 0 0 0 3-3c0-2 1-4-2-6Zm133-17a45 45 0 0 1 0 6c0 1-2 3 0 5v-2l3-4-2-5h-1Zm-56 30v1l5 1c2 0 3-2 6-1a2 2 0 0 0 0-1l-1-1c-2 2-5 1-7 1h-3Zm-79 5a25 25 0 0 0 3-3l1-3a8 8 0 0 1-2 1c-3 1-2 3-2 5Zm115-38c1-3 2-4 4-4h1a5 5 0 0 0-1-1c-2-2-3-1-4 1a24 24 0 0 0 0 4Zm-40 2h1v-6h-1a2 2 0 0 0-1 2l1 4Zm32-3v1h3a6 6 0 0 0 2-1l-1-1h-1a17 17 0 0 1-3 1Zm-135 37h-6v1l1 1 5-2Zm106-33v-7c1 2-2 4 0 7Zm-10 22-2 2 1 2a3 3 0 0 0 2-2l-2-2Zm31 12 1-2c0-2-1-1-2-1l-1 1a21 21 0 0 0 2 2Zm22 3h-7Zm14-9v1c-1 2 1 2 2 3h1c1-2-1-2-1-3a11 11 0 0 0-2-1Zm-39-43h-1l-3 3v1h1l3-3v-1Zm-81 43h5v-1l-1-1-4 2Zm21-27-1-2-1 2a9 9 0 0 0 1 2Zm55-32a6 6 0 0 0 6 0Zm38 68a6 6 0 0 0-6 0Zm-143-17a6 6 0 0 0 0 6Zm113-8 1-1-1-1a4 4 0 0 0-2 1Zm-3 6-1-1a10 10 0 0 0-2 0v2Zm-95 20a7 7 0 0 0 1-1v-1l-2 2Zm92-57 1-1a4 4 0 0 0-1 0 5 5 0 0 0-2 1Zm11 33-2-1a8 8 0 0 0-1 1l1 1a15 15 0 0 0 2-1Zm-47 9h-2a4 4 0 0 0 1 1 8 8 0 0 0 2-1Zm10 11-2-1v1a4 4 0 0 0 1 1s1 0 1-1Z"/><path d="M239 218v-6a5 5 0 0 1 1-3h2l-1 1a16 16 0 0 0-1 8ZM34 0v1h-9V0ZM88 116a10 10 0 0 1-3-1v-1a7 7 0 0 1 1 1 15 15 0 0 1 2 1Z"/></svg>