<svg xmlns="http://www.w3.org/2000/svg" viewBox="0 0 1228.2 209.1"><path d="M1140 0c2 2 1 5 1 7a6 6 0 0 0 0 1h2l4-3a1 1 0 0 1 1 0l9 4 1 2c3 0 5 0 4 4l2 1c4 2 4 3 3 7a13 13 0 0 0 0 3c0 4-1 8-6 11-1 0-1 1 1 2a16 16 0 0 1 2 2c4 3 5 6 3 13a3 3 0 0 0 0 1l7-6 4-1a27 27 0 0 0 6-2c1-1-1-1-1-1l-4-2-2-2c5-6 5-6 11-6-4-2-7-3-10-6l-6-5v-1a39 39 0 0 1 5-2 8 8 0 0 1 2 0l6 1a2 2 0 0 0 0-1v-1c-3 0-4-4-7-4-2 1-2-3-4-2l1-2h12a30 30 0 0 1-5-2 5 5 0 0 1-2-4c0-2-2-3-3-5l9 1 2 1c0 2 2 2 3 3 2 1 5 2 5 5l3 4 2 5c0 1 1 3-1 4l1 4a29 29 0 0 1 0 4l-1 4c-2 1-1 4-3 6v1a16 16 0 0 1 1 3c0 4-1 5-5 3-2-1-5 1-6-2-2 2-5 2-7 3l-4 2c2 1 5 1 7-1a4 4 0 0 1 4-1c3 2 7 1 10 1a29 29 0 0 0 9-2 31 31 0 0 1 3-2h2l-1 2c-2 3-6 5-10 5-5 0-9 1-12 5-1 2-2 3-4 1-1-1-2 0-3 1l-2 1a33 33 0 0 0-9-1 18 18 0 0 1 11 6l3 1c2 0 4-1 5 2a1 1 0 0 0 1 0l2-3 5-7a5 5 0 0 1 5-2h4l4-2 3-2c3-1 6 0 6 3v4h5l4 2a7 7 0 0 1-1 5l-8 9a8 8 0 0 0-1 5v9l-1 1c1 5-2 6-6 7a12 12 0 0 0-3 2 3 3 0 0 0-2 3c0 2-1 3-3 4a15 15 0 0 1-3 1l-2 1 1 3 1 1c-1 1 0 3-2 3l-4 1-1 2 1 1a34 34 0 0 0 4 5 3 3 0 0 0 2 1c3 0 6-1 8 2h3l1 1-1 1a12 12 0 0 0-5 2l-3 2c-1 2-2 2-4 2h-11a56 56 0 0 0 4 4c2 1 2 3 4 3 1 4 5 6 4 10a9 9 0 0 0 1 4c0 1 2 3-1 4a5 5 0 0 1 0 2c0 1 3 3 0 4l1 2c1 4 2 8 5 11-5 0-6 0-8-5a2 2 0 0 0-1-1c-5-3-7-5-8-10l-1-2-1-2a19 19 0 0 1 0-4c1-3-1-5-2-7l-2-1-1 2a32 32 0 0 0 2 4 31 31 0 0 1 2 9 17 17 0 0 0 3 8 13 13 0 0 1 2 4l2 1a3 3 0 0 1 1 2c2 6 5 11 5 18l1 2c2 2 4 5 3 8a5 5 0 0 1-1 2 2 2 0 0 1-1 0l-1-1c1-6-4-9-9-12a30 30 0 0 1-4-4 5 5 0 0 1-2-3l1-10c1-4-1-8-2-12-2 6-5 10-9 15l-9 10a27 27 0 0 1-6 5 15 15 0 0 1-7 2c-3 0-5-2-7-3a2 2 0 0 1-1-1l2-1c3-1 5-3 6-6l3-6c3-3 7-5 10-6a8 8 0 0 0 4-3l4-5c2-3 2-7 2-11a25 25 0 0 1 1-7v-11l-1-3v-7c-1-2 0-4-2-6v-10a52 52 0 0 0-5-20l-5-8a3 3 0 0 0-3-1c-2 0-3 1-5-1h-1l1 1 2 5a57 57 0 0 1 1 9 12 12 0 0 1-1 2v3l1 3a5 5 0 0 0 0 1l2 6 1 6a8 8 0 0 1-2 9 4 4 0 0 1-3 1c-2 0-3 1-3 3v1c0 1 1 3-1 4-3 1-5 2-7 1l-2-1h-2l-5 4c-4 3-10 1-13-3a4 4 0 0 0-2-2c-3-1-6-1-8-4a13 13 0 0 0-2-1c-2-1-3-2-3-5s-1-3-4-2a9 9 0 0 1-4 0h-1a6 6 0 0 1-1 3l1 2s2 1 1 2a2 2 0 0 1-3 0l-3-1-4-1h-1l-4-3c-1 2-2 1-4 0l-3-3c-2-1-2-3-2-5a6 6 0 0 0-1-3c-1-2-2-4 0-5l-1-4a33 33 0 0 0-9-12c-1-1-3-3-6-1-3 0-6 0-8-3a3 3 0 0 1-1-1c0-2-2-2-2-2a45 45 0 0 0-5 3c-1 0-2 2-4 1l-1 1a1 1 0 0 0 1 1c2 1 4 2 4 4a4 4 0 0 0 3 2 19 19 0 0 1 7 9v1l-1 1 2 3c-1 3 1 6 3 8a4 4 0 0 1 0 3c-5 1-4 4-4 7 0 1 0 3-2 3l-3 12a1 1 0 0 1-1 1 1 1 0 0 1-1 0l-2-12-2-5-2-6-2-2c-2-1-3-3-4-6l-1-9c0-3 0-5-3-6l-2-6-7 10a11 11 0 0 1-2 2c-1 1-1 3 1 3h1c2 1 4 2 4 4 1 3 3 5 3 8a2 2 0 0 0 0 1c3 3 2 7 3 10l-1 1c-3 0-2 2-2 3v1c-2 2-2 5-3 7a2 2 0 0 1-2 1l-1 2a4 4 0 0 1-1 2c-2 2-5 3-5 6a4 4 0 0 0-3 3c-3 0-5 2-7 3a1 1 0 0 1-1 0c-1-1-3-2-2-4l1-1c-2-1 1-3-1-5a5 5 0 0 0-2-1c0 2-2 1-2 2 2 2-1 3 0 5a6 6 0 0 1-1 6c-1 1 1 4-1 5v2c0 1 0 3-2 3l-1 2v1c-3 0-3 5-7 5l-2 2c-2 3-5 3-8 3 3-3 3-6 1-9l-1-5v-1c3-2 1-4 1-6s-1-5 1-7l-1-1c0-1-1-2 1-3a4 4 0 0 0 1 0 4 4 0 0 0-1-1l-6-1 8-11c1-2 3-3 6-3h3l4-6-1-1-3-3c-1-2-2-1-3 0-2 2-5 1-7 0h-4a12 12 0 0 1-4 1c-4 1-9 5-11 8v5l-1 2-2-1v-17l3-3c2 0 2-1 2-2l3-3c3 0 5-2 8 0h3a10 10 0 0 1 3 0 18 18 0 0 1 6 4 4 4 0 0 0 4 1c2 0 3 1 4 3a8 8 0 0 0 0 1l1-1 1-3 4-6v-1l-4 1-5-2a29 29 0 0 0-5 0l-2-1-2-1c-2 2-5 2-7 2a6 6 0 0 1-4-1 13 13 0 0 0-9-2 7 7 0 0 1-6-2l-6-2a4 4 0 0 1-1-1c6-4 9-9 15-12a74 74 0 0 1 8-2 4 4 0 0 0 3-1 22 22 0 0 1-3 0c-2 0-3-2-4-3a1 1 0 0 1 0-1 17 17 0 0 1 2-2l1-1c7-6 7-6 17-9l5-3c1-1 4 1 6-1h4c2 0 4 2 6-1h1c2 2 5 1 7 1 5 1 9 3 11 8a7 7 0 0 1 1 3c0 3 2 4 5 4 4 0 8-1 11-3l1-1 4-2-3-3-4-2c-4-2-7-5-8-10-1-3-1-7-3-10l-1-2c-2 1-3-1-5-2a19 19 0 0 1-4-9 27 27 0 0 0-1-5 14 14 0 0 1 0-10c1-2 1-3 3-3h3a22 22 0 0 0-3-3 18 18 0 0 0-4-1h-1l-4-3c-1 2-3 1-4 1h-3c-2 0-3-1-4-3 0-1-1-2-2-1a4 4 0 0 1-4 1l-6-3a5 5 0 0 1-1-2l-1-2c-3 1-6 0-7-3V5c1-1 0-2-1-2l-4-3h6l2 2c3 1 6 3 10 3h12V4l-7-1c-2 0-5 0-7-3h11l-1 1h-4a13 13 0 0 0 6 1l2 1 6 1c2 1 3 2 5 1s-1-3-1-5h14l3 6c1 2 3 3 5 2l-4-8h9c-2 4-2 4 1 7l1 2c3 0 3 3 5 5l3 5h3s2-1 2 1a3 3 0 0 0 1 1v-1a4 4 0 0 0-1-2l-2-2c0-1-2-1-1-3a7 7 0 0 0 0-5l-3-3-5-5h3a6 6 0 0 0 3 4c2 1 2 3 4 0 0-2 2-3 4-3 1 0 3 1 3-1h3a2 2 0 0 1-2 2h-3c-5 1-6 4-4 8 1 1 3 2 3 4 1 2 1 2 3 1l1 2v1a2 2 0 0 0 3-1c2-5 7-7 10-10a1 1 0 0 1 1-1l2 1-1 1-4 3c-2 0-2 1-3 2h1a8 8 0 0 0 2-2h2l1 2 6-2c2-1 1-2 0-3s-2-1-1-3 2-2 0-3V0h6c4 2 4 2 7 7a23 23 0 0 0 3 3l2-4 1-1c0-2 1-3 3-1l1-1h5V0h1v12l1 3c1 1 1 3 3 3l-2-4-1-5a24 24 0 0 1 2-6l1-1v1c-1 2-2 3 0 5v4a26 26 0 0 1 2 5v-6l1 1c-1 2 2 2 2 3a24 24 0 0 0 2-2 3 3 0 0 0 0-2l2-1c2 0 1 2 1 2l-1 3h1l4 1c1 0 2 0 2-2 4-5 5-8 3-14Zm-74 84h1l-1-1a13 13 0 0 0-2 1l5-2-2 1h1a13 13 0 0 0 2 0c0-1-1-1-4 1Zm116-70h1a3 3 0 0 0-1-1 8 8 0 0 0-2 1l7 1a29 29 0 0 0-2-1 4 4 0 0 0-2 0s0 1 0 1l3 1-4-2Zm-78 78a3 3 0 0 1-1 1l-1 4h1l1-3a3 3 0 0 0 0-1l-2 4c-2 1-1 2-32-13l5 1c2 2 5 4 9 4 0 0 2 2 1 3v1c2 0 3 2 4 3 0 3 1 3 3 4 1 1 3 1 2 3-1 1 1 2 1 3l2-1 4-3v-2l-1 1h-1l-5-1c-1-1-3-2-3-4l-3-6c-2 0-2-4-3-5l-2-1c-4 0-8-2 18 16 2 0 1-2 3-8Zm-54-55-1-1-1 1c-1 0-3 1-3-1a3 3 0 0 0-1 0 13 13 0 0 1 0 2v1l6-1-5-4v1h4v-1c-1 0-3 0 1 3Zm146 79h1a2 2 0 0 0-1-2 12 12 0 0 0-2-1s-1-2-1 0c0 1-2 2 0 3 1 0 2 0-1 8v-4c-1-3-2-6 1-8v-3l-3 3-1 8c0 1 2 2 7-4Zm-159-85-9-3c-2-1-3 0-5 2h6l3 3 4-2 1-1h6l-2-1a5 5 0 0 0-4 2Zm42-10h2c2 1 2 1 3-1 1-3 4-4 7-5l1-2v-2c-4 4-10 5-12 13l-1-3h-1a25 25 0 0 0 1 3v-3Zm62 5c0 1 3-1 1 1-1 2-1 0-1 0h-2a5 5 0 0 0 1 1 2 2 0 0 0 1 1 8 8 0 0 1 6 2h2c1-2 3-2 5-2 3 0 6 1 8-1 1 0 2-2 3 0h1l-1-4a4 4 0 0 0-1 0c-2 0-3 2-5 1l-5-1-2-1h-4c0-1 1-3-1-1l10-11-2 1c-4 1-6 4-7 8a2 2 0 0 0 0 1h2c3-2 6-4 8-8 0 0-1-1-17 13Zm-50 49a5 5 0 0 0 0-2l-4-6h-1a4 4 0 0 0 0 1 11 11 0 0 0 1 2 8 8 0 0 0 1 2l1 5 1 1a8 8 0 0 0 1-1l-22-14a19 19 0 0 0-2 10 6 6 0 0 0 1 4l7 5 9 1 1-1a16 16 0 0 0-1-6l-1-6 2-3s2 1 1-1l-4-5-1-3a3 3 0 0 1 2-1 2 2 0 0 1 1 1c1 3 3 5 6 6a6 6 0 0 1 3 4l2 3 2 1a29 29 0 0 1 3 0l1-1a7 7 0 0 0 1-3c0-2-1-5 2-6v-2l-1-8a10 10 0 0 0-2-4c-1-3-3-2-5-4l-3 3-3 3-1 1v2l-2-1-1-1h-1a5 5 0 0 1-5 0c-2-1-4 0-4 2-1 2-3 4-3 7a10 10 0 0 1-1 3 11 11 0 0 1-2-1v3l-1 2c0-2 0-3 22 8Zm46 29-2 4h-1c1-1-2-2 0-3v-3c-2 1-2-1-2-2-1-1-2-2-3 0 0 2-3 1-4 0l-1-2-1 2-1 1a9 9 0 0 1-1 1l-1-1a9 9 0 0 1 1-3c1-1 2-2 0-3h-3l-2 2-6 7a8 8 0 0 0-3 8 26 26 0 0 1 1 6l3 9c1 4 4 4 6 6l4 1 1-3 2-4 1-4 2-6v6a24 24 0 0 0-2 10l-1 2 4 4a10 10 0 0 0 7 1l6-4c1-1 0-1-1-2a76 76 0 0 1-5-7c-3-4-4-8-1-12l2-5 1-6Zm-183 3 1 1h1c2-1 2-1 3 1l-1 1c3 1 5 3 7 2s4 0 6-2l1 1c0 2 1 2 3 3 1 2 2 1 4 0 3-1 6-2 9 0h5c1-1 3 0 3 1 0 2 2 1 3 1a13 13 0 0 0 3-2l5-5 2-2a5 5 0 0 0 0-3 24 24 0 0 0-4-7l-7-4-2 1a2 2 0 0 1-1 1l-3-2c-2-1-3 2-5 1h-6c0 2-2 1-3 1a83 83 0 0 0-8 1 16 16 0 0 0-6 3l-10 8Zm99-63c-1 0-3 0-2-2a3 3 0 0 0 1-1c-3 1-5-2-8 0l-7 4c-4 2-4 3-3 7l2 10 1 5c1 3 3 5 5 6l5 4 4-5v-3c0-2 1-4 3-5v5c-2 3-1 7-1 10a3 3 0 0 0 0 2 3 3 0 0 0 3 1l1-2a29 29 0 0 1 0-3l1-1a5 5 0 0 1 1 2v2a16 16 0 0 0 2 2 32 32 0 0 0 1-3l-1-2 1-1 1-1a13 13 0 0 1-1-2c0-3 0-6-3-8a6 6 0 0 1-1-3l-1-3a35 35 0 0 1 3-6c2 0 0-3 2-3l-1-1h-4l-1 2a4 4 0 0 0 0 2l-1 1h-1a10 10 0 0 1-1-2v-1c3-1 1-3 0-5l-2 5a1 1 0 0 1-1 0 1 1 0 0 1-1-1 5 5 0 0 1 1-2l3-4Zm148 31a39 39 0 0 1 4 2 26 26 0 0 1 3 2l-3 1a48 48 0 0 0-5 4c-1 1-3 3-6 2l-3 2c-1 1 1 2 1 3a9 9 0 0 1 1 2 4 4 0 0 1 0 1 3 3 0 0 1-1 2l-1-1a9 9 0 0 0-5-5l3 7c2 2 4 5 3 8l2 4c1 1 2-1 3-1l4-1c2 0 3-1 3-3 1-3 2-6 6-6l3-1 3-3c1-2-1-5 1-6l-1-6a5 5 0 0 0-2-3c-4-2-8-4-13-4Zm-67 45 1 4 7 10a11 11 0 0 0 7 3l4-3a3 3 0 0 0-1-4 3 3 0 0 1 0-1l-1-5-1-6a5 5 0 0 1 0-4c2-4 1-7 0-11a5 5 0 0 0-2-3l-3 1h-1c-2-2-2 0-2 1l-2 2-1 1c0 4-2 8-4 11l-1 4Zm-76-34 4 2a25 25 0 0 1 3 2 28 28 0 0 1 4 3 41 41 0 0 1 3 4 29 29 0 0 1 5 8c1 3 2 6 6 7 4 4 9 8 12 13v1a23 23 0 0 0 3 0 9 9 0 0 1-1-1l-1-6v-5c1-2-1-3-2-4a10 10 0 0 1-2 0v-4a3 3 0 0 1-1-2c0-2-2-3-3-4l-2-5a5 5 0 0 0-2-1c-2 0-5 1-2-2a2 2 0 0 0-1-2c-3 0-6-2-8-4a4 4 0 0 0-2-1l-13 1Zm-45 24-3 1-1 1c1 2-2 3-3 5l-2 4c0 1-2 1 0 3l-1 2v3l1 3-1 4-1 3v2l1 3 3 4v2c-1 2 1 3 2 3l1-1 6-12a35 35 0 0 0 2-7l-1-4c2-2 1-4 1-5l-1-2c0-4-2-7 0-10l-1-2h-2Zm29-101-6 2-6 5-4 3v3a65 65 0 0 1 5 5c2 2 3 2 5 1 5-1 5-1 10 2a1 1 0 0 0 3-1c0-2 1-2 3-2 1 0 2 1 2-1 0-1 1-2-1-2l-1-1c0-2-1-3-3-3v-2c2-3 2-3-1-5a11 11 0 0 0-2-2l-4-2Zm-13 122-2-8c0-4-2-6-3-9 0-2-4-3-5-3l-2 5c3 6 2 11 2 17a6 6 0 0 1 0 2l-7 16a36 36 0 0 0-3 5l1 2h1l2-4c2 0 3-1 3-2l2-2c2 0 2-2 2-3s1-2 2-2l3-3v-2c1-2 3-4 2-6l2-1v-2Zm-2-44h-3l-7-3-8-1a3 3 0 0 0-4-1 48 48 0 0 0-8 3 18 18 0 0 1-8 1 11 11 0 0 0-5 0c-4 2-7 4-13 5 3 1 5-1 7 1h9a9 9 0 0 1 5 0 2 2 0 0 0 1 0c0-3 2-2 2-2 3 2 6 2 9 2a2 2 0 0 1 1 1c2 2 4 1 6-1a3 3 0 0 1 2-1c1 0 3-1 3 1s1 1 2 1a22 22 0 0 0 4-2l5-4Zm1-3a3 3 0 0 0 0-1c-1-3-4-5-6-6a9 9 0 0 0-6-2 5 5 0 0 1-2 0c-2-1-3-2-4 1h-1c-1-2-4 0-5-1-1-2-3 0-3 1 0 2-1 2-2 1h-6a8 8 0 0 1-3 1c-3 0-4 3-6 2l-2 3a2 2 0 0 1-1 0c-3 0-4 2-5 3l-1 2h2c2-1 5-3 8-3l12-2 6-2a40 40 0 0 1 19 4 35 35 0 0 0 4 1c2 1 2 0 2-2Zm87-42 7-6c1 0 3-1 1-3l1-3 1-2-2-2a12 12 0 0 1-2-2l-2-3c-2-4-5-8-4-13a8 8 0 0 0 0-2h-6c-2 1 0 3-2 4v2l3 5a81 81 0 0 1 2 10 8 8 0 0 1-1 3l1 7 3 5Zm20 31c1 2 3 2 1 5l1 2 2 10a3 3 0 0 0 1 2 32 32 0 0 0 13 9c3 1 3 1 4-1a15 15 0 0 0 0-7v-2a4 4 0 0 0-3-1c-1 0-3-1-4 1h-1v-1c2-5 2-10-2-12a15 15 0 0 0-1-1c-2-1-5-1-6-3s-3-1-5-1Zm-55-33 4 5 2 3h4l4-5 1-2a6 6 0 0 1-2-6c2-4 3-9 7-12s3-4 3-9c0-3-2-6-5-5a9 9 0 0 0-5 3c-1 1 1 2 1 3 1 1 0 3-1 4s-1 3 0 5 1 3-1 6a3 3 0 0 0 0 4 2 2 0 0 1-1 4c-2 2-4 2-6 0a43 43 0 0 0-5-4l-1 1a1 1 0 0 0 0 1 25 25 0 0 1 3 1 3 3 0 0 1 1 2l-1 1a9 9 0 0 1-2 0Zm46 21h1l4-2h5c1 2 1 1 2 0l4-1 1 1 1-1c0-2-3-4-4-3-3 2-5 0-7-2l-6-5-5-5a14 14 0 0 1-3-3 26 26 0 0 1-2 3 14 14 0 0 0-3 8v4c3 0 3 3 4 4l2 1c1-2 2 0 3 0a30 30 0 0 0 4 1Zm-81 56c0 3-1 6 2 9-1 2 2 3 2 5l2 1 1-2 1-8 2-1a4 4 0 0 0-1-2l-1-4-1-3a2 2 0 0 1 0-4 1 1 0 0 0 0-1 32 32 0 0 0-4-4l-7-7-3-2a21 21 0 0 0 1 3 39 39 0 0 0 2 4 30 30 0 0 1 4 16Zm-56 49v-3a4 4 0 0 0 0-1 18 18 0 0 1 0-9c0-3 1-7 3-10v-1l-1 1a13 13 0 0 0-8 9 82 82 0 0 0-2 12l1 3v2c-2 3-3 6 0 9v1a3 3 0 0 0 0 1h1a12 12 0 0 1 2-3 14 14 0 0 0 4-11Zm37-117 5-7a2 2 0 0 1 3-2l3 1a2 2 0 0 0 2 0l4-5a7 7 0 0 1 1-2l2-1c0-2-2 0-2-1-3-2-6-1-8 1-3 2-6 2-8-1a3 3 0 0 0-1 0h-3c-1 1-2 2-1 4a15 15 0 0 1 1 6l2 7Zm179 22c3 1 6 1 7 4 1 2 3 2 5 1a8 8 0 0 0 4-3 24 24 0 0 1 2-2c3-3 4-5 3-9l-10-1c-3-1-1 1-1 2l-4 2c-1 4-3 4-6 6Zm-209 79-1-6c-2 1-1 3-2 4-2 2-2 4-3 7v5c2 4 1 7 1 11-1 2-1 5-4 7a8 8 0 0 0-2 2v1a13 13 0 0 0 3-1l1-1a2 2 0 0 1 3-3l1-1 2-3 1-2c-1-4 3-7 1-11a2 2 0 0 1 0-1c2-2 1-4 0-6a13 13 0 0 0-1-2Zm102-40c-2 1 0 1 1 1a22 22 0 0 0 3-1 10 10 0 0 0 2-3 10 10 0 0 1 1-1l5-6a13 13 0 0 1 4-5c2-1 2-3 4-3l1-2-3-2c-2 1-2-1-3-2h-2l-2 3-3 4-2 5-1 3a3 3 0 0 1-2 3l-3 6Zm62 11a17 17 0 0 0 0-3l-2-12v-1c-3 1-4-2-6-3a1 1 0 0 0-1 1c2 1 1 2 1 4v12l2 7c0 2 1 2 2 2a3 3 0 0 0 3-2 9 9 0 0 0 1-5Zm-3-65c2 0 4 1 3-2l2-1 1-1-1-1-5-1-3-1-2-1-3-1c0-2-1 0-2 0-4-1-8-3-11-6h-1v1l6 6a15 15 0 0 0 3 3 5 5 0 0 0 3 1c2 0 2 2 3 2 2-2 3 0 4 1a14 14 0 0 1 3 1Zm-153 39a13 13 0 0 1 7 9l1 2a3 3 0 0 0 2-1l5-4c2-4 6-6 9-9 1-1 2-1 2-3a19 19 0 0 0-3 1 14 14 0 0 0-4 2c-1 2-4 2-6 3a4 4 0 0 1-3 0c0-3-1-1-2-1a4 4 0 0 1-2 1h-6Zm39 22c0-4-1-9-4-14a52 52 0 0 1-3-8 3 3 0 0 0-2-3 2 2 0 0 0-2 0 2 2 0 0 0 0 2c2 3 2 7 4 9a2 2 0 0 1 1 3c-2 3 0 7 0 10 0 2 3 3 3 5l3 1v-5Zm140-38a6 6 0 0 0 0-2l-3-2c0-3-2-4-3-5a16 16 0 0 0-11-5c-4 0-8 2-12 1 3 3 5 4 8 2 2-2 3-1 5 1a19 19 0 0 1 3 3 7 7 0 0 0 5 3c4 0 5 2 7 4Zm-44-38v1c2 0 3 3 5 2 3 2 5 1 8 1s6 0 8 2a3 3 0 0 0 1 1 16 16 0 0 0 3 0l-1-2c-1-3-3-4-6-3-2 1-5 1-6-2l-9-5-3 5Zm0 13a19 19 0 0 1-6-11l-4-4h-1l-1-2-2 2c-3 2-2 4 0 5l9 8c1 2 3 3 5 2Zm-178 81c6-9 13-12 23-12l-8-2h-1c-2-2-5 1-7 0l-1 1-1 3-3 1-1 1c-2 2-1 5-1 8Zm228 11h-1a25 25 0 0 0 0 3l1 2v6c0 1-3 4 2 3a3 3 0 0 1 0 2c-1 2 1 4 1 6a6 6 0 0 0 5 5h1v-1l-2-1-3-15c0-1 1-3-1-4s-2-4-3-6Zm-110-30 2 5 1 2 2 1c3 0 5 1 6 3a2 2 0 0 0 2 0 2 2 0 0 0 1 0 1 1 0 0 0 0-2 45 45 0 0 0-4-5l-8-6a7 7 0 0 0-1-1 14 14 0 0 0-1 2 8 8 0 0 0 0 1Zm116 42 1 7 2 3c2-1 0-2 0-4l-1-1 1-2c3 0 1-2 1-4-1-3-1-7-4-9 0-3-3-4-4-6l-3-1 1 2 2 2c2 4 5 8 4 13Zm-49-103c2 4 2 4 7 5l1 1c5 1 11-2 12-7a2 2 0 0 0-1-1l-4 2-4 2-4-1a2 2 0 0 0-1-1h-6Zm31 57c-1 6 1 12 1 17a7 7 0 0 0 1 3 1 1 0 0 0 1 0c2-3 4-6 3-9a23 23 0 0 0-2-6 61 61 0 0 0-4-5Zm-62-28a8 8 0 0 0 6-2v-3c-1-2-4-3-4-6l-5 5c-1 2-3 2-2 4 1 3 3 2 5 2Zm66-3a9 9 0 0 0-2-1 14 14 0 0 0-4-1l-1 3a9 9 0 0 1-2 3 3 3 0 0 0-1 4 25 25 0 0 1 4 10l1-5c-2-2 1-3 0-5l2-6 3-2Zm-116-17v-7l-3-3c-3 2-4 6-2 9 2 2 4 5 3 8v2c0 2 3 1 2 3l1-1a47 47 0 0 1-1-4v-7Zm86-55c-2-2-4-2-6-1a20 20 0 0 0-8 10l2 4a5 5 0 0 0 2-1 15 15 0 0 0 2-5c2-4 2-4 6-6Zm37 169h-1v3a21 21 0 0 1 0 3 9 9 0 0 0 3 8l5 5 2 1v-2c-2-4-3-8-7-11a5 5 0 0 1-2-6 4 4 0 0 0 0-1Zm-78-143v-5c2-2 1-4 0-6l-1-2-2-7a7 7 0 0 0 0-1 4 4 0 0 0-1 1v3c-1 2-2 5 1 7v8l3 2Zm76 86v-3c-2-3 0-7-1-10 2-2 1-4-1-5a12 12 0 0 1-1-2h-2c0 1-2 3 0 4l-1 1c-2 0-1 2-1 3 4 3 4 7 7 12Zm-89-78 1-7 4-10a9 9 0 0 0 2-6l-3 3a66 66 0 0 0-5 7c-2 4-1 8 1 13Zm98 26c6-6 12-9 19-9a9 9 0 0 0 2 0c2 0 2-1 1-3-1-3-2-3-4 0v1a4 4 0 0 1-2 1l-8 1c-4 1-6 3-8 6v3Zm-23 113a23 23 0 0 0-8 5l-7 7a8 8 0 0 1-6 2 10 10 0 0 0-2 0c6 2 10 0 14-4l9-10Zm-36-164h-5c-2 0-3 0-3-2a7 7 0 0 0 0-1 8 8 0 0 0-1-1v3l-1 1c-1-1 0 1-1 1a1 1 0 0 1-1 0l-1-1a2 2 0 0 0-1-1 3 3 0 0 0 0 1c0 3 4 4 4 6l4-2a14 14 0 0 0 2-1v1a4 4 0 0 1 0 1l1-1 3-4Zm4 6c4-1 6-2 7-5a16 16 0 0 1 2-5l4-4 1-1a3 3 0 0 0-2 0l-4 3-3 3c-1 3-2 7-5 9Zm-55 3c4 0 5-1 5-5l1-1c0-2 2-3 1-5l-4 2a28 28 0 0 0-4 4l1 1c1 2 1 2-1 2l-1 1a1 1 0 0 0 0 1 4 4 0 0 0 2 0Zm72 11-8-4c-1-2-3-2-5-3-1-1-2 0-3 1l1 2a6 6 0 0 0 3 2c2 0 4 2 6 1 2 0 4 2 6 1Zm32 49 3-5 6-7c-3 0-5 0-7 3l-1 1c-3 1-2 3-2 5a13 13 0 0 0 1 3Zm-44-12a2 2 0 0 0 1 0c2 3 4 3 7 1l1-1-2-2c0-3-2-2-3-4a2 2 0 0 0-2 1l-2 5Zm-58-38c3 0 3 0 3-2v-2c-2-1-1-3 1-4a10 10 0 0 0 1-1 1 1 0 0 0 0-1l-1-1c-2 3-5 2-7 2a27 27 0 0 0-3 0l-1 1a1 1 0 0 0 1 1h1a4 4 0 0 1 2 0c0 3 2 1 3 0a1 1 0 0 1 1 1v1s-3-1-1 1c1 2-1 2-2 2l1 1a5 5 0 0 0 1 1Zm-86 97a3 3 0 0 0-1 0 1 1 0 0 0-1 0 19 19 0 0 1-3 8 2 2 0 0 0 0 1c1 1 2 1 2 3a10 10 0 0 0 1 3 2 2 0 0 0 2 1l1-1-2-7v-4l1-4Zm188-116v1l4 4c4 3 5 7 3 12a1 1 0 0 0 0 1h1c3-2 4-7 2-10l-4-4c-2 0-1-2-3-3a10 10 0 0 0-3-1Zm-151 25c-3-1-6-2-7 3l-2 1-1 4a2 2 0 0 0 3 2l1 1a18 18 0 0 0 0-4c-1-3 2-5 4-7h2Zm153 63-1-4a4 4 0 0 0-1-1 6 6 0 0 1 0 1l-3 9c-1 2 0 4 1 4 2 0 1-2 2-3l2-6Zm-126-75c-2-1-2 3-4 2a1 1 0 0 0 0 1c0 2 2 4 3 4l5-3a13 13 0 0 0-2-3l-2-1Zm128 5c3-7 3-8-1-12l-4-3-1-1v2l3 3 1 1c0 4 3 6 2 10Zm-42-5v1a28 28 0 0 1 4 0l3 2 4-1a2 2 0 0 0 2-3l-1-1c-3 2-6 1-9 1a25 25 0 0 0-3 1Zm46-12c-2-3-3-7-7-9l-4-3c-1 0-2-2-3 0-1 1 1 1 2 2l1 1 4 2c2 3 5 4 6 7l1 1a3 3 0 0 0 0-1Zm8 110-8-1-2-2-3 1a6 6 0 0 1-2-1 6 6 0 0 0 1 2 32 32 0 0 0 4 2l1 1c3 0 6 1 9-2ZM1001 15a5 5 0 0 0 1-1 30 30 0 0 0 5-7l-1-1a4 4 0 0 0-2 1l-5 6c-1 2-1 2 2 2Zm93 63 2-2-3-4-1-2c1-4-2-4-4-5l-1 1a6 6 0 0 0 1 0c2 3 5 6 4 10l2 2Zm11 33c-3 2-3 6-5 8l2 3h1c0-2 1-4 3-5v-1l-1-5Zm18-32h1l5-10v-1a24 24 0 0 0-4 1l-1 2c-2 3-1 5-1 8Zm-53-28 8-4v-7l-2 3a1 1 0 0 0 0 1l1 1-2 1-1 1c0 2-2 1-2 1-2-1-2 0-2 1v2Zm-52-43V7h-1l-3 4-4 7-1 1a5 5 0 0 0 2 0c2 0 2-2 3-4l3-7a3 3 0 0 0 1 0Zm137 14v1h4c3 2 4-1 7-2v-2h-2l-3 2a4 4 0 0 1-4 1 13 13 0 0 0-2 0ZM971 128h2l6-1c3 0 3 0 5-3-5 1-9 1-13 4Zm159-67h2c4 2 7 1 10 1a2 2 0 0 0 2-1c0-2-1-1-2-1s-2-2-3 0-3 1-5 0c-1-1-3 0-4 1Zm-50-43v-1l-3 1-2-1-2-1c-2 1-1 2-1 3l1 1 3 1 3-2 1-1Zm71 21c1 2 3 4 4 3h6a8 8 0 0 0 3 0 17 17 0 0 0-13-3Zm-89 52-7-4c0-1 1-2-1-1l-1 2a5 5 0 0 0 5 3h4Zm75-3c1-2-1-2-2-2-1-1-1-3-2-1a2 2 0 0 0 0 3 4 4 0 0 0 1 2 3 3 0 0 0 2 0l1-2Zm-45-7a10 10 0 0 1-1 7l-1 1a7 7 0 0 0 1 2c1 1 2-1 2-1 2-3 1-6-1-9Zm80 100c-4-3-9-2-11 0a2 2 0 0 0-1 1h1l11-1Zm22-110c3 1 4 0 6-1 2 0-1-2 1-2v-1h-1l-6 4Zm-50-17-1-1-4-5-4-2 3 4a38 38 0 0 0 5 4h1Zm-9 18c3 0 5 0 7 2h1v-1l-2-2c-1-2-3-2-4-1l-2 2Zm-50-3c-2 3 1 5 1 8a15 15 0 0 0 2 3c2-5-3-7-3-11Zm90-45h6l4 1h1l-1-1-7-2-3 2Zm-85-23v4c-2 2 1 3 0 4a3 3 0 0 0 1 0h1c0-3 0-6-2-8Zm91 39-1 1a5 5 0 0 0 2 0l1 1 2 2c1 0 2 1 2-1 0 0 1-2-1-2l-5-1Zm-26 23-6-3a2 2 0 0 0-2 1l1 2h7Zm39 120c-3 0-1-3-2-4l-2-2-1 2 4 5h1v-1ZM988 8v1h5l3-2V6a4 4 0 0 0-3 1l-5 1Zm120 67c0-1 1-4-1-4s-1 3-1 4-1 3 1 3c3 0 0-2 1-3Zm-117 66a4 4 0 0 0-5 0 22 22 0 0 0-3 4v1h1a32 32 0 0 0 3-3 5 5 0 0 1 4-2Zm112-72c2-3 4-5 3-9l-1 1v2c-3 1-2 4-2 6Zm77 95-5 5a1 1 0 0 0 0 1h2c1-2 4-2 3-6Zm16-117a3 3 0 0 0-4-3l-2 2h2c1 0 2 0 2 2h2v-1Zm-28 31c1 2-2 4 0 6a4 4 0 0 1 1 1 6 6 0 0 0 1-1c1-2 0-4-2-6Zm-116-5-4 5c4 1 4 1 4-3v-2Zm41-70v5a8 8 0 0 0 1 2l1-1 1-1-3-5Zm67 10-1 1a18 18 0 0 0-2 2v2l1-1a7 7 0 0 0 3-1 4 4 0 0 0 0-2l-1-1ZM988 4h-1l-2 2 2 1c1 1 2-1 4-1V5l-3-1Zm145 66v-1l-3 1a28 28 0 0 0-2 4v1a4 4 0 0 0 1 0c2-2 1-5 4-5Zm47 23c0-2 2-4 1-7-2 2-2 2-1 7Zm3 42a7 7 0 0 0 2 7 5 5 0 0 1 1 1v-2l-3-6Zm-135-2h-1v7a3 3 0 0 0 0 1l1-1v-5a4 4 0 0 1 0-2Zm85-101-3-2-1 1 2 3 2-2Zm34 146h6l2-1-1-1c-2 2-4 1-7 1v1ZM1010 7l-2 2-2 4a14 14 0 0 0 3-3l1-2V7Zm16 3c-2-2-3 0-4 0l-2 2c1 2 1 0 2 0l4-2Zm128 11h4l3-2v-1c-2 0-2 1-3 2a32 32 0 0 1-4 1Zm-95-10 1 4a1 1 0 0 0 2 0v-1l-3-3Zm-36-10h-1a32 32 0 0 0 0 4l1 1 1-1a26 26 0 0 0-1-4Zm-34 125v-1a3 3 0 0 0-4 2v1l3-1a5 5 0 0 0 1 0v-1Zm168 62c2 1 4-1 5-2h1l-1-1-5 3Zm-176-40-2 3v1a2 2 0 0 0 1 1l1-1a29 29 0 0 0 0-4Zm130-77a18 18 0 0 1 0-3 19 19 0 0 0 1-2 2 2 0 0 0-1-1h-1l1 6Zm42-24h2l3 1c0-2-2-2-4-2a8 8 0 0 0-1 1ZM1027 3h-1a13 13 0 0 0 0 3l2 2V6a13 13 0 0 1-1-3Zm12 87h-5Zm127-41-2 2a11 11 0 0 0 2 0l1-1-1-1Zm-163 81-3-1-1 1c0 2 1 1 2 1l2-1Zm161-87a7 7 0 0 0 0 2l1 1 1-1a12 12 0 0 0-2-2Zm-11 37h3l2 1a13 13 0 0 0-2-2l-3 1Zm-86 0-2-2a4 4 0 0 0-1 1l1 2 2-1Zm41 41-3-2a11 11 0 0 0 0 2l1 1 2-1Zm-52-87a6 6 0 0 0-6 0Zm122 64h-1v4h1Zm-121-73-1 1 1 1a11 11 0 0 0 2 0l-2-2Zm115 51h-1v4h1ZM997 12v-1l-2 2h1a7 7 0 0 0 1-1Zm168 60h2l-1-1a9 9 0 0 0-2 1Zm-66 22 1 1 1-2h-1a7 7 0 0 0-1 1Zm23-54 1-1-1-1a4 4 0 0 0-1 2h1Zm-55-18-1-1a4 4 0 0 0 0 2 5 5 0 0 0 1 1Zm-76 103-1 1 2 1v-1a7 7 0 0 0-1-1Zm76-62v-2a5 5 0 0 0-1 2 4 4 0 0 0 0 1ZM245 0l-1 2c0 1 2 2 0 4-1 1-2 3-5 2a5 5 0 0 0-3 0c0 1-2 1 0 2l-1 2a6 6 0 0 0-4 2 4 4 0 0 1-5 1c-2-1-3-2-3 1l-3 2h-4l-4-1-3 3h-2a24 24 0 0 0-7 4 7 7 0 0 0 1 0l4 1a11 11 0 0 1 2 5 12 12 0 0 1-1 6l-2 9a14 14 0 0 1-4 7l-2 1c-3-1-3 2-4 3a62 62 0 0 0-2 8c-1 6-3 8-8 11l-7 5 7 4a17 17 0 0 0 10 2c2 0 4-2 4-4a8 8 0 0 1 4-7c3-2 6-5 10-4 2 0 3 1 4-1h2c2 0 2 3 4 1h4a10 10 0 0 1 3 0l1 2 2-1a3 3 0 0 1 2 0c2 2 5 2 7 3 3 2 7 2 9 5 3 0 4 2 5 4a16 16 0 0 0 3 2l2 2a9 9 0 0 0-2 1c-1 2-3 3-5 2-1-1-1 0-2 1l8 1a20 20 0 0 1 9 4c2 2 4 3 5 6l3 1c2 0 1 2 1 2l-1 1-4 1-1 1a6 6 0 0 1-5 2 17 17 0 0 0-11 2c-2 2-7 2-9 0-2-1-3-2-3 1h-2l-14 1-1 1a2 2 0 0 0 1 1 28 28 0 0 1 6 9v-1c1-3 1-3 3-3a7 7 0 0 0 6-2c2-2 7-3 10-3h1c4-2 6 0 9 1 2 1 2 3 2 4s3 0 4 2l1 4v14a3 3 0 0 1-2 1l-1-2c1-3-1-5-3-8l-12-7c-2-1-5 1-6 1s-3 1-5 0h-4v2a25 25 0 0 1-4 2 39 39 0 0 0 3 3c1 2 3 4 6 3a5 5 0 0 1 5 4l8 10-3 1-4 1c2 1 1 3 1 5a10 10 0 0 1 1 8v2c2 2 1 4 1 6l-1 1-1 4 1 4c1 1 0 3-1 2l-6-2-4-4c-1-2-2-4-5-4 1-3-2-3-3-5l-1-6-1-5c0-2 1-4-1-5a2 2 0 0 1 0-2c1-1 2-2 0-2l-2-1a7 7 0 0 0-2 2c3 2-2 5 1 6-1 2-3 1-2 3a15 15 0 0 1-2-1 26 26 0 0 0-3-1 8 8 0 0 1-4-3l-3-4a8 8 0 0 0-1-1 30 30 0 0 0-4-4c-3-2-3-5-5-8l-1-4-1-2c-2 1-2-1-2-2 0-3 0-6 3-9a4 4 0 0 0 0-2 14 14 0 0 1 5-10l4-2 1-2c-4-3-6-9-11-12l-2 5v1c-1 1-3 3-2 4v5c1 3-1 6-2 9a2 2 0 0 1-1 2c-3 1-4 3-5 5a36 36 0 0 1-1 4l-2 6c1 4-1 7-2 11a1 1 0 0 1-1 0h-1c0-4-2-7-3-11 0-2-3-3-2-6l-1-1a3 3 0 0 0-2-5c-2 0-1-2-1-3 2-2 3-5 3-8l1-2 1-2c-1-2 0-4 1-5l6-6a1 1 0 0 0 1 0c1-3 4-5 6-6l-8-4c-3-1-3-1-5 2-1 2-3 2-6 3h-3c-2-2-4 0-5 1-4 3-7 7-9 12a10 10 0 0 0-1 3c0 2 2 4-1 6v1l-1 5-5 6a2 2 0 0 1-1 0l-5 1a3 3 0 0 1-1 1 31 31 0 0 0-10 2 1 1 0 0 1-1 0v-1c3-1 1-3 1-5l-2-1a15 15 0 0 1-4 0c-2 0-2 0-3 2l-1 4-6 4c-3 1-4 3-7 2l-1 1-4 4-5 1a6 6 0 0 1-6-2c-1-1-3-1-3-3h-2c-3 1-5 2-8 0-1 0-2-1-2-3v-2c0-2-1-2-2-3-4 0-6-2-6-5l1-6v-5l1-3 1-3c0-1-1-3 1-4V90c0-3 2-6 3-8h-6a4 4 0 0 0-2 1 35 35 0 0 0-4 5c-3 4-5 9-6 13l-1 12a29 29 0 0 1-2 14c0 7-2 14-1 21l1 3a12 12 0 0 0-1 4c0 4 2 8 4 11a38 38 0 0 0 3 6 10 10 0 0 0 6 3 15 15 0 0 1 10 9 18 18 0 0 0 2 3c2 3 3 4 6 5l1 2a11 11 0 0 1-5 2c-2 1-3 2-5 0-4 0-7-2-10-5l-7-7-8-10c-2-3-4-5-3-10-3 6-3 9-2 15v8a13 13 0 0 1-6 7 30 30 0 0 0-5 4c-2 2-4 4-4 8a1 1 0 0 1-1 1 2 2 0 0 1-1 0v-7l4-12a22 22 0 0 1 2-5c2-3 2-7 4-9 1-3 5-6 5-10l1-1c0-5 1-9 3-12 1-2 2-3 0-4-1-1-2 1-3 2a9 9 0 0 0-1 6 50 50 0 0 1 0 5c-3 3-2 8-6 11-1 1-2 3-4 2l-1 1c0 2-1 2-2 3-1 2-3 2-5 2h-1a2 2 0 0 1 0-2 16 16 0 0 1 3-2l1-3 1-4v-4c1-2 3-3 0-4v-6l1-1c-1-5 3-8 5-11 1-3 4-4 6-6v-1h-1c-4 0-8 1-12-1a6 6 0 0 0-2 0l1-1a7 7 0 0 0-2-2 14 14 0 0 0-7-2l-1-1 1-1a14 14 0 0 1 3 0h1c3-3 6-1 8-2a13 13 0 0 0 5-3l1-2a7 7 0 0 1 0-3v-1a27 27 0 0 1-4-1c-2-1-3-2-1-4l1-2c0-2-1-2-2-2a23 23 0 0 1-2-1h-3a5 5 0 0 1-1-3c0-4-3-4-5-6l-3-1c-4-1-3-5-4-7 0-4-1-8 1-12v-1c-4 0-6-4-8-7-2-2-3-4-3-7l2-3h7v-4c0-4 2-5 5-3a12 12 0 0 1 3 2l6 2c6-1 10 2 12 8a9 9 0 0 0 1 2 3 3 0 0 0 4 1l1-1c4 1 7-1 9-3a14 14 0 0 1 8-3c-3 0-6-2-10 0l-2-1c-1 0-2-2-3 0h-2a4 4 0 0 1-1-1c-3-4-8-5-13-6a13 13 0 0 1-10-5 1 1 0 0 1 0-1 1 1 0 0 1 1-1l7 3c6 2 9 2 15 0l5 1c1 1 5 2 8 1l-11-4c-2-1-5 0-7 1h-2c-2 2-2 1-3 0s-2-1-1-3a9 9 0 0 0 1-7 8 8 0 0 0-1-2 46 46 0 0 1-3-6 2 2 0 0 1 0-2 32 32 0 0 0 1-5v-4c0-2 0-4 2-5l2-4c1-2 3-4 6-5l4-4h9l-2 4-2 4-4 2h11l1 1-1 1-5 3-5 4v1h1c3-2 6-1 8-1l5 2-4 3a8 8 0 0 0-3 2l-4 4-3 1-3 2a11 11 0 0 1 9 3c2 2 1 3-1 5a13 13 0 0 0-2 1l-2 2 3 1 4 2c4 0 6 2 8 4l2 2a3 3 0 0 0 0-1c-2-5-1-11 3-14a18 18 0 0 1 3-1l1-2-1-1c-5-2-6-5-6-9v-8c0-2 2-3 3-3 2-1 2-2 2-3l1-2 5-2 5-3h5c2 0 2 1 3 2a11 11 0 0 0 2 1 1 1 0 0 0 1 0 1 1 0 0 0 0-1c-2-2-1-4-1-6h1a20 20 0 0 0 4 13l1 1c4 1 5 0 5-4V9a3 3 0 0 1 1-1l2 1a11 11 0 0 0 0 3 1 1 0 0 0 3 0l2-3v6l2-5 1-1a29 29 0 0 1-1-3l1-3-1-3h1c2 2 1 4 2 6s-1 4-2 6a19 19 0 0 0-1 3 13 13 0 0 0-1 2v1h1c2-4 5-7 4-11a43 43 0 0 1 0-7h1c1 1-1 2 1 2a45 45 0 0 1 6-1c1 0 3 0 2 2s2 3 2 5a3 3 0 0 0 1-1 16 16 0 0 0 6-7h6c-2 2-1 5-1 7l2-4V0h2v8a39 39 0 0 0 4 3h3l2-2a2 2 0 0 0-2-2l-2-1-1-1h2l8 5c1 2 3 3 3 5 0 1 3 2 4 1l-1-1v-1h2a1 1 0 0 0 1 0l5-8c1-3 0-4-3-5l-1-1h4l2 4 4-4h2a26 26 0 0 1-3 3c-2 2-5 4-3 7a3 3 0 0 1-1 4 14 14 0 0 0-3 4v1a9 9 0 0 1 1-1 2 2 0 0 1 3 0l1 1a4 4 0 0 0 1-1c2-5 5-10 10-13l1-2c2-2 0-2 0-3h7c-1 2-1 5-3 6 2 1 4 0 5-2a25 25 0 0 1 2-4h10c0 1-1 4 1 4s1-3 1-4h2v3a3 3 0 0 0 3 0l5-1 3-2h10c-1 2-3 1-5 1l-5 2h9a15 15 0 0 0 7-1 12 12 0 0 1 4-1l1-1Zm-85 81h1a3 3 0 0 0-1-1 8 8 0 0 0-2 1 28 28 0 0 0 4 1h2l-1-1a10 10 0 0 0-2 1l-1-1ZM45 13v-1l-3 1-1 1c2 1 2-1 3-1l3-2-2 1h1a13 13 0 0 0 2 0c0-1-1-1-3 1Zm21 3h1l-1-2-1 1 2 1c2 3 4 4 8 3l-5-1c-1 0-1-2-4-2Zm73 54c-2 1-2 3-2 5l1 1 1-1v-5c2-1 3-2 20-6h-1v-3c0-2-1 1-2-1l-5-10c-1-1-1-2-3-1h-1c-1 0-3 1-4-1l-4 3a4 4 0 0 1-1 0v-4a39 39 0 0 1-4-3c-2-2-2-2-5-1-3 2-4 4-4 7a7 7 0 0 1 0 4c-1 2-2 5 0 7a3 3 0 0 1 1 2 44 44 0 0 0 0 5 4 4 0 0 0 1 2c2 1 6 0 7-3 0-3 3-4 5-5l5-5a2 2 0 0 1 1-1 2 2 0 0 1 1-1 1 1 0 0 1 1 1l-1 3-3 5c-2 2 0 1 1 2s2 4 0 6-1 5-1 8l2 1a32 32 0 0 1 7-1 6 6 0 0 0 4-2l4-4 1-5c1-3-1-6-2-10 0 2 0 3-17 6l-3 4v1ZM30 114a6 6 0 0 0 1 0h4v-3l1-1c2 2 1 0 1 0a9 9 0 0 0-1-2c-2 2-4 4 1 3l-1 10 3-3c0-3 1-5-9-4Zm71 2c2 4 2 8 5 12a11 11 0 0 1 0 3 5 5 0 0 0 1 1l5-2a23 23 0 0 1 3-2c1-1 2-1 2-3a14 14 0 0 1 2-6 8 8 0 0 0 1-4l1-4v-6c-2-4-6-5-8-9a3 3 0 0 0-2-2h-1l-3-2c-2 1 0 3 0 4a14 14 0 0 1 1 2 3 3 0 0 1 0 2h-2a2 2 0 0 1-1-1v-2a1 1 0 0 0-1-1 1 1 0 0 0-1 1c-1 3-2 3-4 1l-2-1-3 4a10 10 0 0 1 1 2 6 6 0 0 1-1 3 1 1 0 0 1-1 0 2 2 0 0 1-1-1 12 12 0 0 1 0-2c-1 3 0 5 1 8a27 27 0 0 1 3 6c1 3-1 6-3 9l-6 6a2 2 0 0 0 0 2c3 4 7 5 11 4l6-5-2-10-1-7Zm118-14 1 4c3 1 4 5 7 6a12 12 0 0 0 3 2c1 0 2 1 2-1s1-2 3-1h4c4-2 7 0 11 0 1 1 2 2 3 0 1-1 4 0 3-3l1-1c2 2 4 0 6 2 1 1 5-1 6-2 1-3 2-3 4-2h1v-1l-3-2c-1-3-4-4-6-5l-7-4c-3 0-7-2-10-1a2 2 0 0 1-2 0c0-2-1-2-2-2l-3 1c-2 1-2-2-3-1a22 22 0 0 1-4 2 2 2 0 0 1-2 0c0-3-1-2-2-1-3 1-6 2-8 5l-2 2-1 3Zm-45-39 1-1a18 18 0 0 1 1 3l3 8 4 1a17 17 0 0 0 7-7 10 10 0 0 0 1-3l1-6c2-3 1-7 3-9-1-2 0-5-2-6l-10-4c-1-1-3 0-5-2 0 0 1 2-1 2v1a3 3 0 0 1 0 2c-2 0-2 1-1 2 1 0 0 3 3 2a9 9 0 0 1 0 3l-3-1-1-3h-1a6 6 0 0 0-1 1c0 2-1 3 2 3v2l-1 1-2-1-1-4h-1a21 21 0 0 1-4 1l1 3c3 1 2 3 3 5s1 2 0 4l-2 4c-3 3-1 7-3 10a3 3 0 0 1 1 0l1 1c-2 2 0 3 1 6 0-3 2-4 1-6l1-1a1 1 0 0 1 1 1 36 36 0 0 1 0 4l2 1c1 0 2-1 1-3a4 4 0 0 1 0-3 4 4 0 0 0 1-4l-1-7ZM11 85l1 7c1 1 1 3 4 3l4 2c2 0 3 1 3 4s1 3 5 4a38 38 0 0 1 4 1l2 1a3 3 0 0 0 1-2c1-6 4-11 7-15l1-4v-1l-1 1c0 3-3 5-4 7l-1 1a2 2 0 0 1-2-1l1-5s2-1 1-2a15 15 0 0 0-3-2h-2a4 4 0 0 1-2-1 26 26 0 0 0-9-6 1 1 0 0 1-1-1 1 1 0 0 1 1-1 3 3 0 0 0 3-1h1l-1-1c-2 2-5 1-7 2l-4 4-2 6Zm64 43c0 5 3 7 7 6a10 10 0 0 0 6-4l3-4c3-5 5-7 2-13-2-3-4-6-4-10l-1-1a6 6 0 0 0-2 0l-1-2c1-1 1-1-1-1l-1-1-1-1-4 3a19 19 0 0 0-1 6v8l-1 10-1 4Zm95-44-7-1h-7a8 8 0 0 0-3 2 16 16 0 0 1-6 3v3l-1 1c-2 0-4 2-4 3l-4 4-1 1c1 3-3 4-1 7 1 1-1 1-1 1-3 2-4 2-2 5l-1 2-1 1c2 2 1 4-1 6l1 3c1 1 2-1 2-1a34 34 0 0 1 11-13c4-2 4-2 6-6a30 30 0 0 1 9-13l4-4 4-2a25 25 0 0 0 3-2Zm45 24h-2l-1 2a7 7 0 0 1 1 6l-3 9 1 1 1 1c-2 3 0 6 1 9 1 5 4 9 6 14 0 0 0 2 1 0 0 0 3 1 1-1v-2l3-3c2-1-1-2 0-3a16 16 0 0 1 2-3v-1c-2-1-1-3-2-4v-4l1-2v-3l-1-2-1-5a21 21 0 0 1-5-7l-3-2ZM186 7c-2-1-4 1-5 2-3 2-3 4-1 7 1 2 0 2-2 2l-2 1-2 4a1 1 0 0 0 1 2h2c2 0 2 1 2 3a10 10 0 0 1-1 1h2l3-2c2-1 4-3 6-2s3 3 5 2l5-4 2-3a3 3 0 0 0 0-4 10 10 0 0 0-2-2 39 39 0 0 1-7-4c-2-1-3-4-6-3Zm22 102-3 2c-2 3-4 5-4 9a3 3 0 0 1-1 3 4 4 0 0 0-1 2 13 13 0 0 0 2 7v2l3 8c2 2 3 5 6 6 2 2 3 5 6 6l1 2a6 6 0 0 0 2 0v-2l-4-6-4-11-3-12 3-11c1-2-2-3-1-4Zm48-20a81 81 0 0 1-8-3l-9-2a18 18 0 0 1-8-1 34 34 0 0 0-9-3 18 18 0 0 0-8 1 90 90 0 0 1-13 5l8 5h2c1-3 3-2 4-1a30 30 0 0 1 4 2 2 2 0 0 0 2 0 8 8 0 0 1 6-2 4 4 0 0 0 4-1c1-1 2-1 4 1a1 1 0 0 0 1 0l4-1c3 2 5 1 7 1l9-1ZM113 4v3l-1 7-5 8-3 3c-2 1 1 2-1 3l2 1-1 2a2 2 0 0 0 1 3 13 13 0 0 1 6 6h2a20 20 0 0 0 4-7 3 3 0 0 0-1-4v-2l1-10c1-2 1-4 3-5a4 4 0 0 0 2-3l-2-2c0-3-2-3-3-3h-4Zm87 77c0 3 1 4 3 3l4-2c3-2 7-2 11-3 5-1 11 1 16 2l7 2c4 0 7 1 10 3a5 5 0 0 0 2 0 14 14 0 0 1-1-2c-1-2-2-3-5-3h-1c0-2-2-2-3-3-3-1-5-3-7-2l-1-1h-5c-1 0-3 1-3-1l-2-2c-1 2-3 0-5 1-2 2-3 1-4-1l-1 1h-5c-4 1-6 3-9 5a9 9 0 0 0-1 3ZM93 71l-5 1a8 8 0 0 1-4 2 10 10 0 0 0-6 5s-2 2 0 4l2 5-1 1-1-1c-3-1-5 0-7 2 0 2-2 4-1 7s3 4 6 2a45 45 0 0 0 7-5l6-6 2-10 1-2c-2-2 0-3 1-5Zm47-24 9-9a14 14 0 0 1-3 0 3 3 0 0 1-2-1l1-1 4-2a1 1 0 0 0 0-1 1 1 0 0 0-1-1 4 4 0 0 0-2 1l-3 3a4 4 0 0 1-2 1c-3 1-6-2-5-5s1-4-1-5a3 3 0 0 1-1-3l2-3v-3c-2-1-2-3-2-5 0-4 0-4-2-5-3-1-4-1-6 1a23 23 0 0 0-1 7 15 15 0 0 0 3 5 36 36 0 0 1 4 5 24 24 0 0 1 3 8l-1 5a2 2 0 0 0 0 3l6 5Zm-25 3c-1-4-2-7-5-9l-2-3c-2 0 0 2-1 3a16 16 0 0 1-3 3c-4 2-6 5-9 8a10 10 0 0 1-3 2h-2c-3-2-4 0-5 1a1 1 0 0 0-1 2c1 1 1-1 2-1s3-1 5 1h1c2-2 4-1 6 0 3 2 5 3 7 1l5-1 3-4c2 0 0-3 2-3Zm73 42a22 22 0 0 0-2 3l-2 3-5 4c-2 2-4 3-2 6v1c-2 1-2 3-2 4a4 4 0 0 1-1 4c-1 1-1 4 1 5a4 4 0 0 1 1 4v3l1 1a3 3 0 0 0 1 0 2 2 0 0 0 1-1c2-4 5-9 4-14 0-6 2-12 4-18l2-2-1-2Zm58 86a28 28 0 0 1 1-4c1-2 1-3-1-5-1-2-2-3 0-4s1-4 1-6c0-1-2-2-1-3s-1-2-1-4c0-5-3-8-6-11h-3a8 8 0 0 1 1 2l2 5c0 4 3 8 0 12 0 4-1 8 2 12l5 6ZM202 47a36 36 0 0 0 1-4l3-10a1 1 0 0 0-1-1c-1-3-3-4-5-2-3 3-5 3-7 1-3-2-6-2-9-1a7 7 0 0 1-2 0l2 1c2 1 1 3 2 5l4 3a11 11 0 0 1 2-1c3-1 4 0 6 3l4 6ZM23 69l-4-3-2-1c1-2-1-2-2-3a6 6 0 0 0-5-2 35 35 0 0 1-3 0 33 33 0 0 0-4 0l-2 2a10 10 0 0 0 2 4 48 48 0 0 0 4 6 14 14 0 0 0 4 2c2 1 4 1 5-1 1-3 4-3 7-4Zm211 72a15 15 0 0 0-2 3l-1 3c1 1 2 1 0 3a11 11 0 0 0-1 2v1c0 2 2 4 0 6 2 2 0 4 1 6 2 1 0 3 2 4s1 6 5 5v2a6 6 0 0 0 2 2h2a9 9 0 0 0-1-1c-1-3-4-6-4-9 0-4-1-8 1-12a3 3 0 0 0 0-2l-4-13ZM80 21a10 10 0 0 0-2-1 4 4 0 0 0-2 1c0 2-1 1-2 1l-4 1h-4a7 7 0 0 1-3-1h-1a19 19 0 0 0 0 3c0 2 1 1 1 0l2 1a9 9 0 0 0 6 1h5c2 0 2 1 2 2l1 1a8 8 0 0 1 7-3h1l1-1h-1l-1-1a1 1 0 0 1 0-1 16 16 0 0 1 1 0l-2-1h-1l-5-7a4 4 0 0 0-1-2 51 51 0 0 0-5-5l-2 1v1c1 3 3 4 5 6l4 4Zm28 68h2c3 4 8 5 9 11l3 2 2 4 1 1a39 39 0 0 0 4 2h1a11 11 0 0 0 0-4l-2-2-3-3-8-16h-2a4 4 0 0 1-1 2c-1 0-2 1-2-1h-1l-3 4Zm-32 11-4 3c-2 0-2 1-2 2a5 5 0 0 1-1 4 9 9 0 0 0-1 4v9a4 4 0 0 0 5 4 1 1 0 0 0 1-1l2-7v-18Zm146-6v-1c-3 0-5 1-7-2l-1 1-4 1-6-3c-1-2-4-2-5-3a1 1 0 0 0-1 1v1l5 3 5 5 5 5a11 11 0 0 0 2 2 2 2 0 0 0 2-1l2-5 3-4ZM92 41v-1h-1c-3 3-6 4-10 5a29 29 0 0 0-3 0l-4 2-5 1a20 20 0 0 0-4 1v2c2 0 4 0 3 2l1 1a8 8 0 0 0 3 0c2-1 4-3 6-2h1c0-2 1-2 2-2a5 5 0 0 0 2 0l9-8v-1Zm93 79 5-3 1-6c2-2 1-4 1-6-2-2 0-4 0-5 3-2 1-6 4-8v-2a7 7 0 0 0-3 0l-1 2a8 8 0 0 1 0 2l-5 10a11 11 0 0 0-1 2 52 52 0 0 0-1 7v7Zm-58-25h-1a22 22 0 0 0 0 4 3 3 0 0 0 1 2 43 43 0 0 0 5 2c1 1 3-1 2-2-1-2 1-2 2-3s3-1 3-4a4 4 0 0 1 4-3v-1c-1-1 1-2 2-3l4-1a18 18 0 0 1 8-4 22 22 0 0 0-6-1l-8 1-1 5h-1c-2 2-4 4-4 6l-2 4c-2 2-4 1-6 2-1 1-2-1-2-2a7 7 0 0 1 0-2ZM75 64h-6c-3-2-7-1-10-1a14 14 0 0 0-7 4c-4 3-4 7-8 9l1 1c1 0 0 0 0 0a9 9 0 0 0 2-1c1-1 3-4 5-3 2-1 5-1 6-3a18 18 0 0 1 3-3c2-2 3-3 6-1a4 4 0 0 0 4 1l4-3Zm2-21a18 18 0 0 1 2 0c3 1 6-1 9-3l1-1a42 42 0 0 0-2-5 1 1 0 0 0-1 0l-9 5c-1 3-3 2-5 2-2-2-3 1-5 0l-2 2-1 3c2 1 3 0 4-1 2-2 4-2 7-2Zm11 9h4a45 45 0 0 0 5-4l6-6 2-3-1-2a15 15 0 0 0-2-1h-1l-3 2-2 2-1 3c-2 3-3 7-7 9Zm157 69c9 0 17 3 22 12v-5c-1-2 0-5-4-5a3 3 0 0 1-1-1c0-2-1-3-2-3-3 1-5-2-8 0h-1c-2 0-4 0-6 2ZM31 171c2-1 4-1 4-4l2-6v-2c3-1 2-4 2-6a19 19 0 0 0 1-2 3 3 0 0 0 0-2c-2 0-2-1-1-1a2 2 0 0 0 1-3 4 4 0 0 0 0-1l-1 1c-2 3-5 6-4 10a11 11 0 0 1 0 4l-2 4a30 30 0 0 1-2 7l-1 1Zm118-57a12 12 0 0 0 0-2v-1a2 2 0 0 0-2 1 46 46 0 0 0-12 11 1 1 0 0 0 0 2 1 1 0 0 0 2 0 4 4 0 0 0 2-1l4-2 3-1 2-3a4 4 0 0 0 1-4ZM82 53h-5a3 3 0 0 0-2 1c-2 2-4 1-6 1s-3-1-3-2l-2-2-2 1a5 5 0 0 0 0 2l5 5h3c6 0 10-1 12-6ZM53 97h1c-1-4 1-6 2-10 1-2 1-3-1-5a6 6 0 0 1-1-2c0-3 0-3-3-3a34 34 0 0 0-4 1l-1 1h1c4 2 5 5 5 10a36 36 0 0 0 0 6 9 9 0 0 0 1 2Zm59-26-5 6-1 2c1 0 1 2 3 2l6 1a3 3 0 0 0 3-1c1-2 0-3-1-4-2-2-4-3-5-6Zm-72 67h-1l-3 3c-3 3-3 7-6 9a1 1 0 0 0 0 1c1 2 0 3-1 5s1 4 1 5a4 4 0 0 1 0 2l-1 1a22 22 0 0 0 1 2l1-1a26 26 0 0 0 2-12 9 9 0 0 1 1-4l6-10v-1Zm122-63 2-4 1-1c-2-2 0-4 0-5a29 29 0 0 1 3-5c2-2 0-7-2-8l-2 1a2 2 0 0 0-1 2v12c-2 2 0 4-1 8Zm-41-62-3 5-1 5 1 4v5a1 1 0 0 0 0 1h1l2-2v-3a4 4 0 0 1 1-6c2-1 1-5 0-6l-1-3ZM80 5l-3 2 2 1a10 10 0 0 0 2 1c2 0 3 1 3 4a11 11 0 0 0 4 7 2 2 0 0 0 2 0l1-4a27 27 0 0 1-2-3c-1-3-4-6-7-7l-2-1ZM42 119l6-12c1-2 2-3 0-3l-1-1c2-1 0-3 0-4l-2-2a6 6 0 0 1 0 2 6 6 0 0 1-2 2l-1 4v11a9 9 0 0 0 0 3Zm-1 58c-1 2 0 4-2 5-4 2-5 6-7 10l-1 3c2 1 2-1 3-1l1-1c4-2 7-5 6-11a44 44 0 0 1 0-5Zm9-66-5 9c-1 4 2 7 3 10 2-3 2-6 2-9v-10ZM33 66l-1-3c-2-2-3-5-6-5l-8-1a4 4 0 0 1-3-1 30 30 0 0 1-2-3h-1l-1 2c-1 1 0 3 1 3a10 10 0 0 0 2 0c7 0 13 3 19 8Zm100-33c0-2-1-6-4-8l-2-2a4 4 0 0 0-3-3 32 32 0 0 0 1 4 18 18 0 0 0 2 2 32 32 0 0 1 3 10 10 10 0 0 0 1 3 11 11 0 0 0 2-2v-4ZM79 194h-4a3 3 0 0 1-2 0l-6-5-6-6a29 29 0 0 0-4-3 1 1 0 0 0-1 1 36 36 0 0 0 4 4l7 6c3 4 7 5 12 3Zm27-178-1-1-1 2-1-2-1 1a4 4 0 0 1-1-1 11 11 0 0 1 0-2l-1 1a3 3 0 0 1-4 2 17 17 0 0 0-2 0 2 2 0 0 0-1 0v1c1 1 1 2 3 2l3 1 3 2s0-2 2-2l2-4Zm34 19c2 0 2 0 1-2a2 2 0 0 1 0-1c1-1 2-2 0-2l-1-1 2-1 2 1c0-2 1-2 2-1a3 3 0 0 0 2 0v-1a3 3 0 0 0-1-1c-4 0-7 1-10-2a1 1 0 0 0-1 1c3 2 2 5 2 7a8 8 0 0 1 0 2l2 1Zm-69 1a8 8 0 0 0 2 0 32 32 0 0 1 3-1h4a31 31 0 0 0 6-3l1-2c-1-1-2-2-3-1l-5 3-8 4Zm17-14a19 19 0 0 1-5-9c0-1-1-3-3-3a9 9 0 0 1-5-3h-1l1 1a5 5 0 0 0 1 1c3 2 3 4 4 7a9 9 0 0 0 8 6Zm-6 50-1-4-1-2a7 7 0 0 0-2 1l-4 5 1 2c2 1 4 2 6 0a2 2 0 0 0 1-2Zm62-51-5-5a8 8 0 0 0-3-1v2c2 1 1 3 1 5l1 1 3 2a15 15 0 0 0 4 0 1 1 0 0 0 0-1h-1a2 2 0 0 1-3-2c0-2 2 0 3-1ZM30 74l7 7a16 16 0 0 1 1 2 9 9 0 0 1 1 1l1-1a5 5 0 0 0-2-6 20 20 0 0 1-3-2 4 4 0 0 0-5-1Zm166-22 2-1c3-1 3-3 1-6a18 18 0 0 1-2-2c-2-4-2-4-6-3l-1 1c7 1 6 6 6 11ZM39 17h-3c-1 1-1 3-3 3l-3 4-2 3a12 12 0 0 0 2 5 5 5 0 0 0 2 2c1-1-1-2-1-2a54 54 0 0 1 0-6 3 3 0 0 1 1-2l7-7Zm192 122-1-3a22 22 0 0 1-1-2 9 9 0 0 1 0-2l-1-1c-2 1 0 3 0 4l1 3a3 3 0 0 1 0 2c-3 4-3 5-3 7l1 1h2l2-9ZM164 29c-3 0-5 2-5 4 0 1 2 3 4 3s4-1 4-3l-2-3a3 3 0 0 0-1-1ZM35 35c0-4 0-6 2-8-1-3 2-5 3-7a5 5 0 0 0 1-2v-1a2 2 0 0 0-1 1l-5 5-2 4c0 2 0 5 2 8Zm4 63-2 5c-1 3 1 5 2 8a5 5 0 0 0 2 2c1 0 2-1 1-3v-1l-3-11Zm38-68c-1-2-2-2-3-2H64c-1 1 1 3 2 3 3 0 5 2 7 0l4-1ZM45 4h-2a28 28 0 0 0-12 13v1l1-1 7-7a4 4 0 0 1 3-2l3-2V4Zm183 9c2 0 2 0 1-2-1-3-3-4-5-6a3 3 0 0 0-2-1 2 2 0 0 0-1 1 1 1 0 0 0 0 1l3 4c1 1 2 3 4 3Zm-92-5v4l1 1c3 0 4 2 5 4 2 2 4 3 7 2-3-4-9-5-13-11ZM23 128c3 2 6 1 9 1a2 2 0 0 0 1 0l4-4a3 3 0 0 0 1 0l-1-1c-1 0-1 2-2 0s-2 1-3 2a4 4 0 0 1-1 0l-8 2Zm112-52 1-3a9 9 0 0 1 2-5l3-4a4 4 0 0 0 0-1h-1c-1 1-4 1-4 4l-2 4-2 3c-1 1 1 2 3 2Zm-30-3-1-5-3-1a7 7 0 0 0-1-1l-1 1 4 8a10 10 0 0 0 2 2c1-1 0-1-1-2l1-2Zm18 37v2c-2 2 0 3 1 4a18 18 0 0 1 1 3 5 5 0 0 0 1 1l1-1c0-2 1-3-1-4 1-3-2-4-3-6Zm24-66 10 5 1-1a14 14 0 0 0 0-2h-1l-6-2a2 2 0 0 1 1-2c1-1 0-2-1-3a5 5 0 0 1-1 2 38 38 0 0 1-3 3ZM99 59c-3-1-4-3-6 0a2 2 0 0 1-3 0c-2-2-3-2-5-1a5 5 0 0 1-2 1 9 9 0 0 0 2 1 9 9 0 0 0 3 0 36 36 0 0 0 6 0 31 31 0 0 0 5-1Zm92-30 4 2c2 0 3-1 4-3h6c-2-2-3-2-5-2-2 2-5 2-9 3Zm28-12c-2-2-4-4-4-7 0-2-2-3-3-4l-1-1a9 9 0 0 0 0 2l2 4 2 5c1 1 2 2 4 1Zm-53 72h5a5 5 0 0 0 4-3l-1-2h-1l-7 5Zm78 33c1 3 3 3 6 3l5 1h3c-5-3-9-3-14-4ZM72 21c-3 0-5-3-7-4h-1l-1-1-1 1c0 2 1 3 2 3l3 2 5-1Zm84-5-1-2c-2 0-2 1-2 2h-2l-1-2-1 1-1 1a18 18 0 0 0 2 2 4 4 0 0 0 2 1c1-2 3 0 4-1v-2ZM91 86a7 7 0 0 0 0 2h1c2 0 4-2 4-3a3 3 0 0 0-1-2h-2v1c-1 0-1-2-2 0a6 6 0 0 0 0 2ZM64 40h4a3 3 0 0 1 3-1c2 1 3 2 4 1l2-3a17 17 0 0 0-13 3ZM35 70a728 728 0 0 0-9-6 17 17 0 0 0 2 2c0 1-2 2 0 2l7 2Zm49-16 9-9a4 4 0 0 0 0-1h-1c-3 2-4 5-8 7v3ZM57 179h5a44 44 0 0 1 5 1 6 6 0 0 0 1 0 2 2 0 0 0 0-1l-4-2c-3 0-5-1-7 2Zm77-94 2 4a1 1 0 0 0 1 0l1-3-2-5h-1l-1 1v3ZM49 39c-4-1-6-1-8 1l-1 1c1 1 4 2 4 0s2-2 5-2Zm92 39 2-7c0-1 2-2 1-3a21 21 0 0 1-2 2c-2 2-3 4-1 8Zm-49-9a3 3 0 0 0-3-2l-3 4c1 1 2-1 3-1h2l1-1Zm-19-8h7a2 2 0 0 0 1-1 2 2 0 0 0 0-1h-2l-6 2ZM241 6c-4 1-6-3-10-1 3 2 6 3 10 1ZM35 182c3-1 3-4 4-6h-1c-1 0-3 0-2 2s-1 2-2 3v1h1ZM52 22c-3-4-6-1-9 0Zm128 54-4-5v2c0 5 0 5 4 3Zm-60-7v6l1 1h1c0-2 1-5-2-7Zm5-2c0-4 0-4-3-8a10 10 0 0 0 3 8ZM39 44c-2-1-3-3-5-2l-2 3v1h1c1-3 4-1 6-2Zm33-28-3-5-2 1c0 2 2 4 4 4h1Zm24 51h-1v1l3 3c1 1 1 4 3 4l-2-4a28 28 0 0 0-2-4h-1Zm89-30v-1l-1-2h-1l-1 1-3-1a1 1 0 0 0-1 1l1 1 5 1h1ZM58 79a8 8 0 0 0 0 2 5 5 0 0 0 1 1l2-2-1-3a1 1 0 0 0-1-1 1 1 0 0 0-1 1 8 8 0 0 0 0 2ZM237 4l4 1 2-1-2-2-4 2ZM49 163l-1 1a39 39 0 0 0 4 4h1a6 6 0 0 0-1-1l-2-3-2-1Zm132-32c-2 3-2 6 0 8ZM47 84a19 19 0 0 0 0 6h2c0-2 1-4-2-6Zm190 54a10 10 0 0 1 5 4 6 6 0 0 0 1 1 2 2 0 0 0 1 0v-1a16 16 0 0 0-3-4h-4ZM133 2v3l-1 2a9 9 0 0 0 2 1l1-1-1-4-1-1ZM43 141l2-6v-1l-1 1c-1 2-3 4-1 6Zm203 4 1 5a1 1 0 0 0 1 1 4 4 0 0 0 2-1l-1-1-3-4ZM98 33l1-4-1-1a8 8 0 0 0-2 2l2 3ZM202 8l4 2c1 0 1 2 2 1l-1-2c-2-1-3-3-5-1Zm-33 3v-1a1 1 0 0 0-1 0l-3 3v1c2 0 4-2 4-3ZM60 176c-2-2-4 0-5-2l-2 1 1 1h6Zm11 10-4-2a5 5 0 0 0-2 0l1 1c2 0 3 2 5 1Zm47-124c-2 2-2 2 0 7Zm84-62a42 42 0 0 0-2 4l1 2 1-1a34 34 0 0 0 0-5Zm18 8V7l-3-3-1 1 3 3h1ZM75 45v-1a26 26 0 0 0-4 1l-1 1h2l3-1ZM50 99c1-2 2-5 0-7Zm135-71h4a3 3 0 0 0 1 0l-1-1c-1-1-3-1-4 1Zm-23 27v6Zm80 69a19 19 0 0 0-2-1l-1 1c0 2 2 1 3 1v-1Zm-78-49h-1a28 28 0 0 0-1 3l1 1h1a29 29 0 0 0 0-4Zm-42 42-1 1 1 2h1ZM71 79l2-1a9 9 0 0 0 1 0l-1-1a9 9 0 0 0-2 1l-1 1Zm118 8h5Zm-18-56v1h5v-1Zm57 96-2 2a11 11 0 0 0 2 0l1-1-1-1Zm-99-34v-1a13 13 0 0 0-1-2 2 2 0 0 0-1 1 7 7 0 0 0 1 1 4 4 0 0 0 1 1ZM64 48l-2-1a3 3 0 0 0-1 1l1 1a6 6 0 0 0 2-1Zm174 76-1-1-2 2h1l2-1ZM64 42h-1a7 7 0 0 0-1 1v1l1-1a9 9 0 0 0 1-1Zm87-32-1 1a17 17 0 0 0 2 1h1l-2-2Zm19 15h2a1 1 0 0 0 0-1h-2a8 8 0 0 0-1 1ZM64 70l-2-2-1 1 1 1a4 4 0 0 0 2 0Zm116-37h2l-1-1a9 9 0 0 0-2 0ZM73 33h2l-1-1a9 9 0 0 0-2 0Zm-6-1-1 1a4 4 0 0 0 2 0 5 5 0 0 0 1-1ZM56 76l1 1a4 4 0 0 0 0-1 5 5 0 0 0-1-2Zm69 16v-2a4 4 0 0 0-1 1 8 8 0 0 0 1 2Z"/><path d="M966 0v3a10 10 0 0 1 2 7c0 2 1 2 2 2a2 2 0 0 0 1 0 2 2 0 0 1 3 0l-2 1a3 3 0 0 1-1 0c-2 0-2 1-2 2-1 2-1 2 1 2s4 1 6-1l1 1h7c3-1 5 1 7 1l2 2 2 1c3-2 7-1 10-1 1 0 3 1 3 3a14 14 0 0 1 2 9c-1 3-2 5-6 6-1 1-2 1 0 2a10 10 0 0 1 3 4 6 6 0 0 1 1 5 4 4 0 0 0 0 3c1 3-1 4-3 5-1 1-2 1-2 3l-1 1-5 2-4 1h-4c-2 0-1-3-3-2v4l-2 8a2 2 0 0 1-2 2l-9 2c-3 0-4 0-4-3v-2l-1-2c-2-1-3-3-3-5s0-2-2-2h-5l-2-5a13 13 0 0 1 1-6l-2-10v8l-2 7-6 12c-2 5-5 11-11 12l-3 1-3 1 1 3a6 6 0 0 1 1 2l1 9 1 10a18 18 0 0 0 2 6c2 4 3 8 3 13a10 10 0 0 1-1 4c-1 2-2 4 1 6 2 1 2 2 0 3-2 2-1 5-3 6l-5 4c-2 2-3 3-6 1l-1 1a5 5 0 0 1-2 4l-5 6a6 6 0 0 1-7 2s-1-2-1 0c0 1-2 2-1 3a16 16 0 0 1 2 2c2 1 1 3 0 4l-7 2-15 3-8 1a7 7 0 0 1-5-2c-2-2-5-2-7-3l-6-5c-2-5-5-6-10-5l-14 2a20 20 0 0 1-13-4l-9-11c-2-4-1-8 2-11l5-5h-5a15 15 0 0 1-12-5 75 75 0 0 0-16-13c-4-2-6-7-5-12a10 10 0 0 1 7-7c3 0 4-2 6-3v-1h-1c-3 0-5 2-8 1l-4-1c-2-1-2-3-2-4a80 80 0 0 1 0-12l3-7c2-2 3-6 4-9 1-4 3-8 6-11a6 6 0 0 0 1-2c2-4 6-6 11-6 2 0 3 0 4-2a144 144 0 0 0 8-19 23 23 0 0 1 9-12 45 45 0 0 1 12-6l7-4h9c0 4 1 7-2 11a8 8 0 0 0-1 6c2 4 1 8 1 11a2 2 0 0 1-2 3c-2 1-1-2-2-2V19a12 12 0 0 0-1-3 26 26 0 0 0-5-9c-1-2-1-2-3-1a28 28 0 0 0-11 5c-4 3-8 7-9 12a56 56 0 0 1-6 14 67 67 0 0 0-5 13 17 17 0 0 0-1 9l5 5 13 9a13 13 0 0 0 9 4c2 0 2 0 2-2l2-1 2 1c0 3 3 3 4 5h3c-3-2-3-6-6-7h-1a5 5 0 0 1 0-3h2l2 2c0 2 2 3 3 5h1a4 4 0 0 0 0-2l-3-3c-2-4-3-9-7-12-2 0-1-3 0-4 2-1 2 1 3 2a4 4 0 0 1 1 2 7 7 0 0 0 2 6s0 2 1 1 3 0 2-2a2 2 0 0 1 0-2l1-1c2 0 3 0 1-2v-3l-1-2c-2 0-2 0-2-2a3 3 0 0 1 2-3 7 7 0 0 1 3 0l1 2-1 3a1 1 0 0 0-1 1l2 7a1 1 0 0 0 1 1 13 13 0 0 0 4-1h2a11 11 0 0 0 3 1c0-4 1-8-4-11a2 2 0 0 1 0-2v-4c-2-3-2-6 0-9a22 22 0 0 1 2-3l5-5c3-3 4-6 4-10 0-3 0-6 4-7a5 5 0 0 0 2-2c1-2 2-5 5-6a1 1 0 0 0 0-1 9 9 0 0 0-2-3l-3 1a8 8 0 0 0-1 3c-1 2-1 5-4 6l-1-1 2-4c1-2-1-4-1-6h2v2a3 3 0 0 0 0 1 5 5 0 0 0 1-1l1-2h7c1 2 3 2 4 2 6 1 12-1 18 1h2l4-1h6a2 2 0 0 0 2-2h11a7 7 0 0 1 1 4v9l2-3 4-10h2v3h1V0h5a12 12 0 0 1-1 2l-2 3 1 1c2-1 4-3 4-6h2l1 3 1 2c3 0 2 1 1 3s-2 4-5 5v4a1 1 0 0 1 0 1l-4 7c-1 2-1 2 1 3a10 10 0 0 1 6 5 33 33 0 0 0 3 4v-1l-1 1a13 13 0 0 0 1 2 3 3 0 0 0 0-2l-2-6c1-2 3-1 5-2a8 8 0 0 0 1-1h2l6 4h1a1 1 0 0 0 0-1l-2-9a39 39 0 0 1-4 2c-1 1-2 0-2-2a6 6 0 0 1 1-2 8 8 0 0 0-1-9 29 29 0 0 0-2-2V0Zm-83 60h1v-3a3 3 0 0 0 0-1l-1 1c0 1 0 2 2-2v-2l-1 1a10 10 0 0 0 1 2l-2 4Zm-17-2 1 1v-1a13 13 0 0 0 0-2c-1 1-1 1 1 3h-1a10 10 0 0 0 0 3l2 2-1-2-2-4Zm22 118h-5l-5 1 12-2-2 1h1a13 13 0 0 0 2 0h-3ZM992 50a34 34 0 0 0 1 5 10 10 0 0 0 6 5h1a19 19 0 0 0-2-4l-12-10 2 1c0 2 2 2 3 3a6 6 0 0 0 1 1c1-2 2-1 3 0l1-1a6 6 0 0 1 2-1h3l4 2 1-1v-2c-3 0-4-3-6-2s-5 1-6-2a1 1 0 0 0-2 0c-1 2-3 1-5 1 0 0-1 1 5 5Zm-86 92a10 10 0 0 0 0 2c2 5 2 5-2 7a4 4 0 0 1-2 0 8 8 0 0 0 1 1l2 5a8 8 0 0 1-2 5l-4 3c-2 2-4 1-6 1h-2a2 2 0 0 0 0 2c2 1 1 2 0 3l-2 2a26 26 0 0 0 9-4c5-3 9-7 12-13l1-4a23 23 0 0 0-1-5c0-2-2-3-4-5a119 119 0 0 0-9-9c-6-5-12-10-16-18 0 2-1 4 1 5l-1 1c-1 0-2 1-3-1a3 3 0 0 0-2-1l-2 1a48 48 0 0 0 0 7 4 4 0 0 0 1 2h2l4 1h1a8 8 0 0 0-1-1 22 22 0 0 1-1-2 1 1 0 0 1 2-1l2 3h4a2 2 0 0 1 1 1l15 12a1 1 0 0 0 2 0Zm-4-67c-2 0-2 0-1-2a7 7 0 0 0 0-2l3-3c3-2 4-2 6 0v1a9 9 0 0 1 1-1l2-2 1-2 1 2 1-1c1 0 2-2 3-1l-1 3a12 12 0 0 1-2 2l4 4a34 34 0 0 0 7 8c1 2 1 2 4 1a16 16 0 0 0 12-8 6 6 0 0 0 1-3c0-4 2-8 4-12a10 10 0 0 0 1-7 15 15 0 0 0-2-5c-1-2-2-4-1-6 2-3 1-6 1-8s-2-4-3-4h-8a2 2 0 0 0-2 1c-2 1-4 3-4 6s-1 4-3 4l-8 3a33 33 0 0 0-11 8c-1 1-2 3-4 2l1-5 2-2 17-17c2-3 4-5 4-8a5 5 0 0 1 1-3c1-1 2-2-1-2-1 0-1-2-3 0a8 8 0 0 0-1 3v3l-1 3c-4 2-6 6-8 9l-1 1a1 1 0 0 1-1-1 13 13 0 0 1 0-10 25 25 0 0 1 4-7c2-3 3-7 2-11a2 2 0 0 0 0-1c-2-2-4-3-6-2l-6 1h-10a7 7 0 0 0-3 0c-6 3-11 8-13 15l-3 13-3 15v3l2-2a2 2 0 0 0 0-1l2-13 2-1v1a1 1 0 0 1 0 1l-2 10a12 12 0 0 0 0 6l5-19c-1 3 1 5-1 8l-2 11h1v-3a3 3 0 0 0 0-1l-1 1c0 1 0 2 1-1l2-3 2-5c0-2 1 0 1 0a3 3 0 0 1 1 2v6c4 0 1 2 1 4l-1 1 1 1h2l-1 2-2 2v1a3 3 0 0 0 1 0 12 12 0 0 0 1-1h2c0 1 2 2 1 3v1c2 0 1 1 1 2l-3 3-1 1c-1 0-2-1-2-3 0-1-1-2-2-1a8 8 0 0 0-2 1c-1 1-1-1-1-1 0-2-1-2-2-1l-2 4a4 4 0 0 1 0 2c-2 0-2 2-3 3s0 3 0 5a42 42 0 0 1 2-5c1-2 2-2 4-1 2-2 4-2 5-1l1 1-1 1-2 1c0 3-1 5-3 7v1h1l4-5 1-2a2 2 0 0 1 2-1c2 1 2 3 0 4-2 2-3 3 0 4l1 2v3c2-2 4-4 4-7 0-2 1-2 3-2h4l4-5v-1h-1c-1 2-3 3-3 5Zm-82-5v1a6 6 0 0 0 1 0c3 3 6 6 5 11 0 2 3 5 5 5 3 0 6 1 9-1h-2c-2-1-3-2-5 0a1 1 0 0 1-1 0l-2-1 1-4h3c0 3 2 2 3 3s2 0 2-1l1-2a4 4 0 0 1 2 1l2 1a10 10 0 0 0 5 2c-3-4-7-5-11-6l-9-3-7-5-2-1a24 24 0 0 0-2-2l-7-5c-2-3-4-6-3-10 1-2 0-5 2-7 1-1 0-2-2-2l-7 4c-2 2-2 4-2 6a5 5 0 0 0 2 2 12 12 0 0 1 4 9c0 3 2 4 5 4l10 1Zm148-4-1-8a4 4 0 0 0 0-1 5 5 0 0 0-1 1v4a7 7 0 0 0 3 8 8 8 0 0 0 1 0v-9l1-2 1 2-1 3 1 3v6c0 2 1 3 3 3a35 35 0 0 0 5-1 5 5 0 0 0 3-1v-2a20 20 0 0 1 1-5v-5l-1-6c-2-2-4 0-5 0-1-1-1 0-1 1v3c-2-1-2-2-2-4l-1-2-3 3v-2c-3 3-2 7-3-1l-1 3a21 21 0 0 0 2-1 1 1 0 0 0 0-1l-1 11Zm-54 95c2 1 3-1 3-2a22 22 0 0 1 5-5c1-1 2-2 0-3l1-2h2c1 2 3 1 4 0l5-4c2-1 2-4 4-6 1-1 0-2-1-2-2-1-3-3-3-5a22 22 0 0 0-4-10 20 20 0 0 1-5-8c-1-4-3-7-3-11a24 24 0 0 1 0-9 12 12 0 0 1 4-7l1-1a5 5 0 0 0 0-3 3 3 0 0 0-2-1c-3-1-4-4-5-6a13 13 0 0 0-4-5 2 2 0 0 0-3 0l-7 4c-3 3-5 7-10 8l-1 2v4c0 1 0 2 1 1 0-1 2 0 2-2l-1-2 3-1a11 11 0 0 1 3 3l-2 2a11 11 0 0 1-3 2l-9 2 4 1c3 4 6 1 9 0l2-2c2-2 5-3 9-3l4 4c0 3 1 5-2 8-1 1-2 4 1 6v2c2 1 2 3 2 4a5 5 0 0 1-2 5v1c-4 3-3 6-1 9a7 7 0 0 1 0 8l-1 4v3l5 4c1 1 2 4 1 5-3 2-4 5-6 9h-4a7 7 0 0 0 4-1Zm-26-21a18 18 0 0 0-1-1l-8-9a1 1 0 0 0-2 0 1 1 0 0 0 0 2l8 10c3 0 4 3 6 4 1 1 3 1 3 4l-5-2-2-1-9-11-5-10a2 2 0 0 0-1-1 8 8 0 0 0-2 0l-4-2c-1-1 1-2 1-2v-1h-1c-1 1-3-1-3 1a5 5 0 0 0 1 3l3 2-1 2h-1a14 14 0 0 0-3-1 1 1 0 0 0-1 0c0 2-3 2-4 4-1 3-4 5-6 7-3 3-3 6-3 10 1 3 4 3 7 4 2 2 5 2 8 3 3 2 5 4 4 8l-1 1a2 2 0 0 1-1 0c-1-1-2-3-4-3a9 9 0 0 1-1 0v1l9 7 7 5c5 2 6 2 10-1a15 15 0 0 0 2-2 10 10 0 0 0 2-2l-1-2v-2c0-2 1-2 2-2a7 7 0 0 1 2 1 4 4 0 0 0 5-1c2-2 5-3 5-7 0-2-1-2-2-3v-4l4-2a1 1 0 0 0 1-2l-7-5c-2-2-3-2-7-3-1 0-2-2-3 0v2a5 5 0 0 1-1 1Zm-71-7h6c3-2 6-3 8-6 3-4 3-5 0-9l-1-1v-4l3 1 2 1 2 1a6 6 0 0 0 1-2 3 3 0 0 0 0-2c-1-3 2-3 3-4h1c2 0 3-4 2-5v-1c-3 1-4-1-5-2h-1l-1 1a6 6 0 0 1-3-1l-1-2a4 4 0 0 1 2-2l2 1 3-1-2-1-2-2h-2l-9 4c-5 2-7 2-11-1l-2-1a17 17 0 0 0-9-3 3 3 0 0 0-3 2c-1 3-3 4-5 5l-4 2c-3 2-5 4-5 7s1 6 4 7c6 3 11 8 16 13 3 4 7 6 12 5Zm-20-81a46 46 0 0 0-2 4c-2 3-4 6-4 10s-3 7-5 10c-2 4 0 7 2 9a16 16 0 0 0 4 2c1-2 3 0 5-2 4-3 8-2 11 1a18 18 0 0 0 7 4h4a16 16 0 0 0 14-2 6 6 0 0 0-1 0c-2 0-3 1-5-1s-2-3-2-5a7 7 0 0 0-2-6l-5-5h-6c-5 0-6-1-8-6l-4-8-3-5Zm53 60-9 9-4 6c-4 5-10 9-16 12a9 9 0 0 0-3 4c-2 3-1 7 2 8 2 2 8 2 10 0l2-1c2-3 4-4 7-5 4-1 9-6 8-11v-6c0-2 1-2 2-2l2-1c4-1 5-4 6-7 0-2-1-3-3-3v1a1 1 0 0 1 0 1v2a3 3 0 0 1-3 0 5 5 0 0 1-1-2v-1c2-1 0-2 0-4Zm-4 31-6 4a10 10 0 0 0-6 3c-3 5-8 5-13 4h-1v1a34 34 0 0 0 13 9c2 1 4 2 7 1l8-2c2-1 5 0 7-2l1 1c2 1 2 0 2-1 0-2 1-3 2-2a10 10 0 0 1 3 1c1 0 2 2 3 1s-1-2-1-3a22 22 0 0 0-2-1l-11-4c-2-1-5-2-5-5a32 32 0 0 1-1-5ZM892 4c-2-2-5 0-7-2l-1 1a4 4 0 0 1-2 4 9 9 0 0 0-1 3l-4 4a5 5 0 0 0-3 5c1 5-2 9-5 13l-6 6c-2 2-3 4-2 7 1 2 1 5 4 5l1 2c0 1 1 2 2 1a3 3 0 0 1 4 0l1-1a44 44 0 0 1 2-13 86 86 0 0 0 3-17c0-3 2-7 4-10 2-4 6-7 10-8Zm39 92a16 16 0 0 0-1-9 22 22 0 0 0-1-2 9 9 0 0 1-1 2 10 10 0 0 1-2 2 10 10 0 0 0-3 8l1 10a56 56 0 0 0 5 12c2 3 6 7 6 12h1a2 2 0 0 0 0-1 3 3 0 0 0 1-1c1-3 0-8-2-12a87 87 0 0 1-3-10 107 107 0 0 1-1-11Zm-18 41-1-1a22 22 0 0 1-9-6l-6-9c-1-1-1-3-2 0-1 2-2 1-4 0s0-2 0-2l1-2 1-1c-3 0-3-2-5-3a6 6 0 0 0-2-1s-1 1 0 1l1 1 1 2-1 1c-2 0-2 1-1 2l4 5 9 9c4 2 6 6 9 8a14 14 0 0 1 4 11 14 14 0 0 1-1 6l1 1a3 3 0 0 0 2-1v-1a62 62 0 0 1 4-5v-4l-2-1c-4-3-5-5-3-9v-1Zm-18-21 8 11a17 17 0 0 0 7 7h4v-4h-1c-1-3-2-6 0-9a4 4 0 0 0-1-4c-3-3-6-6-11-6l-2-1-2 1v1c0 4 0 4 3 2 2 0 2 2 4 1v4h-3c-1-2-4-2-6-3Zm20 1a18 18 0 0 0 2-3c1-2-1-2-2-3-2-3-3-5-2-8a23 23 0 0 1 3-6l-1-3c-1-1-2-3-4-2a14 14 0 0 0-5 1 3 3 0 0 0-1 2l2 1 1 2-2 2c-1 0-3 0-1 1 0 0-1 4 1 1a2 2 0 0 1 2 1 15 15 0 0 1 1 3c-2-1-3 2-4-1h-4a15 15 0 0 0-1 2 19 19 0 0 1-3-2l-3-1-1 1a8 8 0 0 0 0 3h2l5 1c4 1 8 1 12 5a41 41 0 0 0 3 3Zm-86-25h-9a17 17 0 0 1-12-5c-5-4-5-4-10 0a10 10 0 0 1-11-1l-2-2c-1 3 0 5 1 7 0 2 1 2 2 2a20 20 0 0 0 9-1c3-1 5 0 7-2 2 2 5 1 7 2l5 3c4 2 6 1 9 0l4-3Zm135-48c-1 4 0 8-3 11-2 2-2 3-1 6 2 2 3 0 4 1l1-2 1-4 5-8 3-2-1-4c2-2 1-4-2-4l-1-1c-2-3-2-3-4-1-2 1-2 3-2 4v4Zm-88 50-2-6-4-3a36 36 0 0 0-3-2c-2 0-2 0-3 2l-2 1c-1 0-2 0-2 2v1c-3 0-2 2-1 3s3 2 2 4a2 2 0 0 0 1 1l4 2c3 2 3 1 4-1s2-4 5-4h1Zm36-51a21 21 0 0 0 3 0l6-3a48 48 0 0 1 4-2c3-1 4-2 4-5a3 3 0 0 1 1-3l6-5c3-4 3-7-1-10a16 16 0 0 0-4 2 12 12 0 0 0-1 3c0 5-3 9-6 12l-12 11Zm76-19a3 3 0 0 0 1 0 5 5 0 0 0 1-1 7 7 0 0 0 1 0l-1-1-5-1-3 1a9 9 0 0 1-4-2 2 2 0 0 0-3 0 4 4 0 0 1-2 0c-3 0-3 3-6 3 0 2-1 5 1 6a27 27 0 0 1 1 3c1 3 2 3 4 1a43 43 0 0 1 9-7c2-2 2-2 6-2ZM922 9l-2 3c0 4-2 7-4 10s-4 5-3 8l1 1a1 1 0 0 0 1 0c2-3 3-6 6-7a2 2 0 0 0 1-1c0-4 3-9 0-13V9Zm62 25 7-2 5-1a10 10 0 0 0 4-1 10 10 0 0 1 5-1l1-1a15 15 0 0 1-1-1c-2-2-4-2-6-1l-6 1a4 4 0 0 0-2 1l-7 6Zm-33 23 3-10a23 23 0 0 0-1-5l-3-7v-1l-1 1a31 31 0 0 1-1 5c0 2-1 5 1 7a20 20 0 0 1 2 10Zm-98-40v-4a8 8 0 0 1 1-4 26 26 0 0 0 2-5l-3-3-6 3v2c2 3 5 7 6 11Zm150 18h2a14 14 0 0 0 2-3s-1-1-1-1a3 3 0 0 0-2 1c-2 2-5 1-7 1l-9 1-1 1 1 3a3 3 0 0 0 3 1 29 29 0 0 0 4-2 15 15 0 0 1 8-2ZM891 175a9 9 0 0 0 3 0l10-2a5 5 0 0 0 3-1l2-3c-3-1-1-3-2-5a37 37 0 0 1-16 11Zm85-137 4-3 1-1 2-4a9 9 0 0 1 4-4v-1h-1a6 6 0 0 0-2 1l-8 6c-2 2-3 3 0 5v1Zm-127 98 7-6 1-1a6 6 0 0 0-1-3h-1l-4 1c-3 1-4 2-3 4l2 5Zm114-91-1-4-1-2a11 11 0 0 0-1 2v3l-1 2-1 4v4l-1 1h2c3-3 3-7 4-10Zm37-24c-4 0-4 0-7 3l-1 1a3 3 0 0 0 1 0c3 1 5 0 8-1s3-1 4 1l1 1a12 12 0 0 0 2 1 6 6 0 0 0 0-2c0-2-3-4-5-4h-3Zm-7 41v-1c-3-1-4-3-5-6a13 13 0 0 0-2-3h-1a3 3 0 0 0-1 2c1 4 3 7 7 9a3 3 0 0 0 2 0v-1Zm3-1-1-2c-2 0-3-2-3-3a11 11 0 0 0-4-6 5 5 0 0 0-1-1 6 6 0 0 0 0 2l2 2c0 5 3 7 6 9h1v-1Zm4-21v-1a64 64 0 0 0-7 0l-3 1-2 3c0 1 2 2 3 1l2-1a8 8 0 0 1 7-3Zm-18 13-4-3a5 5 0 0 0-6 1v2a10 10 0 0 0 1-1c1 0 3-1 3 1l1 1c1-2 3 0 5-1Zm-115 54-1-1-1 6c-2 3-1 5 2 6v-11Zm139-61-1-2a14 14 0 0 0-4-1 10 10 0 0 0-4 0 1 1 0 0 0-1 1 1 1 0 0 0 1 1h3c2 0 4 0 5 2a1 1 0 0 0 1 0 6 6 0 0 0 0-2ZM839 88c5 3 9 4 13 2Zm7 17v1l2 1 2-1a21 21 0 0 0 3-2 14 14 0 0 1-2 0 16 16 0 0 1-4-1h-1v2Zm23 11v5h1v-1l1-2 1 1-1-2v-3l1-1a8 8 0 0 0-2-1 1 1 0 0 0-1 1v3Zm2 57-6-5a2 2 0 0 0-1-1s-1 1-1 1l3 4c1 1 3 2 5 1Zm-17-97a13 13 0 0 0 0-3c0-2-3-4-1-6a5 5 0 0 0-1-1 1 1 0 0 0-1 1v4c0 2 2 3 3 5Zm19-10v-9l-1-1-1 1c0 3 0 6 2 9Zm-8-1c-2 2-3 6-1 10a18 18 0 0 0 1-10Zm16 29 9 2c-3-2-5-4-9-2Zm-4-30h1v-5a17 17 0 0 1 0-4c1 0 2-1 0-1a2 2 0 0 0-1 1v9Zm-34 52 5-5v-1h-1l-5 5v1h1Zm95-106c3 2 5-1 8-1V8a1 1 0 0 0-1 0l-7 2Zm-51 97c1 3 4 3 5 4a1 1 0 0 0 1 0v-2l-6-2Zm-52 13 1-2a7 7 0 0 1 2 0c-1-2-2-1-2-1l-3-1-1 1 2 3h1Zm161-82h6c-2-1-4-3-6 0Zm-5-18a10 10 0 0 0-4-1l-1 1 2 1 3-1ZM869 74a21 21 0 0 0 0-3c0-1 1-3-1-3-2 1-1 2-1 3l2 3Zm137-19v-3a16 16 0 0 0-4-1h-1l1 1c2 0 2 3 4 3ZM854 97l-7 2c3 0 5 1 7-2Zm7-31c-2 2-2 2 0 7ZM962 3v8l2-4-2-4ZM834 126h1a15 15 0 0 0 2-3l-1-1h-1l-1 4Zm5-12h1l2-3a1 1 0 0 0 0-1h-1l-2 4Zm35-4c-1 2-2 3 0 5a4 4 0 0 0 1 0v-1l-1-4Zm8-36a7 7 0 0 0-2 0l-1 1 1 1a12 12 0 0 0 2-2Zm10 25a6 6 0 0 0 6 0Zm-17-46h-1v5h1Zm-22 49v-1h-4v1Zm126-58 1-2a5 5 0 0 0-1-1l-1 1 1 2ZM853 23h-1v4h1Zm148 33a6 6 0 0 0-1 1l1 1a3 3 0 0 0 1-1l-1-1Zm-145 53-2 2v1l2-2v-1Zm132-81 2-2h-1l-2 2ZM881 54v-2a5 5 0 0 0-1 2 4 4 0 0 0 0 1Zm20 45-1 1a4 4 0 0 0 2 0 5 5 0 0 0 1-1Zm65-86-1-1a4 4 0 0 0 0 2 5 5 0 0 0 1 1Zm-36-3V8a5 5 0 0 0-1 2 4 4 0 0 0 0 1Zm-71 69v-3l-1 1a9 9 0 0 0 0 2Zm-4-9v2a5 5 0 0 0 1-1 4 4 0 0 0 0-2Zm128-51h-2a5 5 0 0 0 2 1 4 4 0 0 0 1 0ZM835 90l-2 1a4 4 0 0 0 1 0 8 8 0 0 0 2 0ZM384 0c1 3 4 1 6 3 4 0 6 4 10 6a13 13 0 0 1 5 4 40 40 0 0 1 3 9l8 18a2 2 0 0 0 3 1h2a7 7 0 0 1 6 2c4 4 7 8 9 13a30 30 0 0 1 3 7c0 3 2 6 4 8a15 15 0 0 1 2 8v7a13 13 0 0 1-1 5 5 5 0 0 1-4 2l-10-2c1 3 1 3 4 4l4 3c5 2 6 7 4 12a12 12 0 0 1-5 6c-6 3-11 8-15 13-3 3-6 4-10 4h-7a22 22 0 0 1 7 7c2 3 1 8-1 11l-7 8-6 4-5 1c-6 1-11-1-17-2h-5l-5 4c-1 4-5 7-9 7a3 3 0 0 0-2 1c-5 4-11 4-17 2a45 45 0 0 0-12-3 23 23 0 0 1-7-2c-2-1-2-2-1-4a12 12 0 0 0 2-3 4 4 0 0 0-1-2h-1c-3 1-7-1-9-4a21 21 0 0 0-2-2l-3-3c0-1-2-2 0-3l-1-1c-2 2-4 1-5-1a7 7 0 0 0-4-2 3 3 0 0 1-3-3l-2-4c-1-3-1-3 1-5l1-3c-3-5-2-10 0-15l3-9v-1l1-11 3-12-1-1-5-1c-6-3-9-8-11-13a51 51 0 0 0-5-10l-4-10a3 3 0 0 1 1-3v-4l-3 7a8 8 0 0 0 1 5c2 2 0 4 0 6a5 5 0 0 1 0 1c-2 4-3 5-8 4h-1v2c0 2 0 4-2 4a2 2 0 0 0-2 3l-1 5a6 6 0 0 1-5 0 16 16 0 0 0-5-2c-2 0-4-2-4-4l-1-11c-3 4-6 4-10 2-2 1-4-2-7-2-2 0 0-4-2-4s-2-1-3-2-1-3 0-4a1 1 0 0 0 0-1c0-6 0-6 3-9a6 6 0 0 0 1-1l-1-2c-3 0-5-2-5-6l-1-2c2-2 0-5 2-7s3-3 5-3l9 1h1c2-4 6-4 9-4 3 1 5 1 7-1a2 2 0 0 1 3 0c1 2 3 1 4 1a2 2 0 0 0 2-2c-1-1-1-2-3-2a5 5 0 0 1-2 0l-1-1 1-1a14 14 0 0 1 3 1c2 0 3-1 3-2-1-3 0-5 2-7V0h8c0 2-1 4 1 6l-1 2a15 15 0 0 1-2 3 8 8 0 0 0-1 8l2 4-1 1c-2 1-4-1-6-2 0 3 1 7-1 9a1 1 0 0 0-1 1h1a8 8 0 0 0 1-1 44 44 0 0 0 6-3h3a5 5 0 0 0 4 2c2 0 1 1 1 2l-2 4h1a21 21 0 0 0 1-4c3-2 4-6 9-6v-1a32 32 0 0 0-2-3l-3-6a1 1 0 0 1 0-1v-4c-3 0-3-3-5-5s-1-3 1-4l1-2h3a33 33 0 0 0 3 3l2 1c1-1-1-1-1-2l-1-2h8l1 3a11 11 0 0 0 0 3 10 10 0 0 0 2 2l2 2a17 17 0 0 0 0-4V4a16 16 0 0 0 0-4h24a2 2 0 0 0 4 0h21l1 4c2 0 2 2 3 3a7 7 0 0 0 4 4c3 1 3 4 3 6 0 5 2 8 5 11l4 5a11 11 0 0 1 1 13v2c2 2 1 3-1 4l-2 3a23 23 0 0 0 0 7l5-2 4 2 1-1 1-8-1-3 1-2a5 5 0 0 0 2 0 3 3 0 0 1 3 2c1 1 0 3-2 3a2 2 0 0 0-1 1v4c-2 2-1 2 1 2l1 2-2 6c0 3 1 2 1 1a18 18 0 0 0 0-5 2 2 0 0 0-1 0 4 4 0 0 0-1 1c2 1 0 2 0 3s-2 2 1 0c5-3 4-3 6-6a6 6 0 0 0 1-5c0-2 2-2 3-3a13 13 0 0 1 2 1c1 1-1 2-1 3v1c-3 0-3 3-4 5l-6 10v1a1 1 0 0 0 1 0c1-2 3-2 3-5 0-1 1-2 3-2l1 1a3 3 0 0 1-1 3h-1l-5 5 1 1a2 2 0 0 0 2 0c1-1 2-3 4-3v-1c1-2 3-2 4 0a2 2 0 0 0 2 1 13 13 0 0 0 9-4l12-9c6-4 7-7 5-13l-7-19-4-8c-1-5-3-8-7-11-4-4-9-6-14-8a3 3 0 0 0-2 1c-3 5-7 9-6 15v6a4 4 0 0 1-1 3l-1 1a4 4 0 0 1-2-1 6 6 0 0 1 0-3V8c-2-2-2-5-2-8h1v3a29 29 0 0 1 3 12 44 44 0 0 1 2-5 38 38 0 0 1 3-4c2-3 2-4-1-6Zm-42 51 1 1v-1a13 13 0 0 0-1-2l1 3c0 1-1 3 2 5v-2l-1 1a13 13 0 0 0 1 2l-1-3c0-1 1-2-2-4Zm48 65a16 16 0 0 1 3 1c0 1 0 2 1 0a20 20 0 0 1 2-2v-1a1 1 0 0 0-1 0c-2 1-3 1-2 4-2 3-2 3 0 5 0-2 0-3-3-7Zm-53 58h2l-1-1a10 10 0 0 0-2 1l-1-1h1l-1-1-6-3-7-5h-1a7 7 0 0 1-1 3c-1 2-1 2 1 3l16 4ZM234 50l1 1c0 1 0 3 1 0 1-1 3-2 3-4l1-1h1l-1-1c-2 0-4 1-6-1l-1 1-1 1h-4l-7 2v3c1 1 1-1 1-1 2 0 3-2 5-1h4l1 1c0 2 1 1 3 2-4 1-5 4-7 7l-1 1h1a7 7 0 0 0 2 0c4-1 4-5 4-10Zm163 34a5 5 0 0 0 2 0c2-2 3-4 3-7 0-1 0-3 2-4l1-3a6 6 0 0 0 2-1 8 8 0 0 1 7-2h5c2 0 3-1 3-2a17 17 0 0 1 1-4 23 23 0 0 1 2-5 25 25 0 0 1 2-2c3-3 3-6 0-8a18 18 0 0 0-5-3 14 14 0 0 0-4-1v4c2 2 0 5 2 7l-2 6a22 22 0 0 1-4 5 15 15 0 0 1-6 3l-3 3a3 3 0 0 0-3 1c-3 4-7 5-12 6-4 1-8 2-11 6h1l6-3c2-1 2-1 3 1l1 1c1-1 3 0 4-2s2-1 4-1v3l-1 2a23 23 0 0 1-3-1l-4 1c0 1-2-1-3 1l10-1Zm-79 76v-1h-3a3 3 0 0 0-1 1h1c1 0 2 0-1-1l-2-2c0-3-1-4-2-4-2-2-2-3-2-5s2-3 3-4c4-3 4-3 2-7a45 45 0 0 1-1-6l2-6c2-2 0-4-1-6l-1-1a8 8 0 0 1-2-6 7 7 0 0 1 2-6c2-1 2-3 1-5a20 20 0 0 1-1-3 9 9 0 0 1 0-8c2-2 5-2 7-2l4 2c2 2 4 4 7 4l1 1c2-1 6-1 7-4a56 56 0 0 1-7-1 23 23 0 0 1-5-3l-1-1 3-3 2 2c0 2 1 2 2 3l1-1v-2c1-1 1-2-1-3a13 13 0 0 0-2-2l-6-3c-1-3-4-5-6-7a7 7 0 0 0-4-2c-2 0-3 2-4 3a5 5 0 0 0-1 1c-2 3-3 6-7 8-2 2-2 3 0 5s4 4 4 7l-1 13a45 45 0 0 1-7 16c-2 2-4 5-4 9a13 13 0 0 1-2 4c-2 2-2 2-1 4l1 3c1 1 1 3 3 3s3 2 4 3c2 1 3 2 4 0a2 2 0 0 1 3 0c1 1 0 2-1 2l1 2 5 6c0 1 1 3 7 3Zm69-67h1a3 3 0 0 0-1-1 8 8 0 0 0-2 1l26 38 8-2a19 19 0 0 0 3-3c4-3 7-8 12-10l6-5a6 6 0 0 0 2-5c-1-3-2-6-5-7l-5-2c-2-1-4-2-4-5l-1-1h-6l-6 3c-2 1-5 3-8 2l-6-2-8-4-2 1c0 1 0 2-2 2a8 8 0 0 0-1 0l1 1c1 0 1 2 3 0s2 0 2 2l-1 2c-1 0-1 2-3 1h-2l-2 1c-2 0-2 1-2 2 0 3 0 4 3 4l1 1c2 1 2 3 2 5s1 2 3 1l4-2 1 1c1 2 0 3-1 4a6 6 0 0 0 0 8 12 12 0 0 1 2 2c1 3 4 3 7 5 1 1 3 0-19-38Zm-40-14-1-2h-1a2 2 0 0 0 0 1 8 8 0 0 0 1 2 1 1 0 0 0 1 0l-2-3v-1a5 5 0 0 1-2-4 3 3 0 0 0-1-3l-2-1a3 3 0 0 1 2-2c2 0 4-1 4 2a3 3 0 0 0 1 0c2-2 3 0 3 1a32 32 0 0 1 2 5c1-3 0-6-2-7s-2-2-2-4a4 4 0 0 0 0-3l-2-1-1 2c0 1 0 2-1 1a7 7 0 0 0-2-1c-1-1-1 0-2 1 0 2-1 3-3 2l-2-2a7 7 0 0 1-1-1l1-2s2 0 1-1c-2-1 1-2 0-3h2a5 5 0 0 1 1 0v-1a21 21 0 0 1-1-2l-1-2a6 6 0 0 1 2 0 4 4 0 0 1 1 1v-7l1-3c1-1-1-2-1-3a9 9 0 0 0 0-2c2 1 3 2 3 4a17 17 0 0 0 4 8v-2l-1 1a13 13 0 0 0 1 2l-1-3v-4c-2-3-1-7-3-11l2-2 1 6 2 9 1 5a3 3 0 0 0 1-3l-2-7-1-7 1-1 1 1 1 6 1 9 1 1a3 3 0 0 0 2 0v-2l-2-5-1-7-2-6-1-7c-1-3-1-6-3-8-4-7-9-11-17-11h-7l-6-1c-2-1-4 1-6 2v3c-1 5 2 8 4 11s3 6 3 10c0 3 0 5-2 6-2-3-3-7-7-9-2-1-3-3-3-5a43 43 0 0 0-1-5l-1-1a26 26 0 0 0-3 1v1c2 9 2 9 8 15l14 14a17 17 0 0 1 3 4 2 2 0 0 1-1 3c-1 1-1-1-2-1-4-5-9-9-15-11-2 0-5 0-6-2l-3-6c-1-2-2-4-4-4h-8c-2 0-4 2-4 3v8c2 3 1 6-1 9a9 9 0 0 0-1 5 18 18 0 0 0 2 7 33 33 0 0 1 3 10 9 9 0 0 0 2 5 16 16 0 0 0 12 6h3l8-11v-7a1 1 0 0 1 2 0 14 14 0 0 1 1 2 6 6 0 0 1 2-2l1 1 2 4c1 1 1 0 1-1l3-2 2 2a5 5 0 0 0 1 0l3 3a7 7 0 0 0 0 2c1 2 1 2-1 3v-2l-4-4c0 3 2 3 3 4l1 1c1 1 1 3 3 2a5 5 0 0 1 3-1l1 1c-1 4 2 5 4 7 0-2 1-3 3-5a2 2 0 0 0 0-2 5 5 0 0 0-2-1c-2-1-2-1-1-2l1-1c1-1 3-1 3 1 0 3 2 4 6 7Zm-8 60v-4h-2a4 4 0 0 1-2 0 14 14 0 0 0-5 2l-5 4-3 3 3 3h1c3 1 3 2 1 4l-1 1v5l4 4c2 1 3 2 5 0a3 3 0 0 1 2 0c2 0 3 1 2 3-1 3-1 4 2 6l4 2a4 4 0 0 0 4 1c3-1 6-2 9-5a33 33 0 0 1 7-6c1-1 3-1 3-3l-5 1c0 1 0 3-1 2l-1-2c-1-3 1-5 4-7l6-2a11 11 0 0 0 5-2c3-1 4-3 4-6a10 10 0 0 0-2-7c-3-3-7-5-9-9l-2-1c-1 0 1-2-1-1l-1 1a5 5 0 0 1-3 1 2 2 0 0 1-1-1 3 3 0 0 1 0-2l2-1 2-4a21 21 0 0 0-3-1h-2l1 1 1 2c-2 2-3 3-5 2-1 0-2-1-2 1a6 6 0 0 1-1 3 47 47 0 0 1-5 8 98 98 0 0 1-10 11 15 15 0 0 1-4 2l-2-1 1-1c6-3 10-8 15-13a17 17 0 0 0 2-3 1 1 0 0 0 0-1 1 1 0 0 0-2-1l-3 3c-1 3-4 4-7 8Zm56-53v1l6 2c8 1 15-1 20-6a5 5 0 0 1 4-2c3 0 5 0 7 2 1 2 3 0 5 2 1-1 4-1 5-4 1-2 2-4 1-6a99 99 0 0 1-7-16c-1-3-2-7-6-9a9 9 0 0 1-3 6 13 13 0 0 0-3 7c0 4-3 6-6 6h-7a4 4 0 0 0-2 1c-3 3-6 5-6 10 0 3-2 6-5 6a15 15 0 0 1-3 0Zm-16 24a10 10 0 0 0-1 4 4 4 0 0 1-1 2l-2 1-1-2v-2l-2 1a3 3 0 0 0-1 4c1 2 2 4 4 4a18 18 0 0 1 5 2l1 3c0 2 1 4-1 6v1c2 4 5 8 9 9a11 11 0 0 1 7 5 5 5 0 0 0 4 2h5c4 0 6-2 6-6a5 5 0 0 0-1-4 19 19 0 0 0-6-5c-7-3-11-9-17-14-1-5-5-7-8-11Zm3 31a13 13 0 0 1 0 2c-1 3-1 5-4 7-2 2-6 2-8 3l-8 4v2a5 5 0 0 0 1 0l5-2h2v2l1 1c2-2 4 1 6 0a8 8 0 0 1 4 1 23 23 0 0 0 8 2 18 18 0 0 0 10-3c3-2 7-4 8-8a4 4 0 0 0 1-1 3 3 0 0 0-1 0c-5 2-10 2-13-2a12 12 0 0 0-6-4l-6-4Zm-27-91h3l4-2c3-1 3-3 4-5l1-3c-2-2-2-5-4-6a43 43 0 0 1-4-5 20 20 0 0 1-4-6l-1-7c0-1 0-2-2-3l-5-5-1-3c-2 0-2-1-3-2l-2-2a49 49 0 0 1-6 0l5 3a14 14 0 0 1 4 3c3 4 6 12 6 17 0 2 2 4 1 6v1c2 6 5 12 4 19Zm-64 74v4l1 1 1-1c0-3 1-5 3-7a41 41 0 0 0 7-12l1-6c2-6 1-10-1-14a52 52 0 0 0-3-5 2 2 0 0 0-2 1 15 15 0 0 0-1 4v6l-1 7-2 7c-1 5-4 10-3 15Zm52-9a19 19 0 0 1-2 0c-1 0-2 1-2-1a3 3 0 0 1 1-2 18 18 0 0 1 3-1l-3-1-5 5 3 2c1 1 1 1-1 2h-4c-1-1-2 0-3 1-3 6-7 12-14 14l-1 2c2 3 2 6-1 8l-4 3v2a10 10 0 0 1 4 7c0 2 1 1 2 1 2 0 1-2 1-2-2-3-1-7-1-9a21 21 0 0 1 7-10l5-5a19 19 0 0 1 3-2c5-3 9-8 12-14Zm-10-1-7 3c-1 1-2 0-2-1l-1-1a11 11 0 0 1 3-3l2 1h3c1-1 0-1-1-2a1 1 0 0 1 0-1c2-2 1-2 0-2l-4 1-5 1-6 5v3c2 3 1 6 0 8a46 46 0 0 0-2 5l1 1h4l6-6 10-12Zm-90-51 1 9a3 3 0 0 0 1 1c1 2 7 4 8 3a2 2 0 0 0 1-1 7 7 0 0 0 1-4l1-11 1-1v2l1 1c1-1-1-3 1-3l-1-3-1 1h-4l-1 3h-2a4 4 0 0 1 0-2 2 2 0 0 0-2-3c-2 0-3 0-3 2l-2 6Zm72 40a4 4 0 0 1-1 4 14 14 0 0 0-3 3l2 5a2 2 0 0 0 1 0 4 4 0 0 0 1-2c2-3 5-4 8-5l7-1 5-1v-1a9 9 0 0 0-2-3l-2 1a4 4 0 0 0-2 1c0 2-1 1-1 0l-2-2c-1 0-3-1-3 1s-2 1-3 1l-1-1a2 2 0 0 1 2-3l1 1 1-1 1-2h-2c-1 0-2 1-2-1a4 4 0 0 1 1-2l2-1a1 1 0 0 0 0-1c-1-2-4-3-6-3-1-1-2 1-3 1-2 1-2 2-1 4 1 3 3 5 2 8Zm129-21c-2 2-4 4-7 4a11 11 0 0 1-8-2c-2-2-5-2-8 1a19 19 0 0 1-14 5 32 32 0 0 0-8 0l5 3a9 9 0 0 0 8 0 42 42 0 0 1 5-3c3-1 6-3 9-1l5 1a22 22 0 0 0 9 1l2-1a51 51 0 0 0 2-8ZM254 43l2 5c3 3 7 6 6 12 0 2 2 1 2 2a9 9 0 0 0 2-1 5 5 0 0 0 2-1 4 4 0 0 0 1-2l-1-2a20 20 0 0 1-5-13v-6c-3-4-3-4-6 0a6 6 0 0 1-1 0c-1 2-3 3-2 6Zm113 43 1-1-1-1c-1 0-4 1-3-2l-2-1-4 2c-3 1-5 3-5 6v3c1 0 4 1 4 3s3 3 5 2a6 6 0 0 1 4-2h1c0-2 0-2 2-3l1-4-2-2a4 4 0 0 1-1 0Zm-52-45-13-13-4-6-1-6-1-2a20 20 0 0 1-3 0l-2 2c-1 3 0 7 3 9s5 4 5 8l3 3 4 1 9 4Zm39 75-3 2-4 1c-2 0-1-1-1-1l1-3v-1l-2 1a30 30 0 0 1-7 10l-14 13a6 6 0 0 0-1 1h2l14-11c1-1 2-2 2 1h1l5-6c1 2 0 3-1 5l6-1h1l1-5c-2-2 0-4 0-6Zm-93-90c0-2-3-2-3-4l-2-2-3-1a3 3 0 0 0-4 1c-2 2-4 2-7 1l-5 1-1 1a7 7 0 0 1 1 0c1 2 2 1 3 1a3 3 0 0 1 3 0l7 5 6 4a1 1 0 0 0 2 0c2-2 2-4 3-7Zm60 115c-3 2-3 5-4 8l2 7a29 29 0 0 0 6 8 46 46 0 0 0 7 4c2 2 4 4 7 3l-1-1c-2-2-3-3-1-6a2 2 0 0 0-1-1 2 2 0 0 0-2 1c-2 1-4 0-5-1a14 14 0 0 1-5-4l-1-4c-1-3 2-4 3-6-4 0-6-3-5-7a5 5 0 0 0 0-1ZM306 7l-2 6c2 1 1 2 1 4l2 5c1 1 3 1 3 3 1 1 3 2 3 4h1a1 1 0 0 0 1-1 14 14 0 0 0-3-8c-3-4-5-8-6-13Zm-27 25-2 2-2 8a41 41 0 0 0-1 5 7 7 0 0 0 1 4 20 20 0 0 1 1 4l1-5a14 14 0 0 1 2-5 7 7 0 0 0 1-6l-1-7Zm-36 2c-5-5-6-6-11-8a27 27 0 0 1-6-1c-1-1-2 0-3 1 0 0 2 1 0 1l-1 1 2 1 4 1 5 1 4 1 6 2Zm-2 2a3 3 0 0 0-1-1l-4-2h-8a7 7 0 0 1-4-1 12 12 0 0 0-2-1 15 15 0 0 0 1 3 3 3 0 0 0 4 1c2-2 3 0 5 0l1 2c2 2 4 1 5 2 2 1 3-1 3-3Zm-1-10a8 8 0 0 1 4 3l2 5 4 3a1 1 0 0 0 1 1c2-1 3-4 1-5a61 61 0 0 0-8-7c-1 0-2-2-4 0Zm139 109v-5c2-2 0-3-1-4l-5-2c-2-1-2-1-2 1a4 4 0 0 0 1 3l7 7ZM236 25l-4-3c-2-2-5-1-7-1a6 6 0 0 0-6 5 1 1 0 0 0 1 1 14 14 0 0 0 2-2c2-2 3-2 5-1l9 1Zm7 26c-3 0-2 3-4 5 0 3-1 4-4 5l-1 1a2 2 0 0 0 2 1l4-2 4-8a3 3 0 0 0-1-2Zm23-12c-2 2 0 4-2 6a1 1 0 0 0 0 1c2 1 2 4 3 6a11 11 0 0 0 1 3h2l-1-1v-6c-2-2-3-4-1-6l-1-1-1-2Zm-39 1c3 0 6 1 8 3l3 1a3 3 0 0 0 2-1l-1-2a17 17 0 0 0-12-1Zm25 17a10 10 0 0 0 0-1c0-2-1-4 3-4v-1a9 9 0 0 0-4-2l-2 2h-2a6 6 0 0 0-1 1 5 5 0 0 0 2 1l3 1v3h1Zm109 47v12c2-1 4-3 3-5a64 64 0 0 0-3-7Zm29-18a37 37 0 0 0-4 0l-4 1-3 1-3 1c5 0 9 0 14-3Zm-15 17 5 2a2 2 0 0 0 2-2 8 8 0 0 0 0-2 2 2 0 0 0-1-1l-6 3ZM240 51l-1-1h-1l-3 6-1 3-1 1a6 6 0 0 0 2 0c4-2 3-7 5-9Zm-19-5 10-1v-1l-1-1c-3 1-7-1-9 3Zm144 118-7 6a5 5 0 0 0-1 1 4 4 0 0 0 2 0c3-1 5-3 6-7ZM261 61a6 6 0 0 1-3 6l-1 1a20 20 0 0 0 0 2 8 8 0 0 0 2-1l1-1c2-2 1-5 1-7Zm97 58h1v-8l-1-1a4 4 0 0 0-2 1v1c1 0 2 0 2 2l-2 2v1a8 8 0 0 1 1 0h1a22 22 0 0 1 0 2Zm-3-56c2-3 3-5 2-8a1 1 0 0 0-1-1l-1 1v8Zm10 10v-8l-1-1-1 1c0 2 0 5 2 8Zm-25 101a31 31 0 0 0 5 2l5-1v-1Zm-2-80 9-3c-4-1-6 1-9 3ZM264 1v9h1l1-3c-2-2 0-4-2-6Zm-38 51c-2-2-3 0-5 1v2h2l3-3Zm115 54-1-1-4 2-2 1a5 5 0 0 0 2 1 4 4 0 0 0 2-1 32 32 0 0 0 3-2Zm10-44v-5a5 5 0 0 0-1-4l-1-1v2c2 2 1 5 2 8Zm35 52v-1l-5-5-1 1 5 5h1ZM282 6a16 16 0 0 0 2 2 44 44 0 0 0 5 1 1 1 0 0 0 1 0V8l-8-2Zm-56 32h6c-2-1-4-3-6 0Zm163 74c-1-4-1-4-3-3ZM239 21a8 8 0 0 0 2-1l-1-1h-3l-1 1h1l2 1Zm142 76-5-2h-2l1 1c2 2 4 1 6 1Zm-20-41-2 5v1a4 4 0 0 0 1 0c2-2 1-4 1-6Zm6 8 1 6c0-3 3-4-1-6Zm-19 11 1-2-2-1-1 1a21 21 0 0 0 2 2ZM228 56v-1l-3 3v1h1l2-3Zm131 15h1v-3c-1-1 3-1 0-2-2 0-1 2-1 2a17 17 0 0 0 0 3Zm-23 27h-5Zm-88-54 2-2a5 5 0 0 0-2-1l-1 1 1 2Zm13 16a16 16 0 0 0 0-3 3 3 0 0 0-1-2v2a17 17 0 0 1 1 3Zm-20-32h-1v1l2 2h1v-1l-2-2Zm134 71v1h4v-1ZM263 11h-1v4h1Zm-16 8-4 1c1 1 3 0 4-1Zm126 91v-3l-1 1a9 9 0 0 0 0 2Zm3-60-1 1 2 1v-1a7 7 0 0 0-1-1Zm-21 61v-3l-1 1a9 9 0 0 0 0 2Zm17-41-1-1a4 4 0 0 0 0 2 5 5 0 0 0 1 1ZM239 27l-1-2-1 1a4 4 0 0 0 2 1Zm87 70-1 1a4 4 0 0 0 2 0 5 5 0 0 0 1 0Zm67-8h2l-1-1a9 9 0 0 0-2 0Zm-39-36v-2a5 5 0 0 0-1 2 4 4 0 0 0 0 1Z"/><path d="m870 0-2 5-1 3-1 2a3 3 0 0 1-2-2l1-4V0ZM363 0l1 3a10 10 0 0 1 0 4 3 3 0 0 1-2 1l-1-1a3 3 0 0 1-1-3l-1-4ZM354 0v2c0 2 0 4 2 5a2 2 0 0 1-1 1l-1 1a9 9 0 0 1-3-6 16 16 0 0 0-1-3ZM1124 0l-1 6v3a7 7 0 0 0 0 1h-1a5 5 0 0 1-1-2V0ZM107 0c0 3 1 6-2 8V0ZM994 0c-1 2-1 3-3 1-1 0-3 1-3-1ZM901 71a15 15 0 0 1-2 2h-2c0-2-1-1-2-1a17 17 0 0 1-2-3v-1l1-1 3-1c1-2 3 1 4-1l1 2 1-1c2 0 1 1 1 2Z"/><path d="m894 67-1 1q-2 1-2-2l3-3c2 1 1 2 1 3a10 10 0 0 1-1 1ZM324 66v-2a5 5 0 0 1 3-1h4a24 24 0 0 1 2 3 3 3 0 0 1-1 4c-3 1-3 1-5-1ZM337 64v2h-2a27 27 0 0 1-2-4c-1-1-1-1 1-1a7 7 0 0 0 1 1l2 2Z"/></svg>