<svg xmlns="http://www.w3.org/2000/svg" viewBox="0 0 1175.1 1229"><path d="M652 1229c2-5 4-9 4-14l-1-5c-1-2-3-4-6-4h-5c-3 0-5-1-5-2 0-3-2-5 0-7v-12a27 27 0 0 1 5-11l2-4c2-4 0-6-1-10l-8-2a15 15 0 0 1-2 1l-1-1 3-7c3-3 4-7 2-11s-1-5 0-9c1-3 2-7 5-9a26 26 0 0 1 8-4 27 27 0 0 0 3-1l1-1c-2-3-1-8-6-9-2-1-3-4-4-7a7 7 0 0 1 2-7 2 2 0 0 0 1-2c-2-3-1-5 1-7l7-8c4-3 7-7 9-11a7 7 0 0 1 2-2c2-2 3-4 1-6l-2-8a4 4 0 0 1 1-4 3 3 0 0 0 0-2c0-3 1-6 3-8a14 14 0 0 0 2-6c0-2 2-4 0-6v-1l-1-16c0-6-1-9-6-13l-1 10-2 9a16 16 0 0 1-3 6 10 10 0 0 1-8 3c-6 0-11-2-16-4a34 34 0 0 1-15-9l-5-6c-1-3-4-4-5-6a24 24 0 0 0-8-8l-4-3-7-8-10-13-7-14a19 19 0 0 1-1-12c1-4 3-8 6-10l-5-7-6-6a187 187 0 0 0-13-14l-11-11a32 32 0 0 1-10-13 82 82 0 0 1-5-14 94 94 0 0 1-2-12l-1-8c2-10 1-20 1-30a23 23 0 0 1 2-7c0-1 0-2-2-2a2 2 0 0 1-1-1l-3-1a156 156 0 0 1-17 11 201 201 0 0 0-24 14c-10 7-17 15-20 26l-2 6a9 9 0 0 0-1 3h1l1 3c-1 1 0 3 1 3l12 10c5 5 7 11 8 17l2 13v13a57 57 0 0 1-9 29l-3-4a12 12 0 0 0-1 2c0 6-2 10-3 16-2 2-3 6-7 7l-1 1c-1 0-3 0-3-2l-1-2-7 20a45 45 0 0 1-8 11 9 9 0 0 1-6 3c-3 0-3 0-4 3-1 4-2 9-6 12a9 9 0 0 1-3 1 20 20 0 0 0-11 7h-2a1 1 0 0 0-1 0l-2 4c0 3-3 4-5 7l-2 2-4 3a5 5 0 0 1-6 2 5 5 0 0 0-4 2l-4 5a13 13 0 0 1-9 5h-2c-2-1-4 0-6 1l-5 5a43 43 0 0 1-6 5c-2 2-5 1-8 1l-3-1c-2-2-4-1-6 0-3 1-6 2-8 5l-1 1c-4 0-7 3-9 5a1 1 0 0 1-2 0 1 1 0 0 1 0-1l1-3a11 11 0 0 0 1-3c0-2-2-2-3-2-2-3-3-6-2-9 2-6 2-6 7-10a5 5 0 0 0 2-7c-2-2-1-4 0-7l3-5a1 1 0 0 0 0-1 20 20 0 0 0-1-2 7 7 0 0 0-1 2l-4 7-10 14-4 2-1 1c-3 6-8 11-13 16a5 5 0 0 1-3 1l-5 2a34 34 0 0 1-10 8 13 13 0 0 1-6 1 9 9 0 0 0-6 2 21 21 0 0 1-15 6h-4l-16 3a9 9 0 0 0-4 3l-6 4c-2 1-4 0-4-3l1-8a24 24 0 0 1 4-8l6-5h-6v-18c0-4 2-8 4-12l12-15a15 15 0 0 1 4-4c3-1 4-4 6-5-2-3-4-2-6-1a5 5 0 0 1-1 0l-2-1 1-5a17 17 0 0 0 2-4 3 3 0 0 0 0-2c-3-5 0-9 1-13a34 34 0 0 1 8-11 108 108 0 0 1 12-10l9-8 1-6-1-1-3 1-2 1v-3l4-8a11 11 0 0 1 2-2c3-2 3-2 3-6a4 4 0 0 1 1-2c3-4 7-5 10-8v-2c-4-2-4-2-3-7 0-5 2-8 4-11a30 30 0 0 1 10-8l18-8a2 2 0 0 1 1 0c4 1 8-1 13-1a18 18 0 0 0 13-5l9-10a3 3 0 0 0 1-2 5 5 0 0 1 3-4l1-1-2-1a9 9 0 0 0-3 3 29 29 0 0 1-7 8l-9 7a8 8 0 0 1-4 2l-14 1-4-1-6 1c-1 1-4-1-5 1a2 2 0 0 1-2 0c-6 0-13 2-19 1l-6 1c-2 0-4-1-6 1h-14c-4 0-8 0-11-3a11 11 0 0 0-2-1l-3-1a16 16 0 0 0 0 3 17 17 0 0 0 5 8 26 26 0 0 1 6 9 6 6 0 0 1 1 4 17 17 0 0 1-7 9c-2-1-1 2-2 2 0 4-3 8 0 13v12a45 45 0 0 1-1 9l-2 8-1 7-2 7-3 1h-3a6 6 0 0 0-1 3v4l-1 4c0 3-2 5-4 8a5 5 0 0 1-5 2c-3-1-3 1-4 3-2 4-4 7-8 10l-7 2h-4a4 4 0 0 1-4-1 5 5 0 0 0-3-2l-2 1c-2 5-6 7-11 7-6 0-12-1-17-4a85 85 0 0 1-18-11l-15-12a60 60 0 0 0-6-3 43 43 0 0 1-12-9c-1-1 1-2 1-3 1-2 1-2 4-1l12 8 9 3a119 119 0 0 0 12 0 59 59 0 0 0 14-3 114 114 0 0 0 30-16c7-5 14-11 19-18 2-4 4-8 4-13l2-9c0-4 4-5 6-7l8-5c5-3 6-6 4-11l-3-8-1-6 1-9 1-1-5-1c-4 1-8 2-12 0h-4l-4-1a12 12 0 0 0-9 3 34 34 0 0 0-5 6l-8 11c-4 3-8 6-13 6-2 0-4 2-5 1-4-2-8 0-12-2a6 6 0 0 0-6 1 3 3 0 0 1-2 0c-5-1-10 0-15 1-7 1-13 2-18 7a3 3 0 0 1-2 0l-1-1 2-4a8 8 0 0 0 4-8c2-4-1-8 3-11 0-3 2-3 3-5l-5-2c-2 0-2 2-4 3-3 2-7 1-7-4l-1-4a4 4 0 0 0-3-1h-6c-4 1-6-1-8-3a15 15 0 0 1-4-2c-2-3-5-4-9-6-2-1-3-3-3-5a4 4 0 0 0 0-2c-1-2 0-5-2-5a7 7 0 0 0-6 0 17 17 0 0 1-11 2 12 12 0 0 1-6-3c-5-4-9-10-12-15-4-6-8-10-15-13a17 17 0 0 0-6-2l-4-1a15 15 0 0 0-4 1 3 3 0 0 1-1 0H0a7 7 0 0 1 0-4l6-4a25 25 0 0 0 4-3 77 77 0 0 1 6-6l5-2c3 1 7-1 11 1 3 1 4 0 6-4 1-3 6-5 10-5a43 43 0 0 0 9 2 8 8 0 0 0 6-3l3-2c1-2 4-3 6-1a35 35 0 0 0 5 1 12 12 0 0 0 4 1l2-2c1-3 5-3 8-2 9 2 17 7 25 10l7 4a2 2 0 0 0 2-1h3c4 0 7 3 9 5 1 3 3 4 5 6a1 1 0 0 0 1-1c1-2 3 0 4 0l12 6a7 7 0 0 1 4 3 6 6 0 0 0 3 3l3 1c2 0 1-2 1-2 3-6 8-9 14-9 1 0 2 1 3-1a10 10 0 0 0 1-1 6 6 0 0 0-2-1h-8a4 4 0 0 1-4-4 13 13 0 0 1 1-5 4 4 0 0 0-1-3h-2c-2 1-4 4-6 3l-3-5a16 16 0 0 0-8-5l-3-1c-2-1-3-2-2-4a8 8 0 0 1 1-2v-1a9 9 0 0 1-2 0l-1-1c0-2 1-4 3-5l9-3c4 0 5-2 6-5l3-5 6-2 10 1c1 0 2 0 2-2l1-2c4 0 7-2 10 0h9a4 4 0 0 0 3-2c0-2 1-2 2-2a9 9 0 0 0 3-1l17-1 1 1c3 0 5 1 7-2 1-3 4-3 6-3 6-1 11 1 16 3a15 15 0 0 0 3 2l2 1a9 9 0 0 0 2-2l4-1a39 39 0 0 1 8 2l8 5a19 19 0 0 0 4 1c3 1 4-1 5-3a11 11 0 0 1 2-2l3-1 10 7 1 2a399 399 0 0 0 9 10c3-3 3 0 4 1a14 14 0 0 1 1 4 20 20 0 0 0 8 10 45 45 0 0 1 7 6 91 91 0 0 1 8 10 68 68 0 0 1 7 14c2 1 1 3 1 4 2 6 3 13 1 18a49 49 0 0 1-5 9l1 2c3 2 6 4 10 4h6l5-1a29 29 0 0 1 10-2h18c6 0 13-2 19-4l9-4v-2l-4-9c-1-5-4-8-9-8a12 12 0 0 1-3-1c-2-1-2-1-1-3v-6l-4-10c-1-2-1-4-4-3a14 14 0 0 1-2 0c-6 1-10-1-15-4s-12-11-15-16a15 15 0 0 0-3-2l-15-19a2 2 0 0 1 0-3 6 6 0 0 0 1-6l-1-11a3 3 0 0 0-2-3c-4-2-7-5-9-10a123 123 0 0 0-10-17 34 34 0 0 0-11-9l-12-7c-4-3-9-6-11-11a75 75 0 0 0-5-9l-4-3-3-3c-3-2-3-3 0-5h2l4 2c2 3 5 4 8 5l11 2 7 2 5 1a23 23 0 0 1 14 5h6l6-2a75 75 0 0 1 9 2 16 16 0 0 1 6 5l5 4h2l8-1c2 3 2 0 3-1 1-3 2-4 5-4a4 4 0 0 1 2 1 30 30 0 0 1 7 8l8 12a56 56 0 0 1 4 5 13 13 0 0 1 1 2l2-1 2 2a16 16 0 0 1 8 8l4 8c1 2 2 2 3 0l2-1c1-2 2-1 2 0a41 41 0 0 1 4 5c3 5 6 11 7 17l3 11 1 6 1 7v7c0 3 2 5 3 7 1 3 3 6 3 10l1 10c-2 5-1 9-1 13l1 2h1c3-2 6-3 8-6 3-4 8-7 12-10a125 125 0 0 0 17-10l13-10-7-3c-2-1-3-5-4-7-3-6-3-11-2-17s4-13 9-18l8-10a14 14 0 0 0 3-8 48 48 0 0 1 0-5l-2-15a79 79 0 0 0-4-12l-4-11c-3-6-5-12-9-17l-2-3a52 52 0 0 0-11-12l-6-2c-6 1-10-3-12-8l-2-5-3-2c-3-4-8-6-12-10-3-2-4-6-6-9a2 2 0 0 1 0-1c2-3 1-5 0-7a43 43 0 0 0-3-6c-3-4-3-10-3-15l4-4a16 16 0 0 1 5 0s1 2 1 0c0-4 0-8-2-12l-1-8v-3a12 12 0 0 1 2-4c1 0 3 0 3-2l1-5a11 11 0 0 1 4-10c2-2 2-5 3-8a17 17 0 0 0 0-6 5 5 0 0 1 3-5c2 2 2 5 3 8a71 71 0 0 0 3 7l2 1 1-1c2-3 4-3 7 0l6 7a91 91 0 0 0 6 8c3 3 6 4 10 5 3 0 4 1 5 4l1 6 2-3c0-2 1-3 3-4l1-1a6 6 0 0 0-6-4c-2 0-5 0-7-2a57 57 0 0 1-5-5l-2-5c-3-3-3-6-3-9a12 12 0 0 1 4-8l6-5 7-7a3 3 0 0 0-1-3 63 63 0 0 0-11-12c-4-3-7-7-7-13v-11a21 21 0 0 0-1-7c-2-5-2-8 1-11 3-4 4-7 2-11l-1-6c0-4 2-7 6-7a17 17 0 0 1 2 0 127 127 0 0 1-7-17c-3-8-3-14 1-21 2-6 6-11 9-17 3-4 7-5 11-6a81 81 0 0 0 13-5 16 16 0 0 1 8-2h6a45 45 0 0 1 0-5c1-8 2-15 6-22 2-4 7-8 11-10a8 8 0 0 1 3 0h5c4 0 8 1 11 4l9 6a28 28 0 0 0 4-3 17 17 0 0 0 5-6c2-4 5-6 9-7l5-1h2a11 11 0 0 0 2 1c6 0 10 2 14 5a75 75 0 0 1 17 14l7 4a63 63 0 0 1 11 8 27 27 0 0 1 5 8c2 5 4 6 9 8a22 22 0 0 1 9 8l4 7a4 4 0 0 0 4 3l7 1c7 1 12 3 17 7l22 23a31 31 0 0 1 7 15l2 10 1 3a31 31 0 0 1 2-3l4-11a65 65 0 0 1 6-16c1-3 1-5 4-8 1 0 2-3 0-5l-6-18-1-1c0-5-3-9-6-14a134 134 0 0 0-15-24l-10-12-12-10-10-10a123 123 0 0 0-12-10 62 62 0 0 0-11-5 51 51 0 0 1-11-7l-9-7-1-1-13-12-16-15-10-8a14 14 0 0 0-5-2l-9-6-16-13-7-5-7-6a10 10 0 0 0-3-2l-9-2-12-6-19-13a60 60 0 0 0-9-6l-12-4a26 26 0 0 0-8-1h-33a70 70 0 0 0-8 1l-7 1a40 40 0 0 0-10 6l-15 10-19 10c-3 1-17 2-20 1l-8-1c-4-2-7-1-10-1a41 41 0 0 0-9 0 52 52 0 0 0-14 4l-14 10a2 2 0 0 1-1 0 1 1 0 0 1-1-1v-17a27 27 0 0 1 2-7 41 41 0 0 1 12-17c5-5 11-8 17-11 7-4 15-6 22-9l14-3 11-3 8-1 5-1c1 0 4 1 6-1h1l15-1 5-1 6-1 7-1c8 0 15-2 22-1 6 1 12 1 17 3l18 4a8 8 0 0 1 2 1l-1-2a7 7 0 0 0-2-1l-10-12-11-11c-5-5-12-8-17-12-9-3-17-8-25-12-13-7-16-10-21-24l-2-10-1-14-1-17a68 68 0 0 0-4-15 61 61 0 0 0-6-12 31 31 0 0 0-6-6l-6-4-1-2c1-1 1-4 3-4 4 0 9 0 12 4a53 53 0 0 1 12 17l6 12a26 26 0 0 0 2 2h1c3-1 4 0 6 3l2 4a27 27 0 0 0 10 11 66 66 0 0 1 10 9l4 10a14 14 0 0 1 0 2l1-1h3c2 1 3 4 4 6l2 7 3 4a3 3 0 0 0 3 1c3 0 5 2 5 5s1 6-1 9v1c2 0 2 2 3 2a39 39 0 0 1 11 20l5 10c3 4 12 13 17 16v1l9 7c6 6 11 14 16 21l11 15c3 2 6 5 10 6v-2a25 25 0 0 1 2-10 5 5 0 0 0-1-4l-7-14a32 32 0 0 0-10-9l-13-7c-3-2-7-6-8-9-2-2 0-4 0-6h3a5 5 0 0 0-1-1l-6-4a28 28 0 0 1-8-7l-6-9c-2-4-5-7-6-12-2-1-1-3-1-5V95l1-4 1-4v-1c-4-4-7-10-9-15a20 20 0 0 1-1-16l5-5c0-1 1-3 2-2a4 4 0 0 1 2 3l2 9a59 59 0 0 0 8 15 2 2 0 0 0 2 1c3-1 4 1 6 3a133 133 0 0 0 10 15c0 2 1 1 2 0h4a14 14 0 0 1 5 5l4 7a19 19 0 0 0 3 3c2 3 2 3 5 0 1-2 2-2 4-1 5 3 11 6 15 11l6 6 2 1h4c3 2 5 4 6 8l2 8a9 9 0 0 0 1 6l1-1h2l4 5a16 16 0 0 1 3 12 16 16 0 0 0 1 7 2 2 0 0 0 1 1c2-3 1 1 3 1l2 12a65 65 0 0 0 4 18c2 4 5 7 9 10-2-5-1-9-1-14l2-8c0-2 2-2 3-1l3 2v-2c0-9 3-17 9-23l6-5 7-6c1-1 2-1 2 1s2 1 2 1c4-1 9-2 12-5 1-1 3-1 3-3l4-2 4-2a64 64 0 0 0 6-6l2-2c1-2 2-3 5-3l-1 6-6 9a36 36 0 0 0-2 3v2c2 1 1 3 1 4a20 20 0 0 1 0 6l-2 5c0 2-1 3-3 4l-1 3c0 3-2 6-4 8l-4 6 1 2c2 1 2 2 1 4 0 4-2 6-3 10a11 11 0 0 0-1 2h1l2 1a9 9 0 0 1 0 1v4a6 6 0 0 0 4 1c5 0 7 3 9 6l9 11a2 2 0 0 0 1 0l1-1c-1-6 3-9 6-13a68 68 0 0 1 8-6 7 7 0 0 1 8-1c4 2 4 2 2 6-2 2-2 3 1 4l4 2c4 2 5 5 3 9a11 11 0 0 0 0 2v2l3-3 17-15 4-5c3-2 6-2 10-2l14 5c5 1 9 1 13-2a156 156 0 0 0 14-11 39 39 0 0 1 10-6l5-1c2 0 3-2 5 0 7 0 13 4 20 6a72 72 0 0 1 18 10 71 71 0 0 1 6 6 51 51 0 0 1 11 14c2 3 4 5 3 9l7-11c2-2 7-6 9-6l17-2 7-1c1-1 4 1 6-1 6 0 11-2 17-1 7 1 13 3 18 9a23 23 0 0 1 3 4c1 2-1 3-1 4l-2 4c-6 3-8 8-10 13l-4 10c0 2 0 2 2 2 4-1 8 2 12 5 2 2 5 4 7 8l1 6v7a8 8 0 0 1-5 2 11 11 0 0 0-5 2c-2 2-4 2-7 3l-8 2a19 19 0 0 0-8 4 53 53 0 0 0-10 13c-4 6-8 12-13 16a35 35 0 0 1-12 7l-13 2h-9l-9-2-9-1a9 9 0 0 0-6 1 5 5 0 0 0-3 5v9c0 7-3 12-8 15l-4 5a6 6 0 0 0 0 7l1 5 1 9c2 6 1 11 1 17a23 23 0 0 1-3 11 36 36 0 0 0-1 5l-2 6 6-4a18 18 0 0 0 5-4 49 49 0 0 0 3-4 32 32 0 0 0 4-5 50 50 0 0 0 3-10 37 37 0 0 1 4-11c2-2 5-4 8-4a25 25 0 0 1 3 0 4 4 0 0 0 4-4l1-10 1-2a4 4 0 0 1 2-1l10-1 8-2a59 59 0 0 0 17-11l4-4 10-11 9-10 14-10a75 75 0 0 1 11-5 22 22 0 0 1 10-2c2 0 3 1 3 2a2 2 0 0 1-2 3l-10 6a9 9 0 0 0-2 2l-10 8-4 3-3 3c-2 2-5 3-6 6l-8 11c-4 6-10 12-13 22a30 30 0 0 1-2 4l-7 15c-1 3-4 6-7 7-2 2-5 2-7 2a2 2 0 0 0-2 2l-3 7c-1 2-2 5-6 5-1 2-4 2-6 2-4 1-5 2-11 9l11-2a128 128 0 0 0 16-6l7-5 10-9 11-7a29 29 0 0 0 4-4 3 3 0 0 0 1-2c-1-8 3-12 8-17 3 0 2-2 1-3l-1-4 1-4c1-2 3-3 3-6v-1c0-4 1-5 4-5 7-1 11 3 15 8a103 103 0 0 0 9 10l4 1h4a16 16 0 0 1 4 1c-2 1 1 3-1 4v2a5 5 0 0 1 1-1c8-1 16-3 24-2a39 39 0 0 1 15 6 29 29 0 0 1 10 9c0 2 0 2 2 1h1c6 7 6 7 14 10 4 2 8 3 11 7 1 1 4 1 4 4 3 3 4 7 5 10a38 38 0 0 0 5 12l7 14 1 9c0 3 1 6-1 9v5a15 15 0 0 1-2 8l1 3c4 4 3 9 2 14-1 7-4 13-6 19l-5 8h-2c-1-2-2-3 0-5a5 5 0 0 0 0-2c0-3 0-3-2-2-2 0-3 0-3-2a12 12 0 0 1 0-2c0-2 0-4-3-5s-4-3-6-5a12 12 0 0 1-1-6 21 21 0 0 0-1-5l-1-6c-1-2 1-9 4-11v-3l-2-4c-2-2-3-5-3-8l-1-6c0-2 1-5-1-7v-2c0-3-1-6-3-8v-1l-1-1v3c2 5 1 9-1 13a8 8 0 0 0 0 6l3 12a10 10 0 0 1-1 8l-1 2c0 4-2 8-5 12a75 75 0 0 0-6 11c-3 5-6 10-11 12l-2-1 1-6-1-5c-3-3-3-6 0-9a16 16 0 0 0 2-2c1-2 3-4 1-6l-3-7c-2-4-1-8 0-13 2-5 2-5-2-8a13 13 0 0 1-5-7l-3 11a118 118 0 0 1-5 14 33 33 0 0 1-6 9c-4 5-8 9-14 12l-4 4a2 2 0 0 1-1 1 1 1 0 0 1-1-1 76 76 0 0 1 0-9l-1-15-2-13c-2-2-1-5-1-8a7 7 0 0 0-1-4 5 5 0 0 1 0-6 12 12 0 0 0 2-10l1-3c0-1 0-2-2-2a2 2 0 0 1-1-1 2 2 0 0 1 0-2 32 32 0 0 1 4-3 4 4 0 0 0 0-5c-1-3-2-7-6-9a16 16 0 0 0 0 2c0 6-2 10-6 14a4 4 0 0 0-2 2 7 7 0 0 1-3 4l-2-1a43 43 0 0 0-5 5 8 8 0 0 1-6 2l-2 1c-2 0-3 2-5 0-1-1-3 1-4 2l-3 1s-1 1-1-1c1-3 1-3-1-5-2-1-3-2-1-3v-3c1-1 1-4 3-4l1-2-3-5c-3-5-3-6-1-12a16 16 0 0 0 0-3 84 84 0 0 0-17 11l-12 11c-8 6-17 11-27 14l-15 4a71 71 0 0 0-8 2 27 27 0 0 1-5 1c2 1 5 0 7 2a90 90 0 0 1 27 10 33 33 0 0 1 13 13 81 81 0 0 1 4 10l1 1c0 4 2 8 1 13-1 7-2 14-6 21a6 6 0 0 0 0 1h1l5-3 11-5 10-4a15 15 0 0 1 9-1 31 31 0 0 0 7 1h11a6 6 0 0 1 5 1 47 47 0 0 1 6 7c2 3 5 5 9 5a28 28 0 0 1 7 0l7 6c4 5 7 12 6 19a23 23 0 0 1-1 3c-2 6-2 6 4 9 2 2 4 3 5 6a8 8 0 0 1 1 6l-4 6c-2 2-1 3-2 5-1 1 0 4 2 4s1 2 2 3v6a14 14 0 0 1-2 6 20 20 0 0 0-2 9v6l-1 6c0 2-2 4-3 5-3 4-7 6-11 8l-12 5-10 2-4 1a3 3 0 0 1-2 0c-3-2-5-1-8 0l11 2 19 5c5 2 10 5 14 9l7 8 8 7c6 3 11 6 15 11 1 1 3 2 3 4 0 3 2 7 0 10-1 2 1 4-1 5l-4 14c-2 4-3 9-3 14a28 28 0 0 1-4 14c-2 4-4 7-9 7-3 1-5 2-8 0a1 1 0 0 0-1 0l-3 1-1-3c-5-1-8-6-12-8l-2-2c-1-1-2 1-3 2l-10 6c-3 2-7 2-10 3s-6-1-9-2a40 40 0 0 1-12-7l-8-5 2 7c2 3 1 7 1 10 0 2-2 2-3 3a11 11 0 0 0-7 6 22 22 0 0 0-1 5 8 8 0 0 1-3 5 3 3 0 0 1-4 0c-2-1-4-4-6-4l-2-1c-5 2-9 1-13 1-2 0-5-2-7-1-1 3 0 5 1 7a19 19 0 0 1 2 4 7 7 0 0 1-2 7 18 18 0 0 0-2 1 17 17 0 0 0-1 2l2 1c3 0 4 2 5 4a55 55 0 0 0 5 11c4 5 5 11 4 17 0 2-2 4-4 6v2l3 3c2 0 4 2 5 0 5 0 8-3 12-5 2-1 2-1 2 1 0 3-1 5 2 8l5-9c2-4 4-8 9-10l3-2c3-1 4-1 5 2h1l14-10c4-3 8-3 13-3a3 3 0 0 1 1 1l2 2a5 5 0 0 0 3-1 33 33 0 0 1 10-6 53 53 0 0 0 6-4l7-2a8 8 0 0 0 5-2 17 17 0 0 1 7-3 20 20 0 0 0 5-2l7-1c3 3 5 0 7 0l6-2h7a6 6 0 0 1 2 0c4 2 8 3 13 1 3-1 6 1 9 1l9 5c6 2 11 4 17 3a40 40 0 0 1 8-1c3 0 3 1 2 4a24 24 0 0 1-15 12l-4 1v1l4 2c1 1-1 3-1 4l-3 8a6 6 0 0 1-2 3c-3 4-7 8-12 11-7 4-15 8-25 10a27 27 0 0 0-4 1c3 3 3 4 7 4l1 2a19 19 0 0 1-2 3l-4 4-2 4-1 3a42 42 0 0 1-20 12 43 43 0 0 1-5 2l-9 1a30 30 0 0 0-12 5c-1 0-2 1-2 3s2 2 3 2l2 1a5 5 0 0 1-1 1 42 42 0 0 1-6 6 14 14 0 0 1-6 1c-2 0-2 0-2 2 0 3 0 3-3 4a20 20 0 0 1-6 1l-8 1 1 2c2 2 3 3 1 6a18 18 0 0 1-7 7 41 41 0 0 1-12 4 55 55 0 0 1-16 1 41 41 0 0 1-10-2l-7-3c-4-2-9-3-14-3a16 16 0 0 0-5 1c-4 2-9 3-13 7-1 2-3 1-5 1 2 3 2 3 4 1l11-4 7-2a9 9 0 0 0 4-1c2-1 5 1 7 2a18 18 0 0 0 5 1l5 2c6 4 9 5 15 7l9 4a34 34 0 0 1 6 3l9 3 16 6c6 3 11 6 13 12l2 1a2 2 0 0 0 1-2 28 28 0 0 0-1-12c-2-3-1-7-1-10 0-2 3-4 5-5s4 0 6-2c3 0 4-2 5-4a89 89 0 0 0 7-16l5-8 7-9 6-8c2-2 5-4 8-3h3c1-4 4-7 7-10 3-2 5-4 8-3a3 3 0 0 1 2 0c2 3 4 1 6-1 6-5 13-5 21-2 2 0 3 1 3 3a8 8 0 0 0 2 2c1 2 2 2 4 1 3-2 6-2 10-2 4 1 7 4 10 6 8 7 12 17 17 26l7 15a39 39 0 0 0 5 6c3 4 4 8 6 13 0 0 1 2-1 2l-2 2a1 1 0 0 1-2-1 32 32 0 0 1-3-3l-4-8-2-5c-4-1-5-4-8-6l-13-5-11-2c-7-2-15-1-22-1s-13 2-20 3a61 61 0 0 0-13 5c-5 3-10 6-12 11a5 5 0 0 1-2 3l-3 3a14 14 0 0 1-3 3 8 8 0 0 1-3 1h-6a47 47 0 0 0-9 1 7 7 0 0 0-5 4l-2 7a39 39 0 0 1-1 10l-4 7a18 18 0 0 1-3 2l4 5h4l8 4 4 3c5 4 11 4 16 1a68 68 0 0 1 13-6c4-2 9-3 13-2a31 31 0 0 1 10 5l9 6 10 4 12 4 12 2h8c-3 2-4 5-7 4l-4 4c-3 3-4 7-7 9l-4 3c-2 0-2 1-1 2 2 3 2 3 6 2 2 0 4 0 5 2l1 5c-2 4-1 6 3 7 6 1 8 6 11 11 0 3 2 6 4 8 3 3 4 7 2 10l-1 1-1 4 4 3 7 1c5 0 8 3 10 6a17 17 0 0 1 2 4l1 7c1 6 1 12 3 17a39 39 0 0 0 4 9c4 5 9 8 15 10l1 3-4 2c-2 1-3 2-4 0a2 2 0 0 0-3 0c-3 3-8 2-12 4-2 1-4-1-6-2l-7-4-2-1c-3-1-3-1-5 1a8 8 0 0 1-9 2 13 13 0 0 1-6-4 23 23 0 0 0-4-4l-3-1c-2 2-4 1-6 2-3 2-7 1-9-3a17 17 0 0 0-3-3c-2-2-2-2-5-1a6 6 0 0 1-6 1 32 32 0 0 1-8-7l-10-13a13 13 0 0 1-3-4c0-2-2-3-4-5a3 3 0 0 0-2-1c-3 0-4-1-5-3l-2-5c0-3-2-5-3-7s-1-2-2-1a1 1 0 0 1-1 0l-11-13a9 9 0 0 1-1-6l-2-3a2 2 0 0 0-3 0c-3 2-7 3-11 3a9 9 0 0 1-5-2c-2-1-4-1-6 1 1 1 2 2 5 2l2 2c5 2 5 6 2 9a35 35 0 0 1-3 4l7 1a3 3 0 0 1 3 3v2c1 2 1 5 3 6a35 35 0 0 1 3 4c3 3 3 3 0 6l-1 2 3 2a6 6 0 0 1-1 1c-3 3-7 2-11 2a16 16 0 0 1-4-2c-2-1-3 1-4 1l-3 2c-3 4-7 4-13 1l-7-4h-1c-2 2-5 1-7 0-4-1-6-3-9-5l-3-2-3 1h-5l-6-2a34 34 0 0 1-14-7h-9c-3 0-5-1-7-3-5-1-6-5-9-8a28 28 0 0 1-2-3c-1-1-2-2-3 0l-4-1c-5-2-7-6-10-10l-5-6c-1-1-4-2-6 0l-2 1h-2c-4-3-5-8-8-12l-1-6-1-8c0-2-1 0-1 0-2 0-3 0-3-2l1-7c1-4-1-7-2-10-3-5-6-11-6-17l-1-7c0-2 1-4-1-6v-1c1-7 1-13 4-20a29 29 0 0 1 12-12c3-2 3-3 0-5l-7-6c-3-2-7-2-10-2l-1 1-2 9-2 15a60 60 0 0 1-4 11c-2 5-5 10-11 13l-7 6a24 24 0 0 1-4 2c-3 1-4 2-2 5 2 4 3 9 6 13a38 38 0 0 1 3 11l1 19 1 9a24 24 0 0 1-1 7c-1 3-3 4-6 5l-1 1c2 2 1 4 1 6l1 7v7l-1 7-4 8c-1 3-5 4-7 5-3 2-6 4-7 8l-4 10a3 3 0 0 0 1 3l1 3a3 3 0 0 1-3 2h-1c1-3-3-1-3-3a3 3 0 0 0-2-2c-7-2-11-6-13-13l-1-12c0-2 3-4 4-6l3-4a1 1 0 0 0 0-2h-5l-5-2-2-5-1-5a44 44 0 0 1 5-10 27 27 0 0 0 3-7l2-12 1-3c-1-7-1-13-4-19a76 76 0 0 0-8-12 39 39 0 0 1-6-9l-2-6v-5c1-2 0-4-1-7l-1 4c-2 5-7 8-11 12l-1 1a12 12 0 0 0 2 10c3 3 4 7 6 11l5 11a56 56 0 0 1 4 14l1 7c0 3-1 6-4 9-2 1-4 3-7 1l-1 1 2 7 1 5c1 3-1 6-2 9l-4 9c-1 3-4 4-7 5a2 2 0 0 1-1 0h-1v4a16 16 0 0 1-4 10c-4 5-10 8-15 11-6 4-12 8-16 13-5 5-9 11-10 19a97 97 0 0 0-2 13l-1 7c0 2-3 4-5 2l-8-1a5 5 0 0 0-4 1l-1 2c1 4-1 8-3 12l-4 8a34 34 0 0 1-8 11l-8 7a9 9 0 0 0-1 2Zm53-129-2 1h1a13 13 0 0 0 2-1l-5 2 2-1h-1a13 13 0 0 0-2 1l5-2Zm79-435-2 1h1a13 13 0 0 0 2-1l-5 2 2-1h-1a13 13 0 0 0-2 1l5-2Zm-55-224h2l-1-1a10 10 0 0 0-2 0h-1 1a3 3 0 0 0-1-1 8 8 0 0 0-2 0 28 28 0 0 0 4 2Zm59-116c-2 0-1 2-1 3-3 2-3 1-1-8v1l-2 5a3 3 0 0 0 0 1h1a11 11 0 0 0 2-6l-3 6c-2 0-1 2-1 3a5 5 0 0 0 3 0l1-2c2 0 1-2 2-4l-1-2v1a10 10 0 0 0 0 2c1 0 1-1 0 0Zm12 369-1-1-1 2 1 1 3-5-2 2a2 2 0 0 0 1 0 8 8 0 0 0 2-1 1 1 0 0 0 0-1l-3 3Zm-141-44h1a3 3 0 0 0-1-1 8 8 0 0 0-2 0l7 1h-4a5 5 0 0 1 0 1h1c1 0 2-1-2-1Zm91-365a4 4 0 0 0-2 5l-1-1-1 2 1 1a7 7 0 0 0 1-3c2-1 2-2 3-8h-1v3a3 3 0 0 0 0 1l1-1c0-1 0-2-1 1Zm-49 322 4-5v-1h-1c-1 2-3 2-3 6l-1-1-2 1 1 1a12 12 0 0 0 2-1Zm194-5v-2h-2a9 9 0 0 1-2 1 13 13 0 0 1 2 0l5 5a6 6 0 0 0 0-1l-2-2-1-1a7 7 0 0 0 0 2 16 16 0 0 0 1 3h1l-2-5ZM775 323c1-1 3-2 3-4v-2a16 16 0 0 0-2 2l3-3v-2l-1 1a10 10 0 0 0 0 2l-3 6Zm79 115c-2 0-4 1-5 3v1l5-4c1 0 3 0 2-2a13 13 0 0 0 3 0 96 96 0 0 0 8-6c4-2 7-5 8-9l2-6c0-2 1-4 3-5v-1a27 27 0 0 1-2-2 7 7 0 0 1-1-2l-1 2a13 13 0 0 1-1 3c-2 8-6 14-11 20l-7 6a2 2 0 0 0-3 2Zm42-168a5 5 0 0 0 0 5 7 7 0 0 0-1-5 10 10 0 0 0-1-7 4 4 0 0 0-1-1l-1 2 4 6ZM678 467l-1-2v1a13 13 0 0 0 1 2l-1-3a25 25 0 0 0 0-3l-1-4v-4c-2 5 0 8 2 13Zm94 256-9 4c5 1 7-2 11-5l-2 1h1a13 13 0 0 0 2-1l-3 1Zm-7-435c-3 3-2 6-2 9a1 1 0 0 0 1 0c0-3 1-6-1 1l-1-1a3 3 0 0 0 0 1 8 8 0 0 0 0 2l3-12Zm-72 246v2l1-1a13 13 0 0 0-1-2l1 3 3 9c1-4-3-6-4-11Zm300-79h2l9-8v-2a4 4 0 0 0-1 1 74 74 0 0 0-9 10v-1l-2 1a3 3 0 0 0 0 1 2 2 0 0 0 1-2ZM719 598l-1-2a17 17 0 0 1 0 2l-3 6-2 6v1l2-1a161 161 0 0 0 5-15l-1-2v1a10 10 0 0 0 0 2v2Zm-50-65-4 5c-2 3-4 6-8 7a1 1 0 0 0 0 1l1 1a4 4 0 0 0 2-1l5-5c1-2 4-4 5-10l-1 2a1 1 0 0 0 0 1 21 21 0 0 0 2-1 1 1 0 0 0 0-1l-2 1Zm215-89a65 65 0 0 0-23 6l-1 1h1a5 5 0 0 0 2 0l23-8-2 1h1a13 13 0 0 0 2-1l-3 1ZM772 689a18 18 0 0 1 2-1 50 50 0 0 1 8-2c4-1 6-3 9-5l1-2a11 11 0 0 0-1 1 45 45 0 0 1-11 5l-8 3-1 1-15 6c1 0 1 2 3 1l11-6 1-1h-3c-3 3-8 3 4 0Zm128-39h1l1-3-2-2h-1c0 1 1 5 11 8-3-2-5-3-9-3v1l-3 3v1l4 2a2 2 0 0 0 1-1c0-1-2-2 0-2h6c1 0 1-1-9-4ZM736 429h1a17 17 0 0 0-1-2h-1a11 11 0 0 0-1 0l-2 1 2 1 8 16a92 92 0 0 1-2-10l-2-6-1 1-1 2v1l1 1-1 2 3 2v1c-2 2 1 3 0 5v1a12 12 0 0 0 2 1l-5-17Zm-47 611-7 1a59 59 0 0 0-7 1c-3 1-4 3-4 7v2c5-6 12-8 20-12l-2 1h1a13 13 0 0 0 2-1l-3 1Zm86-737-4 10c0 3-1 5-4 7v1h1c2-1 4-3 4-5 2-4 3-8-5 4v-3c4-4 4-9 6-13a3 3 0 0 0 0-2c-2-2-1-3 0-4v-1l-2-4a3 3 0 0 0-1 2v11l-5 10v2c0 1 1 1 10-15Zm-16 566v-1l4-2h3l-3-1c-1-1-2-1-2 1a2 2 0 0 1-4 0 16 16 0 0 0-3-2 1 1 0 0 0-1 0 2 2 0 0 0 0 1l3 3 27 8a41 41 0 0 1-4 0 2 2 0 0 1-2-1l1-2a4 4 0 0 1 1-1l2-1a8 8 0 0 0-2-1 6 6 0 0 0-3 0l-3 2c-3 1-4-1-4-4 1-1 0-2-2-2l-1 1a3 3 0 0 1-2 4 9 9 0 0 0-1 1h1c2 2 6 1 7 4l1 1 6 1 3 1c1-1 1-2-22-10Zm119 62a20 20 0 0 0 12-3 42 42 0 0 0 5-4 4 4 0 0 0 2-3l-4-4-4 2v1c-3 4-6 9-13 12h2l-1-1a13 13 0 0 0-2 1l3-1ZM491 534h2c3-4 7-3 12-3a3 3 0 0 1 2 1c1 3 3 2 4 1a9 9 0 0 1 2-1c3-1 5-2 8 0h1a3 3 0 0 0-1-1 54 54 0 0 1-5-4 31 31 0 0 1-9-11 14 14 0 0 1-4 6l-10 10-1 4-1-2a3 3 0 0 0 0 1 8 8 0 0 0 0 2v-3Zm306-42h9c3-1 4-4 5-7 4-7 9-15 17-20 1 0 2-1 2-3v-1c3 0 3-3 4-4 2-4 3-8 6-11a3 3 0 0 0 1-1h-2a23 23 0 0 0-6 8 18 18 0 0 1-8 9c-1 1-2 3-4 3-2 1 0 3-2 5l-1 1-8 9a9 9 0 0 1-4 3l-2 3-15 14a7 7 0 0 1 0 2c-1 2 1 3 2 4a2 2 0 0 0 3-1 65 65 0 0 0 3-7l1-6a6 6 0 0 0-4 1h-1c-2 1-4 2-4 5l8-6Zm183-89v1l7 2c8 4 16 9 22 16l3 3c2 0 2 2 2 3l4 6c2 1 3 3 5 3l2 3c2 3 3 7 3 10l1 3c0 5 4 8 7 11 3 0 3 2 3 4l-1 6a10 10 0 0 0-2 7 36 36 0 0 0 1 4c2 4 4 8 4 13l1-1v-3a36 36 0 0 0 2-13c0-2-1-3 1-4v-1c-2-2-1-4-1-6l-1-9-4-13-4-20a27 27 0 0 0-5-11c-5-5-11-9-18-11-5-2-12-2-18-3-4 0-9 0 47 95a9 9 0 0 1-1 2 26 26 0 0 1-2 2c-5 4-3 3-1 7a1 1 0 0 0 1 1 1 1 0 0 0 1-1l1-3c0-3 1-5-60-103ZM847 802c-1 3-1 7-4 9l-11 6-13 3-7 1c-2 2-4 0-6 2-2-1-4 1-6 1l-5 2c-6 4-14 6-19 12a23 23 0 0 1-3 3c4 0 8 1 11-3a1 1 0 0 1 0-1l5 1-1 4a4 4 0 0 1-4 1h-5l-6 3-2 1c-3-2-5 0-8 1h7a24 24 0 0 0 7-1c2 0 5 1 7-1 6 0 11-2 17-3a89 89 0 0 0 16-6l31-14c5-2 10-4 16-4h4a26 26 0 0 1 19 8l3 3 2-1 1-1c2-4 1-5-2-8-3-2-6-5-7-8v-3c-1-4-4-5-7-3l-3 1c-2 2-4 4-7 4l-6 2-9-5-5-6Zm41-34c0 3 0 3 2 3a5 5 0 0 1 2 0c3 2 6 1 10 0a35 35 0 0 1-14-2l-3-12a37 37 0 0 0-7-14l-7-9c-2-3-5-6-10-6a2 2 0 0 1-2-2c-2-7-7-11-13-14-5-3-10-4-16-4-3 0-6-1-7-4a17 17 0 0 0-7-8c-2-2-5-4-6-7a13 13 0 0 0-1-3l-2-2c-1 5 1 8 4 11a16 16 0 0 1 2 2l2 14c0 1 0 0 0 0-1 1 0 4 1 5 2 0 2 2 2 3a6 6 0 0 0 4 6l6 1a43 43 0 0 1 6 0c3 0 7 3 7 6l1 6c0 3 1 4 3 5a34 34 0 0 0 6 4 38 38 0 0 1 11 7c3 4 4 4 8 1 4-2 4-2 7 2l1 2c2 3 3 6 8 7l2 2ZM767 325l-2-2a1 1 0 0 0-1-1v1c1 2 1 2 34 17a15 15 0 0 1-6-2l-7-4c-5-3-12-5-17-9l-1 1a14 14 0 0 0-1 5c0 1 3 2 1 4l4 2h2a7 7 0 0 1 2 2 3 3 0 0 1 1 3c-1 1-2 0-2-1l-16-8a96 96 0 0 1-17-12 135 135 0 0 1-18-19l-1-3a4 4 0 0 1 2 1l2 1c0 3 3 4 4 6l5 5a10 10 0 0 0 0-4 2 2 0 0 1 1-1h1a22 22 0 0 0 2 4 35 35 0 0 0 2 3h1v-1a6 6 0 0 0-1-1c-1-1 0-2 1-3 2 0 1 1 1 2l4 4a35 35 0 0 1 0-4 1 1 0 0 1 1-1 2 2 0 0 1 1 1l4 4v-3c0-2 1 1 2 0l-1-4-5-6a18 18 0 0 1-4-7 37 37 0 0 1-2-8 17 17 0 0 0-4-7c-2-4-6-4-10-5a52 52 0 0 1-12-4l-14-8-9-10-8-14-2-3-1 4v8a3 3 0 0 0 0 4 67 67 0 0 1 6 10 4 4 0 0 0 1 1l6 9c6 6 9 14 12 22a11 11 0 0 0 2 4l8 9 15 15a44 44 0 0 0 5 3l1 1 10 6 12 6 11 5a26 26 0 0 0 10 2c5 0 11-2-15-20ZM231 899h1a13 13 0 0 1 0-2l1-3a7 7 0 0 0 0-3l-2-2-1 2c0 2 1 5-7 96v-3c0-2 0-5 2-6 1-1 3 0 5 2l1-1 1-3 1-7a87 87 0 0 0 3-16 28 28 0 0 0-1-11v-8c1-5 1-10 6-13l3-4-2-6-1-1c-2-4-7-6-8-11h-1v2c2 2 1 5 2 7a15 15 0 0 1 0 7c-1 5-3 10-8 12a78 78 0 0 0-9 4c-3 1-4 4-2 6a3 3 0 0 0 3 2l7-1 7-1 1 2c0 5 0 9-3 14l-13 17a101 101 0 0 1-16 14 61 61 0 0 1-6 5l-11 5c-5 1-9 4-15 4-1 2-4 1-6 2l-8 1-7 1c-3 0-6 1-9-1h-2a9 9 0 0 1 1 1l3 2a69 69 0 0 0 10 8 96 96 0 0 0 19 8c3 1 7 1 9-1l5-6c2-2 2-3 5-1a14 14 0 0 1 3 2c3 2 7 2 11 0l6-7 4-7h3c3 1 3 0 5-2 2-4 2-7 10-99Zm463-325a9 9 0 0 0 7 0l5-3h2v3l-3 1-1 1a4 4 0 0 0 1 0 13 13 0 0 0 2-1l6-2a5 5 0 0 1 1-1v2l-6 4c5 0 8-2 12-5a5 5 0 0 0 0 1c0 1-1 3 1 1a4 4 0 0 1 3-1l1 2s1-2 1 0l2 1c1-1 2-3 4-3a5 5 0 0 0 3-2 68 68 0 0 1 10-13 12 12 0 0 0 2-3v-1l-1 1a10 10 0 0 1-6 2c-2 0-5 2-7 1-3-2-7 0-9-2l-13-2a19 19 0 0 0-8 1l-5-1c-1-1 0-2-2-3a26 26 0 0 0-2 3c-3 4-5 5-10 3l-4-2a30 30 0 0 0-6 1l-2 1c-1 0-2 0-2 2a8 8 0 0 1-5 4c-2 1-3 3-5 3l-5 5a28 28 0 0 0-5 8l-3 10a1 1 0 0 0 0 1 63 63 0 0 1 4 6c2 6 7 6 12 6 3 0 5-2 8-3 8-2 15-4 23-4h5c3 0 6-2 8-4h-7c-2 0-2-1-1-3l-1-2a2 2 0 0 1-1-1c0-2-1-2-2-2a1 1 0 0 1-1-1l1-1c2 0 1-1 0-1-2-1-2-2-2-3v-4l-1-2-1-2 2-1-1-2c-2 0 0-2-2-2v-2a10 10 0 0 1 3-2l3 1 2 1 1 2 2-1-1 2v1l2 1 3 2c-3 3-7 4-3 7h2l-1-1a13 13 0 0 0-2 1l-7-3Zm61 333a8 8 0 0 0-1 1l-1 1h-6a7 7 0 0 1-1-1v1l8 20 5 7a3 3 0 0 1 1 2l1 4c4 7 8 14 10 21l2 13a26 26 0 0 0 1 9c1 3 1 7 4 10 0 4 3 5 6 7l11 2a2 2 0 0 0 2 0c2-2 5-3 6-6a20 20 0 0 1 3-6l3-6c0-4 1-7-2-11a12 12 0 0 1-3-9v-8c0-5-1-11-4-16a19 19 0 0 0-16-11l-6-1a4 4 0 0 1-3-2c-1-3-2-6-1-8l1-9a10 10 0 0 0-3-5c-2-3-6-5-10-7l-2 1a4 4 0 0 1-2 1 22 22 0 0 1-4 0c1 2 3 4 1 6Zm137-632h1v-4h-1a7 7 0 0 0 1 4v6l1 8a3 3 0 0 1-1 2 4 4 0 0 0-1 3l-1 2a12 12 0 0 0-1 1 56 56 0 0 0-3-19l1 5v6c0 2-1 4 1 5l-1 6v5a3 3 0 0 1-1-2v-12c0-1 0-2-1-1v-7c-2 2-2 2 0 6v10c0 3 1 5-2 8v1a2 2 0 0 1-2 3l1-7h-1v3a3 3 0 0 0 0 1l1-1c0-1 0-2-1 1l-1 1v3l-1 1a3 3 0 0 1-1-1l-1-15a7 7 0 0 0 0 2l1 12 1-1c0-4 0-9-1 1h-1c-1 1 1 3-1 4s0 3-1 4a3 3 0 0 1-1 0l-1 1v-1l1-7a37 37 0 0 1 1-9 7 7 0 0 0-1 1v1l2-1s-1-1-2 1l-1 1c1 5-1 10-1 14a3 3 0 0 1 0 2c-1 1-4 2-4 0a8 8 0 0 1 0-2l-1 3h-1l-2 1c-1-2-1 0-2 0l-2 1a2 2 0 0 1-2 0 8 8 0 0 0-3-1l-4 1v1a2 2 0 0 0 2 1l10 2a13 13 0 0 0 6-1l6-1 6-2c5 0 9-2 14-3a77 77 0 0 0 15-5l10-6a55 55 0 0 0 12-8c5-5 11-10 15-16 4-5 8-10 10-16l6-15c2-6 5-13 12-17 2-2 2-5 0-7a20 20 0 0 0-4-4l-9-5c-3 1-7-3-11 0l-14 2h-7l-7 1a51 51 0 0 0-9 1 22 22 0 0 0-14 11c-3 4-4 8-5 13-2 1-1 1 0 3 3 4 4 9 5 14a74 74 0 0 1 0 9l-1 4a2 2 0 0 1-1 0 27 27 0 0 1 0-4l1-3-1-5-2-8a40 40 0 0 0-3-6l1 5a13 13 0 0 1 2 6v23l-1 1-1-1c1-4-1-9-1-13l-2-1ZM724 439v-1h-3a3 3 0 0 0-1 0l1 1c1 0 2 0 4-24l-3-3-8-9c-5-7-15-10-20-11l-13-2c-2 0-3-2-4-1l1 4 1 1v8l-2 7-1 6v5a17 17 0 0 0-1 7l1 10 1 9 1 9 1 7c2 6 4 13 9 17l8 8c4 3 8 7 10 12a12 12 0 0 0 1 2l9 9c2 3 5 4 9 5a9 9 0 0 1 5 2c3 3 6 7 5 12a1 1 0 0 0 1 1 2 2 0 0 0 1 0l5-5c3-3 5-6 5-10v-16a13 13 0 0 1 1-3 57 57 0 0 0 2-12v-12l-2-11-2-6a1 1 0 0 0-1 0c-1 2-2 0-3 0-3-3-7-6-11-7a84 84 0 0 0-11-4c-4-1-8-2-12 0a1 1 0 0 1-1-1 2 2 0 0 1 0-1 3 3 0 0 1 3-1l2-1c1-3 3-2 5-2h2a3 3 0 0 0 1-1h-2c-2 0-2-1-1-2l1-1c0-2 3-2 3-3 1-3 3-1 4-2a7 7 0 0 1 2 0 3 3 0 0 0-2-1c-2 0-2-1-2-3a3 3 0 0 1 2-2 4 4 0 0 0 1-1 7 7 0 0 0-1 0l-2-1c0-1-1-2 1-2h1l-1-1h-1c-1 0-2 1-2-1l2-2 1 24Zm-25 391 3 3a1 1 0 0 0 1 0 3 3 0 0 0 1-1c-1 0-1-3-3-2a7 7 0 0 1-2 0 10 10 0 0 0-4-7c-1-1-2-4-5-4l-1-2c-1-4 1-6 5-6 2 0 5 1 5 3s0 3-3 5a26 26 0 0 1 3 2h1l4-1c1-1-2-2-1-4-2-3-4-6-7-7l-2-1c-1 2-3 1-5 1 0-3 0-6 2-8s4-1 6-1v4l3 3a7 7 0 0 1 1 1 36 36 0 0 1 7 8l8 12 1 1v-2l-5-13-4-7c-1-2-1-4-4-4-2 0-3-3-2-5 2-2 4-2 6-2a2 2 0 0 1 3 2l-1 3v3l4 4c3-3 6-6 11-5a8 8 0 0 1-2 7v2a4 4 0 0 1 1-1h5v-5c-2-5-3-10-6-14h-3c-2 1-4-1-5-2s1-5 2-6a6 6 0 0 1 3-1c2 0 2-1 2-2l-1-3-4-11-6-9-1-2a7 7 0 0 1 0-2l2 1 4 5 1 1a3 3 0 0 0 0-1 7 7 0 0 0-1-2c-2-5-4-10-8-14l-1-2h2a8 8 0 0 1 3 2l4 6a9 9 0 0 0-1-4 40 40 0 0 0-4-10c-1 0-2-1 0-1 0 0 2-3 2 0l4 8h2a12 12 0 0 1 8-4c4 0 8-2 12-1a4 4 0 0 0 2 0l12-6a8 8 0 0 0 5-6l1-13a30 30 0 0 0-4-15l-7-8a59 59 0 0 1-15-11l-10-10c-4-5-10-7-16-7h-9c-4 0-6-1-9-4l-8-5-7-3c-3 0-3-1-7 1s-6 5-7 9c-1 3-2 7-4 9l-1 6c2 5 4 9 9 11 5 3 6 8 6 12-2 2-1 4-1 6v19a24 24 0 0 0 2 8l5 16v4a3 3 0 0 1-4-1l-2-2c-3-3-5-6-6-10l-6-17-5-13-6-12-2-6a20 20 0 0 0-8-11 56 56 0 0 1-7-5l-2-3c-1-1-2 0-3 1l-4 4v5l6 4c6 2 8 6 10 11 1 4 3 9 6 13l5 7v2l-11-1c-6-2-10-5-13-10l-8-11c-4-5-8-10-14-12h-2c-1-2-2-3-4-2l-5 2a28 28 0 0 0-5 11c-1 5-3 11-6 16l-5 10a10 10 0 0 0 0 4l-1 2-1 2-1 5v4l1 3a34 34 0 0 0 3 10c2 6 8 14 14 19a145 145 0 0 0 16 11 179 179 0 0 1 17 12l16 13a59 59 0 0 0 7 4h2a5 5 0 0 1-1-1v-6l-7-4-15-10-7-5-1-2a5 5 0 0 1 2 0 4 4 0 0 1 1 1l4 2 3 3 18 12 3 2h7l-9-7-11-8c-4-3-8-8-14-10l-1-1a2 2 0 0 1 1-1 2 2 0 0 1 2 0l6 4 12 10 7 5 15 10 6 2c1 0 2-1 2 1 3 3 7 4 11 6 1 0 2 0 2 2a7 7 0 0 0 3 6l12 9Zm-61-365h-1c-5 2-6 2-8-2a8 8 0 0 0-1-2 2 2 0 0 0-2-1 8 8 0 0 0-2 2h-3c-3-1-5-4-4-7l4-3 3 3c0 3 1 2 3 2a15 15 0 0 0 3-1c4-1 5-3 2-6l-1-1-10-5a18 18 0 0 0-6-1l-6-1-6-1c-6 0-12 1-18-1l-8-1a28 28 0 0 1-11-5c-8-6-13-15-16-24l-7-18a62 62 0 0 1-3-10l-2-9c0-1 0-3-2-3-5 0-10 0-14 2a73 73 0 0 1-12 5 21 21 0 0 0-8 4c-4 4-6 9-9 13-2 3-3 7-3 10-3 4 0 8 1 12l4 11 2 5c0 2 1 2 3 2a23 23 0 0 1 12 6 19 19 0 0 0 6 3l10 2 26 10 5 4v1h-1a2 2 0 0 1-1 0c-4-3-8-5-13-4a7 7 0 0 1-4-1c-4-4-9-5-13-7l-13-1c-2 2-5 1-7 0a28 28 0 0 1-9-4 48 48 0 0 0-6-3 3 3 0 0 0-2 1v1a26 26 0 0 1 2 11 9 9 0 0 1-3 6c-1 1-3 2-2 4 0 2-1 4 1 5l1 7v12c0 3 3 9 6 11l9 7a91 91 0 0 1 8 13 26 26 0 0 0 12 11 23 23 0 0 1 8 6l7 7 9 8 12 4c7 1 15-1 22-3a22 22 0 0 1 8-2h17l11-3a73 73 0 0 0 17-13 3 3 0 0 0 1-3 9 9 0 0 1 2-5l-1-2-10-1a44 44 0 0 1-12-3h-1l-1 2c-1 2-2 3-4 3s-2-1-2-3v-1c-1-2 0-7 2-8a3 3 0 0 1 3 1c3 3 7 4 11 6l2-1c0-2 1-3 3-3a21 21 0 0 0 3 0l1-1v-1c-2 0-2-1-2-2 0-4-2-5-6-5a15 15 0 0 1-2 0 2 2 0 0 1-2-2c0-3 1-5 3-7s6-3 9-4l3 1 1 3v4l3 2 1-3h-1a12 12 0 0 1-1-6c0-2 2-2 3-3h2a3 3 0 0 1 1 1v-1l-3-7c-4-2-5-2-3-5s0-2-2-2a3 3 0 0 1-2-4c0-3 2-5 4-8ZM269 953c4 3 5 4 4 8a35 35 0 0 1-6 11c-4 5-10 8-15 12s-9 7-10 14v5a5 5 0 0 1-1 5l-2 5c1 2 3 1 5 1a5 5 0 0 1 4 2c1 3 1 4-1 6a38 38 0 0 1-5 5 75 75 0 0 0-17 19c-2 4-3 7-3 12v10c-2 1 0 2 1 2a9 9 0 0 0 2 0c4 0 5 2 3 5a11 11 0 0 1-4 5c-4 3-7 6-7 11a14 14 0 0 0 0 3 25 25 0 0 0 4-2 14 14 0 0 0 2-2 17 17 0 0 1 3-2l16-4h7c5 0 8-2 12-5 3-2 5-3 9-3l5-1 7-6c1-2 2-4 4-4 4 0 6-2 9-4 4-2 6-5 7-9 1-2 1-6 5-5a1 1 0 0 0 1 0l6-7 11-18h2a4 4 0 0 0 1 1c2 2 4 2 6-1 3-2 4-5 6-8a27 27 0 0 0 3-7 19 19 0 0 1 2-6 10 10 0 0 1 3-3l2 2 1 1 2-1a101 101 0 0 0 2-10l1-13v-1l3-4c2 0 3 0 4 2a11 11 0 0 1 3 5h1l1-1 1-9v-2c2-2 0-5 1-7l1-7-1-20-2-6-8-21a21 21 0 0 0-4-4 15 15 0 0 0-8-5c-1 0-3-1-2-3 1-1 0-1-1-1-2 0 0-1 0-1a5 5 0 0 1 2-4l3-4c-3-1-4 1-5 3a31 31 0 0 1-7 8c-5 4-11 6-18 6a46 46 0 0 0-6 0 28 28 0 0 0-7 1l-13 7c-4 3-9 6-11 11-1 2 0 4 2 5a22 22 0 0 1 3 1c2 1 2 2 1 4a16 16 0 0 1-7 7 46 46 0 0 0-5 4 1 1 0 0 0-1 1c2 2 0 4-1 5l-6 6Zm420-101-8-6a18 18 0 0 0-7-3 17 17 0 0 1-7-4l-8-4c-2-1-5 0-7-2-3 0-6-1-9 2-2 3-6 1-6-2 0-2-1-3-3-2a5 5 0 0 1-2 1h-10a7 7 0 0 1-2-1c-7-3-11-9-14-15l-7-17c-3-5-7-9-12-12l-6-2c-4-1-5-5-6-9-1-3-1-7-4-10a24 24 0 0 1-6-10c0-1 1-3-1-3a16 16 0 0 0-4-1 10 10 0 0 1-2 0c-2 0-3 1-3 2l-2 5a8 8 0 0 0 4 5l6 4c2 2 4 6 4 9a2 2 0 0 1-1 1 5 5 0 0 1-1-1 3 3 0 0 1-1-1c-2-3-4-4-7-5l-6-2c-2-2-5 0-7-2l-1 1c-1 3-1 4 1 6l2 3c0 3 1 4 3 5l5 3c2 2 5 2 5 5 1 2 0 3-1 3a10 10 0 0 1-6-2l-15-10c-2-1-3-1-4 1l-3 11a16 16 0 0 0-1 6c0 2 1 3 3 3l4 1a17 17 0 0 1 11 6c4 4 8 7 17 11l16 6c3 2 7 3 10 6l1 1a4 4 0 0 1-2 2 21 21 0 0 1-13-2l-7-4a37 37 0 0 0-7-3l-8-1c-2-1-5 1-7 1l-15 3c-1 1-2 1-2 3v22c2 2 0 4 1 6a10 10 0 0 1 2 6l2 5a31 31 0 0 0 8 13l8 8a287 287 0 0 1 20 21l10 12a96 96 0 0 0 9 8 46 46 0 0 0 15 9l5 1 6-1a46 46 0 0 0 9-5l12-8 13-7c4-2 8-4 11-8l6-7 3-4 3-4a26 26 0 0 1-5 1c-2 0-4-2-3-4a5 5 0 0 1 4-3c3 0 5 0 7-2l3-2a6 6 0 0 0 2-1l10-11a1 1 0 0 0 0-1h-1c-2 3-5 3-8 5a15 15 0 0 1-6 2c-3 0-6 1-9 4a6 6 0 0 1-5 2c-2 0-2-1-3-2s1-2 1-3a5 5 0 0 1 7-2h5l3-1a43 43 0 0 0 14-7h-3c-2 2-5 1-8 2l-8 1-8 1-17 1c-2 0-4 0-6 2l-7 1a3 3 0 0 1-1-2 4 4 0 0 1 2-4c1-1 3-3 5-2s3 3 5 3a63 63 0 0 0 11 0 7 7 0 0 0 4-1v-4c0-2 2-3 4-2l3 2a2 2 0 0 0 3 2l6-2 14-5h-25c-2 0-2 0-2-2s2-3 4-4h-6v1c1 2-1 3-1 4-1 2-3 2-5 2s-2-1-2-3c-1-2 0-3 1-5l-6-1-8-2-1 1c-1 3-4 3-7 3a3 3 0 0 1-2-2 40 40 0 0 1 0-7 4 4 0 0 1 2-3c3-1 6 0 7 4a4 4 0 0 0 2 2l7 1a35 35 0 0 0 10 2c2 0 3-1 4 1h10l-4-1c-2-2-4-2-7-2h-2a6 6 0 0 1 0-4 5 5 0 0 1 3-2c2 0 0-1 0-1-1-4 1-8 5-8 1 0 2 0 2 2l2 3c5 3 13 5 20 6Zm117-547c2 0 3-5 6-2l1-2a7 7 0 0 1 0 2v3l-2 1a13 13 0 0 0-4 0l1 3a10 10 0 0 0 1 2c3 5 6 10 10 13a4 4 0 0 0 2 1l13 2c3 0 5-1 6-4l4-2c4 2 4 2 8 1 6-2 11-5 15-10a49 49 0 0 0 7-11l4-9 4-6a24 24 0 0 1 2-6l5-12a50 50 0 0 0 2-8l3-11a15 15 0 0 0 1-4c0-5-2-9-4-13l-5-6a63 63 0 0 0-28-20l-17-7c-6-2-13 0-18 3l-14 12a21 21 0 0 1-15 5 32 32 0 0 1-13-3c-3-2-7-2-11-2a1 1 0 0 0-1 0l-6 6a38 38 0 0 1-8 9 68 68 0 0 0-12 12c-3 3-2 7-1 11 0 2 3 1 4 3l5 3a77 77 0 0 1 18 23 64 64 0 0 1 3 7 23 23 0 0 0 5 7c2 2 2 5 5 6a2 2 0 0 1-1 3l-1 1 4 5 7 11a40 40 0 0 0 13 10 3 3 0 0 0 3 0c1-1 0-2-1-2l-2-5c-2-2-5-4-5-7-2-1-2-3-3-5-2-2-2-5-3-8l-1-4c-2-6-4-12-8-17a1 1 0 0 1 1-2c5-1 9 2 12 6a40 40 0 0 1 3 5c3 4 5 7 6 12Zm125 430c-4 1-6-1-7-3l-5-6-14-22-10-14a24 24 0 0 1-4-5 22 22 0 0 1-2-4 11 11 0 0 0-2-4 7 7 0 0 1-1-7v-5l-2-3c-1 0-1-2-2 0l-2 1c0 8 1 15 4 22l7 12 6 12a122 122 0 0 0 6 14 25 25 0 0 0 9 9 106 106 0 0 0 10 6c9 4 18 9 25 15 5 3 11 4 16 2 5-1 9-4 13-6 3-2 6-5 10-2h1l-1-1c-4-3-8-6-12-7l-17-7-13-8c-4-2-6-6-10-9h-1v-3l2 1 3 3c4 4 10 7 16 9l15 4a35 35 0 0 1 12 6l12 8a15 15 0 0 0 7 3l5 1h3a33 33 0 0 1 11-2 2 2 0 0 0 2-2l1-10a29 29 0 0 1 2-9l6-18c2-6-1-14-6-18a87 87 0 0 0-10-5 36 36 0 0 1-13-12 41 41 0 0 0-11-10l-18-7-12-3a12 12 0 0 0-6-1c-5 1-10 1-14-1-3-1-5-1-7 1 2 0 4 1 4 3 0 3-3 3-4 4h-1c-1 1-2 4-1 6l-1 3c0 1-3-1-3 1l2 3 1 1h-3a7 7 0 0 0-2 0 3 3 0 0 0-2 1l1 1 8 6a78 78 0 0 1 9 4 37 37 0 0 1 4 4 1 1 0 0 1 0 2l-2 2h-8l-14-6a21 21 0 0 0-3-2h-1a3 3 0 0 0 0 1l2 4v2l2 3a1 1 0 0 1 0 2 3 3 0 0 1-2 0 2 2 0 0 1-1-1l-9-7a4 4 0 0 0 1 4l14 14a3 3 0 0 1 1 2c-1 2-2 1-3 1l-1-1-12-11c-1-1 0-2 1-2l1-1-3-3-2-5a2 2 0 0 1 1-1 3 3 0 0 1 2 1l7 5a6 6 0 0 0-2-7l-2-2a1 1 0 0 1 0-1 1 1 0 0 1 1-1l6 2 15 8c3 1 5 2 8 0 2-1 3-2 1-3l-11-5c-4-3-9-5-12-9 1-2 3-2 4-2 2 0 2 0 1-1a5 5 0 0 1 0-3l2-1c1-1 3-1 1-3l1-4 2-2c2-1 4-1 4-3l-3-2a5 5 0 0 1 0-1v-2a10 10 0 0 1 7 0l9 2 1-1a6 6 0 0 0-1 0l-1-1-6-2-5-2a30 30 0 0 0-11 0l-8 2c-3 0-6 1-9-1l-3 1 2 3 2 1c3 1 4 3 3 4l-2 1h-2c-1-1-3 0-3 2l-1 1a13 13 0 0 1-3 0c-3 0-2 1-1 2l-1 1c-2 0-2 1-2 2l-1 2h-4c-1-2-3-1-4-1v5h3a20 20 0 0 1 3 1l1 1a28 28 0 0 1-1 5 2 2 0 0 1-3 2l-1 1 4 8a104 104 0 0 1 12 16l10 15c3 6 7 10 11 15a1 1 0 0 0 2 1v-2a9 9 0 0 1-2-4v-5l4 2 7 7c3 3 7 6 12 5a28 28 0 0 1 4 0l-6 1c-5 0-8-1-11-4l-6-6-2-2c-1 2 1 2 1 3l1 6ZM510 571l-4 5c-1 1-2 0-2-1a4 4 0 0 1-1-2l-2-6c0-3-3-4-5-4a21 21 0 0 0-3 0 4 4 0 0 1-4-1l-7-9-7-10c-2-2-2-1-4 0l-1 1c-3 3-4 3-6-1a5 5 0 0 1 0-1 11 11 0 0 0 0 6l8 21 6 12v4c3 6 3 13 4 19 1 4-1 7 1 10-1 6 1 11 1 17v6c0 4 2 8 4 11l6 7a3 3 0 0 1 1 1c0 3 2 4 4 6a54 54 0 0 1 7 10 173 173 0 0 1 9 23l4 12a85 85 0 0 1 2 9c0 2-1 5 2 7v2c-1 2 1 4 1 7l1 2c1 4-1 8-1 13l-2 11v8l2 8a18 18 0 0 0 0 3c2 0 1-2 1-3l5-9a28 28 0 0 1 4-5l13-14a15 15 0 0 0 1-2l11-16a19 19 0 0 0 2-6c1-4-1-14-2-19v-13c3-5 3-11 5-16a4 4 0 0 0 0-2c0-2-2-2-3-1a21 21 0 0 0-3 2c-2 2-4 1-6 1s-1-3-1-4a6 6 0 0 1 0-2l4-12c1-4 1-5-2-7l-3-3c0-3-2-3-4-3s-2 0-2-2a15 15 0 0 1-1-2 50 50 0 0 1 0-7c0-2-1-4 1-7l1-6a1 1 0 0 0-2-2c-3 2-5 1-7 1l-1-1a60 60 0 0 1-3-7 73 73 0 0 1-1-9c-1-3-2-4-5-2-1 1-2 3-4 3-2 1-2 1-2-1v-17c0-3-3-4-3-6l-3-1a4 4 0 0 1-4-4v-2Zm138-109a13 13 0 0 1 1-2l2-3-2-3a39 39 0 0 0-2-3c-1-1-2-4-2 0-1 1-3 0-3-1a10 10 0 0 1-1-2v-4l3-4 1-1c3 0 5 0 7 2a15 15 0 0 0 2 3 1091 1091 0 0 0-5 5 5 5 0 0 0 2 2l1-1c0-1 1-2 3-2h2c1-4 4-4 7-4-1-2-3-3-2-5a14 14 0 0 1 3-4c2-1 3-1 5 1a6 6 0 0 0 2 1 3 3 0 0 0 2 0v-2a16 16 0 0 1-1-11c2-4 1-8-3-11l-11-11-17-11-16-9a115 115 0 0 1-23-17l-17-18-7-4-1-1c1-3-2-3-4-4l-8-5-6-1-4 1a15 15 0 0 0-7 3 35 35 0 0 0-7 10c-2 3-2 7-3 11-1 5 0 11 1 17a60 60 0 0 0 6 17l7 19a73 73 0 0 0 9 16c3 4 7 7 12 9 3 2 7 2 11 3l17 1 17 2c5 1 14 5 18 9l11 12Zm344 445c-4-2-4-4-2-7a30 30 0 0 1 5-4c5-4 10-6 16-7l14-3 8-4c3-2 5-5 5-9l1-2 5-4c1 0 1-2-1-2s-3-2-4-3a4 4 0 0 1 1-6 20 20 0 0 1 6-2c4 0 7-2 11-3l10-5c5-2 8-6 12-9a12 12 0 0 0 3-8 6 6 0 0 1 1-2c2-3 2-3 0-4l-1-1c-2-2-3-3-1-5a7 7 0 0 1 5-2 28 28 0 0 0 5-1 18 18 0 0 0 8-6l-1-1c-7 4-14 5-21 7l-10 1-10 2a57 57 0 0 0-12 5 52 52 0 0 0-8 5c-2 2-3 4-6 5l-17 10a125 125 0 0 1-17 5l-16 3-14 4c-8 5-17 8-24 15l-9 7-7 8a167 167 0 0 0-11 15l-14 22c-2 4-5 7-9 10h1a41 41 0 0 1 9-2 37 37 0 0 1 12 0l13 4 9 3c5 0 11 1 16-1l11-4a3 3 0 0 0 0-5l-2-3a2 2 0 0 1 0-3c2-3 4-4 8-4l8-1a1 1 0 0 0 1-1c0-2 1-2 2-3l11-4Zm-113 45 8 8 4 4 8 17 4 16a85 85 0 0 0 9 19 121 121 0 0 0 31 34l8 6 7 5a412 412 0 0 1 35 24l16 9c3 2 7 4 9 8h1v-1a20 20 0 0 1-6-11 4 4 0 0 0-4-3 19 19 0 0 1-3-1c-3-1-4-1-2-4l2-3a25 25 0 0 1 2-3v-2c-2-2-5-3-9-4a4 4 0 0 1-2-3c-1-1 0-3 1-4a13 13 0 0 1 4-2l1-2c-1-2-3-4-2-7 2-3 1-6-1-9s-5-5-6-9a5 5 0 0 1 1-3c1-3 3-4 6-6-3-3-6-6-11-6-3 0-4-2-4-5a3 3 0 0 0-2-3l-2-1c-5-2-6-3-4-8h1l-1-2-6-1a7 7 0 0 1-4-3v-5l3-7-1-4-2-1-5-1-4-1c-5-1-6-2-4-6 1-4 1-4-2-5l-2-1c-2-1-3-3-3-5 1-2-1-3-3-4l-6-2c-4-2-9-5-14-4-3 0-5-1-7-3a74 74 0 0 0-8-6 7 7 0 0 0-5-2 52 52 0 0 0-7 1c-6 1-11 3-15 8l-4 4ZM178 812h12c3 0 4 1 2 4l-2 4c0 1-1 2 1 3a6 6 0 0 1 4 5c0 4 2 7 5 8s7 3 9 5a4 4 0 0 1 1 2c0 3 0 5-2 7-1 2-1 2 1 3 3 1 6 2 10 0 2-1 5-1 6 3l3 1h7c2 0 3 1 3 4a26 26 0 0 1-1 2c0 1 0 2 1 1l3-1 4-1c1-1 2 1 3 1 3 1 4 2 4 4v5c0 3 1 5 3 7l5-1c3-1 6-3 10-2 1 0 3 1 3 3a26 26 0 0 1 0 3 2 2 0 0 0 2 2 35 35 0 0 0 4 0 3 3 0 0 1 4 2c1 2 3 3 5 3l10-1 10-2c2-1 5-3 7-2l8 2a11 11 0 0 0 10 0 57 57 0 0 0 7-6 19 19 0 0 0 4-4l4-7c0-1-1-3 1-5l-1-1a20 20 0 0 0-3-1l-8-3a48 48 0 0 1-16-11l-22-21-10-7h-1a3 3 0 0 1-1 1 5 5 0 0 1-2 1v-2c1-1 2-2 0-3l-11-5-13-4-21-5-7-1-5-1-6-1h-2l-5-1-5-1c-4 0-7-2-11-1-2-2-5-1-8-1l-7-1-15-1-10-2c-1 0-2-2-3 0-1 1 1 1 2 1a4 4 0 0 0 2 1l7 4 2 3a26 26 0 0 0 4-1 30 30 0 0 1 3 0c3 0 4 1 3 3-2 3-1 6-1 9Zm591 79h3l3 1a7 7 0 0 1 6 0l3-1 5-3a3 3 0 0 1 4 1 3 3 0 0 1-1 4 35 35 0 0 1-4 4 26 26 0 0 1-5 2c0 2 3 1 3 3l1 1 2 6a77 77 0 0 1 4 9 75 75 0 0 0 6 13c1 3 7 8 9 10 3 2 6 2 9 2s6-1 8-3a24 24 0 0 0 6-6 55 55 0 0 1 10-11c3-3 6-6 10-6 3-2 6-1 9 1 1 0 3 0 3 2l-3 2a23 23 0 0 0-9 7 8 8 0 0 0-1 2c1 0 1 2 3 1l6-2a49 49 0 0 1 7-5l16-8c5-3 10-7 13-12 2-4 5-7 4-12l-1-5-3-8c-3-3-3-4-8-3l-5-1v-1l1-4a27 27 0 0 0 4-4c2-2 4-5 3-9a31 31 0 0 1-1-3c-2-5-3-9-7-13-3-2-5-3-8-1s-6 2-9 2v-6c2-2-1-3 0-5l-2-4-3-1h-3a21 21 0 0 0-7 3 127 127 0 0 1-20 12c-4 2-7 5-11 6a1 1 0 0 0-1 1h1c3-1 7-2 9-5h4a10 10 0 0 1-1 3 10 10 0 0 1-3 3l-8 5a8 8 0 0 0 1 0 7 7 0 0 0 2 0h10a4 4 0 0 1 1 1l-1 1-15 5c-3 1-7 2-10 5-3 2-3 4 0 5 1 1 2 2 3 0l5-1c7-1 14-4 21-7a54 54 0 0 0 17-10 9 9 0 0 1 3-1l1 1a3 3 0 0 1 0 2c-2 3-5 6-9 7l-20 6c-4 2-9 4-14 4l-6 2-6 1c-2 0-4 1-6-1-2-1-4 1-6-1-1-1-3 1-4-1l-2 1 1 1a16 16 0 0 1 2 0l2 2a18 18 0 0 1-3 6 6 6 0 0 1-5 2c-2 0-2 0-2-2l-1-2a11 11 0 0 0-4-1c-4 0-9-1-12-5h-3c-2 0-3 1-3-2l-3-2a9 9 0 0 1-5-1h-2l6 6 12 8h4l6-2c1 0 2 1 1 2-2 2-3 6-7 7Zm48-342-6 7-3 4c-3 3-4 7-3 11l2 7 1 9 1 8 1 5c2 3 2 8 3 12l1 5 1 6 3 15c1 5 2 11 7 14s-1 1-1 1c-2-1-4-2-5-5-2-5-4-10-4-15l-1-3v-4a25 25 0 0 1-2-8l-1-8a32 32 0 0 0-2-8l-2-9a110 110 0 0 1-1-12v-1c-2-4-1-9-3-13a2 2 0 0 1 0-2c1-4 1-4 5-7l10-12v-1c-2-2-1-3-1-5l-1-10c-1-1-4 0-6-2v-1c-2 1-2-3-4-1l-2 4a8 8 0 0 0 0 2 53 53 0 0 1 0 8c-1 3-1 8-5 9-2 0-4 2-6 1-3-1-5 1-7 2l-1 1 2 6c3 6 1 9-3 12a26 26 0 0 1-7 5c-3 0-5 2-8 3a12 12 0 0 0-7 7 15 15 0 0 1-3 5c-3 2-4 7-3 10l1 5a3 3 0 0 1-2 3 8 8 0 0 1-2 1c-2 0-2 1-3 2-2 2 0 4 0 5a34 34 0 0 0 6 16c1 2 2 5 0 7-1 3-1 5 3 6l6 3c-5 0-8-1-10-4a8 8 0 0 1-2-3l2-2 1-2-1-3-3-4-4-11v-10c3-1 1-3 0-4a15 15 0 0 1-2-2 29 29 0 0 0-1 4c-1 5 1 10 1 15 2 2 1 5 1 7l2 6 4 12c1 1 1 2 3 2l7 2 10 5a52 52 0 0 0 17 3l6-1c6 1 12-1 18-1l10-1c1-2 3-1 5-1 6-4 14-6 20-11a24 24 0 0 0 3-2 2 2 0 0 0 0-2 2 2 0 0 0-2-1 98 98 0 0 1-14 4l-9 2c-4 0-7-3-6-6l1-1a4 4 0 0 1 0 1 10 10 0 0 1 1 1c1 3 3 5 5 4l5-1 16-5h1v-4l-1-1c-4-2-4-4-2-8 1-2 1-3-1-4l-1-2c-3-2-3-3-1-6l1-2v-3l-9-10a110 110 0 0 1-9-13c-3-4-3-9-5-13l-3-14-2-10ZM708 899a23 23 0 0 1-1 4 24 24 0 0 0-3 14l-1 1-4 1-3 2-2 8 1 20a18 18 0 0 1-6 14l-10 7c-5 4-8 7-10 13l-2 6 3 3c3 2 3 5 4 8a54 54 0 0 1 1 13c0 4 1 7 3 11 1 4 4 5 8 7 4 3 11 2 16-1a8 8 0 0 1 1-1l15-8 9-4 8-4 9-3c5-3 10-4 13-9 5-5 6-12 9-19a3 3 0 0 0 0-2c-2-3-1-7-1-10a20 20 0 0 0-1-4 35 35 0 0 0-5-10c-4-7-8-8-16-6-2 1-4 2-7 1a3 3 0 0 1-2-2 3 3 0 0 1 1-2l2-2c2-2 5-2 6-6l1-2c-2 0 0-2-2-2a15 15 0 0 1-5-3c-3-2-5-4-4-7v-4c1-4-2-6-4-7l-4-2a5 5 0 0 1-3-2h-1v1c2 1 0 3 0 4-1 3-6 5-8 3a9 9 0 0 0-2-1v2a17 17 0 0 0 2 4v2a9 9 0 0 0-1 2c-1 2-6 3-8 2-1-2-2-4-1-5a3 3 0 0 1 3-2c2 0 2 0 2-2v-21Zm-351-57a26 26 0 0 0-2-11c-1-5-4-8-6-12-4-8-10-13-15-19-5-2-7-6-9-11-1-1-1-4-4-3l-2-2-14-14-3-2c-1-2-2-1-3 0v2c-1 2-3 2-5 3s-3-1-4-1l-12-5c-2-2-5-2-7-3s-3 1-4 2h-1a10 10 0 0 1-8-2 14 14 0 0 0-6-3c-4 0-9-1-12 3l-2 2h-9l-10-1c-1 2-3 1-4 1-2 0-2 3-3 4a2 2 0 0 1-1 0 35 35 0 0 1-5 1h-14c-2 0-3 0-4 2a4 4 0 0 1-2 2h-8l-6-1c-2 0-3 1-3 3a8 8 0 0 1-6 7 7 7 0 0 0-1 1 2 2 0 0 0-1 1l1 1a51 51 0 0 0 15 3c6 0 13 2 20 1a7 7 0 0 1 3 0l13 2h1c2 2 4 0 6 1l5 1 5 1h4l15 3 14 3a125 125 0 0 1 16 6 103 103 0 0 1 29 19l6 6c5 5 10 11 16 15a53 53 0 0 0 19 9c2 1 3 0 4-1 2-5 5-9 4-14Zm656 264c-6-7-14-12-22-17l-13-7a813 813 0 0 1-35-25 151 151 0 0 1-18-15l-14-16a85 85 0 0 1-10-18l-2-6-4-15a65 65 0 0 0-5-13 57 57 0 0 0-14-17c-1-1-2-2-3-1l-8 7a31 31 0 0 0-5 9 44 44 0 0 0-2 10v9c2 3 0 6 2 9 0 5 3 10 5 15a16 16 0 0 1 2 9 53 53 0 0 0 0 5c0 3 0 3 2 5a6 6 0 0 1 2 2 65 65 0 0 1 2 8c1 6 2 11 6 15h1c5-3 8-3 12 2l8 11 5 4a5 5 0 0 0 3 0c4 0 6 1 7 4s4 6 7 7c3 2 5 4 9 2h6a8 8 0 0 1 3 2 30 30 0 0 0 9 5 32 32 0 0 0 7 3l3-2a3 3 0 0 1 2 0l7 2 9 5c1 1 3 3 5 1l2-1a8 8 0 0 1 6 2l8 5c1 1 2 1 3-1a6 6 0 0 1 7-4 39 39 0 0 0 5 0ZM454 865a20 20 0 0 1-5 8l-9 7-15 6c-6 3-12 6-16 11l-3 3 1 1a44 44 0 0 1 5 2l1 1c0 3 0 6-3 8a17 17 0 0 1-7 4 28 28 0 0 0-12 7l-10 13a2 2 0 0 0 0 2 4 4 0 0 0 2 1c2 2 2 5 2 7-1 2-1 4-4 4l-1 1-2 6a9 9 0 0 1-3 6 10 10 0 0 0-3 7v9a6 6 0 0 1-2 4l-2 1-2 2c-1 2-2 1-2 0a12 12 0 0 0-5-8l-1 17c-1 5-2 9-6 12a2 2 0 0 1-3 0l-1-2-2 1c-1 5-4 9-6 13-3 4-5 9-9 11a7 7 0 0 0-3 3c-1 1-3 3-2 6 2 5 1 8-3 12a31 31 0 0 1-3 3c-2 2-2 4-2 6 0 3 2 2 4 3 2 2 3 0 3-1l7-8 7-7 12-8a65 65 0 0 0 17-17c5-7 10-15 16-21l12-11 17-14 4-4c5-5 8-12 12-18a148 148 0 0 0 6-14 87 87 0 0 0 5-12l2-10c0-4 2-7 3-10l1-4c-1-3 1-5 1-8l1-3v-4a147 147 0 0 1 7-18l1-1c-2-1 0-3-2-5Zm23 78 1-2 2-9 2-10a66 66 0 0 0-1-12l-2-13a27 27 0 0 0-7-13c-3-4-7-8-12-11-2-1-2-1-3 1-4 7-5 15-7 23l-1 7-3 12-4 13-4 12a111 111 0 0 1-11 22 74 74 0 0 1-13 17l-13 11a145 145 0 0 0-14 13l-9 8a86 86 0 0 0-6 9c-4 6-8 12-14 16l-16 12c-5 3-8 8-12 12l-1 2c2-1 2 2 4 1v-1l4-2a14 14 0 0 1 10-1c4 1 7 2 11-1l5-4 6-6 2-1c4 3 5 3 8 0 2-3 6-5 7-9 1-1 3-3 5-1a1 1 0 0 0 2 0 56 56 0 0 0 5-4c4-3 7-7 10-12 1-2 2-3 5-3a4 4 0 0 0 2-1 55 55 0 0 1 6-3 10 10 0 0 0 6-6 38 38 0 0 0 2-8c0-2 1-5 3-6h2c1 2 3 3 5 2a8 8 0 0 0 3-2l6-10a65 65 0 0 0 5-14c1-3 1-7 4-9a2 2 0 0 1 2 0 10 10 0 0 1 2 3c1 1 3 2 4 0a16 16 0 0 0 2-5l2-15 3-5 4 2Zm401-284a20 20 0 0 0-2 3c0 2-1 2-3 2s-2-1-3-2l-1-3a7 7 0 0 0-1-2 12 12 0 0 0-1 2v1l-3 3a8 8 0 0 1-5-3 32 32 0 0 1-4-6c-1-2-2-3-5-3-1 0-3 1-3-2h-2l-13 7a64 64 0 0 1-11 3l-10 1a13 13 0 0 0-8 4 7 7 0 0 0-1 5c0 2 1 2 2 3l3 5 5 13 4 4 5 4c2 1 3 4 4 6l2 2a28 28 0 0 0 5 1h5c2 2 4 0 5 2l5 1c2 0 2 2 4 3a10 10 0 0 1 5 4 14 14 0 0 0 1 2 13 13 0 0 1 4 6c0 2 0 2 2 2s5 1 6 3l8 8a53 53 0 0 1 8 13 46 46 0 0 1 3 11 8 8 0 0 0 5 7l9 1 1-1a6 6 0 0 1 2-1l2 2v1a9 9 0 0 1 6-1c3 1 4-2 6-2l5-9 3-6h2v2l-6 10a45 45 0 0 1-4 5 4 4 0 0 1-2 1l-11 1h-1c-3 2-6 1-8 1s-5 1-8-1l-1 1 1 1 8 1a9 9 0 0 0 6 0c2-2 4-1 6-1 4-1 4 2 6 4h1l2 2c0-2 2-1 2-2l2-7c1-2 1-5 5-6l3-3c3-2 3-4 2-8-1-3-3-6-3-10l-2-2-13-6c-5-3-11-8-13-13l-6-15-6-10-7-15-3-7c0-4-2-8-1-13a34 34 0 0 0 0-4Zm23-185c-1-1-3 1-5-1h-1l-5 4c-5 5-8 11-8 18l1 12c1 4-1 8-4 11a43 43 0 0 0-4 6c-2 3-5 6-6 10a20 20 0 0 1-5 8 21 21 0 0 0-5 9l-1 6c-2 2 0 5-2 7l-1 6v22a10 10 0 0 1 0 2h-2a20 20 0 0 1 0-3c0-7 2-14 1-21v-5c2-4 2-9 3-13 1-3 2-7 5-9l4-8v-6a10 10 0 0 0 1-5l1-6a40 40 0 0 1 1-8l5-18 3-8 1-7a24 24 0 0 1 4-12v-1c-1 0-2-2-2 1l-2 5c-1 3-2 4-5 4-4 0-6 1-7 5l-1 1c0 2-2 1-3 2a9 9 0 0 0-2-1l-2-2-4-3-2 1a27 27 0 0 0-7 10 65 65 0 0 0-3 10 16 16 0 0 0 0 9c2 4 1 7-2 10-5 4-7 9-9 14l-4 9c-2 3-4 1-6-1s-2-5-3-7l1 9 1 12v2c2 2 1 4 1 6l1 6a66 66 0 0 0 1 7 57 57 0 0 0 8 17l15 16a8 8 0 0 1 1-2v-3c-4-3-6-7-7-12-3-7-4-15-6-23l-1-10-1-7-1-8a12 12 0 0 1 1-7l6-9h1c2 1 0 1 0 1a11 11 0 0 1-2 3 13 13 0 0 0-3 6c-1 2-3 5-2 7l1 6a12 12 0 0 1 1 6l1 9 2 10 2 10a12 12 0 0 1 1 2 16 16 0 0 0 1 3 37 37 0 0 0 7 13h2a2 2 0 0 1 2 0c2 2 2 0 3-1 2-2 4-2 6-2a15 15 0 0 0 2 0c-1-2-3-2-3-4 0-1 0-3-3-3v-1l2-4c1-1 2 1 4 1a6 6 0 0 1 1 2c2 3 2 3-1 4a1 1 0 0 0-1 0l3 5h1l1-1a3 3 0 0 0 0-1c0-1-2-2-1-3a8 8 0 0 1 3-2h4l4-2 4 1c2 1 1 2 1 3a18 18 0 0 1 0 2l2-2 1-11 1-8c2-4 2-9 3-13s-1-8-2-13-3-11-2-16c0-4 2-7 5-9l5-3c5-2 5-3 4-8 0-3-1-6 2-8 4-5 4-6-1-10a19 19 0 0 1-6-9c-2-4-1-7 3-9l4-2Zm-15 300a11 11 0 0 0-1 0c-9-1-11-2-13-10a13 13 0 0 0-2-4c-1-1-2-2-4 0l-3 1c-1-2-2-1-4-1l-7-1c-5-3-10 0-15 0l-15 3a110 110 0 0 0-13 0l-13-1a4 4 0 0 1-2 0l-11-4c-9-3-15-8-19-16l-2-4c-3-4-6-5-10-2a18 18 0 0 1-2 1 32 32 0 0 1-15 4c-7 0-7 0-11 2a9 9 0 0 0-5 6 22 22 0 0 0 0 9 55 55 0 0 0 5 14c4 7 5 15 6 23a44 44 0 0 0 1 7h1c3-2 7-2 9 2h1l1-1v-8h-4l-3-4 6-5c2-1 5 2 5 4l-1 4 1 5v4c-2 5-2 10-5 15v1a3 3 0 0 0 1-1l6-4c8-5 10-11 9-19l-2-11-1-11a7 7 0 0 1 2-3c3-4 7-7 12-6h1l4 1a64 64 0 0 1 8 8l6 6a19 19 0 0 0 9-1l9-1 7 4 10 14c4 3 7 4 11 3 6-2 11-1 15 4l7 7c2 2 5 3 7 3l6-3c3-2 6-4 9-4h5c2 1 4 3 4 7a6 6 0 0 0 1 4 20 20 0 0 0 5 4 5 5 0 0 1 3 4 8 8 0 0 1-1 6 4 4 0 0 0-1 3 4 4 0 0 0 2 2l2-1c1-3 3-6 2-10a37 37 0 0 0-5-11l-5-10c-1-2-2-3-4-3-4 0-4 0-2-4a6 6 0 0 1 2-2c2-1 2-4 2-6a7 7 0 0 0-1-4 7 7 0 0 1-1-4 34 34 0 0 0 0-5Zm-549-82 7 8 2 3 1 3 3 3 1 3 2 3 2 3 1 3 2 2a50 50 0 0 0 7 9c5 6 11 11 17 15l26 18a74 74 0 0 1 14 14 324 324 0 0 1 19 31 68 68 0 0 0 13 17c2-3 2-7 2-10v-3c0-4-1-8-3-11-2-6-5-11-4-18a29 29 0 0 0-1-11l-1-6c-3-5-3-11-6-16-1-5-5-8-6-12l-1 1c-3 4-4 4-7 1a13 13 0 0 1-2-4c-2-5-4-9-8-12l-4-2a3 3 0 0 1-3-1 48 48 0 0 1-5-8c-4-6-9-13-15-18-1 1 1 3-1 4-1 1 1 3-1 3a10 10 0 0 1-3 0l-2-1c-2-1-3-3-5-2l-3 1c-4 1-6 0-8-3a10 10 0 0 0-5-4l-5-3h-10c-3 3-5 2-8 0a9 9 0 0 0-2 0Zm612-114c0-5 0-5 3-8 4-5 7-10 9-16a38 38 0 0 1 4-8 21 21 0 0 1 8-7c4-3 9-6 15-5a22 22 0 0 0 4 0l1-1-1-1-4-2-8-1a8 8 0 0 1-8-4 20 20 0 0 0-4-5 11 11 0 0 0-4-2l-3 1c-2 1-2 2 0 3s3 3 2 5a7 7 0 0 1-3 2 24 24 0 0 0-9 5c-4 3-9 8-11 12l-7 15c-1 3-4 6-8 8l-5 1-5-2c0-2-1-5 1-7l3-7a11 11 0 0 0 1-6v-9a6 6 0 0 1 2-4l5-4c3-1 4-3 5-6s3-5 6-6l5-4c-5 0-8 2-11 3-2 0-4 1-4 4l-1 1-10 11c-2 2-4 4-4 7-3 2-2 5-3 8v10a76 76 0 0 1 2 10v17a7 7 0 0 1 0 2c-2 6-4 13-9 17a21 21 0 0 0-2 2v2a4 4 0 0 1 4 4l2 2c3 0 3 3 4 4-1 1-1 1 1 1a8 8 0 0 0 2-2l8-7a19 19 0 0 1 8-4 105 105 0 0 1 16-4c8-1 9-1 17 1 4 1 8 3 12 2l5-1a20 20 0 0 0 11-5 19 19 0 0 1 13-6c1 0 2-1 1-2-3-2-2-5-1-8l2-3c1-2 4-4 3-7-2 1-3 3-5 3l-7 2-9 1h-10a5 5 0 0 0-2 0c-3 3-8 3-11 6a9 9 0 0 1-4 2 41 41 0 0 0-10 4l-7 1 7-5c8-4 15-9 21-15a23 23 0 0 1 7-6 79 79 0 0 1 12-4 21 21 0 0 0 6-3l2-3 1-10-7 5a52 52 0 0 1-9 3c-5 1-9 2-12 6l-13 13c-2 3-6 5-10 4ZM820 345v8a31 31 0 0 0 2 12c2 4 3 8 0 13-2 2-3 6-4 9l-2 10 1 5v8a12 12 0 0 0 1 6c5 9 5 9 5 17a12 12 0 0 1-6 11l-9 5-2 1c-3 6-7 12-6 20a24 24 0 0 1 0 5 4 4 0 0 0 2 4l1 2 1-2 2-2c5-3 6-4 9-11l5-7c9-6 12-10 15-18l4-8a49 49 0 0 0 3-8l2-5a55 55 0 0 0 3-16l-1-4a68 68 0 0 0-2-8 58 58 0 0 1-2-11c0-4-2-8-5-11a17 17 0 0 1-4-8l-2-6-2-7c-1-4-4-6-8-5a14 14 0 0 0-3 2l-8 4c-6 2-13 4-20 4h-5l-10-2a60 60 0 0 1-10-5l-13-8a57 57 0 0 0-9-5l-9-4a26 26 0 0 1-8-5c-6-5-11-11-15-17l-3-4c2 7 3 9 6 13 5 5 11 9 15 16a5 5 0 0 0 2 2l6 4 3 4 4 4 3 1c1 4 5 5 6 8a57 57 0 0 1 12 18 2 2 0 0 0 2 1l10 2a4 4 0 0 0 3 0l8-1a9 9 0 0 1 6 2l8 5h2l3-4c5-6 7-12 7-20a15 15 0 0 1 0-3 12 12 0 0 1 1-4l5-7ZM18 823c5 3 9 5 13 10a76 76 0 0 1 7 9l8 11 8 3 8-2 7-1a2 2 0 0 1 2 2l1 4c0 4 1 7 5 8l4 2 13 8a4 4 0 0 0 3 0h7l2 2 1 6c0 2 1 2 3 1l3-1 4-2 4 2 5 4 6 3a140 140 0 0 1 14 1c5 1 10-1 14-1l8-2a39 39 0 0 0 13-6c3-2 6-3 7-7h-5c-6-3-12-4-19-5l-12-2-19-7a93 93 0 0 1-23-15 168 168 0 0 0-16-12c-10-7-20-11-33-11H50l-9 1c-3 2-5 0-8 1s-6-1-8-3c-2-1-4-2-7-1Zm1011 189a5 5 0 0 1 4 2l11 10a240 240 0 0 1 20 16 77 77 0 0 1 8 9 69 69 0 0 1 9 12l8 18a107 107 0 0 0 7 15 55 55 0 0 0 12 14 73 73 0 0 0 11 7c7 4 15 6 22 9 4 1 7 3 9 7l5 4h1v-1c-5-6-6-12-8-19l-1-12c0-4-3-10-7-11a36 36 0 0 0-10-3c-3 0-7-2-6-7a16 16 0 0 1 1-4c1-2 2-4 0-6a81 81 0 0 1-8-13c-3-5-4-6-8-8h-3c-3-2-3-3-2-6l1-4a3 3 0 0 0-3-3 14 14 0 0 0-3 0c-3 1-5-1-7-4a11 11 0 0 1-2-4 8 8 0 0 0-3-5l-8-6a77 77 0 0 1-12-5l-15-6c-8 0-16-1-23 4Zm-341-92-7 10c-3 2-5 3-9 3l-10-2a24 24 0 0 0-10 0l-10 4a6 6 0 0 0-3 3c-2 3-4 5-4 9l-4 7a7 7 0 0 1-4 5c-4 1-7 2-11 0l-7-1-11 2c-5 2-9 2-14 1a8 8 0 0 1-1-1v2l2 2a53 53 0 0 0 7 10l15 15c4 1 5 6 9 8l2 4a19 19 0 0 0 3 4c3 2 5 6 9 6 3 3 6 1 9 0s6-2 7-5c4-5 5-11 4-17a28 28 0 0 1-1-9l3-6c1-2 4-2 6-3a44 44 0 0 0 18-14 72 72 0 0 0 10-20 24 24 0 0 0 2-6v-11Zm471 220a13 13 0 0 0-2 0c-5 0-10-1-12-7a16 16 0 0 0-5-5l-5-1-12-4c-10-4-14-7-21-13a91 91 0 0 1-8-9 58 58 0 0 1-5-8l-10-22a87 87 0 0 0-18-26l-11-10-1-1-11-9-10-8c-2 1-2-2-4-1l1 3a10 10 0 0 1 1 3v9l1 6 2 4 1 5 2 2c2-1 3 2 3 3v18a85 85 0 0 0 7 8 4 4 0 0 0 4 2l3 3 2 5 3 8c1 1 1 2 3 2l4 2 13 14v1c3 4 6 10 11 12h4c2-1 4-2 6 0a33 33 0 0 1 5 5 4 4 0 0 0 3 2 12 12 0 0 0 5-1 12 12 0 0 1 3-1c4 0 6 1 9 3l7 6c1 0 2 1 3-1 2-3 6-4 9-2a39 39 0 0 1 7 3 14 14 0 0 0 9 3c2 0 3-1 4-3ZM190 871l-5-5a7 7 0 0 1-1-2 43 43 0 0 0-13-17l-2-1c-1 2-2 1-3 0l-5-10c-1-3-2-6-4-7-4-3-8-5-13-5-4 0-8-1-10-5a13 13 0 0 0-4-5l-4-1c-4 3-7 0-11-1-4-2-7-5-11-5h-1c-5-3-9-6-14-7-2-2-3-1-4 1l-2 2c-3 2-5 3-8 1l-4-2c-3-1-3-1-5 1s-3 4-6 5h-7a76 76 0 0 1-9-1c-2 0-2 0-3 2-1 3-3 5-6 6a18 18 0 0 1-7 0 14 14 0 0 0-14 3v2h2a15 15 0 0 1 15 0 11 11 0 0 0 4 2c4 1 8 0 12-1l9-2a36 36 0 0 1 6 0l6 1a34 34 0 0 1 6 1 85 85 0 0 1 15 5c8 3 14 9 21 14l8 8 5 3a73 73 0 0 0 16 9 135 135 0 0 0 22 6l11 3c6 1 12 3 18 2Zm461-296 4-6v-1c-2 0-2 0-2-2-1-2-2-4 1-6v-2a1 1 0 0 0-1 0 19 19 0 0 1-2 1c-2 0-3-1-2-2 2-3 0-4-2-6a7 7 0 0 1-2-5c0-1 0-2 2-2v-1c-1-1 0-2-2-1l-6 3-5 2c-1 0-2-2-2 0-1 3-3 4-5 3h-6a44 44 0 0 1-7 4 54 54 0 0 1-19 4h-12a14 14 0 0 1-2 0c-6-1-6-1-13 1l-6 2c-2 0-4 3-7 2l-8-3-5-2c-5 0-11-1-16 2h-1l-9-2-2-1-1 1c1 1 1 3 3 3s4 1 5 3l1 1c2-1 5-1 7-3a18 18 0 0 1 12-3l1 2c-1 1-1 2-3 2l-4 2c-4 1-8 3-11 6a5 5 0 0 0-1 2 36 36 0 0 0 0 6l1 1a14 14 0 0 0 2 1c3 1 6 3 8 6 2 2 5 3 8 1l11-4 8-4c2-2 2-2 4-1a21 21 0 0 1 3 2l10 4 12 1 5 1h6l6 1 10 2c5 1 10-1 15-2a18 18 0 0 1 7 0c5 1 7 1 8-4 1-3 0-6 4-8-4 0-7-1-8-4a5 5 0 0 1 0-3l3-3c3 2 5 4 5 9ZM542 776c-1-2-3-4-2-6a27 27 0 0 1 2-7l13-13c4-3 8-6 10-11l2-8 4-5 1-1a23 23 0 0 1 4-10 61 61 0 0 0 6-13l2-7a32 32 0 0 1 4-9l3-3c1-1-2-3-2-4 0-3-1-5-3-7l-4-3a13 13 0 0 1-3-10l-1-8a17 17 0 0 1-4-6 19 19 0 0 0-9-10 7 7 0 0 1-4-7 15 15 0 0 0-4-11c-2-3-2-5 2-7a7 7 0 0 1 3-1 2 2 0 0 0 3-2l-1-5-2-3c-1-3 0-4 2-5l7-2a4 4 0 0 1 4 1c2 2 4 2 7 3 2 1 5 3 8 1l5 1c3 0 5 3 7 5l5 8a2 2 0 0 0 2-1 12 12 0 0 0-2-7c-1-2-3-3-2-6l-2-3c-1-2-1-5-5-4-2-2-5-1-8-1l-7-1c-6 0-12-1-17-5l-4-2c-2 0-2 2-3 3a6 6 0 0 1-1 0l-15 7c-6 2-7 2-11-2a17 17 0 0 0-9-6v12a2 2 0 0 0 2 1 22 22 0 0 0 2-2c3-2 6-1 7 2a14 14 0 0 1 1 5c0 4 1 7 3 11l1 1c3 0 5 0 7-2 1-1 2 0 2 1v8l-1 6a21 21 0 0 0-1 7c0 3 1 5 4 5 2 0 3 1 3 2 0 2 2 3 3 4 3 2 5 4 4 7l-3 8-3 7a1 1 0 0 0 0 1c1 2 2 2 4 1l5-3c2-1 4 0 4 3l-2 13c-1 3-3 6-2 10l-1 2v3l1 6a24 24 0 0 1 1 8v1c2 4 0 8-1 12l-5 10a98 98 0 0 1-15 21 97 97 0 0 0-13 16c-3 5-3 11-1 16l2-4c2-5 4-6 8-6a34 34 0 0 0 3 0Zm42-434c9 8 17 18 27 25 5 4 9 8 15 11l23 14c6 4 12 7 17 13l8 8 3-9c0-4 1-9-2-13l-3-4v-3h2a7 7 0 0 1 2 1l4 2a4 4 0 0 0 2 0v-2c-3-5-6-9-12-11-3-2-7-4-9-8a25 25 0 0 0-11-13 93 93 0 0 1-11-7l-11-11a15 15 0 0 0-2-1c-5-3-10-6-17-7-3-2-7 0-10 0-4 1-6 4-8 7a15 15 0 0 1-7 8ZM381 945l-3-2a2 2 0 0 1-1-2c4-9 8-17 15-24a17 17 0 0 1 8-4 33 33 0 0 0 6-3c1 0 3 0 2-1a4 4 0 0 0-2-2l-4-1c-2-1-3-1-2-3a59 59 0 0 1 5-6c6-8 15-13 24-17 10-4 11-4 17-11l4-3c3-3 4-7 5-10 1-2-1-3-3-2l-8 4a9 9 0 0 1-3 1 146 146 0 0 1-17 7 188 188 0 0 1-19 5l-11 2c-1 2-3 1-4 1l-5 1-14 1-7 2a46 46 0 0 0-16 13 25 25 0 0 1 16 12 74 74 0 0 1 4 8c3 8 6 16 6 24a7 7 0 0 0 0 3c2 4 1 9 1 13-2 2-1 5-1 7l2-3c0-4 2-7 5-10Zm-20-208v4c2 1-1 2 0 2l1 4v5c2 2 1 4 2 6l1 6-1 3a8 8 0 0 0 2 2c3 4 5 9 9 12a12 12 0 0 1 2 2c4 6 8 11 14 15 5 3 10 6 17 6h3a4 4 0 0 1 4 3l3 6c1 3 1 6 4 8l-1 4 1 2c9 2 9 3 12 11v1a23 23 0 0 0 3 7c2 3 8 4 10 2a80 80 0 0 0 7-6c2-1 2-4 2-6s-2-1-3-2a133 133 0 0 1-13-16l-16-25c-5-7-9-14-15-19l-6-5c-5-5-11-8-17-12a116 116 0 0 1-16-12l-9-8Zm719 172 9 1 9 1a31 31 0 0 1 6 1l19 7 6 3a6 6 0 0 0 1 1v-1c-6-12-12-22-22-31a10 10 0 0 0-12-1c-4 3-7 3-9-2l-1-1c0-3-2-3-4-4l-4-1a25 25 0 0 0-7 2l-7 5a11 11 0 0 1-3 2l-2-2h-6a23 23 0 0 0-6 9 12 12 0 0 1-5 6h-3v-1c-1-2-2-3-4-1a135 135 0 0 0-11 15l-5 8-3 8-4 8c-2 4-7 7-11 8s-6 4-5 8a11 11 0 0 1 1 2l1 8c1 6 1 6-2 11a2 2 0 0 0 0 3c0 1 0 2 1 0a36 36 0 0 0 4-13 22 22 0 0 1 3-10c3-5 7-8 13-8l8 1c2 1 6-1 7-3l-1-5c-3-2-6-2-9-2a5 5 0 0 1-5-6 7 7 0 0 1 2-4 26 26 0 0 1 8-7l23-10c9-2 18-6 30-5Zm-226 25h-3a3 3 0 0 1-3-5 18 18 0 0 1 1-2 23 23 0 0 1 9-6l1-1a16 16 0 0 0-1-1 9 9 0 0 0-9 0 38 38 0 0 0-11 10l-10 11c-4 3-8 5-13 5-4 0-7-1-10-4h-2a7 7 0 0 1 1 1c1 5 3 10 2 15v6a17 17 0 0 0 3 11c2 2 4 5 3 8-2 5-2 9-5 14l-7 8c5 1 12-2 18-4l11-7c7-5 11-12 14-19l2-11 2-12c1-6 2-12 7-17ZM512 59c-2 2-1 5 0 7 1 6 4 12 9 16 2 1 2 3 2 5a4 4 0 0 1-2 3 4 4 0 0 0-1 5 13 13 0 0 1 0 10 5 5 0 0 0 0 3l9 14 5 7 7 7 8 4 4 2a1 1 0 0 1 0 1l-3 3c-2 1-4-1-5 1l3 4a18 18 0 0 0 4 3 131 131 0 0 0 13 7c4 2 7 6 10 9s4 7 6 11l2 2v-11l1-2 2 2c1 5 4 9 8 13a47 47 0 0 0 14 9h1v-2c-6-7-8-15-12-23a80 80 0 0 0-10-17 47 47 0 0 0-17-14 44 44 0 0 1-13-9c-5-5-10-9-14-15-4-7-9-13-12-20a48 48 0 0 0-10-15 21 21 0 0 1-3-4c-3-5-4-11-6-16Zm34 42c-3-4-7-7-9-12l-7-8h-1v1l6 12a83 83 0 0 0 10 16l5 6c3 5 8 9 12 13l17 10c5 3 9 7 13 12l6 11c4 8 7 17 12 25a61 61 0 0 0 9 13l8 7c1 1 2 3 1 4v4a27 27 0 0 0 5 4 11 11 0 0 0 3 2h2a8 8 0 0 0-1-1l-2-3-2-3-3-4a70 70 0 0 1-4-8l-2-8-2-13c0-1 0-3-2-3s-2-1-2-3a54 54 0 0 1-2-12c0-3-1-6-3-8-1-1-2-2-3-1-1 0-2 1-2-1l-2-4-1-5-1-6c-1-3-4-6-6-7h-1c-2 2-3 1-5 0l-3-4c-4-6-9-11-16-14h-3a3 3 0 0 1-2 2c-4 0-7-2-9-5l-5-8a26 26 0 0 0-4-4l-3 3a3 3 0 0 1-1 0ZM335 220a52 52 0 0 1 2-6 88 88 0 0 1 6-10 32 32 0 0 1 13-11 81 81 0 0 1 11-4l16-4 13-2c6-3 13-3 19-5l13-5 8-8c4-4 9-6 15-6 7 0 14-1 21 1l10 1 15 1c1 0 3-1 5 1 2-1 4 1 7 1l11 2a30 30 0 0 1 14 9l4 4-2-6a47 47 0 0 0-21-14 91 91 0 0 0-12-3l-9-1-8-1a25 25 0 0 0-9-1l-5 1-11 1-6 1c-3 2-6 0-9 1-3 2-6 1-9 1h-4c-3 2-7 0-10 2-5 0-9 3-14 2l-15 4-11 3-10 3a53 53 0 0 0-11 5l-13 8a42 42 0 0 0-9 11c-5 7-6 15-5 24Zm114 344a12 12 0 0 0 2 8 16 16 0 0 1 2 11v5c0 4-1 5-5 5l-2-1a11 11 0 0 0-3 0l-1 1 2 7 7 14c1 2 2 3 0 5v2a15 15 0 0 0 3 4l10 7c5 3 8 6 10 11 1 5 4 6 7 7a2 2 0 0 0 2 0 1 1 0 0 0 0-2l-2-3c1-4-1-7-1-10v-15c-2-2-1-5-1-7l-1-7-1-10c-2-2 0-5-2-6-2-10-7-18-10-26-3-6-5-12-6-19a19 19 0 0 0-2 2c-2 3-2 7-2 11 0 7 0 6-6 6Zm350 296 5-2 9-2c3-1 5-3 8-3l4-3a1 1 0 0 0 0-1h-1a9 9 0 0 0-3 1c-1 2-4 1-5 1l-2-2 1-1 15-8 17-9a45 45 0 0 1 10-6c5-1 8 0 10 6l1 8c0 3 0 3 3 1l3-1a8 8 0 0 1 6 0 10 10 0 0 1 7 5c2 5 5 10 5 17 0 3-1 6-3 8a23 23 0 0 0-4 3 3 3 0 0 0 0 2l2 1h5c2 0 3 1 4 3 2 3 4 6 4 9l1 2 1-1c0-4-1-7 1-10a2 2 0 0 0 0-1c-2-2-1-4-1-6l-1-11c-2-8-5-16-9-23a36 36 0 0 0-7-9l-3-1c-1-3-3-4-5-4a30 30 0 0 0-21-1c-8 2-14 5-21 9-11 5-22 11-34 14l-25 4c-3 0-6-1-9 1-4 0-8 1-12-1h-4c3 1 5 3 8 2l2 1h4c3-2 6-1 9-1h4c1-1 3-2 3 1 3 0 5 4 8 1h2l1 1a31 31 0 0 0-3 5 3 3 0 0 1-2 3c-2 0-4 1-5 3l-2 1a4 4 0 0 0-1 1l1 1c1 1 2 3 5 1h1a19 19 0 0 0 2 1c2 0-1 1 0 2l3 1a33 33 0 0 0 15 1c-4-3-4-3-1-6 3-4 7-6 12-7 4-1 8-4 14-5-6-1-11 1-15 3-4 1-9 3-13 2a21 21 0 0 1-4-1ZM558 750a23 23 0 0 0 4 0c2 0 4 1 5 3a7 7 0 0 1 1 3 14 14 0 0 0 4 8 18 18 0 0 1 5 10c0 5 2 8 7 10a64 64 0 0 1 7 3c7 4 10 10 13 16 3 9 6 16 10 21 3 5 8 7 14 7 4-1 8 0 11-4 2-2 4 0 6 0h17l-2-1c-3-1-6-3-10 0-1 1-3 0-4-2-1-4 1-8 4-9l3-1a10 10 0 0 1-3 0l-7-3c-8-4-14-10-21-15l-7-6-25-17a63 63 0 0 1-12-12 33 33 0 0 1-6-12 49 49 0 0 1-2-14v-3a3 3 0 0 0 1-3 13 13 0 0 0-2 3l-1 5c-1 3-2 6-5 8a66 66 0 0 0-5 5Zm126 156a17 17 0 0 1-2 0c-2 0-3-1-3-3 0-3 1-5 4-5l5-2 10-10a51 51 0 0 0 7-5 4 4 0 0 0 1-2 3 3 0 0 0-1-2h-1a3 3 0 0 0-1 1c-5 6-11 9-18 12a9 9 0 0 0-4 2l-14 18c-4 6-9 10-15 13-7 3-14 7-20 12a55 55 0 0 1-14 8 22 22 0 0 1-16 0l-7-4c-5-2-9-6-13-9h-2l-1 2c-3 3-1 6-3 9 2 3 1 7 3 11 1 3 2 5 5 6 5 2 9 3 14 1a23 23 0 0 1 11-2l13 1c3 0 5-1 7-4a73 73 0 0 0 4-10c1-3 4-8 7-10l7-3a22 22 0 0 1 10-3l12 2c4 2 7 1 11-2l4-7 4-10a56 56 0 0 1 3-7 26 26 0 0 0-6 6 18 18 0 0 0-4 10 4 4 0 0 1-4 4 26 26 0 0 1-5 0 3 3 0 0 1-2-2c-1-1 0-5 2-6a9 9 0 0 1 4 0 3 3 0 0 0 3-2l5-8Zm134-379h1a31 31 0 0 1 0-3l1-1a1 1 0 0 1 1 1l-1 4a2 2 0 0 0 1 1h2l1 1a2 2 0 0 1 0 1 3 3 0 0 1-2 1l-1 2a13 13 0 0 0 2 3c1 2 2 1 3 0a74 74 0 0 0 4-9c2-6 4-8 8-13 1-1 3-2 3-4a48 48 0 0 0 0-8l-1-5 3-11 7-10a8 8 0 0 1 5-2l4 2 2 3a1 1 0 0 0 2-1 10 10 0 0 0 2-2c1-3 2-4 5-4 4 1 5-1 7-4l2-6-1-1-14-4c-1-1-4 1-5-1l-2 1c-4 0-6 2-9 3l-8 2a34 34 0 0 0-8 8 99 99 0 0 0-11 23l-3 8-2 8v12l2 5Zm124 94h-4c-6 0-12 2-17 5a3 3 0 0 0-1 3 5 5 0 0 1-1 4v3c1 4 1 5-3 6a6 6 0 0 0-2 1 2 2 0 0 0-1 1 1 1 0 0 0 1 1l4-1 15-2h2l3 1 8 2 14 2h5l11-2 15-6a18 18 0 0 0 12-17c0-3-1-6 1-9l-1-1-6 2a24 24 0 0 0-10 6 20 20 0 0 1-5 4c-4 1-7 4-11 3a40 40 0 0 1-5-1 46 46 0 0 1-4-1l-4-2c-6-1-11-3-16-2ZM435 52l1 13a84 84 0 0 0 3 16l7 14a50 50 0 0 0 18 13l15 7c7 3 14 6 19 11h1v-1a10 10 0 0 0-1-1c-5-6-11-9-16-13-6-4-10-9-11-17a52 52 0 0 0-1-7 101 101 0 0 0-12-24l-7-10-4-8c-1-2-2-3-4-3s-1-2-3-2c-3 0 2-2 0-2l-1-2-11-22a21 21 0 0 0-10-10 5 5 0 0 0-2 0l1 2a23 23 0 0 1 9 10 115 115 0 0 1 7 14l2 12v8Zm260 1130 1-10a54 54 0 0 1 4-16l7-9c3-6 9-10 14-14l14-9c4-2 7-5 7-9 0-7 1-15-2-22-2-4-4-9-9-11-2-2-5-2-6-4a2 2 0 0 0-1 0 6 6 0 0 0-1 2c-3 9-7 18-12 26a14 14 0 0 0-3 8 49 49 0 0 1-1 13 43 43 0 0 1-4 10l-6 9a57 57 0 0 0-4 12l-1 6c-2 3 0 6-1 9s2 5 3 8l1 1Zm283-783h9l10 1 7 1c2 1 4-1 6 1 11 2 16 6 21 12 5 5 7 11 8 17l2 11 5 19a65 65 0 0 1 1 10v10a9 9 0 0 1 0 3l-3 14-4 13a19 19 0 0 0-1 5l1 1 5-6a55 55 0 0 1 4-8l5-8c1-3 2-5 0-7-1-2-1-5 1-5 3-1 2-3 2-5a18 18 0 0 0-1-2 11 11 0 0 1-1-3l-2-12 1-5 2 1a10 10 0 0 0 0-2 31 31 0 0 0-2-9l-3-11c-1-2-1-3 1-5l1-2-5-6c-2-2-2-2-2-5a4 4 0 0 0 0-2c-2-4-3-9-6-12-6-7-13-10-21-12-3-1-17 0-20 1l-11 3-10 4Zm-277-96v-1l-12-26c-4-9-4-9-11-15-1-2-3-4-5-4a2 2 0 0 1-1-1c0-5-5-6-8-8l-5-2a26 26 0 0 0-14-4h-12l-12-1-1-1h-4c-1 0-3-2-4-1 3 4 4 5 9 6a19 19 0 0 1 11 7 43 43 0 0 0 5 5l16 13c4 5 10 7 15 11l11 5a180 180 0 0 1 22 17Zm175 26 15 7a13 13 0 0 0 6 1l6-1a22 22 0 0 0 10-2c5-2 10-3 14-6a53 53 0 0 0 10-10l10-14a34 34 0 0 1 8-8 18 18 0 0 1 11-3h7l7-2c3 1 2-3 4-4-2-2-1-5-3-7a45 45 0 0 0-11-10 9 9 0 0 0-5-1 6 6 0 0 0-5 3l-4 8-9 13-16 15a87 87 0 0 1-24 13 209 209 0 0 1-31 8Zm-78 780v7a56 56 0 0 0 1 7l1 1a6 6 0 0 0 1-1l2-6c1-5 5-8 9-10 5-3 8-9 9-15 1-7 0-13-3-21-1-4 0-6 4-6h1l4-2v-10a91 91 0 0 0-5-14 40 40 0 0 0-18-20l-1-1v2c2 4 1 10 3 14v8l1 9v11l-2 12-3 10-1 6-2 8a16 16 0 0 0-1 6v5Zm63-351c-3-1-4-4-6-5a21 21 0 0 0-6-4c-6-3-12-4-19-5-4 0-8 1-12-1-5 1-9-1-14-2l-10-3-23-7a44 44 0 0 0-5-1l-7 1 3 2 5 8a22 22 0 0 0 10 10 65 65 0 0 0 15 7 151 151 0 0 0 17 3c7 1 13-1 20-1l1-1 11-2c6 0 12-1 18 1a6 6 0 0 0 2 0Zm231 48-10-1c-3-1-7-1-10-3s-6-4-9-4c-2-2-5-1-7-1l-3 1a12 12 0 0 0-6 1 79 79 0 0 1-11 3 25 25 0 0 0-10 5c-5 4-9 9-12 14l-5 10c-2 3-4 7-8 9a18 18 0 0 0-3 2 6 6 0 0 0-1 0l1 1 8-2a79 79 0 0 0 20-9c6-4 12-10 19-13a59 59 0 0 1 8-4l10-2a95 95 0 0 1 9-2 129 129 0 0 0 20-5ZM970 625h6a33 33 0 0 0 8-5 34 34 0 0 1 14-8c5-1 7-3 9-7l1-4v-1l-1 1a13 13 0 0 1-3 1c-3 0-6 1-8-2-2-1-3-2-3 1-4 2-7 5-12 5h-17c-4-2-7-3-11-3l-5 1-12 3c-5 1-10 3-14 6l-8 7c-2 2-1 4-1 6h1l1-1c3 2 4 0 6-1l3-2 18-3h2c1 2 2 1 3 1l7 1 6 2c4 0 7 3 10 2Zm-312 597h1l7-9c4-4 6-9 8-14l2-9c0-3 2-5 4-6a16 16 0 0 1 9-2l1-2c-2-2-2-5-2-8a63 63 0 0 1 2-15c1-4 2-8 5-11l6-9c4-7 5-14 4-22l-3 3-12 17a141 141 0 0 0-15 23l-6 15-5 16-3 13c-1 4-2 8-1 12l-1 2-1 6Zm79-970 2-1c0-6 0-11 2-17v-6a7 7 0 0 0-6-3l-1 1c0 5 0 9 2 13l1 3a2 2 0 0 1-1 1 2 2 0 0 1-2-1l-2-10c0-4 1-8-2-12-1-1 0-2 2-2l2-2-1-1c-2-2-5-3-7 0l-6 6c-3 1-4 4-6 6-3 4-1 8 3 11 3 2 6 2 9 2a1 1 0 0 1 1 1 1 1 0 0 1-1 1l-3 1-7-3-8-5-9-10a26 26 0 0 0-8-7c-2 0-4 1-5-1a4 4 0 0 0 0 1c-2 2-3 4-1 6v2l1 6c2 4 4 8 8 11a64 64 0 0 0 9 4 49 49 0 0 0 16 4h9l9 1Zm53 569 5-4 2-2-2-3a3 3 0 0 1 0-2 6 6 0 0 1 6-4c2 0 5 1 5 3 0 1-1 5-3 5l-4 2a72 72 0 0 1-14 12l-4 2v2a3 3 0 0 0 1 0l6-3c3-3 8-4 12-6 7-3 14-3 21-5a51 51 0 0 0 16-5c3-2 6-4 7-8s1-6-3-7a17 17 0 0 0-3 0h-11a7 7 0 0 1-6-2l-4-5c-1-1-1-3-3-3a25 25 0 0 0-4 2h-2c-7 2-13 6-18 13l-7 11a17 17 0 0 0-1 3 22 22 0 0 1 3-1 9 9 0 0 1 2 0c2 0 3 1 3 3v2Zm-28-23-1-7a8 8 0 0 1 0-4l2-2c2-2 5-1 8-1l1 2a7 7 0 0 1-4 7c-2 1-4 2-3 5l-1 2a2 2 0 0 0 1 1c1 0 2 0 2-2 0-3 1-4 4-5l5-1 1 2a46 46 0 0 1-2 4c-1 2-1 2 1 3s3 2 3 4-3 3-5 3h-1a2 2 0 0 0-1 1l-6 8h2c3 0 4 0 5 4h1c3-1 4-4 6-6l10-16c5-6 11-10 19-12l5-1-3-5a10 10 0 0 0-3-3l-4-2-9 2a13 13 0 0 1-11-1c-4-2-5-6-8-9 0-2-3-2-4-4-3-2-9-1-11 1-2 3-4 7-4 11l1 8 4 13Zm182 67a3 3 0 0 1 1 0l10-7a92 92 0 0 1 22-10c3-1 7-2 9-5l8-14c3-9 9-17 15-24l5-5a10 10 0 0 0 1 0l-1-1a8 8 0 0 0-2 1l-8 5c-1 2-3 3-5 1h-2c-2 2-5 2-7 3l-10 6c-3 2-6 3-8 6l-5 6a82 82 0 0 0-9 16 52 52 0 0 1-12 18 27 27 0 0 0-2 3v1h1Zm-46-263 1-3 1-3h4l1 1c1 0 2 1 2-1 3-5 3-10 4-15a29 29 0 0 0-1-10l-1-15v-7c0-7 3-13 8-18l8-8v-2l-1 1a49 49 0 0 0-5 2c-4 1-7 3-10 6-2 0-3 2-3 3l-8 16c-4 8-9 16-9 26-2 1 0 4-1 5l-1 6-1 4c-1 2 0 3 1 4a2 2 0 0 1 2 3l1 1h3c3 0 3 0 4 4Zm132 456a25 25 0 0 1 0-3c0-1 0-2-2-2l-2-2-2-5-2-13a57 57 0 0 0-1-10 6 6 0 0 0-2-3c-3-3-6-7-10-9s-8-5-11-8l-9-11-1-2-3 3v2c0 2 0 5-2 6-1 1 0 3 2 4l5 4c2 1 2 1 2 3s0 2 3 3a20 20 0 0 1 10 6c1 2 2 4 0 6l-4 2-2 2c2 3 1 6 5 8a6 6 0 0 1 3 6l1 7a23 23 0 0 1 1 5c0 3 2 4 4 5 3 0 7 1 9-2l5-2a20 20 0 0 0 3 0ZM212 859a12 12 0 0 1-6-1c-3-1-4-3-2-6a11 11 0 0 1 1-3v-3a13 13 0 0 0-8-5l-4-3-8-11a5 5 0 0 0-4-2c-4 0-6 2-8 5-1 2-2 5-5 5l-1 2c0 1 1 2 3 2a2 2 0 0 1 2 0c5 6 11 11 15 18a24 24 0 0 0 3 5l4 4a45 45 0 0 0 15 3 33 33 0 0 1 8 2l16 6 2 1 1-3a17 17 0 0 0-2-4 4 4 0 0 1-1-5c1-2 0-3-2-3h-3c-3 0-6 0-7-4a2 2 0 0 0-3-1l-6 1Zm837-447c0 3 0 6 3 8a18 18 0 0 1 4 6c1 2 2 4 0 6a3 3 0 0 0 1 3l2 4c4 4 6 8 6 14v5c2 3 0 5 2 7 0 4 1 7 4 11l2 5c0 2 0 4-2 5s-2 3-3 5l1 3 1 6a13 13 0 0 0 1 6c2 3 2 8 7 8l2 2a13 13 0 0 1 0 3 2 2 0 0 0 1 1 27 27 0 0 0 3 1 4 4 0 0 0 0-1 49 49 0 0 1-1-6c-1-12 1-24-1-36l-1-8a92 92 0 0 0-3-13l-11-26a27 27 0 0 0-4-6l-14-13Zm-417 601a47 47 0 0 0 12 5l9 1a7 7 0 0 0 6-3 21 21 0 0 0 3-11 64 64 0 0 1 1-7 20 20 0 0 1 2-7 5 5 0 0 0 0-2c0-6 3-11 6-15l13-10c6-4 9-9 9-16l-1-8v-10l2-13 2-5c-5 3-6 7-6 12l-1 12a87 87 0 0 1-5 12l-3 6a31 31 0 0 1-4 5 42 42 0 0 1-8 8l-13 7c-2 1-3 3-4 6v19c0 5-4 9-7 11a22 22 0 0 1-13 3Zm119-523c0 2 0 2 2 2l6-1 12 3a23 23 0 0 1 6 3l5 4a2 2 0 0 0 1 0l1-1v-11a8 8 0 0 1 1-5c2-2 1-4 0-6l-7-15c-2-3-3-7-6-10l-1-2-3 2a5 5 0 0 0 0 1c-4 5-8 11-14 13-2 1-2 2-2 3 0 7 1 13-1 20Zm-77 258-5-13-3-18a32 32 0 0 1 1-12v-12a5 5 0 0 0-3-4 59 59 0 0 1-5-3 15 15 0 0 1-6-12 8 8 0 0 0 0-2c-2-4-5-9-9-12-3-2-6-5-11-3-2 1-5 3-5 6a9 9 0 0 1-1 3l-1 2a15 15 0 0 1 3 1 9 9 0 0 1 2 2c2 2 4 5 7 6 4 2 6 5 8 9l8 18a116 116 0 0 1 6 15c2 5 5 9 5 14 3 5 3 12 9 15Zm29-606-13 11a4 4 0 0 0-2 4c1 3-1 5-3 8l-5 4-1 1c0 4-2 5-4 7a4 4 0 0 0-1 1l-7 14-1 4c-1 3 1 6 2 8s2 4 0 5a3 3 0 0 0-1 5l1 3v3c2 3 2 6 2 10l1 3 2 4 1-13 1-6 2-4c1-1 0-5 4-3l1-3 4-9c0-2 0-2-2-2l-1-1c0-3 0-5 2-7a25 25 0 0 0 3-4v-7a35 35 0 0 1 4-4 39 39 0 0 0 4-8l1-6c-2-3-1-6 1-9a27 27 0 0 1 4-5l1-4Zm64 142a22 22 0 0 1-1-2c-4-8-10-15-17-22l-11-5-9-1c-3 0-5-2-8-1a31 31 0 0 1-7 0 24 24 0 0 1-7-1l-10-4a61 61 0 0 0-5-4h-1v1a22 22 0 0 1 3 3c4 6 9 11 15 15a47 47 0 0 0 12 7l23 6 16 5 5 4h1l1-1Zm38 240c0-1-2-3-4-3a7 7 0 0 0-7 4c-2 3-3 6-7 7l-1 1c-2 4-5 7-5 11l-1 2-5 6a3 3 0 0 0-1 2l-1 7a9 9 0 0 1-2 5 34 34 0 0 1-7 10 66 66 0 0 0-6 4 51 51 0 0 0-6 8 57 57 0 0 0-5 9 3 3 0 0 0 1 2l5 8 1 1 2-1a4 4 0 0 0-1-3 12 12 0 0 1 1-13l7-10a1 1 0 0 1 0-1l9-4c4-2 9-4 12-8a8 8 0 0 0 2-4c0-3-3-5-2-7a3 3 0 0 1 0-5 6 6 0 0 1 5-3 25 25 0 0 0 5-1c6-1 8-3 8-9 0-5 0-10 3-14a5 5 0 0 0 0-1Zm-77 353v-6l6-4a9 9 0 0 0 6-7c0-2 1-3-2-3l-4-2c-1-1-2-2-1-4v-2c-2-3-2-3 1-5a3 3 0 0 0 1-3 4 4 0 0 0 0-1 2 2 0 0 0-1 1c-2 2-5 1-8 1v-1c-1-2-2-3-4-1h-2c-2 0-5-1-4 3a11 11 0 0 0-6 4h-1l-3 3-1 1a54 54 0 0 0-4 4l1 2c4 1 5 3 3 6l-1 2a5 5 0 0 0 0 3h2c3 0 4 2 4 5a16 16 0 0 0-1 2 4 4 0 0 0 0 1h11c0-2 3-2 4-2l2 1a13 13 0 0 1 2 2Zm-65 263h7a20 20 0 0 0 8-2c10-3 11-4 16-12 2-3 5-5 6-9v-1h-1c-4 4-9 4-14 5s-10-1-15-1a28 28 0 0 0-7 0c-3 0-6 3-8 0l-1 1c-6 1-11 4-12 11-3 2 1 5 0 8 2 1 3-1 5-1a5 5 0 0 0 1 0l7 1h8Zm300-623v-1h-8l-3 1a3 3 0 0 1-2 0c-3-2-6 0-9 1v1a13 13 0 0 0-8 7 14 14 0 0 1-6 7l-1 1c-4 2-5 5-4 10l-1 9-4 10c-2 2 0 5 3 5 1 0 3 1 3-2a3 3 0 0 1 2 0h1a27 27 0 0 0 7-9c2-5 4-11 8-15l7-9c2-3 6-4 10-5a5 5 0 0 0 3-3l-2-2h-1c-2-2-2-4 1-5a30 30 0 0 1 4-1Zm-73 44h1a11 11 0 0 1 0-3l6-13c4-7 8-14 10-21a77 77 0 0 1 3-7c1-3 0-6 2-8 0-5 1-10-1-15-1-5-2-9-5-13l-3-3c0-1 1-3-1-1l-3-1-4 4a8 8 0 0 0 1 6c1 3 4 6 7 8 3 3 4 7 1 10l-2 2c-2 1-2 2-1 4l1 5c-1 3-3 6-7 7-7 2-9 5-9 13l2 7c1 5 3 10 2 15a37 37 0 0 0 0 4Zm-397-21 2 5 4 7 5 2h7a16 16 0 0 1 9 2 10 10 0 0 0 9 1c4-2 7-2 11-2a14 14 0 0 1 5 0 53 53 0 0 1 9 4c4 2 7 0 11-1l-1-1-5-1-7-1-7-4c-8-3-12-6-18-11a25 25 0 0 0-2-3c-3-2-5-3-9-3l-6 2c-2 1-3 2-5 0-1-2-2-2-4-2h-5c-2 1-3 2-3 6ZM154 906h11l8-1c3-1 7-3 9-6l8-11c2-3 5-6 9-7h11a11 11 0 0 0 3 0c-1-2-2-1-3-1l-7-2-7-1c-3 0-6 0-6 4-5 6-12 10-19 13a44 44 0 0 1-11 3c-4 0-9 2-13 1a57 57 0 0 0-8 0c-5 0-9-1-14-3l-4-2c-2 0-2 3-3 4a12 12 0 0 0-1 2l-1 9c0 2 1 3 2 2l12-3c6 0 12-2 17-1a63 63 0 0 0 7 0Zm857 94 13 10 3-1a28 28 0 0 1 16-5 47 47 0 0 1 12 1l8 2a74 74 0 0 1 18 7c6 3 8 5 13 12 1 0 2 2 3 1 2-1 4-1 5-3l7-9a1 1 0 0 0-1-1l-5-1a42 42 0 0 1-6-1l-18-7a18 18 0 0 1-3-2 105 105 0 0 0-15-8 20 20 0 0 0-8-2 23 23 0 0 0-12 3l-10 5a10 10 0 0 1-6 2c-3 0-5 1-8-1-2 1-3-2-6-2Zm-84-120c6-6 12-10 16-17l7-10 7-13c3-6 6-12 11-18 1 0 2-1 1-3-1-1 0-2-2-3a5 5 0 0 0-5 1l-11 7c-5 4-8 8-10 13a27 27 0 0 1-2 5c-3 5-4 11-6 17l-6 21Zm186 41-2-2-9-2a99 99 0 0 0-13-3c-4 0-8-2-13-1a32 32 0 0 1-6 0l-14 2a156 156 0 0 0-26 11c-3 1-5 4-7 6-2 1-1 2-1 3a2 2 0 0 0 3 2c3-1 6 1 9 1a3 3 0 0 1 2 1h2a75 75 0 0 1 10-8c9-6 19-8 29-10l15-1h7c5 0 9-1 13 1h1Zm-958 75 8-1a118 118 0 0 0 11-3l14-5a47 47 0 0 0 11-6l14-11 4-6 8-8a75 75 0 0 0 5-9l-1-5a4 4 0 0 0-4 0 29 29 0 0 0-5 2h-5l-2 1c-1 5-4 10-7 14-4 7-9 12-15 16l-15 11-16 7-5 3Zm540 97 7-1c5 0 9-2 13-4 3-1 4-4 5-7 0-2-1-3-2-2a16 16 0 0 1-10 2 2 2 0 0 0-1 0 5 5 0 0 1-5 1l-8-1c-3 0-6-2-9-1-2-2-5 0-7-2-2 1-4-1-7-1h-7a17 17 0 0 0-2 1c-4 0-7 3-10 6 0 1-2 3 0 5v4a6 6 0 0 1-1 1 6 6 0 0 0 2 0l12-4c3-1 15 0 18 1l6 1a15 15 0 0 0 6 1Zm295-558a20 20 0 0 0-6 1c-8 2-13 6-18 12a22 22 0 0 0-4 7 37 37 0 0 1-7 14 43 43 0 0 0-4 5 2 2 0 0 0 0 1 3 3 0 0 0 2 1 7 7 0 0 0 3-1l8-8a34 34 0 0 1 7-8c2-2 4-4 7-4l4-1a25 25 0 0 0 4-1l8-3 5-5v-1c-1-1 1-3-1-4-1-4-4-6-8-5ZM453 161c-4-1-7 1-10 2a42 42 0 0 0-12 12l-14 20a35 35 0 0 1-12 10 39 39 0 0 1-13 5c9 1 14 0 21-2a33 33 0 0 0 10-5l10-8c3-3 4-7 6-10a68 68 0 0 1 4-9l10-15Zm68 573c-2 3-2 6-5 9l-8 11c-5 4-7 11-7 17a21 21 0 0 0 4 11 16 16 0 0 0 8 7c3 1 5-1 7-2s2-1 1-4c-2-6-3-13-3-19l2-17c2-4 0-9 1-13Zm160-99c2 0 4 1 6-1l2-1-1-3a22 22 0 0 0-2-2 79 79 0 0 0-7-8c-2-2-12-5-15-6a22 22 0 0 1-14-8c-6-9-7-8-15-11-1 0-2 0-2 2a3 3 0 0 0 1 3l5 3 2 2c-1 2 1 3 2 5a3 3 0 0 1 1 1c0 3 1 3 3 3l5 1a5 5 0 0 1 3 1v3l1 1a20 20 0 0 1 9 8 3 3 0 0 0 1 1c2 1 5 2 7 5a1 1 0 0 0 1 0l7 1Zm181 296c2 1 4-1 6-1h8a21 21 0 0 0 8-7c2-4 5-7 9-9l8-8a24 24 0 0 0 4-7c3-8 3-15 4-23 0-5 2-10 3-14 1-6 3-11 2-17 0-3-2-5-6-4a12 12 0 0 0-3 1 2 2 0 0 1-2 0 33 33 0 0 0-4-1l-2-1a12 12 0 0 0 1 2l2 5c3 8 4 16 5 24a46 46 0 0 1 0 8 28 28 0 0 1-1 8l-1 7a34 34 0 0 1-6 12 58 58 0 0 1-22 17c-5 2-9 4-13 8ZM476 80a57 57 0 0 1-3-7c-1-5-4-8-7-11a61 61 0 0 0-5-4 5 5 0 0 0-2-1v2a97 97 0 0 1 11 18 41 41 0 0 1 3 9l1 8a11 11 0 0 0 2 5c3 3 5 7 9 9 12 8 12 8 20 17l1 2a7 7 0 0 0 0-3 27 27 0 0 0-10-13l-1-2V98c0-2-1-3-3-3l-5-2a19 19 0 0 1-2-4l-5-11-1-1Zm612 443a71 71 0 0 1 2-6c2-4 3-9 3-13 0-2 0-4-2-5a14 14 0 0 1-3-4 2 2 0 0 1 0-2c3-6 4-12 4-19v-4l-2-8c-1-6-5-11-8-17-2-3-4-6-4-10a13 13 0 0 0-4-8l-10-9h-2a4 4 0 0 0 1 1c3 3 6 7 8 12a153 153 0 0 1 10 22 89 89 0 0 1 4 18 99 99 0 0 1 0 17l1 17v9a20 20 0 0 0 2 9Zm-89-21 7-5 6-6a14 14 0 0 0 2-3 86 86 0 0 0 6-12 70 70 0 0 0 4-15c1-5-2-9-5-13a25 25 0 0 1-6-10 22 22 0 0 0-2-4l-1-1v1l1 3 2 12 2 5a28 28 0 0 1-5 20l-5 5c-3 7-7 14-6 23Zm-310 14c1-1 4 2 4-2l1-1h5a2 2 0 0 0-1-3 3 3 0 0 1-1-3v-5a3 3 0 0 1 1-3l3-2-3-3c-3-4-6-8-11-9h-3l-6 4a3 3 0 0 0-1 3c2 1 0 3 0 4 0 2-2 2-3 3l-1 1a2 2 0 0 0 2 3 10 10 0 0 0 3 0l1 2a4 4 0 0 1-1 1c-1 2-1 2 1 3a3 3 0 0 1 2 2 2 2 0 0 0 1 1h3c1 1 3 1 1 3v1Zm-67 149c1-3-1-4-2-6-5-8-12-15-21-18l-7-2h-13a16 16 0 0 1-4-1l2 4c0 2 2 3 3 5a13 13 0 0 0 5 7 17 17 0 0 0 8 2h9a10 10 0 0 1 3 0 50 50 0 0 1 12 6l5 3Zm422 132c-4-1-7-2-11 0-3 2-7 2-11 2a7 7 0 0 0-5 2l-11 10-6 10-4 10c-1 4-4 6-6 9 0 1-2 1-1 3l3-1a66 66 0 0 0 7-3 16 16 0 0 0 4-4 65 65 0 0 0 7-10 81 81 0 0 1 15-20c4-4 9-6 14-7l5-1Zm-318 244h-1a30 30 0 0 0-2 2c-3 6-9 10-15 13s-11 5-17 5h-10a33 33 0 0 0-8 2c-4 1-4 2-8 6v1h1c2-2 4-2 6-2l7-1 7 1c7 0 13 1 20-1a40 40 0 0 0 9-3l8-5a3 3 0 0 0 1-2l1-10 1-2v-4Zm89-517v-15a27 27 0 0 1 1-9l6-14c3-5 5-12 10-16l1-3a11 11 0 0 0-3 1l-4 3a15 15 0 0 1-4 5 60 60 0 0 0-12 17c-2 3-3 7-8 7a3 3 0 0 0-2 1 22 22 0 0 0-2 4c-1 2 0 5 1 6 6 3 11 7 16 13ZM305 684l7 10a88 88 0 0 0 15 9c7 3 12 10 17 16l7 13c2 4 2 4 6 7a51 51 0 0 0-1-5l-4-12-7-10-11-16c-5-5-11-8-17-10l-12-2Zm341 33-4-5-8-17c-1-3-2-5-5-7-5-2-9-4-12-8a2 2 0 0 0-2-1c-3 2-7 1-10 1a17 17 0 0 0-3 1h-1a10 10 0 0 0 1 1 20 20 0 0 0 4 2c5 2 9 6 12 10 4 5 6 10 11 14a59 59 0 0 0 6 6l7 2c1 0 2 2 4 1Zm116-185 1-9c2-1 1-3 1-4a8 8 0 0 0-1-3c-3-5-6-10-7-16-2-1 0-3-1-4h-2c-3 2-3 5-5 8 2 3 1 7 1 10a10 10 0 0 1-2 8c-1 2-2 5-5 5l-3 3c-1 1 1 5 2 5 2-2 4-1 6-1a22 22 0 0 1 9-2h6ZM588 832a21 21 0 0 0-2-1l-13-5-14-6a29 29 0 0 1-11-8c-4-4-9-6-13-8l-2 1-3 11v10c0 2 0 2 2 2 6-2 12-4 18-4h8a22 22 0 0 1 12 3 101 101 0 0 0 9 4c2 1 5 3 9 1Zm132-288a32 32 0 0 0-4 0l-3 1c-5 0-8 2-11 4-1 1-3 1-3 3 1 2 3 1 4 1l2-1h9c4 1 9 3 14 3a7 7 0 0 1 2 0 24 24 0 0 0 12 0c3-1 4-3 5-4 2-1 1-2 1-3l2-9s2-1 1-2l-3 1a30 30 0 0 0-4 4c-3 2-5 3-8 3l-16-1Zm-37 101c-3 0-5 2-8 3a1 1 0 0 0 0 1l4 1c4 1 7 3 11 6a17 17 0 0 0 13 5h8c5 0 9 2 13 4a9 9 0 0 0 1 1v-2c-2-3-4-6-9-10a25 25 0 0 0-13-6l-4-1h-4c-2-2-4-1-6-1l-6-1Zm-83-451v1a37 37 0 0 1 2 4 54 54 0 0 0 5 11l9 10a25 25 0 0 0 5 3c4 3 9 3 14 4a60 60 0 0 1 16 5c6 3 12 5 16 10 2 0 3 2 5 3a1 1 0 0 0 1 0 1 1 0 0 0 0-1l-3-3-4-3a31 31 0 0 0-3-3l-4-3c-2 3-1-2-2-1l-12-4a77 77 0 0 1-10-3l-5-2c-4-3-7-6-9-11l-3-5c-4-5-10-7-16-11a11 11 0 0 0-2-1Zm354 394h3a70 70 0 0 0 9-4c8-6 13-7 23-5h1l6-1c4-1 8-2 11-6v-3a47 47 0 0 0-4-3l-4-3-3-1a9 9 0 0 1-3 2c-5 0-8 3-13 4a7 7 0 0 0-2 2l-10 9a41 41 0 0 1-14 9Zm18-202a7 7 0 0 0-2-6 8 8 0 0 1-2-4 9 9 0 0 0-3-5l-4-4c-2 0-1 3-3 4-2 3-3 6-1 9 1 4 0 8-3 10l-5 5a5 5 0 0 0-2 6 21 21 0 0 0 1 2 7 7 0 0 0 2-1 10 10 0 0 1 5-2l6-2c3 0 5-3 7-4a9 9 0 0 0 4-8ZM868 531l5-9a15 15 0 0 1 4-4c5-4 5-9 4-13a33 33 0 0 1-1-11c0-3 0-6 2-8l3-6c2-5 6-8 13-8l-10-6-3-1-2 4-1 1c-1 3-3 5-3 9 0 5-1 9-3 13l-5 19-1 6c-2 3 0 5-1 7l-1 7ZM473 182h3l7-1c6 0 12 1 18-1a72 72 0 0 0 11-3 64 64 0 0 1 14-4 12 12 0 0 0-6-4l-11-2c-4-2-8-1-11 0a19 19 0 0 0-7 3l-18 12Zm279 919 4-11c1-6-1-11-2-17l-7-13a24 24 0 0 0-3-5l-5-4-3-4a12 12 0 0 0-2-1c-4-2-4-2-4 2a5 5 0 0 1 0 2c-2 3-1 6 0 9a4 4 0 0 0 4 3 32 32 0 0 1 5 1 8 8 0 0 1 6 5 28 28 0 0 1 4 14v10l3 9Zm199-656a12 12 0 0 0 6-5c4-7 7-14 7-22 0-3 0-5 3-8a58 58 0 0 0-17 1l-2 2c-1 4-3 9 1 13a13 13 0 0 1 2 3 10 10 0 0 1 1 5l-3 3c-2 3-2 3 1 6l1 2Zm-277 710h-2c-5 4-11 4-17 6-2 1-5 2-5 6a13 13 0 0 1-3 7 22 22 0 0 0-5 6c-1 3-3 6-1 9h2a8 8 0 0 0 1-1 19 19 0 0 1 7-7l6-3c6-4 11-8 13-15 1-2 2-5 4-6v-2ZM459 854l3-5a48 48 0 0 1 13-19 96 96 0 0 1 14-11l10-7 15-9 10-5a16 16 0 0 0 3-3l-8 1a5 5 0 0 0-2 0l-16 10-19 13-15 11a12 12 0 0 1-2 2l-5 4-1 4a9 9 0 0 1-1 3 35 35 0 0 1-3 4v1c2 0 3 1 4 3v3Zm276 95 9-1a12 12 0 0 1 9-1 19 19 0 0 1 10 10c5 8 4 10 4 17v2a19 19 0 0 0 2-6l1-1-2-8a124 124 0 0 0-8-17c-1-2-1-2-4-1a5 5 0 0 1-2 1h-5v-8a37 37 0 0 1-8-9c-3-6-5-17-5-22a7 7 0 0 1 0-2 18 18 0 0 0-3-14l-1-1v1c2 5 1 10-3 14a19 19 0 0 0-2 1l-4 4 6 3a9 9 0 0 1 6 12c-1 3 0 5 3 7a22 22 0 0 1 4 2l4 4c0 2 1 5-2 7-2 0-3 2-4 3l-5 3Zm-51 158a39 39 0 0 1-7 0l-7 1a14 14 0 0 0-8 2l-4 2 1 4 1 1 7-2h2c2 2 5 0 7 2s5 0 8 0a42 42 0 0 0 6 0c3 0 13-5 15-7l2-2c0-2 2-3 3-5a6 6 0 0 0 0-2l-2 1v1l-17 4h-7Zm215-720c5-4 7-5 13-6 3-1 6-1 9-4l9-6 13-11c5-5 9-11 15-15a5 5 0 0 0 2-1c4-6 9-10 15-14l13-7-6 1a60 60 0 0 0-17 8c-4 3-9 6-12 11l-20 21a78 78 0 0 1-12 9c-6 5-11 7-18 7a3 3 0 0 0-3 2c-1 2-2 3-1 5Zm-95 666a18 18 0 0 0 0-3l-1-1-1 1a55 55 0 0 1-7 14 25 25 0 0 1-5 4 85 85 0 0 1-6 6 15 15 0 0 0-6 8c-1 3 2 5 3 7a3 3 0 0 0 3 2c5 0 9-2 11-7 2-2 1-4 3-7v-3a32 32 0 0 1 0-4 15 15 0 0 1 1-4l3-5 2-8Zm216-306-1-1a6 6 0 0 0-3 0c-3 2-6 2-10 2l-7-1c-4 0-8-3-11-5a46 46 0 0 1-9-7c-4-4-10-5-15-6l-7-2-9-3h-1l1 1a6 6 0 0 0 1 2l11 5 15 5a60 60 0 0 1 22 17l2 3c2 1 5 0 6 2 2-2 4 0 6-2a19 19 0 0 0 7-6l2-4Zm-378 450a14 14 0 0 0 1 4c0 2 2 2 4 2 3 0 7-1 10 2l1-1a3 3 0 0 0 1-2l2-12 6-17a1 1 0 0 0 0-1 1 1 0 0 0-1 0 31 31 0 0 1-2 4l-4 2a26 26 0 0 1-9 6 13 13 0 0 0-6 5c-1 3-4 5-3 8ZM351 883l7-6a25 25 0 0 1 17-6l14-1a85 85 0 0 0 13-3l14-4 22-7a10 10 0 0 0 3-2h-3c-1-2-2-1-3 0l-12 5c-6 3-14 5-19 5a6 6 0 0 0-3 1 6 6 0 0 1-5 0c-4-2-8-1-12-1a43 43 0 0 0-8 2l-11 2-4-1-6-3-3 1a8 8 0 0 0-1 1 5 5 0 0 0 1 1 22 22 0 0 0 3 0c2 0 3 1 3 3 0 3-2 5-4 7l-3 6Zm68-703h-4l-8 2a59 59 0 0 0-13 6 63 63 0 0 0-11 8 31 31 0 0 1-3 3l-10 9a7 7 0 0 0 1 0l2-1c7 0 12-4 18-6a41 41 0 0 0 7-4l11-8 10-9Zm378 216a12 12 0 0 1-7-5c-2-4-5-6-9-7-4-2-8-2-12-2l-1 1 2 7c1 3 4 6 3 10 0 1 1 2 2 1 2-2 4 0 5-2l6 1a21 21 0 0 1 5 4ZM471 162h-14a4 4 0 0 0-2 1 44 44 0 0 0-11 15l-3 5-4 10a14 14 0 0 0-1 2 7 7 0 0 0 1-1l8-6a17 17 0 0 0 5-4 75 75 0 0 0 6-8 21 21 0 0 1 3-4l11-9 1-1Zm198 445a19 19 0 0 0 3 1c8 2 14 8 19 14a39 39 0 0 0 4 5 28 28 0 0 0 5 4 45 45 0 0 0 8 5l11 2v-1l-2-7-4-8h-1c-1 3-2 2-5 1-2-1-4-3-8-1-2 1-4-1-6-1l-6-5-8-8c-3-4-5-4-10-1Zm137-173a50 50 0 0 1 4-4c2-2 4-1 7 0a6 6 0 0 0 2 1v-2a2 2 0 0 1-1-3v-2l-4-8v-10a8 8 0 0 0 0-2c-1-5-3-9-7-12a78 78 0 0 1-9-6c-4-4-9-6-14-7l2 2 6 5a43 43 0 0 0 13 10c3 2 6 3 7 6a13 13 0 0 1-1 14c-3 3-4 7-6 11-1 2-1 5 1 7Zm-80 627v7c-1 5 2 7 4 9l3 1 7 5a28 28 0 0 1 5 16v3c0 2 1 1 2 1l1-1c-2-2 0-4-1-5l-1-5-1-15a19 19 0 0 0-5-8c-2-2-4-3-7-3s-6-1-7-5Zm51-155-1 1 1 2c0 4 1 8-1 12a6 6 0 0 0 2 5 10 10 0 0 0 6 3c4 0 7 2 10 3l2 1a13 13 0 0 0-1-2l-3-9a90 90 0 0 0-6-13 3 3 0 0 0-2-2c-2 0-5 1-7-1Zm96-281c-3-1-6 2-9 3v1l-2 9 1 1c1 1 3 1 3 3s2 3 4 2l3-1c2 0 2 0 2 2l1 1a1 1 0 0 0 1-1 7 7 0 0 1 5-5l1-1c-4-3-4-6 0-9l-1-1h-3l-3-2c0-2-1-2-3-2Zm-163 469h-2c-2 2-4 0-6 1-2 2-4 1-7 1a62 62 0 0 1-8 0l-9-1-6-1-7-1a6 6 0 0 0-2 0l-9 3a23 23 0 0 0-3 2 1 1 0 0 0-1 2l1 2a12 12 0 0 0 4 2c1 1 2 0 3-1 4-2 14-4 17-4l8 1h5l5-1c7 0 12-2 17-5ZM381 209l5-1 12-3 9-3c6-4 10-9 14-15l7-11a7 7 0 0 0 1-1 6 6 0 0 0-2 0c-5 2-9 6-11 10-3 4-7 5-9 9l-12 7-13 6-1 1a3 3 0 0 0 0 1Zm422 853a34 34 0 0 0-2 5v5l-1 5-2 6-4 7a104 104 0 0 1-7 10c-3 3-5 7-4 11a50 50 0 0 0 2 7l2 1c0-2 2-2 3-3 3-2 4-3 4-7a27 27 0 0 1 1-9l3-11c1-4 3-7 3-11l2-7c-1-3 1-5 1-8l-1-1Zm-162 93a4 4 0 0 0 4-2 5 5 0 0 1 3-1l14-2a7 7 0 0 0 2 0 101 101 0 0 0 10-4l9-4a2 2 0 0 0 1-1 7 7 0 0 0 0-2 3 3 0 0 0-1 1l-14 4c-6 1-13 0-19-1h-1c-4-2-5-1-6 3a48 48 0 0 1-3 5 20 20 0 0 0-2 3l1 1a7 7 0 0 0 2 0Zm124-728a22 22 0 0 0-9 12 29 29 0 0 1-7 12l-1 3 1 1a3 3 0 0 0 2-1l8-4 9-4 1-1c-2-1 0-3-1-5-3-4-3-8-3-13ZM269 888a25 25 0 0 1 0-3l-2-4c-1-1-2 1-3 1l-9 2c-4 0-6-2-6-6v-5a8 8 0 0 0-1-2c-1-3-3-4-5-4a15 15 0 0 0-3 2c-2 1 0 2 0 3l-1 3a20 20 0 0 1-1 3c0 1-2 1 0 2 6 2 11 5 17 6a47 47 0 0 0 14 2Zm583-506-3 5c2 4 1 8 1 12v4l1 5 1 5-1 7a19 19 0 0 1-4 9l-7 12v1h1a12 12 0 0 0 6-6l6-12 2-4v-2c2-4 1-9 1-13a17 17 0 0 0-1-7l-2-8-1-8Zm134 605-1-1a30 30 0 0 1-3-3 47 47 0 0 0-19-17l-2 1-1 2c0 3 0 4 3 4l6 1c6 0 9 5 6 10l-2 4c-1 2-2 3-1 5a7 7 0 0 0 5 3c2 0 3 0 3-2 1-2 2-5 5-6l1-1Zm-47-152-4 3c-4 4-6 9-7 15l-3 15a127 127 0 0 1-10 25l-1 1a2 2 0 0 0 1 1 7 7 0 0 0 2-2l8-16 5-15a78 78 0 0 1 4-14l5-13ZM568 633l7 2c7 0 13 2 19 1a33 33 0 0 1 5 0 4 4 0 0 1 2 0c3 2 7 3 9 6h1a4 4 0 0 0 0-1 12 12 0 0 0-6-7 63 63 0 0 0-9-5c-3 0-5 1-8-1h-1a146 146 0 0 1-19 5Zm113 420 6-1c5 1 9-1 13-2a35 35 0 0 0 9-4 40 40 0 0 0 10-9 26 26 0 0 0 6-12 94 94 0 0 1-44 28Zm20-507h1c5-3 10-4 15-5l14 1c5 2 7 1 12-2a20 20 0 0 1 2-1 1 1 0 0 0 0-1l-1-1c-3 0-6 1-9-1a11 11 0 0 0-6-1 43 43 0 0 0-5 1 85 85 0 0 0-10 2c-5 2-10 3-13 8ZM382 188a16 16 0 0 0-4 0 24 24 0 0 0-6 2c-5 3-10 5-14 10-6 2-7 8-10 12v1h1l6-4a12 12 0 0 1 2-2l12-8 13-11Zm380 878c1-7-2-13-4-19-2-5-7-8-10-12l-5-5a1 1 0 0 0-2 0v1l7 11a80 80 0 0 1 6 12c2 4 3 9 8 12Zm40-28-3 6-8 8a35 35 0 0 0-4 6 36 36 0 0 0-2 6l-2 6-1 4 9-10a30 30 0 0 0 6-8l4-11 1-7ZM577 599l5 8a7 7 0 0 0 5 4c5 1 10 2 14 6h1v-1c-2-3-3-7-6-9a13 13 0 0 1-2-4c-2-2-2-3-5-2h-6l-6-2Zm-81-434-2-1a23 23 0 0 0-5 1c-5 1-9 3-13 6a47 47 0 0 0-9 7c-2 1-4 1-5 4a47 47 0 0 0 7-1 51 51 0 0 0 14-7c4-3 7-6 12-8a8 8 0 0 0 1-1Zm-14-1h-6a15 15 0 0 0-8 3c-5 2-8 7-11 11l-3 4 1 1a3 3 0 0 0 2 0l14-11 11-8Zm197 82 4-14c0-1 0-2-2-2a2 2 0 0 1-1-1v-6c3-3 0-5 0-8h-2l-3 10v9c-1 5 2 9 4 12Zm46 787-5 8c-5 6-12 9-18 12a24 24 0 0 1-11 2l-11 1-6 2h4c6 1 11-1 17-1 4 0 8-1 11-3a43 43 0 0 0 15-11c2-2 5-6 4-10Zm-52 22 1-1c3-3 7-5 12-6a63 63 0 0 0 8-3 68 68 0 0 0 23-16 4 4 0 0 0 1-1h-2l-14 10-14 6-12 5a12 12 0 0 0-4 4l1 2ZM564 622v4l1 1c3-2 7-1 10-1h11l4-1c2 2 5 1 7 1h3l4 1c-8-7-13-8-23-5l-5 2c-4 0-8 0-12-2Zm312 327 2-2-1-1c-4-2-4-2-2-6l5-3c2 0 4-1 5-3h-3a23 23 0 0 1-2 1l-7 1h-4l-9-2a4 4 0 0 0-4 3l1 1 6 1c2 1 5 1 7 4l6 6ZM358 209c3 1 5-1 7-2a7 7 0 0 0 3-1l11-8a32 32 0 0 1 4-5l11-7c-2-2-3 0-5 0-3 0-5 1-7 3-4 4-7 8-12 11l-12 9Zm563 193c2-1 4-2 6-5l10-19v-2l-1 1a70 70 0 0 1-11 13c-3 2-4 5-8 6a2 2 0 0 0 0 1 3 3 0 0 1 1 3c0 2 1 2 3 2ZM619 645l1-7v-4l-4-10c0-2-1-2-3-2s-4-1-5-3a23 23 0 0 0-2-4c0 3-1 6 2 8l1 2 7 13 3 7Zm89 240a23 23 0 0 1-3 3c-4 4-7 8-9 13l-6 12a3 3 0 0 0 0 1l1-1 4-3 3-3a86 86 0 0 0 7-12c2-3 4-6 3-10Zm32 16 1 14a38 38 0 0 0 11 19 3 3 0 0 0 2 1 4 4 0 0 0 1 0l-1-1-9-20-5-13ZM558 196v-1c-4-5-6-10-9-16l-10-12a1 1 0 0 0-2 0v2c4 4 6 10 9 15l8 11a25 25 0 0 0 3 2l1-1Zm242 482-1-2-1 2-4 7a16 16 0 0 1-9 9l-10 2a72 72 0 0 0-12 4c-1 1-3 2-3 4h1l10-4 9-3c4 0 7-3 11-4l1-2 7-11a23 23 0 0 0 1-2Zm-6 20-4 4a21 21 0 0 1-11 6 22 22 0 0 0-8 3c-4 2-6 5-9 8l-1 2a5 5 0 0 0 2 0 4 4 0 0 0 1-1c5-4 11-6 16-9a34 34 0 0 0 12-7l2-6ZM666 861a8 8 0 0 0 8 4c6 0 13 1 20-1l6-2 2-1c-1-2-1 0-2 0a18 18 0 0 0-5 0Zm86-498v2l4 9a188 188 0 0 1 8 21l3 9 1 1 1-2-4-12-4-13c-2-5-3-11-9-15ZM361 195v-1h-1c-7 3-13 7-17 14l-5 9v2h1c2-2 6-3 7-6l2-6c3-4 7-9 12-11a6 6 0 0 0 1-1Zm261 426a17 17 0 0 0-2 2 2 2 0 0 0 0 2c2 3 2 6 2 10a27 27 0 0 1 0 6c-2 5-1 9 2 13a47 47 0 0 1 0-5 35 35 0 0 1 1-4 17 17 0 0 0 1-3c0-7 0-14-4-21Zm56 207-3-3-5-4-15-6h-1a6 6 0 0 1 1 1v5l1 1a9 9 0 0 1 3 1l19 5Zm-91-211v-1a37 37 0 0 0-6-1 14 14 0 0 1-7-1c-4-2-8 0-13 0v2a6 6 0 0 0 3 1l8 2 5 1 10-3Zm204 100 1-1 6-3a51 51 0 0 0 11-10v-5c-1-1-3 0-4 1l-10 12-5 5v1h1Zm-68 350-6 4c-6 4-13 5-21 6-1 0-2-1-3 1l10 1c4 1 9-1 13-2 2 0 5-1 5-3 1-2 3-4 2-7Zm38-350 5-4c3-4 8-6 12-7s8-2 11-6l2-2a3 3 0 0 0 1-1h-2c-3 3-8 5-12 6a71 71 0 0 0-11 5c-6 3-6 3-6 9Zm-83 431h-1l-4 2a33 33 0 0 1-5 2 18 18 0 0 1-5 1 20 20 0 0 0-4 1h-6l-5 1-1 2 2 4c1 1 3-1 4-2l4-1 15-5a13 13 0 0 0 6-5Zm104-638c-3-2-5-5-8-5-2-2-6-2-8-3h-4c-1 1 0 3 1 4a37 37 0 0 0 2 3 3 3 0 0 0 3 1h14Zm-115-61v-1l-1-1-1 1c0 3-2 4-4 4l-1 1 3 9 11 17 1 1a4 4 0 0 0 0-2l-6-12c-3-6-3-8-3-13a18 18 0 0 1 1-4Zm92 251 2-1c6-4 13-5 21-7 4-1 8-3 10-8a6 6 0 0 0 1-1h-2c-3 4-6 5-10 6-8 1-15 6-23 9v1a12 12 0 0 0 1 1Zm28 354 6-6a50 50 0 0 0 4-6c2-3 4-7 3-11-2 4-5 6-8 9-3 4-6 8-5 13a4 4 0 0 0 0 1ZM673 456v-5a2 2 0 0 0-1-2 31 31 0 0 0-2-2l-1 3-1 4c0 4 2 8 3 11l6 11 1 2a5 5 0 0 0 0-2 22 22 0 0 0-2-4 30 30 0 0 1-3-16Zm63 378 11-12a52 52 0 0 0 5-6c1-1 3-3 2-4s-2 2-3 2l-1 1-8 6c-2 1-6 10-6 13Zm62-164h-2l-7 5-11 7-15 5a19 19 0 0 0-6 2l-1 2a15 15 0 0 0 3 1l1-1 15-6 8-3a40 40 0 0 0 14-11l1-1Zm-32-381a18 18 0 0 0 0 2c0 5-1 9-3 13l-3 6-1 1 3 4h1l2-2-1-1c-2 0-1-1 0-2a18 18 0 0 0 2-4l2-8c2-4 0-6-2-9Zm-42 772c-3 3-10 7-16 9a17 17 0 0 1-5 1 26 26 0 0 0-3 1 21 21 0 0 1-9 0 32 32 0 0 0-12 0 68 68 0 0 0 7 1l8 1a41 41 0 0 0 13-1 50 50 0 0 0 11-5c3-1 6-3 6-7Zm-7-151a22 22 0 0 1 2-4c3-4 4-10 4-15 0-4-2-7-4-10h-1a1 1 0 0 0 0 1c2 1 1 2 1 3v10a28 28 0 0 1-1 6c-1 3-2 6-1 9Zm-44-79-13-2h-2c-4-3-8 0-13 0v1a1 1 0 0 0 0 1 7 7 0 0 0 2 0c5-1 10 1 15 2 2 1 4 2 6 0l5-2Zm109-112a9 9 0 0 0 1 0c7-4 8-5 13-12a40 40 0 0 1 6-8l4-3v-1l-1-1c0-1 0-2-1-1-4 3-7 8-9 12a21 21 0 0 1-3 5l-10 8-1 1Zm-1 99-6 6-5 4c0 4-4 2-5 4a4 4 0 0 0-1 0l-1 2h2c2-1 6-1 8-3 4 0 6-3 7-6l1-7ZM631 496a9 9 0 0 0-2 0 17 17 0 0 0-7 5 1 1 0 0 0 1 2h4c3 0 4 1 5 4h1c1-1 3-2 1-4v-3c0-3-1-4-3-4Zm45 32c-5 7-9 15-16 22l-2 2a1 1 0 0 0 0 2 4 4 0 0 0 3-1c4-3 8-7 10-12l4-9 1-4Zm125 482h-1v1a4 4 0 0 0 1 1l12 8a36 36 0 0 1 11 14 4 4 0 0 0 1 1 4 4 0 0 0 0-2 7 7 0 0 0-1-1 105 105 0 0 0-7-12c-4-6-10-8-16-10Zm84-237 1-1-1-1-5-3-4-7c0-2-2-3-3-4a13 13 0 0 0-3 0l1 2 3 6c1 2 1 4 3 5a15 15 0 0 0 8 3ZM759 284h-1c-1 6-2 11-6 15a2 2 0 0 0 0 2 12 12 0 0 0 2 2c3 3 3 3 5-1l1-3 1-6v-7 4c-2 1-1 3-1 4a26 26 0 0 1-4 7h-1v-1a17 17 0 0 1 1-2c2-4 4-9 3-14ZM505 182c5 1 9-1 13-1l1-1 13-4-5-2-8 3-14 5Zm138 31a9 9 0 0 0 1-1 13 13 0 0 1 1-1l8-10c4-1 6-6 10-8l2-3a9 9 0 0 0 1-1h-2l-7 6-15 16 1 2Zm35 601c-7-4-14-6-20-11a9 9 0 0 0-2-1v2c0 2 1 2 2 3l17 8h1a19 19 0 0 1 2-1Zm115 200-2-2-2 1-2 3-3 5v5l2 1a24 24 0 0 0 6-9l1-4ZM619 669c-4-3-8-6-13-7l-11-3c-4 1-8-1-12-1l-1-1v2a3 3 0 0 0 3 2h14c5 2 11 3 15 6 1 1 3 3 5 2Zm168 374 6-7a26 26 0 0 0 4-6c1-2 3-4 2-7l-9 11c-2 2-4 5-3 9Zm-54-514c1-3-2-5-3-7l-2-2-1 2-1 2c2 1 1 2 0 3v4c-1 2-1 2 1 2a45 45 0 0 0 5-1 1 1 0 0 0 1-1 11 11 0 0 0 0-2Zm-58-11a20 20 0 0 0-3 3c-3 6-8 11-12 16-2 1-3 3-2 5 8-7 15-16 17-24ZM523 187l7 2c4 0 9-1 14 1l-5-4a7 7 0 0 0-7-2l-9 3Zm126 292c-1 1 1 2 2 3l5 3 10 10a18 18 0 0 0 3 2h2l-1-1c-4-2-7-6-9-9a44 44 0 0 0-10-9 10 10 0 0 0-2-1Zm25 353h-1v1l2 2c-1 3 1 3 3 4l10 4 1-1a1 1 0 0 0 0-1 32 32 0 0 0-15-9ZM516 445l-5-2c-4-3-8-6-13-6h-1l-2 2c6 2 12 7 21 6Zm47-234 5 2 6 2 7 3a1 1 0 0 0 1-1 1 1 0 0 0 0-1l-6-4c-4-3-8-4-13-1Zm216 518h1a63 63 0 0 0 6-4l13-9a52 52 0 0 0 9-8v-1h-1l-13 10-15 10a2 2 0 0 0-1 1 9 9 0 0 0 1 1ZM647 219l1 2 1-1a12 12 0 0 0 2-2l11-15a3 3 0 0 0 1-1h-2a152 152 0 0 0-14 15 7 7 0 0 0 0 2Zm115 507a7 7 0 0 1 1-1l8-4a69 69 0 0 0 12-6c3-1 4-3 6-5v-1h-1c-2 3-7 4-10 6l-13 7a26 26 0 0 0-3 3v1Zm-19 128 4 2h4c3 2 6 1 9 1h3c3 2 5 1 8 1a5 5 0 0 0-3-2h-3c-3-2-6-2-9-2h-13Zm47-391h1v-3l-1-6c0-4-2-7-3-11l-2-1-1 2a10 10 0 0 0 0 3l6 16ZM649 631a34 34 0 0 1 5 0l5-2v-2a3 3 0 0 0-1 1 7 7 0 0 1-7 1l-7-1h-3c-1-2-3-1-5-1l-1 1a7 7 0 0 0 1 1l3 1 10 1Zm34 223a46 46 0 0 1-16-5h-2a3 3 0 0 0-1 1c3 0 2 1 2 3 0 1 1 2 3 2h7l7-1Zm103 180 4-4c3-2 4-4 5-6l2-5-2-2-1 1-5 8c-2 2-4 5-3 8Zm-60-152-1 1 2 5c0 5 0 9-2 13v2a4 4 0 0 0 2 0c3-3 3-6 3-10s-2-7-3-10l-1-1Zm160-465a13 13 0 0 0-3-2l-1 2a12 12 0 0 0-2 4 19 19 0 0 1-8 11c-1 0-2 0-2 2a12 12 0 0 0 3-1 12 12 0 0 0 3-1l6-9a16 16 0 0 1 3-5 4 4 0 0 0 1-1ZM688 556c0-4-2-8-1-12a75 75 0 0 0 0-9 23 23 0 0 0 0-3 49 49 0 0 0-2 9 93 93 0 0 1-2 11v2l5 2Zm-38-333 3 1a6 6 0 0 0 3-3 33 33 0 0 0 3-5c1-3 2-6 5-8v-3Zm-66-12h1l2-7c1-4 3-6 6-8 2-2 1-3-1-4h-3l-4 9-1 10Zm166 649 5 1 15 3h4c2 0 1-1 1-2l-2-1c-5 0-9-2-14-1h-2c-2-2-4-1-7 0Zm3 39a5 5 0 0 0-1-2c-5-2-7-6-10-10l-3-4-1-1v1a90 90 0 0 0 10 17h5v-1ZM551 756l-6 8v1l6 2 5 1h1a6 6 0 0 0-1-1l-3-3c-2-2-2-4-2-8Zm133-232a171 171 0 0 1-6 18l-3 8v2a5 5 0 0 0 2-1l4-10 2-12 1-5Zm191 96 3-9-1-8-2-1c-2 0-3 2-2 4a24 24 0 0 1 2 9v5Zm-178-94a8 8 0 0 0 0 2 47 47 0 0 0 6 8l2 2a11 11 0 0 0 3-1 13 13 0 0 0 2 0l1-1a1 1 0 0 0-1-1c-5-2-9-5-13-9Zm-98-296v-3a42 42 0 0 1 1-10l2-6v-3a10 10 0 0 0-2 1c-1 2-3 3-3 5 0 5-1 10 2 16Zm123 365-1 7a24 24 0 0 1-3 8c-1 2-2 5 1 7l1 1 1-2 1-9v-2c2-3 0-7 0-10ZM597 199l-1-2a5 5 0 0 0-1 1 17 17 0 0 0-4 6c-2 4-1 9-3 13v1h1a6 6 0 0 0 1-2c1-6 2-10 6-15a12 12 0 0 0 1-2Zm69 299-12-10a71 71 0 0 0-7-5 5 5 0 0 0-2 0 5 5 0 0 0 1 1c1 2 2 2 4 2 2 1 0 3 2 4a7 7 0 0 0 1 1 27 27 0 0 1 5 3c2 2 4 4 8 4Zm89 341h8a16 16 0 0 0 5-1l8-4 1-1h-1l-7 2c-3 0-5 2-9 1l-1 1-4 2Zm23-325h-9c-2 0-2 1-1 3 0 1 0 3 2 3l5-1 3-5Zm-52 321 3-17v-2a10 10 0 0 0-3 0c-2 0-1 1-1 2-1 3 1 5 1 8v9Zm158-428a7 7 0 0 0 0-1c0-4 0-7 2-10v-1a4 4 0 0 1-1 1c-3 0-4 1-5 3l-2 2a8 8 0 0 0 1 3 18 18 0 0 0 3 3h2ZM516 184c7 1 13-1 20-2-2-3-5-4-8-2l-12 4Zm234 111c-2-3 2-4 2-7 0-2 3-3 1-7l-1 5-4 7v2l3 4 2-4 2-3v-10c0 5-1 10-5 13Zm25 384c-2-2-4 0-6 0l-9 1-3 2-1 4h1a5 5 0 0 0 1-1l17-6Zm220-206 2-2c2-4 5-7 8-9l5-9v-2l-7 10a28 28 0 0 0-5 4c-1 3-4 4-3 8Zm-330 35c-8-2-9-1-18-6l-1 4c-1 1 0 2 1 2h18Zm143 204h-2c-5 6-12 10-18 14l-2 2-1 1a4 4 0 0 0 2 0 5 5 0 0 0 1-1l6-3 8-6 6-6a3 3 0 0 0 0-1ZM634 521h9c4 0 7-1 10-3h-14c-2 0-4 1-5 3Zm120-65c0 1 3 3 4 2 3-1 5-4 7-6a17 17 0 0 1 1-2h-3l-9 5v1Zm-37 75-16-7c3 4 7 7 11 9a2 2 0 0 0 3-1l2-1Zm78 594a42 42 0 0 0 0-5l-1-3h-1l-6 4c2 3 4 5 8 4Zm203-649 10-12 3-6a3 3 0 0 0 0-1l-1 1-11 13c-1 2-2 3-1 5ZM790 733h1l9-5 7-6 5-4 1-2h-2l-6 6-13 8a11 11 0 0 0-2 2v1ZM662 511h-3c-4 0-8 1-13-1l-4-1-2 1 1 2 5 1c6 1 11-1 16-2Zm49 88-1-1-2 3c-3 4-6 9-11 11l-1 2h2l5-3a8 8 0 0 0 4-4 88 88 0 0 0 4-8Zm-48-42h1l4-5 6-12a57 57 0 0 0 3-7v-1l-1 1-4 8a27 27 0 0 1-7 11 33 33 0 0 0-3 3l1 2Zm8 87-5-1h-14a21 21 0 0 0-2 0c4 1 7 3 11 3l10-2Zm83 177h1l7-9a44 44 0 0 0 3-4c1-2-1-2-2-2h-1c-2 4-4 9-7 12a9 9 0 0 0-2 2l1 1Zm-99-196-4-3a7 7 0 0 0-7-1l-7 1a18 18 0 0 0-2 0v1Zm-28 23 3-6 1-6c1-2-1-5-1-7l-2-5 1 12-2 12Zm125-90-3 5-3 8-3 9 1 4a37 37 0 0 1 0 4l1-8a16 16 0 0 1 1-4 64 64 0 0 1 5-12c1-2 2-4 1-6ZM550 196c-5-3-9-4-13-5a37 37 0 0 0-6 0l8 5h11Zm362 444a27 27 0 0 0 4 0c2 0 2-2 1-3v-5a11 11 0 0 0 1-3c-3 3-8 5-6 11Zm-221 464-1-1h-22c-3 0-7 2-10 4l-1 1h1c6-3 11-4 17-4h16Zm283-726v1l1 2c0 1 2 2 0 4l2 1a12 12 0 0 1 4 1c3 1 7 2 10 0-3 0-7 0-9-2l-8-7ZM722 830v-9l-2-7-3-1c-2 1 0 1 0 2l1 2 4 13ZM593 219c1-4 2-8 5-10a8 8 0 0 0 2-3 5 5 0 0 0 0-3h-2a25 25 0 0 0-3 3 21 21 0 0 0-2 6 44 44 0 0 0 0 7Zm94 667a34 34 0 0 0 15-10v-2h-2c-4 4-9 6-13 12Zm193-271c4-2 3-5 3-8l-1-2c2-2 0-3 0-5h-1a2 2 0 0 0-1 1 6 6 0 0 0-1 2l1 3v9Zm10-206c0-5 1-9-2-13-2 2-2 5-2 8s2 3 4 5ZM536 778l7 4 11 7a7 7 0 0 0 2 1l-1-1a13 13 0 0 0-4-3 19 19 0 0 1-8-6l-2-2h-5Zm240 115 4 3a5 5 0 0 0 2 1l6-3 2-3v-1a2 2 0 0 0-1 1 8 8 0 0 1-7 2h-6Zm43-520-5 10-2 6v2a1 1 0 0 0 1 1l1-1 3-10c2-2 2-5 2-8Zm-38 153v-1a3 3 0 0 0-1 1 24 24 0 0 1-2 3 29 29 0 0 0-8 12 14 14 0 0 0 0 3l2-2 8-13a29 29 0 0 0 1-3Zm-65 365h-1l-3 10-1 10 1 1 1-1a21 21 0 0 1 1-7 26 26 0 0 0 1-7l1-6ZM552 204c5 5 10 4 15 3-5-4-10-3-15-3Zm177 423 2-5v-11l-1-3-1 1c0 4 1 9-1 14l1 4Zm-41 276 12-14v-1h-1l-11 11v4Zm15-289c3 0 4 1 5-1a42 42 0 0 0 5-7c0-2 2-4 1-6-4 5-6 10-11 14Zm303-175v-1h-1l-13 13a2 2 0 0 0 0 1h1l11-10a15 15 0 0 0 2-3Zm-186-3a33 33 0 0 1-3 0 3 3 0 0 1-2-1l-1-2a1 1 0 0 0-1 0l-2 1c-2 1-3 4-6 3a6 6 0 0 0 1 1h1a6 6 0 0 1 8 0h2l3-2ZM514 563v7l1 2 2-1a16 16 0 0 1 2-3 2 2 0 0 0-1-4 18 18 0 0 0-4-1s-1 1 0 0Zm127-354 9-10v-1a7 7 0 0 0-1 0 30 30 0 0 0-5 3 7 7 0 0 0-3 8Zm67 617-2 2 2 2 3 6a5 5 0 0 0 2 2h2l-1-1ZM606 673l-4-1a21 21 0 0 0-11-2l-1 1a5 5 0 0 0 1 1h3c2 2 4 0 6 1 2 2 4 1 6 0Zm-1-460a8 8 0 0 0-3 6l1 12a2 2 0 0 0 1 1 1 1 0 0 0 1 0 4 4 0 0 0 0-2l-1-1c0-5-1-10 1-15v-1Zm125 367 7 11 2 2-1-3v-2c0-4-4-7-8-8Zm46-276-1 10c-1 3-2 6-5 8l-1 1h2a11 11 0 0 0 3-3 40 40 0 0 0 3-7c1-3 1-5-1-9Zm99 349h-2c-3 1-3 1-4-2a9 9 0 0 0 0-1 4 4 0 0 0-1 1c-1 1-2 2 0 3a16 16 0 0 1 4 7l2 1v-2c-1-2-2-4 1-5v-2Zm11-31 9-3c1 0 2 0 2-2v-1l-1-1c-4 2-8 3-10 7ZM753 884l-3-6-7-7h-2a3 3 0 0 0 1 1 50 50 0 0 1 8 11 8 8 0 0 0 2 2h1v-1ZM581 554v1l12 1 14-3-13 1h-13Zm92-382h-1l-5 4c-4 2-6 4-8 7l-1 1h2l4-4 8-7a6 6 0 0 0 1-1Zm-3 7-11 8c-1 1-3 2-2 4l3-2 6-4c2-1 3-3 4-6Zm56 422h-1v10l-1 5-1 4 1 1 2-1v-19Zm282-3a13 13 0 0 0-1-2h-2l-6 2a9 9 0 0 0-2 1 10 10 0 0 0 2 1l2 1a16 16 0 0 1 6-2l1-1Zm-15-134 8-9 5-7v-1l-1 1-10 11c-2 1-3 3-2 5ZM585 665c2 3 4 2 6 2a10 10 0 0 1 6-1c3 1 7 1 9 3h2c-7-5-15-4-23-4Zm48-202a3 3 0 0 0 4-4 3 3 0 0 0-3-2l-4 2a37 37 0 0 0 2 3 4 4 0 0 0 1 1Zm-3 392v1a3 3 0 0 0 3 3c2 0 1-2 1-2v-1c2-2 1-3-1-4l-2-1a6 6 0 0 0-1 2 4 4 0 0 0 0 2Zm23-381v-1l-5-5a8 8 0 0 0-3-1 4 4 0 0 0-2 0l1 1 1 3a3 3 0 0 0 1 1l6 3 1-1Zm44 394a128 128 0 0 0-18 5l12-1c2-1 4-1 6-4Zm174-268c-2 3 0 5-2 8-1 1 1 3 2 5l2 7a15 15 0 0 0-1-10l-1-10Zm-204-78h-1l-4 6-8 8-1 1h2l12-12v-3Zm9-361c-4-1-6 1-8 3a25 25 0 0 0-2 3 4 4 0 0 0 0 2 4 4 0 0 0 1-1 35 35 0 0 0 9-7Zm31 363h2l8 3a2 2 0 0 0 3 0l1-1a2 2 0 0 0-1-1 12 12 0 0 0-3-1c-3 0-6-2-10 0Zm200 108c-3 3-8 2-10 5h10ZM657 452c-1 3 1 5-1 7l1 1 2 4c0 2 2 3 3 4h1c-3-5-4-10-6-16Zm125-27c0 1-1 3 1 4l1-1c-1-2 2-3 3-4s1-2-1-3-4 0-4 3v1Zm21 6c0-5 2-10 4-15a4 4 0 0 0-2 2 54 54 0 0 1-4 6 3 3 0 0 0 0 1c0 2-1 5 2 6Zm-22 589 7-7a4 4 0 0 0 1-2l-1-2a1 1 0 0 0-1 0c-1 3-3 4-5 5a6 6 0 0 0-2 4l1 2Zm-14-130-1-3-9-3-1-1v2c3 3 6 4 10 5h1Zm90-241-1-5a4 4 0 0 0-1 1l-1 1a3 3 0 0 0-3 1c0 1-2 1-1 2l2 1c1 1 4-1 4 2l1-1a13 13 0 0 0 0-2ZM754 894a6 6 0 0 0-1-1l-5-7-5-6-1-1v2l7 10a20 20 0 0 0 4 3h1Zm-97-692-1 1-7 7a60 60 0 0 0-4 6 5 5 0 0 0-1 1l2-1a40 40 0 0 1 8-9l3-3v-2Zm7 9-7 11a5 5 0 0 0 0 2 4 4 0 0 0 1-1l5-4a3 3 0 0 0 1-3v-5Zm48 375-10 1-2 2 2 1c4 0 7-2 10-4Zm-80 18-10-2c-3 0-6-3-10-2 7 3 13 5 20 4Zm144-168a17 17 0 0 0 0-4 34 34 0 0 0-2-5 22 22 0 0 1-2-6l-1-1-1 1 6 15ZM650 811c5 3 9 3 13 5h1l-1-1-9-5-4 1Zm55-293c5 3 10 3 15 4l1-1-1-1h-4c-1-2-3-1-5-1Zm165-75v-1a9 9 0 0 0-3 0 50 50 0 0 0-13 6v1h1l8-4 7-2Zm-109 56v1h9a12 12 0 0 1 3 1 2 2 0 0 0-2-2l-2-1c-1-1-3-2-5-1a21 21 0 0 0-3 2Zm-28 132 2-9a14 14 0 0 0-1-8 6 6 0 0 0 0 3l-2 10v3a7 7 0 0 1 1 1Zm-78-109h-1l-9 4a2 2 0 0 0 0 2l2 1 2-1 5-5a7 7 0 0 0 1-1Zm-6 117a68 68 0 0 0 7 1 49 49 0 0 0 8 0c1 0 2 1 3-1l-4-1a3 3 0 0 0-1 0 4 4 0 0 1-4 1c-3-2-6 0-9 0Zm95 204 17-1c-6-2-12-1-17 1Zm-23-38a5 5 0 0 0-2 1 15 15 0 0 0-3 3l2 2c1-1 4-1 5-4 0-2 0-2-2-2ZM543 199h1c2 3 6 1 8 3h2a6 6 0 0 0 1-1 9 9 0 0 0-1-1c-4-1-7-2-11-1Zm161 92v-1l-6-12a4 4 0 0 0-1-1 1 1 0 0 0-1-1v1l5 11a21 21 0 0 0 3 3Zm76 125c-3 0-3 0-2 4v1a11 11 0 0 0 1 1l1-1 2-3a2 2 0 0 0 1-1l-1-1a8 8 0 0 0-2 0Zm-27 410h-2l-6 5-5 3a1 1 0 0 0 0 1h1l7-4 4-4a3 3 0 0 0 1-1ZM651 444l-3-2h-3a20 20 0 0 0-2 4 1 1 0 0 0 0 1 1 1 0 0 0 1 0c1-2 3-2 5-2a7 7 0 0 0 2-1Zm13 191c-1-3-3-2-4-2-4 2-8 1-12 1a19 19 0 0 0-2 0v1Zm88 228a18 18 0 0 1-4-1c-3-2-4-1-6 2l5 1 5-2Zm-86-641-1-1a4 4 0 0 0-2 1 44 44 0 0 0-4 4l1 1 1 1 5-5v-1Zm-7 277-7-5c-1 0-2-2-2 0 0 1-3 2 0 2l3 1c2 1 4 3 6 2Zm-19 119a18 18 0 0 0-5-2c-2 0-4 0-6 2a35 35 0 0 1 4 0l3 1a12 12 0 0 0 4-1Zm2-138h3a14 14 0 0 0 2-2 9 9 0 0 0-2-2 4 4 0 0 0-2 0l-2 3 1 1Zm-7 158-5 11c5-4 5-4 5-11Zm-6-25c-6 1-12-1-18-2 5 2 9 4 18 2Zm36-137-6-7-1-1a5 5 0 0 0-2 1l1 1 3 3 4 4h1v-1Zm301-179c-7-1-10 0-13 4 4-1 8-4 13-4ZM856 617l-6-4h-2a2 2 0 0 0 2 4h6Zm-182-73a8 8 0 0 1 0 2c-2 3-3 6-6 8v2h1a13 13 0 0 0 5-12Zm-45 64h-5a56 56 0 0 1-6-1l-5-1c5 4 10 3 16 2Zm36-105c-5 1-10-3-16-3 6 3 10 5 16 3Zm-77-316c-5 9-5 9-4 12a16 16 0 0 1 3-8c2-1 2-1 1-4Zm139 452c1-4-2-6-2-9a14 14 0 0 0-3 0 2 2 0 0 0 0 2l5 7Zm7 182 2-6a10 10 0 0 0 1-3l-2-1-1 1v9Zm9-255h-1l-4 6a1 1 0 0 0 0 1l1 2Zm-4 470c-2-2-4-3-7-3l-1 2a2 2 0 0 0 1 1h7Zm49-629a17 17 0 0 1-1 2h-3l1 2a21 21 0 0 0 7 0Zm12 401-2 2 1 2c1 2 1-1 3 0l1-2c0-1-1-2-3-2Zm75-210v2l1 1 1-1a3 3 0 0 1 2-2s2 1 2-1l-2-1h-2c-1-1-1-1-1 1a5 5 0 0 1-1 1ZM758 831a3 3 0 0 0 1 0l5-2c2-1 1-1 0-2a7 7 0 0 1-1-2 18 18 0 0 1-2 2c0 1-3 1-3 3a9 9 0 0 1 0 1Zm-65-13 3-2a1 1 0 0 0 0-1v-2c-1-1-4 0-5 1-1 2 1 2 2 3a9 9 0 0 0 0 1Zm9-278v-1l-5-7h-1v1l3 7 1 1a19 19 0 0 0 2-1Zm-35 17-6 4a5 5 0 0 0-1 2h2a19 19 0 0 0 4-3l1-3Zm115 326c3 0 4-1 4-2l1-3a1 1 0 0 0 0-1 1 1 0 0 0-1 0l-4 5v1Zm-105-62v1l6 5c1 0 1 2 2 0l-1-1a43 43 0 0 0-4-4l-3-1Zm221-162-3-2c-2 0-4 3-3 5l2 1c2-1 0-1 0-2l2-1a12 12 0 0 0 2-1ZM770 801l3-2a13 13 0 0 0 1-4 2 2 0 0 0-1 0 4 4 0 0 0-4 4l1 2Zm-63 127a6 6 0 0 0 2-1 11 11 0 0 0 2-2v-1a20 20 0 0 0-4-1l-1 2 1 2a2 2 0 0 0 0 1ZM525 567c-3-1-4 2-6 3l1 1c1 0 2 2 3 0a25 25 0 0 1 2-4Zm378 57h1c2-2 1-5 4-5a16 16 0 0 0-1-2 1 1 0 0 0-1 0c-1 2-4 3-3 7ZM644 463l-3-3a12 12 0 0 1-1-2 9 9 0 0 0-1 2c-1 3-1 3 2 3Zm137 259-8 3a2 2 0 0 0 0 1 5 5 0 0 0-1 1h1a25 25 0 0 0 9-4v-1h-1Zm-86-83c-3-3-3-3-6-2l-4 2Zm-58 242 1-3a4 4 0 0 0-2-2 26 26 0 0 0-3 3Zm387-434c0-3-2-5-5-7l-1 1 5 6 1 1ZM884 301c2-4-1-7 0-11l-2-1v2l2 10Zm-181 733 8-5 1-1h-2l-8 5v1Zm-79-417h-6c-1 0-4 1-5-1l-1 1v1h5c3 2 4 0 7-1Zm267 54c-2 0-3 1-2 3a16 16 0 0 0 1 3 23 23 0 0 0 2-3 3 3 0 0 0 0-1c0-1 2-2-1-2Zm-91-153h-2c-3-1-3-1-4 1a9 9 0 0 0 0 3l2-1Zm-146-50a17 17 0 0 1 2-2c2-1 0-1 0-1-1-1-5 0-5 1a1 1 0 0 0 0 1l3 1Zm260-59-2-7a2 2 0 0 0-2 0c-2 1 0 1 0 2l4 5ZM783 904l-2-2a2 2 0 0 0-3 1 2 2 0 0 0 0 1l1 1h3c1 1 1 1 1-1ZM641 194v6l4-4Zm86 597-2-12c-1 4 0 8 2 12Zm-75-235 2-2-1-2a11 11 0 0 1 2-2 1 1 0 0 0-1-1 7 7 0 0 0-2 0 3 3 0 0 0-1 2c2 1 0 3 1 5Zm225 38a6 6 0 0 1 1 0c2 0 2-1 2-2l-2-1h-1a10 10 0 0 0-2 2l2 1Zm-267-73c2-3 2-3 0-5h-1l-1 2a23 23 0 0 0 2 3Zm280 108 3-1a4 4 0 0 0 4-3 43 43 0 0 0-5 2l-2 2ZM641 472l-2-2-3 2 1 2a32 32 0 0 0 4-2Zm227 128h-1c-2 3-1 6 0 9Zm-132 63a3 3 0 0 0-1-1c-1-2-4-2-6-3h-1v2l7 2h1Zm29 232v1l5 2a1 1 0 0 0 1 0l-1-3h-5Zm14 120 6-6v-1a2 2 0 0 0-2 0c0 3-3 4-4 6v1ZM662 851l-2 2c-2 1 0 1 0 2a5 5 0 0 0 3 0 2 2 0 0 0 1-2 14 14 0 0 0-2-2Zm5-625c-4 3-4 3 0 6Zm198 398-4-2-1 1c2 1 1 2 1 3l1 1c0-2 1-2 2-2l1-1Zm-79 196-1-2-1 1c0 1-2 2 0 3l1 1Zm117-222h-2a24 24 0 0 0-1 3v1h3a3 3 0 0 0 1-2l-1-2Zm-41 8v1l2 5 1 1v-1l-1-5-2-1ZM705 801c2 0 3-1 3-2l-1-2-3 3 1 1Zm253-360c4 1 7-1 11-1-4-2-7-1-11 1Zm-98 161 3-1a3 3 0 0 0-2-2l-3 1v1l2 1Zm-243-10c3 2 6 0 8 2l1-1-1-1h-8Zm111-156c-4-2-5-2-9-1Zm19 469-3-4c-1 2 0 3 1 4v1a6 6 0 0 0 0 1Zm171-205h-1v1a155 155 0 0 0 5 5v-1l-4-5ZM781 855l-2 1 1 1a15 15 0 0 0 2 1c1 0 1 2 2 0a2 2 0 0 0-1-2l-2-1Zm213-102-5-5h-1v1l5 4h1ZM751 941c1 1 2 3 4 1 0-1 2-1 0-2 0 0-1-2-2 0a9 9 0 0 1-2 1Zm253-485v-1h-1a18 18 0 0 0-2 2l-2 3c1 1 2-1 3-2a11 11 0 0 0 2-2ZM770 839l-8 1c3 1 6 2 8-1Zm-21 6c-3-1-5 1-9 1 4 2 6 0 9-1Zm140-233c2-1 2-3 2-5h-2v5Zm-32 17c0 2 3 1 3 3h1c1-2 0-3-3-3a5 5 0 0 0-1 0ZM637 513l-1-2-1 2v2l-1 1h2a20 20 0 0 0 1-3Zm222 143 2-3c0-1 1-3-1-3s-1 2-1 3a21 21 0 0 0 0 3Zm-114 9-1 7v1l1-1c2-2 1-5 0-7Zm-88-490c2-1 4-2 4-4v-1l-4 4a3 3 0 0 0-1 0v1h1Zm10 265s2 1 2-1l-2-2-2 2Zm185 167-2-2-1-1a9 9 0 0 0-1 2 2 2 0 0 0 1 1h3ZM664 483h1c0-2-3-5-4-5v1l2 3a8 8 0 0 0 1 1Zm236-69c0 2-2 4-1 6 1-2 3-4 1-6ZM668 836h5c-3-2-3-2-5 0Zm-5 38a29 29 0 0 0-2-2 5 5 0 0 0-1-1v2a7 7 0 0 0 2 2l1-1Zm104-90-2 2a22 22 0 0 0 3 3 8 8 0 0 0 1-2c0-2-2-1-2-3Zm105-474v8ZM658 565l-1-1-1-1-1-2v2a12 12 0 0 0 1 3h1a13 13 0 0 0 1-1Zm162 162-1-1a3 3 0 0 0-1 0l-4 3 4-2h2Zm-25-241a10 10 0 0 0-1 0l-4 2v1h1l4-2a3 3 0 0 0 0-1Zm-14 521a10 10 0 0 0-1 1l-3 3v1c2-1 4-2 4-5Zm-45-205-3 2 2 1 2-1Zm145-147v3h3Zm25-29a23 23 0 0 0 4 0l1-1a4 4 0 0 0 0-2l-1 1ZM645 515v1l7-1h-7Zm31 406-3-1a6 6 0 0 0-1-1v2a2 2 0 0 0 3 1 11 11 0 0 0 1-1Zm185-333a15 15 0 0 0-2 1v1l3 2 1-1-2-3ZM620 455l-1 1 2 3h1a4 4 0 0 0 0-2 7 7 0 0 0-2-2Zm32 353c0-1 0-2-2-2a6 6 0 0 0-1 1l2 2Zm-23-574v1a9 9 0 0 0 2 2l2-1-2-1-2-1Zm129 662h-1a16 16 0 0 1-2 2l1 1h1a23 23 0 0 0 1-3Zm128-243h-1l1 4h2l-2-4ZM639 834l2-3a4 4 0 0 0 1-1 7 7 0 0 0-2 0 1 1 0 0 0-1 1v3Zm0-188a19 19 0 0 0-2-2l-1 1a19 19 0 0 0 1 3Zm143-212-1 1 1 4a1 1 0 0 0 1 0l1-1-2-4Zm-457 634 3-3-1-1-3 3 1 1Zm321-564-3-2-1 2 2 1a10 10 0 0 0 2-1Zm351-23 3-3a1 1 0 0 0 0-1h-1a37 37 0 0 0-3 3v1h1ZM681 816a11 11 0 0 0-1-1 20 20 0 0 0-2 2 4 4 0 0 0 1 1l2-2Zm167-197-3-3v1l2 3Zm-45 102 3-2v-1h-1a33 33 0 0 0-3 2v1h1ZM608 217v6Zm134 230a7 7 0 0 0 0 1l1 4h1c1-2-2-2-1-4l-1-1Zm-83 0v1a29 29 0 0 0 3 1l1-1-1-1a29 29 0 0 0-3 0Zm118 451-3-3h-1v1a34 34 0 0 0 3 2h1ZM624 598v1l4 1 1-1-1-1h-4Zm34 58 2-1-2-1a6 6 0 0 0-1 1Zm194-23a17 17 0 0 0 1 2h1l1-3-1-1-2 2Zm5 6 2-1a4 4 0 0 0 1 0l-1-1a8 8 0 0 0-2 1l-1 1ZM642 496l-1-3-1 1 1 3h1Zm107 337a8 8 0 0 0 3 0l1-2c-1-2-1 0-2 0a25 25 0 0 0-2 2Zm6 2 4-1v-1c-2-1-3 1-4 1h-1a3 3 0 0 0 0 1Zm138-221a21 21 0 0 0 3-2v-1a6 6 0 0 0-2 1l-1 1v1ZM654 462l-1-1-3 1v1Zm-14 189 1-1-1-1a13 13 0 0 0-2 1Zm124 56v-1l-3 1v1ZM627 232a14 14 0 0 0-1-3h-2Zm56 246-1 1 2 2 1-1-3-2Zm57 326v1l1 3 1-1a3 3 0 0 0-1-3h-1Zm-38 111-1-1-1 2a4 4 0 0 0 0 1Zm76-60-2-1a17 17 0 0 0-2 2 6 6 0 0 0 2 0l1-1Zm113-568a6 6 0 0 0 0-6Zm-2 374-2-2a4 4 0 0 0 0 1l1 2 1-1Zm-78 53-1-1-2 2 1 1 2-2Zm-81 165h-1v1l2 2a1 1 0 0 0 1 0v-1l-2-2Zm9-272-2-2a11 11 0 0 0 0 1l1 2 1-1Zm161 9 1-1c0-2-1-2-2-3l1 3v1Zm-30-20 1-1 1-2-1-1a17 17 0 0 0-1 2v2Zm-171 507h-6Zm61-434v-1a29 29 0 0 0-4 0v1l1 1 3-1Zm132-46h5Zm-11-321h1v-5h-1ZM767 673a6 6 0 0 0 6 0ZM651 818l-1 1 1 2h1Zm96 34-1-1a17 17 0 0 0-2 2 6 6 0 0 0 2 0l1-1Zm-66-690h-1l-2 2h1l2-2Zm-22 39 2-2h-1l-2 2Zm344 233v-1h-1a17 17 0 0 0-1 2v1h1l1-2Zm-211 15v4c2-1 1-3 0-4Zm-64 366 1-2a3 3 0 0 0-1-1l-1 1a6 6 0 0 0 1 2Zm163-538h-1v4h1ZM720 788l-1-1a3 3 0 0 0-1 1l1 1a6 6 0 0 0 1-1Zm-39-264h1v-4h-1Zm124-190-2 2h1l2-2ZM683 160l2-2v-1l-2 2v1Zm181 456a9 9 0 0 0-1-1l-1-1v1a7 7 0 0 0 1 2h1v-1Zm-97 195 2-2v-1l-2 2v1Zm15-497v3h1v-3h-1Zm-10 544v1h4v-1Zm8-549h-1v4h1Zm79 336h-1v1a7 7 0 0 0 2 1h1l-1-1a9 9 0 0 0-1-1Zm48-5a18 18 0 0 0-3 0l-1 1 1 1 3-2Zm98-186 2-2v-1l-2 2v1ZM737 874h-1v1a7 7 0 0 0 2 1h1l-1-1a9 9 0 0 0-1-1Zm32-21v1h4v-1Zm46-133-1-1-2 2h1l2-1Zm72-125h-1v4h1ZM771 888a6 6 0 0 0-1-1l-1 1a3 3 0 0 0 1 1l1-1ZM623 598v-1h-4v1Zm51 297-1 2v1l2-2-1-1Zm120-437h-1v4h1Zm-15 443v-1h-4v1Zm-29 3v1a11 11 0 0 0 1 2l1-1Zm115-247h-1l-1 2v1h1l1-3ZM680 480l-1 1a13 13 0 0 0 0 2h1a2 2 0 0 0 1 0l-1-3Zm-45-249-1 1a4 4 0 0 0 1 0 5 5 0 0 0 2-1Zm-18 3-1-1-1 1a4 4 0 0 0 1 1l1-1Zm275 35v-2a5 5 0 0 0-1 2 4 4 0 0 0 0 1Zm-3 6 1 1a4 4 0 0 0 0-1 5 5 0 0 0-1-2Zm-140 7v-2a5 5 0 0 0-1 2 4 4 0 0 0 0 1Zm103 326h-1l1 2 1-1a7 7 0 0 0-1-1Zm35 3v-2a5 5 0 0 0-1 2 4 4 0 0 0 0 1Zm-24 9a15 15 0 0 0-2-2 7 7 0 0 0-1-1v1a10 10 0 0 0 3 2Zm46 1h-2a5 5 0 0 0 1 1 4 4 0 0 0 2 0Zm-9-17h2a5 5 0 0 0-2-1 4 4 0 0 0-1 0Zm16 23a7 7 0 0 0-1 1v1l2-2ZM773 870l1-1-1-1a4 4 0 0 0-1 1l1 1Zm-58-289h-2a5 5 0 0 0 1 1 4 4 0 0 0 2 0Zm72 278-1-2a4 4 0 0 0 0 1 8 8 0 0 0 0 2ZM647 571a7 7 0 0 0-1-1h-1l2 2Zm148-239v-3l-1 1a9 9 0 0 0 0 2Zm-24 332h-2a5 5 0 0 0 1 1 4 4 0 0 0 2 0ZM667 505h2a4 4 0 0 0-1-1 8 8 0 0 0-2 1Zm67 304v-2a5 5 0 0 0-1 2 4 4 0 0 0 0 1Zm-71-298h3l-1-1a9 9 0 0 0-2 0Zm121-189v-2a5 5 0 0 0-1 2 4 4 0 0 0 0 1Zm-3-3v2a4 4 0 0 0 1-1 8 8 0 0 0-1-2Zm-8 352h2a4 4 0 0 0-1-1 8 8 0 0 0-2 1Zm97-354v-3l-1 1a9 9 0 0 0 0 2ZM627 651l-1-2a4 4 0 0 0 0 1 8 8 0 0 0 0 2Zm28-108a7 7 0 0 0 1-1l-1-1-1 2Zm104-234v-3l-1 1a9 9 0 0 0 0 2Zm115 340v2a4 4 0 0 0 1-1 8 8 0 0 0-1-2Zm-266-96h2a4 4 0 0 0-1-1 8 8 0 0 0-2 1Zm284 102-2-1v1a4 4 0 0 0 1 1s1 0 1-1Zm59-7h2a5 5 0 0 0-2-1 4 4 0 0 0-1 0ZM250 892h2a5 5 0 0 0-2-1 4 4 0 0 0-1 0Zm525-27v1a4 4 0 0 0 1 1l1-1Zm135-223-1 1 2 1v-1a7 7 0 0 0-1-1ZM691 866l-1 1a4 4 0 0 0 1 0 5 5 0 0 0 2-1Zm190-571v-2a5 5 0 0 0-1 2 4 4 0 0 0 0 1ZM720 649l-1 1a4 4 0 0 0 1 0 5 5 0 0 0 2-1Zm-52-206h2a4 4 0 0 0-1-1 8 8 0 0 0-2 1Zm11 86v-2a5 5 0 0 0-1 2 4 4 0 0 0 0 1Zm6 72-2 1a4 4 0 0 0 1 0 8 8 0 0 0 2 0Zm106-270 1 1a4 4 0 0 0 0-1 5 5 0 0 0-1-2Z"/><path d="m669 806-7-6-6-4-17-16a44 44 0 0 1-3-4c-1 0-2-1-1-2l3 1 4 4 11 12 7 5h1l-1-1-4-4-12-14c2-1 3 0 4 2l16 15a31 31 0 0 0 9 7l1 1a8 8 0 0 1-1 1 10 10 0 0 1-2 1 11 11 0 0 0 1 1h2a1 1 0 0 1 0 1 2 2 0 0 1-1 1 11 11 0 0 1-2 0l-2-1ZM755 907l5-1c2 0 3 0 4 2s0 3-2 4l-3 1c-4 2-6 1-6-4l1-1a8 8 0 0 1 1-1Zm6 2a1 1 0 0 0 0-1l-5 1a3 3 0 0 0 0 2l2 1c1-1 3 0 3-3ZM677 797l4 5c-2 1-4-1-5-2l-20-17a38 38 0 0 1-3-5 1 1 0 0 1 0-1 1 1 0 0 1 2 0l2 3 12 12a3 3 0 0 0 3 1 11 11 0 0 1 2 1l1 3c1 0 2-2 2 0Z"/><path d="M677 797c0-2-1 0-2 0l-1-2a11 11 0 0 0-2-2l-6-8a14 14 0 0 1-2-4 1 1 0 0 1 0-1h2a1 1 0 0 1 0 1c1 3 5 5 6 9a2 2 0 0 0 1 0l6 5a4 4 0 0 1 1 1 8 8 0 0 1 1 2 8 8 0 0 1-2 0 18 18 0 0 1-2-1ZM717 777l-1 1-2-1-3-4-6-14a1 1 0 0 1 0-1v-1a1 1 0 0 1 2 0l3 6a28 28 0 0 0 5 9l2 5ZM702 765l1-1 1 1 1 1c0 3 2 5 4 8a46 46 0 0 1 2 6l-2 2-1-1c1-2-2-4-2-7a63 63 0 0 0-3-6l-1-3ZM680 780l1 1c1 5 4 8 6 12l1 2a2 2 0 0 1-2 0 3 3 0 0 1-2-1l-6-11c-1-2 0-3 2-3ZM683 794h-1l-2-1a65 65 0 0 1-5-6 37 37 0 0 1-3-5v-2a4 4 0 0 1 2 0 5 5 0 0 1 2 2 32 32 0 0 0 6 10l1 2ZM704 786c1-4-2-8-3-11a16 16 0 0 1-1-3c0-1-2-1 0-2 0 0 1-1 2 1a39 39 0 0 0 3 7l1 7a5 5 0 0 1-1 1ZM691 792l-1 2-1-1c-1-3-3-5-3-8a22 22 0 0 1-1-3l1-1a1 1 0 0 1 1 0l4 11ZM701 783a12 12 0 0 1 0 2l-1 1a2 2 0 0 1-1-1l-3-10 1-1 2 1a14 14 0 0 0 2 6 4 4 0 0 1 0 2ZM690 779l1 1c3 2 4 6 5 10a1 1 0 0 1-1 1h-1l-1-1c0-4-2-6-4-9l1-2ZM880 265l-2 11a25 25 0 0 0-1 4 30 30 0 0 1-1 4l-6 18a8 8 0 0 1-1 1 4 4 0 0 1-1 1v-2l4-11c2-3 2-7 3-10l2-11a8 8 0 0 0 1-6v-1h2v2ZM863 283l-1 10-2 10v1l-2 1-1-2c2-3 4-6 3-9 2-5 0-11 1-16l-1-3c0-1-1-2 1-2l1 1 1 9ZM825 302v6l-1 1h-2l-1 2a1 1 0 0 1-1 0v-1c2-4 1-8 1-12a6 6 0 0 1 1-3 8 8 0 0 1 2-2 8 8 0 0 1 1 3v6Zm-1 1v-3l-1 1a9 9 0 0 0 0 2ZM870 269v12l-2 13c-1 4-2 7-5 11h-1v-1a14 14 0 0 1 1-4c3-4 4-8 4-12l1-6 1-7v-6ZM842 307a11 11 0 0 1 0-3l1-3v-15l-2-5v-2a11 11 0 0 1 2 1 2 2 0 0 1 1 1c0 6 2 12 1 18a79 79 0 0 1-2 8ZM850 291l-1 10a4 4 0 0 1-3 4v-3c2-2 2-5 2-8v-10a34 34 0 0 1-1-7v-1l1 1 1 1c-1 5 2 9 1 13ZM839 293v7a42 42 0 0 1-1 5l-1 1-1-1c2-5 1-11 1-16l-1-7 1-1h1l1 5a57 57 0 0 0 0 7ZM856 272v18c-2 3 0 7-2 10v1a7 7 0 0 1-1 1l-1-2c2-5 2-10 2-16a9 9 0 0 1 1-3 6 6 0 0 0-1-6c-1-2 1-2 2-3ZM831 281a36 36 0 0 1 2 6 18 18 0 0 1-1 4v3c2 4 1 8 1 12l-1 1-1-1v-16l-1-5 1-4ZM829 301v6a6 6 0 0 1-1 2l-1-1a4 4 0 0 1 0-2c2-2 1-5 1-8l-2-6 1-2 1 1a6 6 0 0 1 1 4 55 55 0 0 0 0 6ZM817 310v-1a38 38 0 0 0 1-5 27 27 0 0 0-1-5v-1a2 2 0 0 1 1-1l1 1v10l-2 2ZM814 309v-8l1-1h1c0 3 1 6-2 9ZM914 311h-1v-1a9 9 0 0 1 2-2c7-5 11-11 14-18l6-11v-1a1 1 0 0 1 1 0l1 1-3 5-5 11v1l1-1 6-10c1-2 4-4 4-7h1l1 2a13 13 0 0 1-2 3l-8 13-13 15h-1c-2-2-3-1-4 0Z"/><path d="M921 278c2 4 0 8-1 12l-7 13c4-2 5-5 7-7a65 65 0 0 0 6-14 9 9 0 0 1 1-3 1 1 0 0 1 1 0 1 1 0 0 1 1 1c-4 7-5 15-10 21l-7 7a1 1 0 0 1-1-1v-1l-4 3 1-4c3-3 6-6 7-11l1-1c2-5 5-9 5-15ZM950 274a46 46 0 0 1-5 15l-11 11-2 2-1-1 1-3c7-5 12-11 15-17a40 40 0 0 0 1-5 5 5 0 0 1 1-2l1-1ZM916 284a23 23 0 0 1-4 9 16 16 0 0 0-2 5l-4 8-2 3-2 1v-3c4-3 5-5 7-11a13 13 0 0 1 2-4 16 16 0 0 0 3-9l1-2 1 2v1Z"/><path d="m909 288-2 9a71 71 0 0 1-6 9l-3 2a6 6 0 0 1-1 1v-3c4-1 4-4 6-6 2-3 4-7 4-11a2 2 0 0 1 0-1 12 12 0 0 1 1-1Z"/><path d="M903 290c2 2 0 4 0 6l-5 9c-1 0-2 2-3 1s0-2 1-2l6-9 1-5ZM892 306a5 5 0 0 1 1-5 56 56 0 0 0 6-9l2-1v2l-6 8-3 5ZM915 605c2 0 4 0 4 2 0 1-1 4-3 4l-3-1v-4a3 3 0 0 1 2-1Zm0 3v1l2-2h-1a7 7 0 0 0-1 1ZM922 639c0-3-1-5 2-6h4l-1 5a3 3 0 0 1-1 1 34 34 0 0 1-4 0Zm4-5-2 4h1a2 2 0 0 0 1-3 3 3 0 0 0 0-1ZM803 830c-1 1 0 3-2 4l-4 2a3 3 0 0 1-2-1c-2-3 0-8 3-9 2-1 5 1 5 4Zm-3 1a11 11 0 0 0 0-2l-1-1a2 2 0 0 0-1 0c-2 2-1 3-1 5l1 1 1-1a7 7 0 0 0 1-2ZM781 787c2 0 4 2 4 3 0 2-2 4-4 4s-4-2-4-3c0-2 2-4 4-4Zm-1 2-1 1 2 2 1-1-2-2Z"/></svg>